<?xml version="1.0" standalone="no"?><!DOCTYPE svg PUBLIC "-//W3C//DTD SVG 1.1//EN" "http://www.w3.org/Graphics/SVG/1.1/DTD/svg11.dtd" ><svg xmlns="http://www.w3.org/2000/svg"><metadata></metadata><defs><font id="FontForge 2.0 : JQS" horiz-adv-x="1000"><font-face font-family="JQSonU" font-weight="5" font-stretch="normal" units-per-em="1000" panose-1="0 0 0 0 0 0 0 0 0 0" ascent="851" descent="-226" x-height="0" bbox="-70 -218 994 833" underline-thickness="20" underline-position="-133" unicode-range="U+0000-ffe4" /><missing-glyph horiz-adv-x="1000" d="M0 0 l0 782 l686 0 l0 -782 l-686 0 ZM638 48 l0 686 l-590 0 l0 -686 l590 0 Z" /><glyph glyph-name=".null" unicode="~" d="" /><glyph glyph-name="exclam" unicode="!" d="M189 176 l-13 0 l-9 108 q-4 42 -20.5 165 q-16.5 123 -16.5 143 q0 36 11.5 60 q11.5 24 40.5 24 q29 0 41.5 -21 q12.5 -21 12.5 -60 l0 -13 l0 -11 q-2 -8 -2 -12 l-45 -383 ZM183 -9 q-19 0 -34 11 q-19 14 -19 40 q0 24 15 39 q15 15 38 15 q23 0 39 -16 q16 -16 16 -38 q0 -25 -16.5 -38 q-16.5 -13 -38.5 -13 Z" /><glyph glyph-name="numbersign" unicode="#" d="M471 271 l0 -55 l-109 0 l-31 -216 l-58 0 l31 216 l-134 0 l-33 -216 l-58 0 l33 216 l-107 0 l0 55 l116 0 l21 134 l-110 0 l0 55 l118 0 l31 202 l58 0 l-31 -202 l133 0 l30 202 l58 0 l-30 -202 l97 0 l0 -55 l-105 0 l-20 -134 l100 0 ZM333 405 l-133 0 l-21 -134 l134 0 l20 134 Z" /><glyph glyph-name="dollar" unicode="$" d="M425 500 l-15 0 q-14 73 -61 107 q-33 24 -85 30 l0 -246 q90 -51 117 -72 q76 -57 76 -145 q0 -81 -57 -125 q-48 -37 -136 -49 l0 -87 l-34 0 l0 87 q-65 0 -120 19 q-34 12 -66 32 l0 130 l15 0 q33 -153 171 -153 l0 282 q-111 62 -144.5 105 q-33.5 43 -33.5 96 q0 61 41 103 q48 50 137 50 l0 63 l34 0 l0 -63 q72 -9 104.5 -20.5 q32.5 -11.5 56.5 -32.5 l0 -111 ZM229 407 l0 230 q-49 -8 -76 -35 q-27 -27 -27 -70 q0 -36 29 -67 q21 -23 74 -58 ZM264 293 l0 -265 q45 8 69 25 q45 32 45 98 q0 38 -19.5 67 q-19.5 29 -94.5 75 Z" /><glyph glyph-name="percent" unicode="%" d="M663 371 q43 0 68 -16 q41 -26 41 -94 q0 -92 -54 -172 q-60 -89 -146 -89 q-65 0 -96 42 q-27 36 -27 95 q0 83 66 158.5 q66 75.5 148 75.5 ZM676 339 q-64 0 -112 -100 q-39 -81 -39 -133 q0 -28 8 -45 q15 -31 56 -31 q61 0 111 80 q46 73 46 144 q0 37 -20 61 q-20 24 -50 24 ZM634 676 l-385 -689 l-48 0 l349 622 l-2 2 q-24 -14 -40 -19 q-27 -9 -65 -9 q-30 0 -39.5 1.5 q-9.5 1.5 -26.5 8.5 q3 -12 5 -21 q2 -9 2 -24 q0 -89 -54 -168 q-62 -91 -152 -91 q-42 0 -75 30 q-42 38 -42 106 q0 80 63 156 q67 81 152 81 q31 0 49 -8 q11 -5 27 -18.5 q16 -13.5 29 -18.5 q23 -9 57 -9 q57 0 98 22 q23 12 59 46 l39 0 ZM199 323 q60 0 110 73 q50 73 50 157 q0 10 -1 17.5 q-1 7.5 -8 29.5 q-30 7 -44 17 q-23 15 -25 15 q-47 0 -95.5 -84 q-48.5 -84 -48.5 -151 q0 -39 16 -56.5 q16 -17.5 46 -17.5 Z" /><glyph glyph-name="ampersand" unicode="&amp;" d="M281 557 q0 -34 12 -73 q9 -29 28 -68 q57 29 87 66 q30 37 30 78 q0 37 -22.5 60.5 q-22.5 23.5 -56.5 23.5 q-33 0 -55.5 -21.5 q-22.5 -21.5 -22.5 -65.5 ZM711 426 l0 -21 q-43 -6 -61 -19 q-18 -13 -33 -40 l-26 -46 q-27 -47 -40 -67 q-13 -20 -60 -83 q24 -37 70 -66 q41 -26 78 -26 q35 0 58 15 q16 10 38 38 l15 -11 q-10 -40 -56 -78 q-42 -35 -95 -35 q-52 0 -104 34 q-30 20 -66 57 q-45 -39 -81 -58 q-64 -33 -141 -33 q-62 0 -105 29 q-60 41 -60 128 q0 54 32 102 q40 60 125 109 l38 22 q-18 51 -21 59 q-14 43 -14 83 q0 60 38 105 q44 52 115 52 q57 0 96.5 -32.5 q39.5 -32.5 39.5 -87.5 q0 -64 -53 -111 q-32 -28 -102 -61 q30 -59 61 -108.5 q31 -49.5 71 -97.5 q51 66 71 107.5 q20 41.5 20 73.5 q0 26 -16.5 36 q-16.5 10 -47.5 10 l0 21 l216 0 ZM134 180 q0 -57 38 -99 q38 -42 91 -42 q27 0 53 10 q41 16 88 55 q-42 51 -82 115 q-31 51 -70 124 q-54 -35 -76 -59 q-42 -46 -42 -104 Z" /><glyph glyph-name="asterisk" unicode="*" d="M69 383 q0 35 51 46 q79 17 114 42 l-11 7 q-24 15 -102 34 q-52 12 -52 45 q0 6 3 13 q9 21 30 21 q21 0 39 -19 q62 -66 100 -86 l0 13 q0 46 -12.5 84.5 q-12.5 38.5 -12.5 53.5 q0 25 16 34 q9 5 21 5 q18 0 26 -12.5 q8 -12.5 8 -26.5 q0 -5 -18 -71 q-9 -33 -9 -56 l0 -26 l7 4 q29 16 59 49 q52 56 69 56 q12 0 24 -8.5 q12 -8.5 12 -27.5 q0 -34 -43 -43 q-74 -15 -120 -44 l8 -5 q32 -20 108 -36 q48 -10 48 -43 q0 -17 -10.5 -26.5 q-10.5 -9.5 -25.5 -9.5 q-23 0 -58 41 q-42 50 -71 62 l-7 3 l0 -7 q0 -50 8 -80 l20 -62 q0 -16 -10.5 -29 q-10.5 -13 -28.5 -13 q-14 0 -24.5 10.5 q-10.5 10.5 -10.5 28.5 q0 7 18 70 q10 35 10 55 q0 13 -1 20 l-1 7 q-35 -23 -40 -27 q-14 -10 -36 -35 q-26 -29 -35.5 -36 q-9.5 -7 -25.5 -7 q-17 0 -25.5 10.5 q-8.5 10.5 -8.5 21.5 Z" /><glyph glyph-name="plus" unicode="+" d="M249 286 l0 220 l66 0 l0 -220 l219 0 l0 -66 l-219 0 l0 -220 l-66 0 l0 220 l-219 0 l0 66 l219 0 Z" /><glyph glyph-name="hyphen" unicode="-" d="M39 257 l246 0 l0 -63 l-246 0 l0 63 Z" /><glyph glyph-name="zero" unicode="0" d="M250 650 q-64 0 -97 -82 q-33 -82 -33 -237 q0 -118 17 -190 q31 -129 113 -129 q64 0 97 79.5 q33 79.5 33 239.5 q0 112 -17 185 q-31 134 -113 134 ZM68 547 q60 129 182 129 q122 0 182 -128 q44 -94 44 -217 q0 -125 -44 -218 q-60 -127 -182 -127 q-122 0 -182 127 q-44 93 -44 218 q0 122 44 216 Z" /><glyph glyph-name="one" unicode="1" d="M118 0 l0 15 q51 0 69 11 q26 16 26 67 l0 453 q0 22 -4 31 q-7 16 -30 16 q-11 0 -17 -2 q-23 -9 -51 -20 l0 14 l180 91 l8 -2 l0 -600 q0 -35 19 -47 q19 -12 76 -12 l0 -15 l-276 0 Z" /><glyph glyph-name="two" unicode="2" d="M475 137 l-55 -137 l-390 0 l0 12 l178 189 q130 139 130 258 q0 52 -27 90 q-38 53 -116 53 q-60 0 -97 -44 q-21 -25 -46 -86 l-21 5 q21 105 84 156 q53 43 128 43 q72 0 126.5 -49.5 q54.5 -49.5 54.5 -130.5 q0 -70 -47 -144 q-26 -41 -81 -100 l-168 -176 l239 0 q32 0 47 9 q20 12 48 57 l13 -5 Z" /><glyph glyph-name="three" unicode="3" d="M153 330 l-1 13 q78 25 117 60 q49 44 49 109 q0 42 -27 71 q-30 33 -83 33 q-46 0 -82 -25.5 q-36 -25.5 -66 -80.5 l-15 4 q27 89 88 130 q47 32 108 32 q85 0 126 -52 q30 -38 30 -83 q0 -42 -21.5 -74.5 q-21.5 -32.5 -71.5 -65.5 q69 -29 98 -74 q29 -45 29 -111 q0 -105 -78 -167.5 q-78 -62.5 -199 -62.5 q-52 0 -81.5 15 q-29.5 15 -29.5 42 q0 19 11.5 27 q11.5 8 27.5 8 q21 0 66 -28 q45 -28 77 -28 q65 0 102 49 q32 43 32 105 q0 30 -14 63 q-20 48 -62 69 q-26 14 -51 18 q-25 4 -79 4 Z" /><glyph glyph-name="four" unicode="4" d="M472 231 l0 -64 l-102 0 l0 -167 l-77 0 l0 167 l-281 0 l0 64 l314 445 l44 0 l0 -445 l102 0 ZM292 231 l0 340 l-240 -340 l240 0 Z" /><glyph glyph-name="five" unicode="5" d="M181 583 l-42 -85 q86 -15 124 -29 q69 -25 109 -74 q33 -39 43.5 -71.5 q10.5 -32.5 10.5 -98.5 q0 -101 -75 -170 q-75 -69 -193 -69 q-60 0 -93 16 q-33 16 -33 44 q0 19 10 29 q10 10 30 10 q30 0 60 -19 q67 -43 85 -43 q55 0 94 43 q45 49 45 135 q0 107 -102 165 q-81 46 -183 46 q-4 0 -6 4 q-2 4 0 9 l109 237 l209 0 q18 0 27 6.5 q9 6.5 19 19.5 l9 -7 l-38 -89 q-1 -4 -5 -6 q-6 -3 -18 -3 l-196 0 Z" /><glyph glyph-name="six" unicode="6" d="M446 684 l2 -16 q-126 -20 -208 -107 q-72 -77 -88 -178 q30 18 51 28 q36 17 81 17 q82 0 133 -55 q51 -55 51 -155 q0 -80 -40 -143 q-57 -89 -174 -89 q-95 0 -154 73 q-66 82 -66 232 q0 157 115 273 q119 120 297 120 ZM242 382 q-28 0 -52.5 -7.5 q-24.5 -7.5 -42.5 -24.5 q-9 -9 -14.5 -30 q-5.5 -21 -5.5 -64 q0 -119 43 -184 q38 -58 99 -58 q49 0 79 41.5 q30 41.5 30 123.5 q0 89 -28 140 q-34 63 -108 63 Z" /><glyph glyph-name="seven" unicode="7" d="M449 662 l0 -16 l-212 -654 l-65 0 l198 596 l-217 0 q-44 0 -70 -21 q-16 -13 -46 -60 l-17 8 l43 103 l16 44 l370 0 Z" /><glyph glyph-name="eight" unicode="8" d="M212 312 q-37 -30 -52 -53 q-28 -43 -28 -103 q0 -60 34 -101 q34 -41 93 -41 q49 0 79.5 29.5 q30.5 29.5 30.5 82.5 q0 61 -56 110 q-24 21 -101 76 ZM56 146 q0 71 49 120 q18 18 81 66 q-61 54 -76 70 q-48 52 -48 119 q0 71 61 115 q55 40 126 40 q82 0 130 -42 q45 -39 45 -100 q0 -61 -46 -105 q-25 -24 -88 -58 q94 -67 128 -121 q27 -43 27 -100 q0 -57 -37 -101 q-53 -63 -162 -63 q-88 0 -141 50 q-49 46 -49 110 ZM136 547 q0 -50 49 -100 q25 -26 76 -58 q42 28 61 51 q33 41 33 99 q0 45 -27 75 q-30 34 -85 34 q-52 0 -79.5 -30.5 q-27.5 -30.5 -27.5 -70.5 Z" /><glyph glyph-name="nine" unicode="9" d="M59 -22 l-3 20 q119 20 200 103 q77 79 103 189 l-2 2 q-32 -27 -70.5 -41 q-38.5 -14 -76.5 -14 q-91 0 -140 68 q-40 55 -40 130 q0 102 57.5 171.5 q57.5 69.5 152.5 69.5 q94 0 156.5 -77.5 q62.5 -77.5 62.5 -202.5 q0 -169 -104 -288 q-114 -130 -296 -130 ZM362 355 l0 39 q0 129 -31 189 q-34 65 -102 65 q-58 0 -85 -56 q-22 -45 -22 -119 q0 -75 24 -125 q33 -68 104 -68 q24 0 52 11 q28 11 44 23.5 q16 12.5 16 40.5 Z" /><glyph glyph-name="at" unicode="@" d="M572 399 q0 65 -43 65 q-43 0 -86 -51 q-51 -60 -51 -142 q0 -43 17.5 -63.5 q17.5 -20.5 45.5 -20.5 q35 0 69 53 q39 62 48 159 ZM688 73 l12 -30 q-58 -26 -98 -39 q-58 -18 -111 -18 q-179 0 -285 114 q-90 96 -90 215 q0 158 106.5 259.5 q106.5 101.5 258.5 101.5 q139 0 233.5 -84.5 q94.5 -84.5 94.5 -210.5 q0 -86 -48 -157 q-55 -81 -138 -81 q-43 0 -69 30 q-20 23 -20 41 q-15 -20 -41 -39 q-38 -27 -76 -31 q-35 0 -58 19 q-38 31 -38 105 q0 72 47 146 q59 94 150 94 q30 0 48 -17 q8 -8 23 -35 l10 38 l69 0 l-65 -254 q-2 -8 -2 -20 q0 -18 8.5 -31 q8.5 -13 29.5 -13 q56 0 95 69 q35 62 35 135 q0 96 -75 175 q-85 90 -213 90 q-121 0 -198 -86 q-83 -93 -83 -254 q0 -113 79 -194 q84 -86 211 -86 q60 0 111 14 q32 9 87 34 Z" /><glyph glyph-name="A" unicode="a" d="M706 19 l0 -19 l-255 0 l0 19 q36 0 49 5 q21 8 21 33 q0 9 -4.5 24 q-4.5 15 -14.5 39 l-41 96 l-262 0 l-46 -117 q-8 -21 -8 -38 q0 -27 26 -37 q13 -5 42 -5 l0 -19 l-198 0 l0 19 q18 0 29.5 6 q11.5 6 21.5 16 q15 16 38 64 q12 25 35 78 l208 491 l20 0 l249 -568 q25 -56 40.5 -71.5 q15.5 -15.5 49.5 -15.5 ZM216 257 l231 0 l-116 275 l-115 -275 Z" /><glyph glyph-name="B" unicode="b" d="M17 643 l0 19 l280 0 q101 0 163 -26 q99 -41 99 -143 q0 -72 -49 -109 q-28 -21 -84 -35 q74 -17 116 -54 q51 -45 51 -119 q0 -81 -67 -130 q-63 -46 -175 -46 l-334 0 l0 19 q61 0 78.5 17.5 q17.5 17.5 17.5 72.5 l0 444 q0 56 -17 73 q-17 17 -79 17 ZM215 326 l0 -248 q0 -26 15 -33.5 q15 -7.5 61 -7.5 q75 0 118 21 q69 34 69 122 q0 56 -31 90 q-25 27 -70 41 q-27 8 -61.5 11.5 q-34.5 3.5 -100.5 3.5 ZM215 595 l0 -230 l95 1 q52 0 84 15 q63 29 63 106 q0 79 -61 113 q-44 25 -114 25 l-45 -1 q-13 0 -17.5 -8 q-4.5 -8 -4.5 -21 Z" /><glyph glyph-name="C" unicode="c" d="M620 451 l-23 0 q-20 84 -73 132 q-58 53 -147 53 q-39 0 -79 -15.5 q-40 -15.5 -71 -45.5 q-36 -35 -56 -83 q-27 -65 -27 -163 q0 -149 75 -229 q66 -70 170 -70 q61 0 115.5 23.5 q54.5 23.5 110.5 77.5 l18 -18 q-15 -17 -29 -33 q-40 -38 -89 -61 q-70 -33 -153 -33 q-136 0 -227 79 q-107 93 -107 266 q0 160 105 256 q97 89 235 89 q44 0 89 -10 q43 -12 87 -23 q17 0 29.5 8 q12.5 8 16.5 25 l21 0 l9 -225 Z" /><glyph glyph-name="D" unicode="d" d="M16 0 l0 19 q56 0 72 18 q16 18 16 72 l0 444 q0 57 -15.5 73.5 q-15.5 16.5 -72.5 16.5 l0 19 l270 0 q185 0 289 -82 q110 -87 110 -251 q0 -127 -77 -214 q-102 -115 -308 -115 l-284 0 ZM206 586 l0 -508 q0 -25 12 -33 q12 -8 48 -8 q65 0 108 10 q86 20 136 76 q66 73 66 205 q0 69 -21 125.5 q-21 56.5 -72 101.5 q-40 36 -85 51 q-56 19 -145 19 q-31 0 -41 -12 q-6 -7 -6 -27 Z" /><glyph glyph-name="E" unicode="e" d="M597 169 l-45 -169 l-540 0 l0 19 q50 0 68.5 17.5 q18.5 17.5 18.5 72.5 l0 444 q0 57 -18 73.5 q-18 16.5 -69 16.5 l0 19 l531 0 l3 -143 l-25 0 q-11 66 -39.5 85.5 q-28.5 19.5 -112.5 19.5 l-135 0 q-19 0 -26 -5.5 q-7 -5.5 -7 -28.5 l0 -222 l154 0 q64 0 82.5 18.5 q18.5 18.5 27.5 76.5 l23 0 l0 -232 l-23 0 q-9 60 -28.5 77.5 q-19.5 17.5 -81.5 17.5 l-154 2 l0 -248 q0 -31 19.5 -36.5 q19.5 -5.5 129.5 -5.5 q95 0 140 27 q45 27 79 104 l28 0 Z" /><glyph glyph-name="F" unicode="f" d="M479 231 l-23 0 q-8 61 -29.5 78 q-21.5 17 -80.5 17 l-145 2 l0 -219 q0 -56 18 -73 q18 -17 73 -17 l0 -19 l-280 0 l0 19 q55 0 71 19 q16 19 16 82 l0 433 q0 57 -18 73.5 q-18 16.5 -69 16.5 l0 19 l531 0 l3 -143 l-25 0 q-11 66 -39.5 85.5 q-28.5 19.5 -112.5 19.5 l-136 0 q-20 0 -26 -6 q-6 -6 -6 -28 l0 -222 l145 0 q61 0 81.5 18.5 q20.5 18.5 28.5 76.5 l23 0 l0 -232 Z" /><glyph glyph-name="G" unicode="g" d="M709 354 l0 -18 q-40 -4 -51 -13 q-19 -16 -19 -64 l0 -201 q0 -13 -85 -42.5 q-85 -29.5 -158 -29.5 q-82 0 -151 24 q-79 27 -130 83 q-43 47 -61 96 q-22 60 -22 152 q0 133 91 230 q99 105 251 105 q49 0 92 -10 q43 -12 87 -23 q16 0 30 9.5 q14 9.5 17 23.5 l22 0 l8 -211 l-23 0 q-35 94 -95 135 q-53 36 -124 36 q-91 0 -156 -63 q-86 -84 -86 -253 q0 -135 70.5 -214.5 q70.5 -79.5 188.5 -79.5 q53 0 95 16.5 q42 16.5 42 42.5 l0 162 q0 59 -17 74 q-17 15 -71 15 l0 18 l255 0 Z" /><glyph glyph-name="H" unicode="h" d="M19 0 l0 19 q59 0 75 22 q13 18 13 79 l0 433 q0 56 -16 73 q-16 17 -72 17 l0 19 l278 0 l0 -19 q-55 0 -71.5 -17.5 q-16.5 -17.5 -16.5 -72.5 l0 -194 l303 0 l0 194 q0 56 -16 73 q-16 17 -72 17 l0 19 l278 0 l0 -19 q-55 0 -71.5 -17.5 q-16.5 -17.5 -16.5 -72.5 l0 -444 q0 -53 15.5 -71.5 q15.5 -18.5 72.5 -18.5 l0 -19 l-278 0 l0 19 q59 0 75 22 q13 18 13 79 l0 195 l-303 0 l0 -206 q0 -53 15.5 -71.5 q15.5 -18.5 72.5 -18.5 l0 -19 l-278 0 Z" /><glyph glyph-name="I" unicode="i" d="M18 0 l0 19 q62 0 79.5 17.5 q17.5 17.5 17.5 72.5 l0 444 q0 57 -17.5 73.5 q-17.5 16.5 -79.5 16.5 l0 19 l297 0 l0 -19 q-58 0 -78 -16.5 q-20 -16.5 -20 -73.5 l0 -444 q0 -56 20 -73 q20 -17 78 -17 l0 -19 l-297 0 Z" /><glyph glyph-name="J" unicode="j" d="M278 553 l0 -370 q0 -96 -45.5 -146.5 q-45.5 -50.5 -122.5 -50.5 q-28 0 -48.5 7.5 q-20.5 7.5 -29.5 17.5 q-22 25 -22 48 q0 16 13 32.5 q13 16.5 33 16.5 q38 0 56 -56 q9 -28 25 -28 q19 0 29 14.5 q10 14.5 10 51.5 l0 463 q0 54 -17 72 q-17 18 -76 18 l0 19 l287 0 l0 -19 q-58 0 -75 -17 q-17 -17 -17 -73 Z" /><glyph glyph-name="K" unicode="k" d="M413 643 l0 19 l262 0 l0 -19 q-48 0 -73 -12.5 q-25 -12.5 -79 -65.5 l-190 -188 l233 -250 q98 -108 157 -108 l0 -19 l-305 0 l0 19 q38 0 45 1 q25 4 25 24 q0 25 -73 108 q-23 26 -57 60 l-106 105 l-26 -21 l0 -187 q0 -55 16 -72.5 q16 -17.5 74 -17.5 l0 -19 l-282 0 l0 19 q58 0 74 19 q16 19 16 82 l0 433 q0 57 -18 73.5 q-18 16.5 -72 16.5 l0 19 l284 0 l0 -19 q-58 0 -75 -17 q-17 -17 -17 -73 l0 -205 q175 158 212 195 q43 44 43 69 q0 19 -15 25 q-15 6 -53 6 Z" /><glyph glyph-name="L" unicode="l" d="M294 662 l0 -19 q-54 0 -73.5 -16.5 q-19.5 -16.5 -19.5 -73.5 l0 -473 q0 -28 18 -34.5 q18 -6.5 83 -6.5 q127 0 170 18 q61 25 101 117 l25 0 l-48 -174 l-538 0 l0 19 q50 0 68.5 17.5 q18.5 17.5 18.5 72.5 l0 444 q0 57 -18 73.5 q-18 16.5 -69 16.5 l0 19 l282 0 Z" /><glyph glyph-name="M" unicode="m" d="M863 662 l0 -19 q-50 0 -68.5 -16.5 q-18.5 -16.5 -18.5 -73.5 l0 -444 q0 -56 18 -73 q18 -17 69 -17 l0 -19 l-280 0 l0 19 q59 0 75 18.5 q16 18.5 16 82.5 l0 449 l-256 -569 l-14 0 l-249 546 l-2 -399 q0 -77 19 -102.5 q19 -25.5 75 -25.5 l0 -19 l-235 0 l0 19 q59 0 78 24 q19 24 19 104 l0 406 q0 57 -18.5 73.5 q-18.5 16.5 -76.5 16.5 l0 19 l198 0 l231 -505 l221 505 l199 0 Z" /><glyph glyph-name="N" unicode="n" d="M707 662 l0 -19 q-56 -6 -71 -22 q-24 -25 -24 -106 l0 -526 l-17 0 l-440 548 l-2 -390 q0 -77 19 -102.5 q19 -25.5 75 -25.5 l0 -19 l-235 0 l0 19 q59 0 78 24 q19 24 19 104 l0 441 q-29 35 -47.5 45 q-18.5 10 -49.5 10 l0 19 l171 0 l383 -481 l2 334 q0 82 -22 107 q-18 21 -74 21 l0 19 l235 0 Z" /><glyph glyph-name="O" unicode="o" d="M361 -14 q-139 0 -231 92 q-96 96 -96 252 q0 163 102 259 q92 87 225 87 q134 0 225 -86 q102 -96 102 -260 q0 -156 -95 -252 q-91 -92 -232 -92 ZM213 94 q57 -72 148 -72 q91 0 148 72 q65 82 65 237 q0 158 -68 240 q-57 69 -145 69 q-88 0 -145 -69 q-68 -82 -68 -240 q0 -155 65 -237 Z" /><glyph glyph-name="P" unicode="p" d="M16 643 l0 19 l264 0 q113 0 183 -42 q79 -47 79 -138 q0 -51 -24 -91 q-13 -21 -37 -44 q-33 -31 -82.5 -45 q-49.5 -14 -129.5 -14 l-67 3 l0 -182 q0 -55 18.5 -72.5 q18.5 -17.5 75.5 -17.5 l0 -19 l-280 0 l0 19 q58 0 73 23 q11 17 11 78 l0 433 q0 54 -14 69.5 q-14 15.5 -70 20.5 ZM202 591 l0 -260 l60 -3 q45 0 70 7 q101 28 101 145 q0 71 -48 108 q-48 37 -142 37 q-26 0 -33.5 -5 q-7.5 -5 -7.5 -29 Z" /><glyph glyph-name="Q" unicode="q" d="M701 -159 l0 -18 l-47 -1 q-110 0 -192 27 q-94 31 -150 95 l-47 55 q-88 24 -150 95 q-81 93 -81 236 q0 162 102 259 q92 87 225 87 q134 0 225 -86 q102 -96 102 -260 q0 -151 -90 -246 q-75 -79 -172 -91 q6 -11 35 -41 q29 -30 44 -42 q40 -32 81 -48 q52 -21 115 -21 ZM506 571 q-57 69 -145 69 q-88 0 -145 -69 q-68 -82 -68 -241 q0 -154 65 -236 q57 -72 148 -72 q91 0 148 71 q65 81 65 237 q0 159 -68 241 Z" /><glyph glyph-name="R" unicode="r" d="M659 19 l0 -19 l-161 0 l-238 308 l-56 -2 l0 -197 q0 -53 16.5 -71.5 q16.5 -18.5 73.5 -18.5 l0 -19 l-277 0 l0 19 q57 0 73 22 q12 17 12 79 l0 433 q0 54 -15.5 69.5 q-15.5 15.5 -69.5 20.5 l0 19 l276 0 q98 0 160 -29 q94 -44 94 -146 q0 -68 -42.5 -108.5 q-42.5 -40.5 -138.5 -59.5 l206 -253 q19 -24 38 -35.5 q19 -11.5 49 -11.5 ZM204 589 l0 -246 q99 0 148 19 q86 33 86 127 q0 67 -43.5 101.5 q-43.5 34.5 -128.5 34.5 q-39 0 -50.5 -7 q-11.5 -7 -11.5 -29 Z" /><glyph glyph-name="S" unicode="s" d="M447 676 l22 -213 l-25 0 q-14 69 -60 117 q-52 55 -126 55 q-41 0 -71 -24.5 q-30 -24.5 -30 -68.5 q0 -61 86 -118 q80 -51 161 -102 q87 -68 87 -155 q0 -71 -51 -122 q-59 -59 -160 -59 q-44 0 -95 17 q-51 17 -60 17 q-15 0 -23 -10 q-8 -10 -8 -23 l-22 0 l-30 212 l23 0 q28 -68 59 -106 q59 -71 146 -71 q57 0 88.5 33.5 q31.5 33.5 31.5 77.5 q0 46 -26 77 q-33 39 -137 100 q-82 47 -112 80 q-44 48 -44 116 q0 81 56 128 q50 42 125 42 q31 0 66 -11 q35 -11 73 -23 q18 0 27 13 q6 8 8 21 l21 0 Z" /><glyph glyph-name="T" unicode="t" d="M452 19 l0 -19 l-292 0 l0 19 q64 0 81 22 q13 17 13 79 l0 500 l-54 0 q-83 0 -113 -23.5 q-30 -23.5 -46 -104.5 l-24 0 l6 170 l564 0 l6 -170 l-24 0 q-15 81 -45 104.5 q-30 23.5 -114 23.5 l-54 0 l0 -511 q0 -53 17.5 -71.5 q17.5 -18.5 78.5 -18.5 Z" /><glyph glyph-name="U" unicode="u" d="M705 662 l0 -19 q-60 -6 -77 -28 q-17 -22 -17 -100 l0 -261 q0 -108 -32 -164 q-59 -104 -227 -104 q-159 0 -217 105 q-31 56 -31 150 l0 312 q0 57 -16.5 73.5 q-16.5 16.5 -73.5 16.5 l0 19 l283 0 l0 -19 q-58 0 -74.5 -17.5 q-16.5 -17.5 -16.5 -72.5 l0 -320 q0 -84 21 -125 q40 -78 153 -78 q56 0 99 21.5 q43 21.5 65 57.5 q11 18 17 49 q6 31 6 87 l0 270 q0 79 -19.5 103.5 q-19.5 24.5 -74.5 24.5 l0 19 l232 0 Z" /><glyph glyph-name="V" unicode="v" d="M697 662 l0 -19 q-35 0 -52 -17 q-17 -17 -40 -76 l-222 -561 l-15 0 l-246 549 q-29 65 -50 85 q-21 20 -56 20 l0 19 l266 0 l0 -19 q-44 0 -59.5 -6.5 q-15.5 -6.5 -15.5 -30.5 q0 -14 16.5 -51 q16.5 -37 24.5 -56 l151 -338 l147 367 q6 19 13 39 q6 22 6 30 q0 28 -19.5 37 q-19.5 9 -53.5 9 l0 19 l205 0 Z" /><glyph glyph-name="W" unicode="w" d="M932 662 l0 -19 q-37 -6 -52.5 -18.5 q-15.5 -12.5 -26.5 -42.5 q-33 -90 -71 -193 q-49 -134 -72 -201 q-37 -108 -65 -199 l-15 0 q-18 52 -47 131 q-21 56 -60 157 q-13 34 -53 135 l-154 -423 l-15 0 q-38 114 -101 288 q-53 146 -92 249 q-21 55 -31 72 q-24 41 -72 45 l0 19 l245 0 l0 -19 q-65 0 -65 -34 q0 -11 2 -19 q2 -8 9 -25 l144 -376 l107 282 l-33 82 q-24 60 -42 75 q-18 15 -59 15 l0 19 l267 0 l0 -19 q-34 0 -50 -5 q-27 -9 -27 -33 q0 -9 8.5 -31.5 q8.5 -22.5 18.5 -46.5 l132 -341 l125 339 q7 17 11.5 37 q4.5 20 4.5 35 q0 26 -17.5 34.5 q-17.5 8.5 -51.5 11.5 l0 19 l198 0 Z" /><glyph glyph-name="X" unicode="x" d="M696 662 l0 -19 q-44 0 -68 -14 q-31 -18 -81 -80 l-146 -182 l192 -274 q30 -43 50.5 -56.5 q20.5 -13.5 60.5 -17.5 l0 -19 l-297 0 l0 19 q35 0 46 2 q31 5 31 32 q0 12 -19 45 q-13 22 -32 50 l-95 140 l-119 -148 q-25 -31 -34 -44 q-18 -26 -18 -40 q0 -21 21 -29 q21 -8 55 -8 l0 -19 l-233 0 l0 19 q45 0 79 35 q11 11 66 79 l157 193 l-109 160 q-72 105 -107 133 q-25 20 -74 24 l0 19 l302 0 l0 -19 q-40 0 -46 -1 q-30 -5 -30 -31 q0 -15 18.5 -47 q18.5 -32 66.5 -101 l42 -59 l113 138 q12 16 22 29 q18 25 18 39 q0 21 -18.5 27 q-18.5 6 -51.5 6 l0 19 l238 0 Z" /><glyph glyph-name="Y" unicode="y" d="M703 662 l0 -19 q-45 -5 -72.5 -30.5 q-27.5 -25.5 -65.5 -83.5 l-148 -226 l0 -194 q0 -56 18 -73 q18 -17 85 -17 l0 -19 l-306 0 l0 19 q69 0 87 22 q14 17 14 79 l0 174 l-131 192 q-72 106 -102 133 q-23 21 -60 24 l0 19 l280 0 l0 -19 q-30 0 -50.5 -3.5 q-20.5 -3.5 -20.5 -27.5 q0 -8 5.5 -21 q5.5 -13 11.5 -22 l148 -222 l143 226 q8 13 11 19.5 q3 6.5 3 17.5 q0 21 -19 27 q-19 6 -50 6 l0 19 l219 0 Z" /><glyph glyph-name="Z" unicode="z" d="M574 176 l23 0 l-24 -176 l-564 0 l0 15 l437 609 l-221 0 q-96 0 -133 -41 q-22 -24 -35 -92 l-26 0 l20 171 l526 0 l0 -15 l-432 -609 l257 0 q88 0 127 41 q23 25 45 97 Z" /><glyph glyph-name="asciicircum" unicode="^" d="M92 297 l-68 0 l181 365 l60 0 l181 -365 l-68 0 l-143 289 l-143 -289 Z" /><glyph glyph-name="underscore" unicode="_" d="M500 -125 l-500 0 l0 50 l500 0 l0 -50 Z" /><glyph glyph-name="grave" unicode="`" d="M242 507 l-40 0 l-154 97 q-13 9 -19 16 q-10 12 -10 27 q0 6 1 9 q7 22 31 22 q14 0 18 -2 q7 -3 26 -21 l147 -148 Z" /><glyph glyph-name="a" unicode="a" d="M287 123 l0 145 q-99 -33 -137 -76 q-25 -28 -25 -64 q0 -36 19 -58 q19 -22 47 -22 q15 0 33 6 q18 6 29 12 q22 10 28 21.5 q6 11.5 6 35.5 ZM442 66 l0 -26 q-27 -32 -54 -43 q-17 -7 -35 -7 q-25 0 -39 9 q-26 17 -26 64 q-37 -33 -65 -49 q-42 -24 -80 -24 q-43 0 -74.5 28 q-31.5 28 -31.5 76 q0 68 64 112 q44 30 186 86 l0 61 q0 47 -27 68 q-20 15 -50 15 q-27 0 -49 -13.5 q-22 -13.5 -22 -35.5 q0 -10 1.5 -20.5 q1.5 -10.5 3.5 -18.5 q0 -17 -13 -30 q-13 -13 -32 -13 q-21 0 -32 14.5 q-11 14.5 -11 29.5 q0 37 38 70 q47 41 125 41 q97 0 130 -57 q19 -33 19 -103 l0 -195 q0 -31 4.5 -44.5 q4.5 -13.5 24.5 -13.5 q14 0 24 5 q10 5 21 14 Z" /><glyph glyph-name="b" unicode="b" d="M153 322 l0 -252 q0 -23 38 -37 q30 -11 58 -11 q76 0 108 64 q23 46 23 115 q0 80 -29 133 q-34 63 -98 63 q-33 0 -62 -16 q-38 -21 -38 -59 ZM69 54 l0 519 q0 29 -5 37 q-9 14 -39 14 l-22 -1 l0 16 q71 19 85 23.5 q14 4.5 60 20.5 l5 -2 l0 -302 q8 23 43 49 q44 32 94 32 q85 0 134 -71 q44 -63 44 -151 q0 -87 -52 -157 q-68 -91 -192 -91 q-44 0 -96 18 q-59 21 -59 46 Z" /><glyph glyph-name="c" unicode="c" d="M398 156 l14 -9 q-40 -84 -88.5 -120.5 q-48.5 -36.5 -111.5 -36.5 q-70 0 -123 52 q-64 63 -64 171 q0 116 71 185 q64 62 153 62 q27 0 56 -8.5 q29 -8.5 50 -23 q21 -14.5 32 -34 q11 -19.5 11 -35.5 q0 -19 -11.5 -31.5 q-11.5 -12.5 -34.5 -12.5 q-19 0 -31.5 13 q-12.5 13 -17.5 33 l-6 22 q-7 27 -16 35 q-14 13 -50 13 q-43 0 -78 -33 q-51 -48 -51 -145 q0 -85 44 -138 q44 -53 109 -53 q49 0 86 28 q26 20 57 66 Z" /><glyph glyph-name="d" unicode="d" d="M340 102 l0 230 q-5 48 -35 74 q-30 26 -68 26 q-49 0 -83 -41 q-41 -50 -41 -144 q0 -103 44 -158 q38 -47 94 -47 q33 0 58 16.5 q25 16.5 31 43.5 ZM491 58 l0 -16 l-147 -52 l-4 3 l0 61 q-26 -34 -59.5 -49 q-33.5 -15 -71.5 -15 q-83 0 -132.5 61 q-49.5 61 -49.5 163 q0 99 61.5 172.5 q61.5 73.5 145.5 73.5 q33 0 56 -9.5 q23 -9.5 50 -33.5 l0 156 q0 29 -5 37 q-9 14 -39 14 l-24 -1 l0 16 q51 13 77.5 21 q26.5 8 69.5 23 l5 -2 l0 -567 q0 -35 8 -43 q12 -13 59 -13 Z" /><glyph glyph-name="e" unicode="e" d="M408 164 l16 -7 q-17 -52 -55 -95 q-64 -72 -157 -72 q-85 0 -136 59 q-51 59 -51 165 q0 125 72 192 q58 54 132 54 q75 0 119 -42 q49 -46 57 -141 l-311 0 q0 -120 54 -175 q42 -43 105 -43 q58 0 102 38 q25 22 53 67 ZM97 309 l206 0 q-8 52 -21 75 q-23 40 -75 40 q-45 0 -71.5 -25.5 q-26.5 -25.5 -38.5 -89.5 Z" /><glyph glyph-name="f" unicode="f" d="M309 450 l0 -32 l-122 0 l0 -314 q0 -52 12 -67 q18 -22 81 -22 l0 -15 l-260 0 l0 15 q51 0 67 16 q16 16 16 73 l0 314 l-82 0 l0 32 l82 0 q0 87 22 137 q42 96 158 96 q43 0 71.5 -17.5 q28.5 -17.5 28.5 -43.5 q0 -20 -13 -31 q-13 -11 -30 -11 q-16 0 -55 51 q-18 24 -39 24 q-36 0 -50 -30 q-10 -22 -10 -59 l0 -116 l123 0 Z" /><glyph glyph-name="g" unicode="g" d="M98 -90 q0 -28 32 -47 q40 -24 118 -24 q86 0 135.5 27.5 q49.5 27.5 49.5 69.5 q0 31 -29.5 40 q-29.5 9 -93.5 9 q-76 0 -98 2 q-22 2 -65 11 q-22 -26 -29 -36 q-20 -28 -20 -52 ZM152 342 q0 -70 22 -114 q27 -54 82 -54 q34 0 53.5 25.5 q19.5 25.5 19.5 70.5 q0 68 -31 118 q-27 44 -71 44 q-32 0 -51 -19 q-24 -23 -24 -71 ZM470 388 l-83 0 q10 -23 14.5 -41 q4.5 -18 4.5 -51 q0 -73 -58 -114 q-46 -33 -101 -33 l-54 5 q-15 -2 -37.5 -25 q-22.5 -23 -22.5 -38 q0 -15 23.5 -21 q23.5 -6 54.5 -6 l129 -6 q54 0 85 -26 q36 -31 36 -81 q0 -77 -94 -127 q-79 -42 -162 -42 q-77 0 -127 28 q-50 28 -50 69 q0 30 30 64 q24 27 68 58 q-30 15 -37 20 q-16 13 -16 33 q0 16 11 31 q18 25 78 78 q-93 41 -93 130 q0 82 57 128 q49 39 115 39 q23 0 43.5 -5.5 q20.5 -5.5 53.5 -17.5 q15 -6 28 -8 q13 -2 27 -2 l77 0 l0 -39 Z" /><glyph glyph-name="h" unicode="h" d="M487 15 l0 -15 l-212 0 l0 15 q41 4 52 16 q16 17 16 71 l0 198 q0 53 -18 79.5 q-18 26.5 -59 26.5 q-25 0 -52 -14 q-27 -14 -57 -49 l0 -241 q0 -54 15 -70 q12 -13 53 -17 l0 -15 l-216 0 l0 15 q42 5 53 19 q11 14 11 68 l0 471 q0 29 -5 37 q-9 14 -39 14 l-19 -1 l0 16 l66 19 q32 9 76 25 l5 -3 l0 -302 q29 40 65 61 q36 21 81 21 q62 0 93 -39 q31 -39 31 -120 l0 -199 q0 -52 10.5 -66 q10.5 -14 49.5 -21 Z" /><glyph glyph-name="i" unicode="i" d="M16 0 l0 15 q49 0 64 15 q15 15 15 72 l0 232 q0 39 -11 52 q-7 8 -24 8 q-10 0 -20 -1 q-1 0 -20 -3 l0 15 q47 15 77 26 q52 20 78 29 l4 -3 l0 -355 q0 -53 12.5 -70 q12.5 -17 61.5 -17 l0 -15 l-237 0 ZM78 632 q0 18 11 32 q15 19 39 19 q22 0 37 -15 q15 -15 15 -36 q0 -22 -14.5 -36.5 q-14.5 -14.5 -37.5 -14.5 q-24 0 -37 17 q-13 17 -13 34 Z" /><glyph glyph-name="j" unicode="j" d="M109 -45 l0 379 q0 39 -11 52 q-7 8 -24 8 q-10 0 -22.5 -1.5 q-12.5 -1.5 -19.5 -2.5 l0 16 q78 24 156 54 l5 -3 l0 -457 q0 -98 -36 -153 q-43 -65 -134 -65 q-38 0 -65.5 14.5 q-27.5 14.5 -27.5 41.5 q0 17 12.5 27.5 q12.5 10.5 27.5 10.5 q20 0 37 -18 q40 -42 52 -42 q34 0 44 38 q6 23 6 101 ZM92 632 q0 18 11 32 q15 19 39 19 q22 0 37 -15 q15 -15 15 -36 q0 -22 -14.5 -36.5 q-14.5 -14.5 -37.5 -14.5 q-24 0 -37 17 q-13 17 -13 34 Z" /><glyph glyph-name="k" unicode="k" d="M7 0 l0 15 q52 8 63.5 18 q11.5 10 11.5 49 l0 482 q0 36 -8 48.5 q-8 12.5 -37 12.5 l-30 -2 l0 16 q38 10 72 19 q34 9 83 25 l4 -2 l0 -416 l2 -2 l135 120 q23 21 23 34 q0 10 -9.5 14.5 q-9.5 4.5 -40.5 4.5 l0 14 l204 0 l0 -15 q-48 0 -77 -15 q-45 -23 -139 -111 l-29 -27 l153 -194 q34 -42 67 -60 q25 -13 50 -13 l0 -15 l-218 0 l0 15 l19 0 q21 0 21 16 q0 4 -8.5 15.5 q-8.5 11.5 -12.5 17.5 l-138 184 l-2 -181 q0 -29 14 -40 q14 -11 41 -11 l20 -1 l0 -15 l-234 0 Z" /><glyph glyph-name="l" unicode="l" d="M21 0 l0 15 q44 0 60.5 15.5 q16.5 15.5 16.5 56.5 l0 477 q0 36 -8 48.5 q-8 12.5 -37 12.5 l-34 -2 l0 16 q76 19 99 25 q6 2 60 19 l4 -2 l0 -597 q0 -43 15 -56 q15 -13 60 -13 l0 -15 l-236 0 Z" /><glyph glyph-name="m" unicode="m" d="M86 85 l0 253 q0 42 -11 55 q-7 9 -24 9 q-16 0 -32 -4 l0 17 q72 20 140 45 l7 -2 l0 -75 q53 40 79 55 q39 22 75 22 q45 0 74 -26 q23 -21 33 -58 q27 31 58 51 q51 33 103 33 q69 0 98 -61 q20 -43 20 -117 l0 -206 q0 -24 5 -35 q9 -19 38 -24 l26 -2 l0 -15 l-219 0 l0 15 q42 5 52 14 q14 12 14 58 l0 211 q0 53 -9 74 q-16 36 -64 36 q-40 0 -68 -17 q-24 -14 -43 -44 l0 -252 q0 -52 20 -68 q15 -12 52 -12 l0 -15 l-224 0 l0 15 q38 0 51 11 q17 14 17 60 l0 217 q0 52 -16 78.5 q-16 26.5 -53 26.5 q-45 0 -83 -27 q-32 -22 -32 -32 l0 -282 q0 -33 21 -44 q15 -8 47 -8 l0 -15 l-222 0 l0 15 q37 0 50 9 q20 14 20 61 Z" /><glyph glyph-name="n" unicode="n" d="M80 90 l0 248 q0 42 -11 55 q-7 9 -24 9 q-21 0 -29 -4 l0 17 q74 21 138 45 l7 -2 l0 -79 q47 44 69 58 q36 23 77 23 q45 0 75 -28 q42 -39 42 -122 l0 -229 q0 -36 13 -51 q13 -15 48 -15 l0 -15 l-208 0 l0 15 q32 0 45 13 q18 19 18 71 l0 209 q0 48 -17 72.5 q-17 24.5 -60 24.5 q-23 0 -46 -14 q-23 -14 -53 -43 l0 -281 q0 -26 14.5 -39 q14.5 -13 51.5 -13 l0 -15 l-212 0 l0 15 q35 0 48.5 15.5 q13.5 15.5 13.5 59.5 Z" /><glyph glyph-name="o" unicode="o" d="M245 460 q101 0 163 -62 q62 -62 62 -170 q0 -86 -54 -156 q-63 -82 -168 -82 q-96 0 -157.5 67.5 q-61.5 67.5 -61.5 170.5 q0 97 57 162 q61 70 159 70 ZM262 18 q47 0 78 36 q40 47 40 145 q0 97 -38 165 q-38 68 -105 68 q-50 0 -84 -40.5 q-34 -40.5 -34 -115.5 q0 -87 26 -156 q38 -102 117 -102 Z" /><glyph glyph-name="p" unicode="p" d="M75 -131 l0 468 q0 27 -2 35 q-6 22 -36 22 l-28 -1 l0 16 q72 23 144 51 l6 -2 l0 -73 l2 -2 q23 30 51 49 q42 28 93 28 q70 0 117.5 -58.5 q47.5 -58.5 47.5 -156.5 q0 -96 -53 -171 q-60 -84 -157 -84 q-31 0 -53.5 9 q-22.5 9 -47.5 34 l0 -157 q0 -47 17 -61 q17 -14 71 -14 l0 -18 l-242 0 l0 17 q46 0 60 18 q10 13 10 51 ZM159 334 l0 -246 q0 -19 32 -42.5 q32 -23.5 70 -23.5 q60 0 93 55 q30 49 30 138 q0 80 -33.5 132.5 q-33.5 52.5 -93.5 52.5 q-30 0 -62 -19 q-32 -19 -36 -47 Z" /><glyph glyph-name="q" unicode="q" d="M360 425 l54 32 l7 3 l4 -4 l0 -597 q0 -33 14 -45 q10 -8 49 -17 l0 -14 l-236 0 l0 17 q53 0 71 18 q18 18 18 58 l0 186 l-5 0 q-14 -24 -59 -48 q-45 -24 -89 -24 q-71 0 -115 54 q-49 60 -49 168 q0 105 64.5 176.5 q64.5 71.5 158.5 71.5 q35 0 61 -9 q16 -6 52 -26 ZM341 127 l0 206 q0 39 -12 60 q-22 39 -84 39 q-62 0 -98.5 -51.5 q-36.5 -51.5 -36.5 -142.5 q0 -77 30 -128 q35 -59 98 -59 q18 0 25.5 1 q7.5 1 24.5 8 q36 13 46 28 q7 11 7 39 Z" /><glyph glyph-name="r" unicode="r" d="M76 84 l0 250 q0 39 -11 52 q-7 8 -24 8 q-10 0 -19 -1 q-3 0 -15 -3 l0 16 q79 26 148 54 l5 -2 l0 -89 q36 52 63.5 71.5 q27.5 19.5 57.5 19.5 q54 0 54 -54 q0 -19 -10.5 -31.5 q-10.5 -12.5 -27.5 -12.5 q-19 0 -38.5 17.5 q-19.5 17.5 -30.5 17.5 q-18 0 -43 -29 q-25 -29 -25 -53 l0 -225 q0 -47 23 -63 q18 -12 62 -12 l0 -15 l-240 0 l0 15 q45 8 56 17 q15 12 15 52 Z" /><glyph glyph-name="s" unicode="s" d="M315 314 l-15 0 q-15 71 -47 100 q-25 23 -64 23 q-37 0 -56.5 -20.5 q-19.5 -20.5 -19.5 -44.5 q0 -25 11.5 -42 q11.5 -17 31.5 -29 l108 -64 q43 -26 60 -47 q24 -29 24 -71 q0 -61 -48 -97 q-42 -32 -97 -32 q-24 0 -64 9 q-40 9 -52 9 q-14 0 -22 -12 l-13 0 l0 156 l16 0 q14 -63 32 -90 q33 -50 97 -50 q31 0 53 15 q28 19 28 58 q0 45 -52 74 l-58 33 q-73 41 -95 73.5 q-22 32.5 -22 72.5 q0 48 33 82 q39 40 107 40 q22 0 45 -6.5 q23 -6.5 47 -13.5 q9 0 17 11 l11 0 l4 -137 Z" /><glyph glyph-name="t" unicode="t" d="M255 450 l0 -32 l-101 0 l0 -286 q0 -38 6 -56 q12 -34 45 -34 q22 0 38 12 q9 7 23 23 l13 -11 q-18 -33 -50.5 -54.5 q-32.5 -21.5 -66.5 -21.5 q-42 0 -65 26 q-27 31 -27 101 l0 301 l-53 0 l-4 7 q0 6 20 20 q13 9 24 20 q23 24 45 52 q17 22 45 62 q7 0 7 -13 l0 -116 l101 0 Z" /><glyph glyph-name="u" unicode="u" d="M479 50 l0 -14 q-39 -10 -72 -21 q-8 -3 -67 -24 l-2 2 l0 83 l-43 -43 q-19 -19 -47.5 -31 q-28.5 -12 -57.5 -12 q-43 0 -75 25 q-44 34 -44 105 l0 252 q0 40 -19 54 q-14 10 -43 10 l0 14 l146 0 l0 -326 q0 -23 12 -43 q20 -33 63 -33 q24 0 43.5 8.5 q19.5 8.5 43.5 27.5 q7 6 11.5 17.5 q4.5 11.5 4.5 33.5 l0 235 q0 35 -10 46 q-15 17 -64 17 l0 17 l158 0 l0 -343 q0 -32 8 -42 q12 -15 54 -15 Z" /><glyph glyph-name="v" unicode="v" d="M477 450 l0 -15 q-24 -2 -35 -16.5 q-11 -14.5 -30 -61.5 l-128 -321 q-11 -26 -15 -35 q-7 -15 -12 -15 q-7 0 -12.5 11 q-5.5 11 -14.5 36 q-28 72 -73 179 q-56 133 -83 186 q-11 22 -24 29.5 q-13 7.5 -31 7.5 l0 15 l196 0 l0 -15 q-22 0 -34 -6 q-12 -6 -12 -24 q0 -9 3 -18 q3 -9 6 -17 l102 -256 q7 19 65 166 q40 101 40 122 q0 16 -13.5 24.5 q-13.5 8.5 -33.5 8.5 l0 15 l139 0 Z" /><glyph glyph-name="w" unicode="w" d="M571 450 l123 0 l0 -15 q-16 -5 -22 -13.5 q-6 -8.5 -19 -40.5 l-138 -346 q-7 -16 -14 -32.5 q-7 -16.5 -14 -16.5 q-6 0 -12 13 l-12 30 l-91 236 l-112 -240 q-20 -39 -25 -39 q-5 0 -10.5 9.5 q-5.5 9.5 -15.5 34.5 l-135 342 q-16 39 -24 49 q-11 14 -29 14 l0 15 l180 0 l0 -15 q-30 -3 -38 -10 q-8 -7 -8 -24 q0 -22 51 -151 q43 -109 54 -139 l91 199 q-27 81 -42 101 q-15 20 -47 24 l0 15 l203 0 l0 -15 q-32 -5 -41 -9 q-17 -8 -17 -28 q0 -14 4 -26 q10 -23 17 -42 l80 -214 l90 222 q17 39 17 64 q0 15 -11 22 q-11 7 -33 11 l0 15 Z" /><glyph glyph-name="x" unicode="x" d="M302 73 l-81 124 l-79 -123 q-11 -16 -15.5 -25.5 q-4.5 -9.5 -4.5 -15.5 q1 -9 9.5 -13.5 q8.5 -4.5 30.5 -4.5 l0 -15 l-145 0 l0 15 q23 3 34 9 q17 10 39 42 l114 165 l-94 144 q-29 43 -43.5 51.5 q-14.5 8.5 -42.5 8.5 l0 15 l207 0 l0 -15 q-19 0 -31 -4 q-12 -4 -12 -19 q0 -12 23 -50 q11 -18 37 -58 q42 61 56 83 q11 18 11 25 q0 14 -11.5 18.5 q-11.5 4.5 -28.5 4.5 l0 15 l158 0 l0 -15 q-28 0 -54 -17 q-18 -12 -27 -27 l-83 -120 l128 -196 q25 -38 49 -52 q14 -8 33 -8 l0 -15 l-201 0 l0 15 q23 0 31.5 5.5 q8.5 5.5 8.5 20.5 q0 11 -7 20.5 q-7 9.5 -9 11.5 Z" /><glyph glyph-name="y" unicode="y" d="M475 450 l0 -15 q-16 -3 -23 -7 q-15 -10 -25 -38 l-154 -408 q-40 -105 -76 -150 q-40 -50 -94 -50 q-35 0 -54 18 q-19 18 -19 40 q0 14 6 24 q12 20 42 20 q14 0 32 -5.5 q18 -5.5 39 -12.5 q33 0 65 71 q27 60 27 83 q0 11 -25 63 q-19 37 -37 75 l-114 246 q-9 19 -32 27 q-11 4 -19 5 l0 14 l206 0 l0 -15 q-25 0 -41.5 -5.5 q-16.5 -5.5 -16.5 -23.5 q0 -8 3.5 -18.5 q3.5 -10.5 6.5 -17.5 l115 -253 l78 222 q7 20 15 41 q8 21 8 27 q0 28 -48 28 l0 15 l135 0 Z" /><glyph glyph-name="z" unicode="z" d="M418 135 l-14 -135 l-377 0 l0 15 l266 405 l-138 0 q-50 0 -67 -23 q-10 -14 -17 -65 l-18 0 l3 118 l347 0 l0 -15 l-269 -405 l138 0 q74 0 98 25 q16 17 30 84 l18 -4 Z" /><glyph glyph-name="uni3001" unicode="&#x3001;" d="M284 -4 q4 -15 4 -28 q0 -23 -13.5 -34.5 q-13.5 -11.5 -31.5 -11.5 q-16 0 -31 8.5 q-15 8.5 -21 21.5 q-25 55 -56 87 q-27 20 -53 41 q2 9 25 9 q46 0 101 -24 q65 -29 76 -69 Z" /><glyph glyph-name="uni4E00" unicode="&#x4e00;" d="M954 370 l-888 0 l-12 -6 l-18 24 l780 0 l60 60 l78 -78 Z" /><glyph glyph-name="uni4E03" unicode="&#x4e03;" d="M930 508 l-480 -108 l0 -354 q4 -16 9 -24 q16 -26 45 -30 l252 0 q20 6 31 13 q33 21 41 59 l12 120 q6 -17 6 -89.5 q0 -72.5 48 -84.5 q-12 -24 -23 -36 q-34 -36 -91 -36 l-300 0 q-17 2 -27 5 q-60 20 -69 97 l0 342 l-342 -72 l-18 18 l360 78 l0 384 l114 -48 l-48 -36 l0 -282 l360 84 l42 60 l78 -60 Z" /><glyph glyph-name="uni4E07" unicode="&#x4e07;" d="M954 664 l-492 0 l-6 -216 l252 0 l42 42 l54 -54 l-30 -30 l-36 -396 q-10 -34 -22 -52 q-36 -54 -104 -62 q-11 42 -55 70 q-56 29 -83 44 q2 0 76 -18 q29 -7 50 -7 q26 0 45.5 11 q19.5 11 32.5 38 l36 396 l-258 0 q0 -208 -141 -367 q-120 -136 -273 -173 q165 90 248 213 q100 148 100 363 l6 198 l-300 0 l-12 -6 l-18 24 l774 0 l48 48 l66 -66 Z" /><glyph glyph-name="uni4E09" unicode="&#x4e09;" d="M888 640 l-738 0 l-12 -6 l-18 24 l630 0 l60 60 l78 -78 ZM804 328 l-600 0 l-12 -6 l-18 24 l504 0 l54 54 l72 -72 ZM948 -20 l-876 0 l-12 -6 l-18 24 l768 0 l60 60 l78 -78 Z" /><glyph glyph-name="uni4E1A" unicode="&#x4e1a;" d="M966 -68 l-906 0 l-12 -6 l-18 24 l330 0 l0 834 l96 -42 l-30 -24 l0 -768 l138 0 l0 834 l102 -42 l-36 -30 l0 -600 q1 0 33 63 q39 78 73 163 q48 120 74 224 l90 -54 q-10 -7 -16 -12 q-38 -34 -56 -84 l-26 -52 q-33 -64 -70 -124 q-51 -84 -102 -148 l0 -138 l210 0 l54 54 l72 -72 ZM240 118 l-12 64 q-16 76 -41 158 q-33 110 -73 198 q64 -80 104 -141 q77 -116 77 -187 q0 -30 -12.5 -52.5 q-12.5 -22.5 -42.5 -39.5 Z" /><glyph glyph-name="uni4E2A" unicode="&#x4e2a;" d="M975 384 q-26 -4 -41 -8 q-45 -14 -68 -45 q-5 0 -65 46 q-80 62 -144 133 q-92 103 -143 215 l-12 0 q-26 -40 -52 -79 q-71 -97 -157 -174 q-122 -110 -263 -170 q8 0 76 54 q94 75 174 166 q112 128 186 280 l91 -42 q-7 0 -21 -1.5 q-14 -1.5 -10 -27.5 q24 -35 49 -69 q67 -83 148 -146 q116 -90 252 -132 ZM558 484 l-30 -18 l0 -552 l-60 -30 l0 636 l90 -36 Z" /><glyph glyph-name="uni4E2D" unicode="&#x4e2d;" d="M900 556 l-24 -24 l0 -306 l-54 -18 l0 78 l-294 0 l0 -384 l-60 -24 l0 408 l-264 0 l0 -66 l-60 -24 l0 408 l66 -30 l258 0 l0 234 l96 -42 l-36 -30 l0 -162 l282 0 l36 36 l54 -54 ZM822 304 l0 252 l-294 0 l0 -252 l294 0 ZM468 304 l0 252 l-264 0 l0 -252 l264 0 Z" /><glyph glyph-name="uni4E3B" unicode="&#x4e3b;" d="M510 640 q-13 43 -23 68 q-31 76 -73 118 q54 -29 86 -48 q60 -36 60 -71 q0 -32 -50 -67 ZM948 -44 l-852 0 l-12 -6 l-18 24 l408 0 l0 312 l-282 0 l-12 -6 l-18 24 l312 0 l0 276 l-318 0 l-12 -6 l-18 24 l654 0 l54 54 l72 -72 l-372 0 l0 -276 l198 0 l48 48 l66 -66 l-312 0 l0 -312 l288 0 l54 54 l72 -72 Z" /><glyph glyph-name="uni4E5D" unicode="&#x4e5d;" d="M972 -14 q-15 -18 -27 -27 q-36 -27 -81 -27 l-150 0 q-24 5 -37 12 q-39 23 -47 72 l0 522 l-192 0 q-7 -73 -14 -145 q-29 -170 -101 -291 q-101 -170 -275 -218 q15 0 84 53 q96 74 156 175 q84 142 84 318 l0 108 l-222 0 l-12 -6 l-18 24 l252 0 l0 252 l120 -54 l-54 -36 l0 -162 l186 0 l42 42 l54 -54 l-30 -30 l0 -474 q-1 -10 0 -15 q7 -34 48 -39 l108 0 q22 5 33 11 q33 19 33 61 l12 132 l0 -36 q0 -61 6 -88 q10 -44 42 -80 Z" /><glyph glyph-name="uni4E8C" unicode="&#x4e8c;" d="M858 592 l-684 0 l-18 -6 l-18 24 l582 0 l60 60 l78 -78 ZM66 16 l-12 -6 l-18 24 l786 0 l60 60 l78 -78 l-894 0 Z" /><glyph glyph-name="uni4E94" unicode="&#x4e94;" d="M954 -38 l-876 0 l-12 -6 l-18 24 l264 0 l66 408 l-180 0 l-12 -6 l-18 24 l210 0 l36 264 l-306 0 l-12 -6 l-18 24 l684 0 l66 66 l84 -84 l-438 0 l-36 -264 l210 0 l36 36 l54 -54 l-24 -24 l0 -384 l102 0 l60 60 l78 -78 ZM654 388 l-216 0 l-66 -408 l282 0 l0 408 Z" /><glyph glyph-name="uni4EA4" unicode="&#x4ea4;" d="M948 610 l-846 0 l-12 -6 l-18 24 l426 0 q-10 34 -18 55 q-24 64 -54 101 q12 -11 56 -31 q70 -32 70 -67 q0 -24 -24 -58 l270 0 l66 66 l84 -84 ZM864 340 q-17 18 -33 36 q-44 46 -89 84 q-64 54 -130 96 q107 -36 166 -58 q111 -41 111 -96 q0 -15 -5.5 -29 q-5.5 -14 -19.5 -33 ZM426 514 q-61 -15 -121 -66 l-104 -92 q-65 -52 -129 -64 q1 0 43 37 q61 54 107 101 q72 73 132 150 l72 -66 ZM978 -38 q-17 -4 -27 -7 q-60 -21 -93 -59 q-4 0 -58 22 q-72 29 -140 66 q-98 53 -168 110 l-52 -44 q-69 -52 -154 -90 q-121 -54 -250 -70 q11 0 76 23 q92 33 169 77 q107 62 169 140 q-2 0 -27 37 q-31 47 -55 101 q-34 77 -44 150 l16 -38 q22 -45 53 -93 q42 -64 93 -115 q2 0 25 38 q27 43 55 101 q38 77 58 143 l90 -66 q-19 -8 -30 -15 q-32 -22 -48 -57 q-19 -35 -32 -58 q-40 -69 -82 -122 l58 -38 q76 -45 159 -77 q120 -46 239 -59 Z" /><glyph glyph-name="uni4EBA" unicode="&#x4eba;" d="M984 -32 l-28 0 q-65 -4 -92 -36 q-12 0 -82 67 q-96 92 -161 213 q-92 172 -111 380 q-11 -68 -21 -135 q-39 -161 -129 -287 q-125 -176 -330 -256 q18 0 110 72 q126 98 205 229 q111 183 111 401 l0 180 l102 -48 l-36 -24 l0 -96 q14 -68 29 -135 q46 -160 131 -281 q120 -172 302 -244 Z" /><glyph glyph-name="uni4ECA" unicode="&#x4eca;" d="M975 386 q-26 -4 -41 -9 q-46 -15 -68 -45 q-6 0 -65 46 q-79 61 -144 135 q-92 104 -143 217 l-12 0 l-52 -80 q-72 -99 -157 -176 q-121 -110 -263 -171 q7 0 76 55 q97 77 174 167 q112 129 186 283 l91 -42 q-12 1 -17 -1 q-18 -6 -14 -29 q24 -35 49 -69 q68 -86 148 -148 q116 -90 252 -133 ZM516 310 q-7 20 -12 33 q-32 76 -84 147 q66 -37 102.5 -64.5 q36.5 -27.5 36.5 -55.5 q0 -15 -9.5 -29 q-9.5 -14 -33.5 -31 ZM768 214 q-23 -10 -36 -19 q-41 -28 -60 -65 l-144 -240 q-6 -3 -9 -3 q-8 -2 -12 -2 q-10 0 -19.5 3.5 q-9.5 3.5 -19.5 13.5 l186 312 l-432 0 l-12 -6 l-18 24 l462 0 l48 48 l66 -66 Z" /><glyph glyph-name="uni4ECB" unicode="&#x4ecb;" d="M956 392 q-26 -4 -40 -9 q-45 -15 -67 -45 q-6 0 -64 46 q-75 60 -140 135 q-90 104 -140 217 l-12 0 q-26 -40 -51 -80 q-69 -97 -155 -176 q-120 -110 -257 -171 q8 0 75 55 q93 76 170 167 q110 130 182 283 l89 -42 q-7 0 -20 -1.5 q-13 -1.5 -9 -28.5 q23 -35 47 -69 q66 -85 145 -148 q113 -90 247 -133 ZM648 382 l0 -468 l-60 -30 l0 564 l90 -42 l-30 -24 ZM420 406 l-36 -36 l0 -168 q0 -137 -93 -214 q-73 -61 -219 -92 q113 43 173 105 q79 81 79 201 l0 252 l96 -48 Z" /><glyph glyph-name="uni4F0D" unicode="&#x4f0d;" d="M978 -38 l-690 0 l-12 -6 l-18 24 l186 0 l54 408 l-150 0 l-12 -6 l-18 24 l180 0 l30 288 l-156 0 l-12 -6 l-18 24 l450 0 l54 54 l72 -72 l-336 0 l-30 -288 l198 0 l36 36 l48 -48 l-18 -18 l0 -396 l36 0 l54 54 l72 -72 ZM342 771 q-43 -29 -74 -108 q-26 -66 -52 -131 l60 -43 l-36 -31 l0 -556 l-54 -24 l0 593 q-26 -43 -44 -70 q-54 -79 -112 -138 q2 0 41 73 q50 95 91 197 q58 146 90 287 l90 -49 ZM756 -20 l0 408 l-204 0 l-54 -408 l258 0 Z" /><glyph glyph-name="uni4F20" unicode="&#x4f20;" d="M966 406 l-414 0 l-48 -150 l282 0 l36 36 l66 -66 q-4 0 -40 -23 q-47 -30 -91 -71 q-60 -55 -97 -116 q34 -8 76 -40 q48 -37 48 -67 q0 -28 -40 -43 l-39 39 q-47 44 -109 89 q-84 61 -164 100 q42 -10 68 -17 q78 -22 136 -49 q30 38 49 64 q58 79 95 146 l-288 0 l-24 -24 l-42 42 l24 24 l42 126 l-150 0 l-12 -6 l-18 24 l186 0 l54 180 l-138 0 l-12 -6 l-18 24 l174 0 l54 198 l90 -54 l-48 -24 l-36 -120 l198 0 l42 42 l60 -60 l-306 0 l-54 -180 l306 0 l42 42 l60 -60 ZM376 759 q-49 -30 -84 -108 q-29 -66 -58 -131 l67 -43 l-40 -31 l0 -556 l-61 -24 l0 593 q-30 -43 -50 -70 q-62 -80 -126 -138 q3 0 46 73 q59 99 103 197 q65 144 101 287 l102 -49 Z" /><glyph glyph-name="uni4F53" unicode="&#x4f53;" d="M984 136 l-20 0 q-49 -4 -76 -36 q-4 0 -47 56 q-55 72 -99 160 q-62 124 -88 252 l-18 0 l0 -420 l96 0 l36 36 l54 -54 l-186 0 l0 -240 l-60 -18 l0 258 l-162 0 l-12 -6 l-18 24 l192 0 l0 366 q-19 -42 -37 -84 q-50 -101 -109 -180 q-83 -111 -178 -168 q5 0 55 58 q66 76 117 166 q72 127 104 262 l-204 0 l-12 -6 l-18 24 l282 0 l0 228 l96 -42 l-36 -24 l0 -162 l186 0 l48 48 l66 -66 l-264 0 q13 -41 27 -82 q39 -99 97 -179 q81 -112 188 -171 ZM322 771 q-31 -24 -54 -75 q-30 -81 -59 -161 l54 -43 l-32 -30 l0 -551 l-49 -24 l0 587 q-23 -43 -39 -69 q-48 -77 -101 -137 q3 0 37 72 q42 88 81 196 q54 149 81 284 l81 -49 Z" /><glyph glyph-name="uni4F60" unicode="&#x4f60;" d="M935 559 q-38 -15 -61 -27 q-68 -36 -109 -82 l58 115 l-288 0 q-24 -38 -41 -62 q-50 -71 -100 -126 q2 0 29 57 q35 73 65 154 q42 113 65 220 l94 -43 q-40 -27 -62 -86 q-28 -75 -44 -96 l276 0 l47 49 l71 -73 ZM864 45 q-8 25 -15 51 q-22 66 -47 122 q-36 80 -79 141 q72 -67 112 -109 q76 -79 76 -132 q0 -23 -10.5 -40 q-10.5 -17 -36.5 -33 ZM712 480 l-30 -24 l0 -514 q-14 -21 -23 -32 q-29 -33 -59 -41 q-4 41 -46 65 l-78 38 l142 -12 l11 12 l0 545 l83 -37 ZM570 329 q-17 -21 -26 -34 q-30 -42 -44 -75 q-28 -51 -48 -81 q-61 -92 -128 -149 q2 0 32 50 q42 71 72 136 q45 100 72 201 l70 -48 ZM366 759 q-45 -28 -78 -106 q-28 -65 -55 -130 l63 -43 l-38 -30 l0 -551 l-57 -24 l0 587 q-28 -43 -47 -69 q-58 -80 -118 -137 q3 0 43 72 q56 100 97 196 q60 142 95 284 l95 -49 Z" /><glyph glyph-name="uni4FE1" unicode="&#x4fe1;" d="M612 671 q-10 33 -18 53 q-25 60 -60 96 q59 -30 91 -53 q32 -23 32 -45 q0 -16 -13.5 -28.5 q-13.5 -12.5 -31.5 -22.5 ZM948 628 l-570 0 l-12 -6 l-18 24 l486 0 l48 50 l66 -68 ZM882 486 l-450 0 l-12 -6 l-18 24 l366 0 l48 50 l66 -68 ZM888 337 l-456 0 l-12 -6 l-18 25 l372 0 l48 49 l66 -68 ZM852 202 l-18 -19 l0 -271 l-60 -25 l0 74 l-288 0 l0 -68 l-60 -30 l0 394 l60 -31 l282 0 l30 31 l54 -55 ZM366 770 q-51 -32 -93 -142 q-28 -74 -43 -99 l65 -43 l-39 -31 l0 -562 l-58 -24 l0 598 q-28 -43 -47 -70 q-59 -80 -121 -140 q2 0 44 74 q53 95 98 200 q64 151 97 289 l97 -50 ZM774 -20 l0 228 l-288 0 l0 -228 l288 0 Z" /><glyph glyph-name="uni5145" unicode="&#x5145;" d="M972 -2 q-11 -20 -22 -31 q-33 -34 -86 -41 l-222 0 q-22 7 -34 15 q-37 24 -44 69 l0 372 l-138 -12 q-9 -57 -17 -113 q-32 -131 -107 -219 q-105 -123 -278 -142 q22 0 87 34 q98 51 161 139 q88 123 88 295 l-144 -24 l-36 66 q79 19 143 94 q67 95 103 140 l-318 0 l-12 -6 l-18 24 l438 0 q-8 30 -16 49 q-24 57 -62 95 q47 -22 72 -36 q48 -26 48 -57 q0 -23 -24 -51 l294 0 l48 48 l66 -66 l-498 0 l54 -60 q-65 -23 -129 -78 q-56 -51 -111 -102 l492 12 q-26 32 -45 52 q-58 60 -123 98 q119 -45 185 -79.5 q66 -34.5 66 -80.5 q0 -16 -6.5 -32 q-6.5 -16 -22.5 -36 l-42 66 l-132 -12 l0 -372 q5 -10 9 -15 q14 -17 33 -21 l168 0 q18 4 27 10 q29 19 33 56 l6 126 q4 -12 10 -82.5 q6 -70.5 56 -91.5 Z" /><glyph glyph-name="uni5148" unicode="&#x5148;" d="M972 -2 q-14 -28 -27 -42 q-39 -42 -99 -42 l-188 0 q-28 5 -42 13 q-42 24 -42 77 l0 342 l-184 0 l0 -72 q0 -153 -107 -263 q-97 -99 -247 -133 q129 60 205 148 q89 104 89 230 l0 90 l-234 0 l-12 -6 l-18 24 l402 0 l0 210 l-204 0 q-10 -22 -18 -36 q-45 -81 -102 -138 q1 0 21 47 q29 66 49 125 q31 91 50 176 l78 -48 q-29 -11 -47 -47 q-13 -31 -25 -61 l198 0 l0 216 l96 -42 l-36 -24 l0 -150 l186 0 l60 60 l78 -78 l-324 0 l0 -210 l300 0 l54 54 l72 -72 l-314 0 l0 -330 q0 -20 4 -29 q12 -29 50 -25 l134 0 q22 6 33 13 q35 22 39 59 l6 138 q8 -63 13 -98 q10 -65 53 -76 Z" /><glyph glyph-name="uni5151" unicode="&#x5151;" d="M384 580 q-17 44 -30 71 q-40 81 -90 139 q78 -49 122.5 -82 q44.5 -33 44.5 -65 q0 -16 -10.5 -30.5 q-10.5 -14.5 -36.5 -32.5 ZM966 -8 q-13 -38 -35 -55 q-22 -17 -55 -17 l-246 0 q-15 1 -24 3 q-54 12 -72 57 l0 306 l-102 0 q0 -189 -138 -298 q-116 -92 -264 -92 q154 45 238 132 q98 101 98 258 l-72 0 l0 -42 l-60 -24 l0 372 l66 -36 l228 0 q11 18 23 36 q34 55 55 93 q35 66 60 129 l72 -66 q-41 -32 -66 -55 q-74 -68 -120 -137 l138 0 l42 42 l54 -54 l-30 -30 l0 -252 l-60 -24 l0 48 l-108 0 l0 -258 q4 -20 9 -29 q17 -29 51 -25 l222 0 q25 21 31 78 q6 57 11 108 l12 -108 q0 -9 1 -14 q8 -32 41 -46 ZM696 304 l0 234 l-402 0 l0 -234 l402 0 Z" /><glyph glyph-name="uni516B" unicode="&#x516b;" d="M864 -44 q-12 0 -84 89 q-97 119 -156 263 q-84 204 -84 434 l72 -36 q-16 -15 -21 -28 q-10 -22 -10 -48 q1 -9 1 -14 q14 -61 29 -121 q45 -147 117 -261 q103 -162 250 -242 q-26 -3 -41 -6 q-45 -10 -73 -30 ZM24 -74 q10 0 75 77 q86 101 149 231 q88 181 112 382 l102 -60 q-41 -21 -65 -102 q-31 -108 -43 -126 l-36 -72 q-49 -87 -109 -161 q-86 -105 -185 -169 Z" /><glyph glyph-name="uni516C" unicode="&#x516c;" d="M978 358 q-15 -3 -24 -5 q-57 -15 -90 -43 q-7 0 -64 54 q-78 74 -133 163 q-80 128 -109 275 l90 -42 q-6 -1 -9 -3 q-22 -13 -22 -45 q1 -8 1 -12 q16 -36 33 -71 q47 -84 113 -147 q94 -89 214 -124 ZM360 646 l-40 -72 q-53 -89 -113 -158 q-87 -101 -177 -154 q5 0 59 62 q74 85 131 176 q82 132 128 272 l90 -60 q-11 -4 -18 -7 q-41 -22 -60 -59 ZM768 -116 l-42 96 q-12 0 -100 -7.5 q-88 -7.5 -186 -19.5 q-136 -16 -260 -39 l-36 72 l66 0 q2 0 47 70 q60 93 103 173 q64 120 96 219 l90 -66 q-23 -11 -36 -20 q-41 -29 -60 -70 l-30 -50 q-41 -64 -80 -118 q-53 -73 -112 -138 l486 12 q-23 45 -38 72 q-46 80 -88 126 q66 -35 141 -109 q90 -88 90 -144 q0 -41 -51 -59 Z" /><glyph glyph-name="uni516D" unicode="&#x516d;" d="M492 574 q-17 55 -44.5 107.5 q-27.5 52.5 -63.5 102.5 q80 -44 120.5 -76 q40.5 -32 40.5 -63 q0 -16 -13 -34.5 q-13 -18.5 -40 -36.5 ZM954 514 l-876 0 l-12 -6 l-18 24 l768 0 l60 60 l78 -78 ZM900 40 q1 -4 2 -11.5 q1 -7.5 1 -12.5 q0 -21 -10 -35 q-15 -20 -47 -25 l-36 76 q-45 90 -100 173 q-76 116 -152 189 q5 0 60 -43 q73 -56 137 -123 q89 -92 145 -188 ZM36 -68 q2 0 55 64 q70 85 125 169 q81 123 132 241 l90 -54 q-59 -47 -129 -139 q-103 -135 -119 -153 q-74 -84 -154 -128 Z" /><glyph glyph-name="uni5173" unicode="&#x5173;" d="M354 592 q-10 26 -18 43 q-47 101 -102 161 q58 -32 96 -55 q72 -44 72 -84 q0 -17 -10.5 -32.5 q-10.5 -15.5 -37.5 -32.5 ZM966 -32 q-15 -3 -24 -5 q-56 -16 -84 -49 q-15 0 -77 32 q-93 48 -161 118 q-96 99 -134 234 l-12 0 l-34 -96 q-51 -111 -134 -187 q-117 -106 -282 -125 q16 0 85 35 q99 50 171 125 q102 107 134 248 l-336 0 l-12 -6 l-18 24 l372 0 l6 228 l-312 0 l-12 -6 l-18 24 l426 0 q1 0 22 34 q26 42 50 91 q32 65 54 127 l78 -54 q-37 -33 -60 -56 q-72 -72 -120 -142 l204 0 l60 60 l78 -78 l-384 0 q0 -43 -2 -96.5 q-2 -53.5 -10 -131.5 l306 0 l66 66 l84 -84 l-432 0 q21 -37 43 -73 q60 -85 147 -147 q121 -86 272 -110 Z" /><glyph glyph-name="uni5175" unicode="&#x5175;" d="M84 244 l-12 -6 l-18 24 l198 0 l0 486 l66 -42 q16 0 73 8 q91 13 169 30 q108 24 190 58 l72 -78 l-516 -42 l0 -162 l444 0 l54 54 l72 -72 l-252 0 l0 -240 l204 0 l54 54 l72 -72 l-870 0 ZM858 -98 q-19 23 -37 45 q-48 54 -105 103 q-79 68 -158 110 q65 -17 119 -37 q86 -32 137 -69 q65 -47 65 -96 q0 -27 -21 -56 ZM432 106 q-19 -7 -31 -13 q-36 -18 -59 -41 l-36 -28 q-48 -35 -101 -63 q-78 -41 -157 -65 q5 0 51 29 q65 41 123 91 q82 71 144 156 l66 -66 ZM570 262 l0 240 l-264 0 l0 -240 l264 0 Z" /><glyph glyph-name="uni5178" unicode="&#x5178;" d="M990 166 l-930 0 l-12 -6 l-18 24 l162 0 l0 480 l72 -42 l108 0 l0 192 l96 -42 l-36 -24 l0 -126 l120 0 l0 192 l90 -42 l-30 -24 l0 -126 l126 0 l36 36 l54 -54 l-30 -30 l0 -390 l54 0 l60 60 l78 -78 ZM852 -98 q-19 20 -35 37 q-41 40 -99 83 q-76 57 -148 90 q77 0 188 -47 q126 -53 126 -110 q0 -14 -7.5 -26.5 q-7.5 -12.5 -24.5 -26.5 ZM48 -122 q2 0 48 33 q58 42 113 89 q77 66 133 130 l90 -54 q-58 -12 -123 -60 q-57 -42 -113 -85 q-71 -45 -148 -53 ZM744 412 l0 192 l-132 0 l0 -192 l132 0 ZM552 412 l0 192 l-120 0 l0 -192 l120 0 ZM744 184 l0 210 l-132 0 l0 -210 l132 0 ZM372 412 l0 192 l-114 0 l0 -192 l114 0 ZM552 184 l0 210 l-120 0 l0 -210 l120 0 ZM372 184 l0 210 l-114 0 l0 -210 l114 0 Z" /><glyph glyph-name="uni5199" unicode="&#x5199;" d="M953 692 q-15 -3 -24 -5 q-27 -8 -46 -21 l-83 -72 l41 112 l-682 0 q0 -30 -2 -46 q-9 -51 -39 -72 q-13 1 -19 3 q-20 7 -20 25 q0 15 10 31 q16 19 23 33 q24 45 24 98 l17 -53 l688 0 l42 46 l70 -79 ZM876 490 l-546 0 l-24 -174 l468 0 l36 36 l54 -54 q-29 -32 -36 -96 q-7 -64 -12 -120 q-8 -57 -21 -87 q-40 -90 -135 -105 q0 49 -48 72 l-90 36 l174 -18 q50 36 64 145 q10 86 20 173 l-480 0 l-36 -36 l-48 48 l36 36 l48 330 l84 -48 q-21 -6 -32 -28 q-3 -6 -22 -92 l420 0 l54 54 l72 -72 ZM90 130 l-12 -6 l-18 24 l528 0 l42 42 l60 -60 l-600 0 Z" /><glyph glyph-name="uni519B" unicode="&#x519b;" d="M938 698 q-15 -4 -24 -6 q-28 -9 -46 -22 l-81 -77 l40 119 l-675 0 q0 -32 -2 -50 q-8 -53 -38 -76 q-14 1 -20 3 q-20 8 -20 28 q0 13 10 32 q16 21 23 36 q24 49 24 105 l17 -57 l681 0 l41 49 l70 -84 ZM960 100 l-426 0 l0 -210 l-60 -30 l0 240 l-414 0 l-12 -6 l-18 24 l444 0 l0 156 l-222 0 l-36 -30 l-42 48 l36 24 l132 204 l-150 0 l-12 -6 l-18 24 l186 0 l90 156 l78 -54 q-36 -4 -58.5 -37.5 q-22.5 -33.5 -43.5 -64.5 l288 0 l48 48 l66 -66 l-414 0 l-138 -228 l210 0 l0 186 l90 -42 l-30 -24 l0 -120 l162 0 l54 54 l72 -72 l-288 0 l0 -156 l276 0 l66 66 l84 -84 Z" /><glyph glyph-name="uni51A0" unicode="&#x51a0;" d="M972 697 q-16 -3 -25 -5 q-29 -7 -49 -20 l-85 -68 l43 106 l-710 0 q1 -17 0 -27 q-6 -61 -43 -85 q-14 1 -21 3 q-21 7 -21 24 q0 12 11 29 q16 18 24 31 q25 43 25 93 l19 -50 l716 0 l42 43 l74 -74 ZM972 448 l-162 0 l0 -342 q-10 -23 -18 -35 q-24 -38 -54 -49 q-22 44 -76 67 q-43 17 -86 35 l168 -6 l6 6 l0 324 l-186 0 l-12 -6 l-18 24 l216 0 l0 162 l90 -42 l-30 -18 l0 -102 l48 0 l48 48 l66 -66 ZM504 544 l-318 0 l-12 -6 l-18 24 l246 0 l42 42 l60 -60 ZM600 184 q-2 19 -4 31 q-13 71 -32 119 q31 -26 50 -44 q38 -35 38 -59 q0 -14 -11.5 -25.5 q-11.5 -11.5 -40.5 -21.5 ZM972 -14 q-8 -16 -16 -25 q-24 -27 -62 -35 l-456 0 q-20 8 -31 16 q-33 24 -41 62 l0 360 l-90 0 q-3 -52 -6 -103 q-16 -121 -63 -207 q-65 -120 -183 -152 q7 0 51 39 q59 52 95 113 q52 88 52 184 l0 126 l-132 0 l-12 -6 l-18 24 l390 0 l48 48 l66 -66 l-138 0 l0 -342 q3 -8 5 -13 q17 -30 49 -35 l372 0 q40 15 47 81 q7 66 13 129 q0 -61 13 -110.5 q13 -49.5 47 -87.5 Z" /><glyph glyph-name="uni51FA" unicode="&#x51fa;" d="M882 250 l-30 -24 l0 -294 l-60 -30 l0 84 l-582 0 l-36 -36 l-54 54 l24 24 l0 270 l96 -42 l-30 -24 l0 -228 l258 0 l0 390 l-216 0 l-30 -30 l-54 54 l24 24 l0 240 l90 -42 l-24 -18 l0 -210 l210 0 l0 390 l102 -48 l-42 -30 l0 -312 l228 0 l0 270 l90 -48 l-30 -18 l0 -234 l-60 -24 l0 36 l-228 0 l0 -390 l264 0 l0 288 l90 -42 Z" /><glyph glyph-name="uni5219" unicode="&#x5219;" d="M926 771 l-29 -18 l0 -799 q-14 -21 -23 -32 q-30 -33 -61 -41 q-16 43 -88.5 66.5 q-72.5 23.5 -74.5 24.5 l170 -12 l14 12 l0 836 l92 -37 ZM720 577 l0 -430 l-56 -24 l0 509 l85 -37 l-29 -18 ZM552 706 l-18 -18 l0 -492 l-66 -24 l0 534 l-276 0 l0 -540 l-60 -24 l0 618 l72 -36 l258 0 l36 36 l54 -54 ZM528 -50 q-26 53 -46 84 q-60 92 -128 138 q70 -19 131 -57 q80 -50 80 -100 q0 -34 -37 -65 ZM384 562 l-30 -24 l0 -276 q-20 -151 -123 -254 q-80 -80 -201 -124 q85 61 122 94 q64 58 98 119 q42 75 50 171 l0 336 l84 -42 Z" /><glyph glyph-name="uni5230" unicode="&#x5230;" d="M911 772 l-28 -18 l0 -783 q-14 -21 -23 -31 q-30 -32 -61 -40 q-13 37 -64 57 q-66 20 -97 32 l168 -12 l14 12 l0 819 l91 -36 ZM708 582 l0 -422 l-56 -24 l0 499 l84 -35 l-28 -18 ZM588 700 l-282 0 l42 -30 q-40 -38 -66 -64 q-74 -74 -138 -146 l306 18 q-10 22 -18 36 q-25 46 -54 78 q52 -31 87 -56 q67 -48 67 -87 q0 -16 -11 -31 q-11 -15 -35 -30 l-24 72 l-126 -18 l0 -180 l108 0 l54 54 l72 -72 l-234 0 l0 -186 l240 48 l-474 -174 l-48 66 l222 48 l0 198 l-168 0 l-12 -6 l-18 24 l198 0 l0 168 q-33 -5 -54 -9 q-67 -12 -114 -27 l-36 66 q91 22 148 131 q28 54 56 109 l-198 0 l-12 -6 l-18 24 l414 0 l54 54 l72 -72 Z" /><glyph glyph-name="uni5236" unicode="&#x5236;" d="M924 773 l-24 -18 l0 -767 q-12 -20 -20 -30 q-26 -32 -52 -40 q-11 36 -55 56 q-56 20 -83 31 l144 -11 l12 11 l0 803 l78 -35 ZM750 586 l0 -413 l-48 -23 l0 489 l72 -35 l-24 -18 ZM666 400 l-264 0 l0 -132 l126 0 l30 30 l42 -42 l-18 -18 l0 -264 q-12 -17 -20 -24 q-19 -19 -46 -24 q0 30 -43 48 q-24 9 -47 18 l102 -6 l6 6 l0 258 l-132 0 l0 -330 l-48 -24 l0 354 l-132 0 l0 -312 l-48 -24 l0 384 l48 -30 l132 0 l0 132 l-216 0 l-48 -66 q1 0 23.5 64 q22.5 64 48.5 158 q33 118 48 204 l60 -48 q-7 -13 -10 -22 q-22 -52 -32 -86 l126 0 l0 192 l78 -42 l-30 -30 l0 -120 l96 0 l42 42 l60 -60 l-198 0 l0 -168 l150 0 l48 48 l66 -66 ZM354 418 l0 168 l-132 0 l-72 -168 l204 0 Z" /><glyph glyph-name="uni5251" unicode="&#x5251;" d="M922 760 l-27 -18 l0 -783 q-12 -21 -21 -31 q-27 -32 -57 -40 q-12 37 -60 57 q-61 20 -90 32 l157 -12 l13 12 l0 819 l85 -36 ZM732 570 l0 -422 l-52 -24 l0 499 l78 -35 l-26 -18 ZM588 520 l-30 36 q-39 43 -85 79 q-65 50 -131 77 q-19 -28 -37 -56 q-46 -65 -105 -131 q-79 -88 -158 -149 q2 0 47 57 q61 77 109 151 q72 111 120 218 l90 -42 q-14 -1 -22 -4 q-24 -9 -32 -32 q79 -28 159 -56 q104 -43 104 -92 q0 -27 -29 -56 ZM552 454 l-330 0 l-12 -6 l-18 24 l258 0 l42 42 l60 -60 ZM324 178 q-1 41 -3 68 q-7 78 -27 154 q31 -28 61 -78 q35 -59 35 -98 q0 -22 -12.5 -34.5 q-12.5 -12.5 -42.5 -12.5 q-7 1 -11 1 ZM636 82 q-65 -34 -164 -60 q-37 -10 -181 -42 q-114 -25 -177 -48 l-36 66 l282 42 q1 0 25 46 q28 54 55 123 q38 95 58 179 l78 -48 q-52 -38 -102 -138 q-65 -130 -84 -156 l246 36 ZM186 112 q-1 47 -4 78 q-9 93 -32 174 q49 -62 76 -105 q27 -43 27 -73 q0 -25 -15 -43 q-15 -18 -52 -31 Z" /><glyph glyph-name="uni52A8" unicode="&#x52a8;" d="M504 646 l-360 0 l-12 -6 l-18 24 l276 0 l48 48 l66 -66 ZM930 526 l-24 -24 l-12 -438 q-9 -47 -21 -72 q-36 -75 -111 -90 q0 47 -65 76 q-31 13 -61 26 q14 0 37 -3 q55 -7 72 -7 q40 0 62 14 q28 18 33 62 l12 450 l-156 0 q0 -268 -90 -417 q-104 -172 -342 -219 q199 50 294 243 q78 159 78 393 l-108 0 l-12 -6 l-18 24 l138 0 l0 264 l90 -48 l-30 -30 l0 -186 l138 0 l42 42 l54 -54 ZM546 436 l-246 0 l36 -36 q-16 -21 -31 -42 q-41 -56 -75 -103 q-54 -75 -92 -131 l294 30 q-12 37 -21 60 q-27 66 -63 114 q44 -24 93 -75 q64 -66 64 -115 q0 -43 -49 -68 l-18 72 q-60 -12 -100 -21 q-113 -27 -218 -63 l-30 72 q64 38 109 137 q44 118 65 169 l-186 0 l-12 -6 l-18 24 l372 0 l54 54 l72 -72 Z" /><glyph glyph-name="uni52B1" unicode="&#x52b1;" d="M985 529 l-22 -24 l-12 -443 q-8 -47 -19 -72 q-33 -75 -103 -91 q0 49 -60 78 l-58 26 q13 0 35 -3 q52 -7 69 -7 q36 0 56 14 q26 18 30 61 l11 455 l-145 0 q0 -271 -83 -421 q-96 -173 -318 -221 q184 50 272 246 q73 162 73 396 l-100 0 l-11 -6 l-17 24 l128 0 l0 267 l84 -49 l-28 -30 l0 -188 l129 0 l39 42 l50 -54 ZM612 688 l-432 0 l0 -150 l306 0 l36 36 l54 -54 l-240 0 l0 -156 l126 0 l30 30 l48 -48 l-24 -24 l-12 -276 q-8 -35 -17 -53 q-29 -56 -85 -67 q0 36 -41 55 q-37 15 -73 29 q13 -1 38.5 -3.5 q25.5 -2.5 36.5 -2.5 q44 0 65 13 q28 17 28 59 l12 270 l-132 0 l-12 -88 q-21 -106 -63 -190 q-60 -119 -153 -178 q6 0 46 55 q54 75 87 163 q47 127 47 268 l0 144 l-108 0 l0 -150 l0 -12 q0 -53 -7 -107 q-12 -91 -41 -171 q-38 -104 -102 -178 q3 0 24 45 q28 58 46 129 q26 101 26 198 l0 468 l66 -36 l306 0 l48 48 l66 -66 Z" /><glyph glyph-name="uni5305" unicode="&#x5305;" d="M36 322 q3 0 52 64 q59 78 117 173 q78 129 125 249 l84 -54 q-24 -19 -38 -34 q-44 -45 -70 -98 l468 0 l36 36 l54 -54 l-24 -24 l-12 -348 q-5 -27 -10 -43 q-33 -96 -110 -119 q0 44 -45 64 q-41 16 -81 32 l114 -12 q24 9 36 18 q36 27 36 72 l12 360 l-486 0 q-17 -23 -33 -46 q-42 -56 -91 -109 q-68 -74 -134 -127 ZM870 -92 l-564 0 q-23 6 -35 12 q-38 18 -49 48 l0 516 l60 -30 l222 0 l30 30 l48 -48 l-18 -18 l0 -216 l-54 -30 l0 54 l-234 0 l0 -228 q7 -16 13 -24 q18 -24 41 -24 l510 0 q28 9 44.5 41 q16.5 32 16.5 109 q0 15 -0.5 30 q-0.5 15 -0.5 30 q4 -14 14.5 -85.5 q10.5 -71.5 51.5 -100.5 q-7 -11 -12 -17 q-34 -40 -84 -49 ZM276 436 l0 -192 l234 0 l0 192 l-234 0 Z" /><glyph glyph-name="uni5316" unicode="&#x5316;" d="M972 -8 q-11 -21 -21 -33 q-30 -36 -75 -51 l-276 0 q-9 3 -14 6 q-32 19 -46 60 l0 264 q-41 -25 -68 -39 q-85 -45 -154 -63 q2 0 37 19 q51 28 87 53 q56 40 98 84 l0 510 l96 -48 l-36 -36 l0 -384 q1 0 39 39 q54 55 95 101 q63 71 112 136 l72 -84 q-13 -3 -22 -5 q-52 -15 -80 -43 q-15 -16 -29 -31 q-37 -38 -77 -75 q-57 -52 -110 -92 l0 -282 q3 -10 7 -15 q12 -15 35 -15 l222 0 q33 33 40 103 q4 56 8 113 q0 -22 1 -37 q9 -87 59 -155 ZM413 754 q-51 -29 -88 -105 q-31 -65 -62 -129 l71 -42 l-43 -30 l0 -546 l-64 -24 l0 582 q-31 -42 -52 -68 q-66 -79 -133 -136 q3 0 49 72 q60 94 108 193 q69 142 107 281 l107 -48 Z" /><glyph glyph-name="uni533A" unicode="&#x533a;" d="M936 -44 l-732 0 l-30 -30 l-48 48 l24 24 l0 726 l66 -30 l558 0 l54 54 l72 -72 l-690 0 l0 -702 l588 0 l60 60 l78 -78 ZM768 124 q0 -9 -1 -14 q-7 -32 -35 -46 q-11 20 -21 41 q-28 52 -59 95 q-45 64 -94 110 q-23 -24 -45 -48 q-57 -58 -115 -105 q-84 -68 -158 -105 q3 0 47 37 q60 50 111 103 q73 76 124 154 q-16 15 -32 31 q-34 31 -83 73 q-63 53 -113 88 q51 -22 84 -39 q96 -51 174 -117 q26 39 42 67 q52 88 84 167 l84 -66 q-55 -14 -98 -85 q-58 -96 -76 -113 q4 0 33 -25 q38 -32 73 -77 q48 -61 74 -126 Z" /><glyph glyph-name="uni5341" unicode="&#x5341;" d="M534 430 l0 -510 l-66 -24 l0 534 l-366 0 l-12 -6 l-18 24 l396 0 l0 348 l102 -42 l-36 -24 l0 -282 l276 0 l60 60 l78 -78 l-414 0 Z" /><glyph glyph-name="uni5343" unicode="&#x5343;" d="M960 382 l-420 0 l0 -468 l-66 -24 l0 492 l-390 0 l-12 -6 l-18 24 l420 0 l0 258 q-71 -8 -116 -12 q-136 -12 -238 -12 q15 0 100 14 q127 21 242 48 q160 38 294 88 l60 -84 q-20 4 -44 4 q-38 0 -87 -10 q-117 -24 -145 -24 l0 -270 l270 0 l66 66 l84 -84 Z" /><glyph glyph-name="uni5373" unicode="&#x5373;" d="M912 709 l-19 -18 l0 -549 q-14 -19 -23 -30 q-29 -34 -56 -45 q-4 42 -48 62 q-41 15 -81 31 l147 -6 l6 6 l0 549 l-183 0 l0 -797 l-55 -19 l0 873 l67 -38 l165 0 l31 31 l49 -50 ZM468 706 l0 -372 l-54 -24 l0 66 l-209 0 l0 -308 l191 72 q-14 24 -24 39 q-31 46 -66 81 q61 -25 116 -68 q74 -58 74 -107 q0 -17 -9 -33 q-9 -16 -31 -32 q-7 20 -12 33 q-14 35 -36 69 q-43 -23 -71 -39 q-84 -49 -157 -103 l-42 66 q2 12 4 25 q2 13 2 23 l0 684 l61 -36 l203 0 l30 30 l48 -48 l-18 -18 ZM414 568 l0 156 l-209 0 l0 -156 l209 0 ZM414 394 l0 156 l-209 0 l0 -156 l209 0 Z" /><glyph glyph-name="uni53C1" unicode="&#x53c1;" d="M960 244 q-19 -7 -31 -13 q-36 -18 -59 -41 q-5 0 -50 27 q-59 35 -116 83 q-79 66 -128 136 l-192 0 q-23 -27 -45 -54 q-58 -65 -123 -115 q-93 -72 -186 -107 q5 0 52 32 q64 43 119 94 q77 71 129 150 l-264 0 l-12 -6 l-18 24 l306 0 q15 20 23 34 q26 43 37 80 l-210 -24 l-30 60 q85 11 155 81 q57 61 115 123 l84 -42 q-83 -17 -175 -91 q-48 -39 -95 -77 l444 12 q-19 24 -33 39 q-44 47 -93 81 q52 -21 105 -41 q127 -56 127 -111 q0 -28 -34 -58 q-9 19 -16 30 q-21 32 -44 48 l-222 -24 q-12 -22 -21 -37 q-28 -47 -57 -83 l414 0 l54 54 l72 -72 l-342 0 q20 -21 40 -41 q55 -50 120 -85 q94 -50 200 -66 ZM264 238 l-12 -6 l-18 24 l372 0 l42 42 l60 -60 l-444 0 ZM732 88 l-480 0 l-12 -6 l-18 24 l396 0 l48 48 l66 -66 ZM894 -62 l-804 0 l-12 -6 l-18 24 l720 0 l48 48 l66 -66 Z" /><glyph glyph-name="uni53D6" unicode="&#x53d6;" d="M981 15 q-8 1 -12 1 q-20 0 -39 -7.5 q-19 -7.5 -37 -30.5 q-20 16 -34 28 q-82 71 -136 147 q-21 -20 -41 -40 q-55 -50 -109 -84 q-81 -52 -159 -73 q4 0 50 28 q65 39 114 81 q73 62 119 131 q-3 0 -28 59 q-32 74 -52 155 q-28 111 -28 213 l-26 0 l-10 -6 l-16 22 l300 0 l36 37 l57 -59 q-24 -18 -34 -34 q-18 -27 -23 -62 l-12 -52 q-17 -65 -40 -126 q-31 -84 -72 -153 q36 -44 62 -68 q80 -75 170 -107 ZM534 714 l-140 0 l0 -554 l107 19 l0 -6 l-107 -32 l0 -234 l-53 -19 l0 234 q-52 -13 -85 -22 q-97 -27 -175 -60 l-39 63 l93 13 l0 598 l-54 0 l-13 -7 l-20 26 l360 0 l53 51 l73 -70 ZM837 623 l-233 0 l10 -62 q15 -78 36 -148 q30 -98 73 -180 q1 0 22 50 q28 66 48 136 q31 105 44 204 ZM341 548 l0 166 l-146 0 l0 -166 l146 0 ZM341 357 l0 172 l-146 0 l0 -172 l146 0 ZM341 148 l0 190 l-146 0 l0 -216 l146 26 Z" /><glyph glyph-name="uni53D8" unicode="&#x53d8;" d="M903 365 q0 -8 -1 -13 q-7 -30 -34 -35 q-28 51 -48 81 q-61 90 -132 149 q5 0 38 -17 q50 -26 87 -57 q55 -47 90 -108 ZM921 632 l-303 0 l0 -285 l-53 -24 l0 309 l-151 0 l0 -279 l-52 -24 l0 303 l-262 0 l-12 -6 l-17 24 l413 0 q-7 31 -13 50 q-18 56 -45 96 q23 -13 47 -25 q55 -33 55 -68 q0 -25 -27 -53 l309 0 l46 49 l65 -67 ZM966 -44 q-25 -4 -39 -9 q-42 -16 -57 -51 q-8 0 -56 11 q-71 16 -137 39 q-94 32 -173 76 q-30 -15 -59 -29 q-71 -32 -159 -59 q-121 -37 -232 -50 q6 0 70 18 q84 23 163 54 q111 43 187 90 q-37 37 -57 64 q-62 83 -81 164 l-84 0 l-12 -6 l-18 24 l450 0 l36 36 l66 -66 q-40 -19 -137 -130 q-49 -57 -91 -80 l54 -24 q69 -28 147 -46 q114 -26 219 -26 ZM292 511 q-42 -25 -85 -81 q-35 -49 -70 -97 q-43 -54 -89 -77 q1 0 31 41 q39 54 71 109 q47 80 78 159 l64 -54 ZM666 274 l-312 0 q19 -45 35 -72 q49 -81 121 -126 q19 17 31 30 q76 79 125 168 Z" /><glyph glyph-name="uni53E4" unicode="&#x53e4;" d="M954 568 l-438 0 l0 -252 l186 0 l42 42 l60 -60 l-30 -30 l0 -360 l-66 -24 l0 96 l-426 0 l0 -78 l-66 -24 l0 474 l72 -36 l168 0 l0 252 l-390 0 l-12 -6 l-18 24 l420 0 l0 228 l102 -42 l-42 -30 l0 -156 l324 0 l48 48 l66 -66 ZM708 -2 l0 300 l-426 0 l0 -300 l426 0 Z" /><glyph glyph-name="uni53F7" unicode="&#x53f7;" d="M758 722 l-21 -20 l0 -233 l-68 -26 l0 73 l-397 0 l0 -60 l-68 -27 l0 353 l68 -33 l390 0 l34 33 l62 -60 ZM918 370 l-534 0 l-72 -144 l378 0 l36 36 l54 -54 q-39 -28 -64 -99 q-36 -101 -38 -105 q-23 -33 -43 -50 q-60 -53 -143 -64 q-6 30 -28 50 q-8 7 -86 46 q29 -4 62 -9 q33 -5 62 -5 q54 0 87 18 q40 22 53 74 l48 144 l-384 0 l-36 -30 l-42 48 l36 30 l48 114 l-246 0 l-12 -6 l-18 24 l768 0 l48 48 l66 -66 ZM669 536 l0 193 l-397 0 l0 -193 l397 0 Z" /><glyph glyph-name="uni5408" unicode="&#x5408;" d="M975 398 q-26 -4 -41 -9 q-46 -15 -68 -45 q-6 0 -65 46 q-79 61 -144 135 q-92 104 -143 217 l-12 0 l-52 -80 q-72 -99 -157 -176 q-121 -110 -263 -171 q7 0 76 55 q97 77 174 167 q112 129 186 283 l91 -42 q-12 1 -17 -1 q-18 -6 -14 -29 q24 -35 49 -69 q68 -86 148 -148 q116 -90 252 -133 ZM762 382 l-486 0 l-12 -6 l-18 24 l402 0 l48 48 l66 -66 ZM774 196 l-19 -22 l0 -246 l-63 -29 l0 78 l-365 0 l0 -64 l-63 -28 l0 374 l63 -35 l359 0 l31 35 l57 -63 ZM692 -2 l0 205 l-365 0 l0 -205 l365 0 Z" /><glyph glyph-name="uni544A" unicode="&#x544a;" d="M966 364 l-906 0 l-12 -6 l-18 24 l96 0 q2 0 28 50 q34 66 60 135 q37 99 56 199 l90 -48 q-19 -19 -30 -33 q-35 -45 -54 -93 l204 0 l0 210 l96 -42 l-36 -18 l0 -150 l192 0 l48 48 l66 -66 l-306 0 l0 -192 l300 0 l54 54 l72 -72 ZM791 210 l-21 -21 l0 -241 l-69 -27 l0 76 l-404 0 l0 -62 l-69 -28 l0 365 l69 -35 l397 0 l35 35 l62 -62 ZM480 382 l0 192 l-216 0 l-35 -60 q-40 -67 -85 -132 l336 0 ZM701 17 l0 200 l-404 0 l0 -200 l404 0 Z" /><glyph glyph-name="uni5468" unicode="&#x5468;" d="M306 412 l-12 -6 l-18 24 l210 0 l0 132 l-150 0 l-12 -6 l-18 24 l180 0 l0 144 l78 -36 l-24 -18 l0 -90 l108 0 l42 42 l60 -60 l-210 0 l0 -132 l120 0 l54 54 l72 -72 l-480 0 ZM900 742 l-24 -24 l0 -756 q-10 -19 -18 -30 q-24 -33 -54 -48 q-15 41 -60 64 l-84 38 l156 -6 l6 6 l0 750 l-588 0 l0 -480 l-8 -68 q-17 -83 -54 -151 q-53 -96 -142 -153 q4 0 32 39 q38 52 64 115 q37 88 48 188 l0 564 l72 -36 l570 0 l36 36 l48 -48 ZM684 304 l-24 -24 l0 -210 l-60 -24 l0 66 l-168 0 l0 -78 l-60 -24 l0 342 l60 -30 l162 0 l36 36 l54 -54 ZM600 130 l0 174 l-168 0 l0 -174 l168 0 Z" /><glyph glyph-name="uni54C1" unicode="&#x54c1;" d="M720 702 l0 -285 l-65 -24 l0 76 l-314 0 l0 -70 l-65 -23 l0 396 l65 -29 l307 0 l33 29 l59 -53 l-20 -17 ZM914 277 l-19 -21 l0 -305 l-57 -21 l0 90 l-229 0 l0 -97 l-57 -21 l0 438 l63 -42 l216 0 l32 35 l51 -56 ZM483 276 l-20 -21 l0 -308 l-58 -21 l0 92 l-233 0 l0 -99 l-58 -21 l0 442 l64 -43 l221 0 l32 35 l52 -56 ZM655 487 l0 238 l-314 0 l0 -238 l314 0 ZM838 41 l0 236 l-229 0 l0 -236 l229 0 ZM405 39 l0 237 l-233 0 l0 -237 l233 0 Z" /><glyph glyph-name="uni559C" unicode="&#x559c;" d="M900 688 l-378 0 l0 -90 l174 0 l48 48 l66 -66 l-588 0 l-12 -6 l-18 24 l270 0 l0 90 l-354 0 l-12 -6 l-18 24 l384 0 l0 114 l90 -36 l-30 -18 l0 -60 l264 0 l48 48 l66 -66 ZM960 196 l-888 0 l-12 -6 l-18 24 l348 0 q-7 26 -13 43 q-18 50 -41 89 l-36 0 l0 -36 l-54 -18 l0 240 l60 -30 l372 0 l30 30 l48 -48 l-18 -18 l0 -126 l-54 -18 l0 24 l-48 0 l48 -48 q-15 -6 -24 -10 q-55 -28 -78 -74 l252 0 l54 54 l72 -72 ZM774 112 l-24 -24 l0 -180 l-54 -18 l0 72 l-396 0 l0 -60 l-54 -24 l0 276 l60 -30 l384 0 l36 36 l48 -48 ZM684 364 l0 120 l-384 0 l0 -120 l384 0 ZM618 346 l-270 0 q45 -30 52 -36 q32 -27 32 -53 q0 -11 -5.5 -21.5 q-5.5 -10.5 -18.5 -21.5 l150 0 q15 23 23 39 q26 50 37 93 ZM696 -20 l0 126 l-396 0 l0 -126 l396 0 Z" /><glyph glyph-name="uni56CA" unicode="&#x56ca;" d="M954 478 q-32 -8 -50 -16 q-55 -24 -82 -62 l24 90 l-720 0 q0 -69 -16 -91.5 q-16 -22.5 -47 -22.5 l-9 0 q-3 4 -4 6 q-4 8 -4 16 q0 9 4.5 17 q4.5 8 15.5 15 q8 10 12 18 q28 47 42 102 l6 -42 l354 0 l0 54 l-204 0 l0 -18 l-42 -12 l0 144 l42 -18 l204 0 l0 54 l-348 0 l-12 -6 l-18 24 l378 0 l0 84 l72 -30 l-24 -18 l0 -36 l252 0 l48 48 l66 -66 l-366 0 l0 -54 l192 0 l30 30 l42 -42 l-18 -18 l0 -72 l-48 -18 l0 24 l-198 0 l0 -54 l312 0 l42 42 l72 -72 ZM954 -56 l-20 -5 q-48 -17 -76 -49 q-123 39 -148 49 q-81 31 -132 69 q-61 45 -92 110 l-24 0 q-18 -17 -30 -27 q-39 -33 -72 -51 l0 -110 l186 38 q-42 -16 -68 -28 q-78 -36 -140 -78 l-36 48 q4 6 5 9 q5 12 5 23 l0 74 l-38 -20 q-48 -24 -101 -42 q-78 -26 -143 -34 q5 0 61 22 q74 29 141 66 q95 52 158 110 l-312 0 l-12 -6 l-18 24 l294 0 l0 54 l-156 0 l-12 -6 l-18 24 l186 0 l0 54 l-204 0 l-12 -6 l-18 24 l234 0 l0 72 l-72 0 l0 -30 l-36 -12 l0 150 l42 -24 l138 0 l24 24 l30 -30 l-18 -18 l0 -72 l-36 -12 l0 24 l-54 0 l48 -30 l-18 -18 l0 -24 l204 0 l0 60 l-48 -18 l0 144 l42 -30 l138 0 l24 24 l36 -36 l-12 -12 l0 -72 l-42 -18 l0 30 l-120 0 l48 -24 l-12 -12 l0 -36 l126 0 l48 48 l66 -66 l-240 0 l0 -54 l96 0 l36 36 l54 -54 l-186 0 l0 -54 l180 0 l48 48 l66 -66 l-438 0 q8 -15 15 -24 q43 -57 111 -84 q21 16 34 28 q39 36 62 74 l66 -42 q-19 -6 -31 -10 q-73 -26 -113 -62 q53 -18 90 -27 q111 -27 216 -27 ZM726 580 l0 60 l-198 0 l0 -60 l198 0 ZM732 370 l0 48 l-150 0 l0 -48 l150 0 ZM480 580 l0 60 l-204 0 l0 -60 l204 0 ZM414 370 l0 48 l-144 0 l0 -48 l144 0 ZM594 208 l0 54 l-204 0 l0 -54 l204 0 ZM594 136 l0 54 l-204 0 l0 -54 l204 0 Z" /><glyph glyph-name="uni56DB" unicode="&#x56db;" d="M882 676 l-24 -24 l0 -690 l-54 -18 l0 96 l-624 0 l0 -90 l-60 -24 l0 804 l60 -30 l618 0 l30 30 l54 -54 ZM804 64 l0 618 l-210 0 l0 -390 q3 -10 6 -15 q10 -17 24 -21 l90 0 l30 24 l48 -36 q-12 -12 -20 -18 q-25 -18 -52 -18 l-132 0 q-12 5 -19 10 q-21 15 -29 38 l0 426 l-126 0 l0 -252 q-8 -33 -16 -65 q-25 -77 -69 -139 q-61 -86 -149 -126 l0 -36 l624 0 ZM354 406 l0 276 l-174 0 l0 -564 q5 0 39 30 q47 42 79 95 q45 75 56 163 Z" /><glyph glyph-name="uni5730" unicode="&#x5730;" d="M974 -17 q-19 -20 -33 -30 q-44 -30 -98 -30 l-350 0 q-26 5 -38 12 q-39 22 -43 71 l0 385 l-100 -35 l-24 12 l124 41 l0 208 l88 -47 l-32 -24 l0 -119 l125 42 l0 315 l94 -48 l-31 -24 l0 -225 l131 47 l37 53 l81 -53 q-8 -5 -13 -8 q-32 -24 -36.5 -55.5 q-4.5 -31.5 -4.5 -67.5 l0 -40 q0 -20 1 -40 q0 -75 -17 -116 q-24 -57 -86 -77 q-8 22 -16 34 q-25 38 -65 49 l81 -6 q13 9 19 15 q19 19 19 39 l12 261 l-143 -53 l0 -380 l-63 -24 l0 386 l-125 -42 l0 -379 q7 -18 14 -27 q22 -28 61 -32 l262 0 q29 9 44 17 q46 27 50 71 l13 136 q5 -19 6 -99.5 q1 -80.5 56 -112.5 ZM405 142 q-1 0 -50 -21 q-75 -32 -123 -55 q-79 -38 -157 -80 l-39 63 l158 43 l0 340 l-112 0 l-13 -6 l-20 25 l145 0 l0 303 l99 -51 l-40 -31 l0 -221 l33 0 l40 38 l59 -57 l-132 0 l0 -327 l146 44 l6 -7 Z" /><glyph glyph-name="uni5740" unicode="&#x5740;" d="M946 -68 l-590 0 l-13 -6 l-19 24 l141 0 l0 576 l77 -36 l-26 -18 l0 -522 l135 0 l0 834 l96 -48 l-38 -24 l0 -288 l90 0 l51 48 l71 -66 l-212 0 l0 -456 l115 0 l52 48 l70 -66 ZM431 447 l-185 0 l0 -343 l117 44 l6 -6 l-296 -158 l-37 63 l148 44 l0 356 l-118 0 l-12 -6 l-12 25 l142 0 l0 306 l105 -45 l-43 -32 l0 -229 l68 0 l49 51 l68 -70 Z" /><glyph glyph-name="uni586B" unicode="&#x586b;" d="M972 101 l-648 0 l-12 -6 l-18 23 l133 0 l0 464 l67 -36 l103 0 l0 113 l-212 0 l-13 -6 l-18 24 l243 0 l0 131 l97 -42 l-37 -24 l0 -65 l176 0 l49 47 l66 -65 l-291 0 l0 -113 l109 0 l37 36 l48 -48 l-18 -18 l0 -398 l24 0 l49 48 l66 -65 ZM900 -112 q-14 15 -28 29 q-40 39 -78 67 q-58 43 -119 69 q90 -19 143 -36 q100 -32 100 -82 q0 -22 -18 -47 ZM406 496 l-171 0 l0 -318 l109 41 l5 -6 l-273 -147 l-34 59 l136 41 l0 330 l-108 0 l-11 -6 l-12 23 l131 0 l0 283 l97 -42 l-40 -29 l0 -212 l63 0 l46 47 l62 -64 ZM597 18 q-53 -15 -112 -44 l-102 -52 q-66 -33 -107 -46 q2 0 37 24 q49 33 93 68 q64 51 118 103 l73 -53 ZM772 445 l0 83 l-290 0 l0 -83 l290 0 ZM772 338 l0 89 l-290 0 l0 -89 l290 0 ZM772 225 l0 95 l-290 0 l0 -95 l290 0 ZM772 118 l0 90 l-290 0 l0 -90 l290 0 Z" /><glyph glyph-name="uni58EB" unicode="&#x58eb;" d="M954 412 l-420 0 l0 -432 l240 0 l54 54 l72 -72 l-756 0 l-12 -6 l-18 24 l354 0 l0 432 l-378 0 l-12 -6 l-18 24 l408 0 l0 348 l108 -54 l-42 -24 l0 -270 l294 0 l54 54 l72 -72 Z" /><glyph glyph-name="uni58F9" unicode="&#x58f9;" d="M888 682 l-366 0 l0 -102 l150 0 l42 42 l60 -60 l-528 0 l-12 -6 l-18 24 l246 0 l0 102 l-342 0 l-12 -6 l-18 24 l372 0 l0 114 l90 -36 l-30 -24 l0 -54 l264 0 l42 42 l60 -60 ZM929 451 q-15 -2 -24 -4 q-26 -6 -45 -18 l-81 -63 l40 97 l-668 0 l0 -24 q-5 -57 -40 -79 q-13 1 -19 3 q-20 6 -20 22 q0 11 10 27 q9 9 14 16 q32 43 32 98 l17 -46 l674 0 l41 40 l69 -69 ZM780 352 l-534 0 l-12 -6 l-18 24 l450 0 l48 48 l66 -66 ZM742 261 l-21 -21 l0 -130 l-56 -20 l0 41 l-351 0 l0 -28 l-56 -20 l0 226 l63 -35 l337 0 l35 35 l49 -48 ZM936 -74 l-864 0 l-12 -6 l-18 24 l348 0 q-8 28 -15 45 q-22 52 -57 87 q44 -23 67 -36 q42 -25 42 -55 q0 -18 -13 -41 l138 0 q15 25 25 43 q31 56 53 107 l72 -54 q-17 -7 -27 -12 q-62 -33 -99 -84 l246 0 l48 48 l66 -66 ZM665 151 l0 103 l-351 0 l0 -103 l351 0 Z" /><glyph glyph-name="uni590D" unicode="&#x590d;" d="M906 676 l-618 0 q-16 -18 -31 -36 q-44 -49 -81 -84 q-56 -53 -116 -96 q1 0 39 47 q49 61 93 125 q63 92 108 176 l84 -48 q-11 -4 -18 -7 q-43 -22 -66 -59 l468 0 l60 60 l78 -78 ZM966 -50 q-30 -6 -47 -12 q-52 -19 -79 -54 q-3 0 -48 14 q-61 19 -117 42 q-80 33 -141 70 l-60 -32 q-80 -38 -167 -61 q-126 -33 -253 -33 q7 0 72 16 q94 23 171 49 q113 38 201 85 q-17 17 -27 29 q-63 72 -99 145 q-20 -19 -40 -37 q-54 -48 -109 -89 q-80 -59 -157 -102 q4 0 56 46 q64 56 129 127 q87 95 145 187 l-72 0 l0 -42 l-54 -18 l0 330 l66 -30 l372 0 l30 30 l48 -48 l-24 -24 l0 -216 l-48 -18 l0 36 l-234 0 l-90 -108 l270 0 l42 42 l66 -66 q-8 -3 -14 -5 q-35 -15 -58 -43 l-20 -25 q-51 -58 -106 -95 q28 -12 57 -23 q70 -26 145 -43 q106 -24 194 -24 ZM714 472 l0 90 l-390 0 l0 -90 l390 0 ZM714 358 l0 96 l-390 0 l0 -96 l390 0 ZM660 214 l-270 0 q11 -20 19 -33 q51 -78 119 -123 q28 24 45 42 q55 56 87 114 Z" /><glyph glyph-name="uni5927" unicode="&#x5927;" d="M960 -26 q-17 -1 -27 -3 q-61 -12 -99 -45 q-16 0 -85 54 q-98 76 -159 183 q-86 150 -86 339 l-24 0 q-12 -68 -24 -135 q-41 -160 -121 -271 q-114 -157 -293 -200 q18 0 98 59 q111 82 182 195 q98 157 98 352 l-348 0 l-12 -6 l-18 24 l384 0 l6 288 l102 -42 l-36 -30 l-12 -216 l300 0 l60 60 l78 -78 l-402 0 q13 -58 26 -115 q43 -136 124 -233 q114 -137 288 -180 Z" /><glyph glyph-name="uni5929" unicode="&#x5929;" d="M971 -14 q-32 -4 -51 -8 q-59 -13 -93 -40 q-10 0 -68 48 q-80 66 -138 155 q-82 127 -106 277 l-12 0 q0 -144 -71 -252 q-60 -92 -173 -158 q-90 -53 -212 -88 q128 66 190 110 q98 70 147 153 q59 100 59 235 l-342 0 l-12 -6 l-18 24 l372 0 q2 47 4 111 q2 64 2 147 l-282 0 l-12 -6 l-18 24 l600 0 l48 48 l66 -66 l-336 0 q0 -47 -2 -107 q-2 -60 -10 -151 l282 0 l54 54 l72 -72 l-378 0 q16 -48 33 -96 q50 -112 131 -192 q113 -112 274 -144 Z" /><glyph glyph-name="uni5947" unicode="&#x5947;" d="M966 394 l-210 0 l0 -432 q-10 -17 -17 -27 q-23 -33 -49 -51 q-19 41 -69 61 q-44 15 -87 29 l162 -6 l6 6 l0 420 l-630 0 l-12 -6 l-18 24 l138 0 q6 0 46 23 q55 32 99 75 q63 61 95 136 l-264 0 l-12 -6 l-18 24 l300 0 q6 26 9 44 q9 55 9 112 l102 -42 q-35 -4 -48 -58 l-12 -56 l252 0 l54 54 l72 -72 l-384 0 l-12 -42 q112 -27 174 -44 q116 -32 116 -82 q0 -22 -20 -48 q-17 14 -34 29 q-47 38 -97 65 q-73 41 -151 62 q-14 -17 -28 -33 q-36 -38 -82 -71 q-64 -46 -130 -70 l612 0 l60 60 l78 -78 ZM564 294 l-18 -17 l0 -250 l-55 -17 l0 73 l-220 0 l0 -79 l-55 -17 l0 359 l61 -35 l208 0 l30 29 l49 -46 ZM491 100 l0 194 l-220 0 l0 -194 l220 0 Z" /><glyph glyph-name="uni5956" unicode="&#x5956;" d="M942 634 q-28 -8 -55 -32 q-15 -13 -41 -46 l-50 -54 q-67 -64 -148 -109 q-115 -64 -240 -83 q12 0 76 29 q92 41 170 103 q110 87 174 198 l-228 0 l-48 -54 q33 -6 67 -33.5 q34 -27.5 34 -53.5 q0 -13 -9.5 -22.5 q-9.5 -9.5 -31.5 -16.5 q-10 24 -18 39 q-24 45 -54 75 q-27 -26 -46 -41 q-58 -47 -110 -73 l0 -168 l-48 -18 l0 192 q-44 -21 -72 -36 q-84 -46 -150 -96 l-48 54 q53 16 87 28 q103 36 183 74 l0 312 l78 -36 l-30 -24 l0 -270 q3 0 45 42 q51 52 99 118 q66 91 102 182 l78 -54 q-33 -7 -57 -42 q-20 -30 -39 -60 l222 0 l42 42 l66 -66 ZM216 532 q-14 41 -23 67 q-28 77 -55 131 q47 -36 73 -59 q50 -43 50 -77 q0 -16 -10.5 -31.5 q-10.5 -15.5 -34.5 -30.5 ZM979 -62 q-27 -4 -41 -9 q-45 -15 -63 -45 q-11 0 -66 27 q-79 39 -141 95 q-86 78 -125 179 l-23 0 q-29 -150 -163 -237 q-123 -80 -285 -80 q19 0 82 22 q98 34 168 92 q100 82 134 203 l-344 0 l-17 -5 l-18 22 l384 0 q4 20 6 33 q6 40 6 75 l87 -38 q-15 -8 -20.5 -18 q-5.5 -10 -14.5 -52 l303 0 l58 54 l76 -71 l-396 0 q21 -32 43 -64 q58 -72 135 -118 q109 -65 235 -65 Z" /><glyph glyph-name="uni5A92" unicode="&#x5a92;" d="M967 646 l-165 0 l0 -300 l-49 -18 l0 42 l-232 0 l0 -30 l-49 -24 l0 330 l-74 0 l-12 -6 l-18 24 l104 0 l0 150 l79 -42 l-30 -18 l0 -90 l232 0 l0 150 l92 -42 l-43 -24 l0 -84 l74 0 l36 36 l55 -54 ZM973 -14 q-20 -3 -32 -6 q-37 -10 -65 -30 q-4 0 -42 32 q-50 42 -91 91 q-58 69 -88 141 l0 -318 l-55 -18 l0 288 q-21 -24 -42 -47 q-57 -59 -117 -103 q-87 -64 -177 -96 q3 0 53 35 q71 50 125 101 q81 77 140 164 l-233 0 l-12 -6 l-18 24 l281 0 l0 120 l86 -30 l-31 -30 l0 -60 l221 0 l36 36 l55 -54 l-293 0 q16 -24 32 -47 q43 -55 99 -99 q78 -61 168 -88 ZM390 559 q-13 -8 -20 -16 q-21 -24 -26 -75 q-5 -51 -11 -91 q-19 -118 -55 -212 q32 -28 50 -46 q35 -35 35 -60 q0 -26 -35 -44 q-13 24 -21 38 q-25 41 -52 70 q-14 -20 -27 -40 q-37 -50 -77 -89 q-59 -57 -121 -89 q121 104 197 248 q-39 27 -64 43 q-42 27 -77 48 l56 315 l-79 0 l-11 -6 l-17 24 l113 0 l34 243 l79 -49 q-35 -18 -44.5 -78.5 q-9.5 -60.5 -17.5 -115.5 l96 0 l39 43 l56 -61 ZM753 532 l0 114 l-232 0 l0 -114 l232 0 ZM753 388 l0 126 l-232 0 l0 -126 l232 0 ZM300 559 l-107 0 l-68 -315 q13 -6 21 -9 q46 -21 92 -46 q2 0 16 52 q19 68 30 136 q16 96 16 182 Z" /><glyph glyph-name="uni5B57" unicode="&#x5b57;" d="M769 534 l54 119 l-660 0 q1 -4 1 -6 q1 -8 1 -18 q0 -32 -9.5 -54.5 q-9.5 -22.5 -26.5 -36 q-17 -13.5 -33 -13.5 q-12 0 -17 9.5 q-5 9.5 -5 15.5 q0 27 22 38 q16 22 24 37 q24 47 24 99 l13 -53 l309 0 q-3 16 -6 27 q-19 63 -61 110 q47 -18 74 -31 q50 -24 50 -55 q0 -23 -27 -51 l327 0 l43 41 l66 -65 q-44 -7 -88 -45 q-38 -34 -75 -68 ZM954 256 l-414 0 l0 -294 q-12 -19 -20 -30 q-25 -33 -52 -48 q-18 43 -70 64 q-79 32 -80 32 l150 -6 l6 6 l0 276 l-396 0 l-12 -6 l-18 24 l426 0 l0 114 l72 -36 l132 126 l-462 0 l-12 -6 l-18 24 l498 0 l36 36 l72 -72 q-71 -17 -137 -55 q-51 -29 -115 -83 l0 -48 l288 0 l54 54 l72 -72 Z" /><glyph glyph-name="uni5B8C" unicode="&#x5b8c;" d="M768 532 l54 120 l-654 0 q0 -3 1 -11 q1 -8 1 -16 q0 -25 -7 -48.5 q-7 -23.5 -26 -38.5 q-19 -15 -35 -15 q-12 0 -17 9.5 q-5 9.5 -5 15.5 q0 27 22 38 q16 21 24 37 q24 48 24 101 l12 -54 l306 0 q-6 28 -12 46 q-19 53 -54 92 q47 -18 73 -31 q50 -24 50 -55 q0 -24 -27 -52 l324 0 l42 42 l66 -66 q-45 -8 -88 -45 q-37 -35 -74 -69 ZM786 472 l-534 0 l-12 -6 l-18 24 l450 0 l48 48 l66 -66 ZM942 -20 q-7 -13 -13 -20 q-38 -46 -101 -46 l-192 0 q-26 5 -39 13 q-39 24 -39 77 l0 312 l-132 0 l0 -90 q-17 -97 -76 -167 q-52 -62 -138 -109 q-66 -36 -170 -72 q67 40 134 79 q80 51 123 105 q56 71 67 164 l0 90 l-258 0 l-12 -6 l-18 24 l708 0 l54 54 l72 -72 l-288 0 l0 -300 q1 -10 3 -15 q12 -34 45 -39 l150 0 q16 4 24 9 q26 16 30 45 l12 126 q0 -75 6 -101 q11 -49 48 -61 Z" /><glyph glyph-name="uni5B9A" unicode="&#x5b9a;" d="M758 507 l53 133 l-635 0 q0 -2 1 -11 q1 -9 1 -18 q0 -31 -5 -50 q-8 -29 -26 -47 q-7 -6 -17.5 -11.5 q-10.5 -5.5 -17.5 -5.5 q-21 0 -21 28 q0 30 21 42 q16 24 23 41 q24 55 24 112 l11 -60 l297 0 q-6 32 -12 52 q-18 60 -52 102 q46 -21 71 -35 q48 -27 48 -61 q0 -14 -5.5 -26.5 q-5.5 -12.5 -20.5 -31.5 l315 0 l40 47 l64 -73 q-42 -8 -84 -51 q-37 -38 -73 -76 ZM960 -20 q-23 -8 -37 -15 q-42 -22 -65 -57 q-156 0 -218 6 q-148 14 -238 63 q-116 63 -138 183 q-14 -24 -27 -47 q-38 -62 -77 -109 q-59 -71 -124 -120 q3 0 42 55 q51 73 89 153 q55 116 79 236 l84 -54 q-27 -4 -41 -34 q-3 -7 -19 -62 q24 -50 45 -78 q64 -84 159 -114 l0 432 l-306 0 l-12 -6 l-18 24 l606 0 l60 60 l78 -78 l-348 0 l0 -204 l156 0 l60 60 l78 -78 l-294 0 l0 -216 q54 -5 109.5 -8 q55.5 -3 106.5 -3 q108 0 210 11 Z" /><glyph glyph-name="uni5B9D" unicode="&#x5b9d;" d="M780 526 l54 120 l-654 0 q0 -3 1 -11 q1 -8 1 -16 q0 -25 -7 -48.5 q-7 -23.5 -26 -38.5 q-19 -15 -35 -15 q-12 0 -17 9.5 q-5 9.5 -5 15.5 q0 27 22 38 q16 21 24 37 q24 48 24 101 l12 -54 l306 0 q-6 28 -12 46 q-19 53 -54 92 q47 -18 73 -31 q50 -24 50 -55 q0 -24 -27 -52 l324 0 l42 42 l66 -66 q-45 -8 -88 -45 q-37 -35 -74 -69 ZM690 28 q-15 37 -26 60 q-34 68 -76 114 q67 -39 103 -66 q36 -27 36 -53 q0 -14 -8.5 -27 q-8.5 -13 -28.5 -28 ZM948 -44 l-870 0 l-12 -6 l-18 24 l402 0 l0 276 l-228 0 l-12 -6 l-18 24 l258 0 l0 198 l-264 0 l-12 -6 l-18 24 l552 0 l48 48 l66 -66 l-318 0 l0 -198 l192 0 l54 54 l72 -72 l-318 0 l0 -276 l306 0 l60 60 l78 -78 Z" /><glyph glyph-name="uni5BA2" unicode="&#x5ba2;" d="M778 568 l54 107 l-648 0 q1 -4 1 -6 q1 -8 1 -18 q0 -30 -8.5 -48.5 q-8.5 -18.5 -22.5 -29.5 q-21 -14 -36 -14 q-13 0 -17.5 9 q-4.5 9 -4.5 14 q0 25 22 34 q16 19 24 33 q24 43 24 90 l11 -48 l303 0 q-6 25 -12 41 q-19 48 -53 82 q46 -17 72 -28 q49 -22 49 -49 q0 -21 -26 -46 l321 0 l41 37 l66 -59 q-44 -6 -87 -40 q-37 -31 -74 -61 ZM978 220 q-29 -4 -45 -10 q-50 -18 -69 -56 q-4 0 -58 19 q-74 26 -137 55 q-90 41 -159 88 q-36 -24 -61 -39 q-81 -50 -143 -81 l30 -24 l318 0 l30 30 l48 -48 l-18 -18 l0 -222 l-60 -24 l0 54 l-318 0 l0 -36 l-60 -24 l0 300 q-44 -16 -72 -25 q-87 -28 -150 -35 q7 0 71 25 q87 34 165 75 q109 57 184 122 q-24 25 -38 43 q-44 55 -70 107 q-15 -17 -29 -34 q-33 -36 -81 -79 q-62 -55 -118 -91 q3 0 43 41 q56 57 99 121 q64 93 104 198 l96 -48 q-11 -2 -18 -4 q-43 -16 -66 -62 l258 0 l36 36 l72 -72 q-13 -3 -22 -5 q-52 -16 -80 -49 q-19 -20 -32 -33 q-39 -38 -82 -69 q28 -16 57 -32 q75 -38 153 -61 q113 -33 222 -33 ZM648 520 l-270 0 q19 -32 34 -52 q45 -60 98 -98 q28 27 46 45 q53 54 92 105 ZM654 -38 l0 192 l-318 0 l0 -192 l318 0 Z" /><glyph glyph-name="uni5BFB" unicode="&#x5bfb;" d="M798 742 l-18 -18 l0 -312 l-54 -18 l0 36 l-534 0 l-12 -6 l-18 24 l564 0 l0 138 l-492 0 l-12 -6 l-18 24 l522 0 l0 138 l-534 0 l-12 -6 l-18 24 l558 0 l30 30 l48 -48 ZM954 256 l-258 0 l0 -276 q-10 -22 -18 -34 q-24 -37 -54 -44 q-26 44 -81 63 q-44 14 -87 27 l174 -6 l6 6 l0 264 l-558 0 l-12 -6 l-18 24 l588 0 l0 120 l90 -36 l-30 -24 l0 -60 l132 0 l54 54 l72 -72 ZM348 46 q-14 33 -25 54 q-32 61 -71 108 q40 -21 81 -42 q51 -31 51 -63 q0 -14 -8 -27.5 q-8 -13.5 -28 -29.5 Z" /><glyph glyph-name="uni5C55" unicode="&#x5c55;" d="M966 -20 q-15 -3 -24 -6 q-57 -18 -84 -54 q-15 0 -72 29 q-84 43 -147 111 q-88 96 -117 226 l-126 0 l0 -318 l180 78 q-33 -26 -55 -44 q-70 -58 -136 -116 l-54 60 q6 9 8 14 q9 19 9 34 l0 292 l-119 0 q-5 -34 -9 -67 q-17 -83 -51 -153 q-48 -99 -127 -164 q4 0 34 46 q38 59 63 131 q35 102 35 207 l0 486 l55 -30 l551 0 l30 30 l48 -48 l-18 -18 l0 -126 l-54 -24 l0 36 l-144 0 l60 -30 l-24 -18 l0 -90 l108 0 l48 48 l66 -66 l-222 0 l0 -132 l150 0 l54 54 l72 -72 l-414 0 q5 -19 9 -32 q25 -77 75 -136 q33 23 53 38 q61 46 103 88 l66 -60 q-62 0 -118 -23 q-45 -19 -92 -55 q18 -16 37 -32 q51 -38 111 -61 q86 -33 182 -33 ZM786 610 l0 114 l-557 0 l0 -114 l557 0 ZM630 454 l0 138 l-192 0 l66 -30 l-30 -18 l0 -90 l156 0 ZM630 304 l0 132 l-156 0 l0 -132 l156 0 ZM426 304 l0 132 l-120 0 l-12 -6 l-18 24 l150 0 l0 138 l-197 0 l0 -288 l197 0 Z" /><glyph glyph-name="uni5DF2" unicode="&#x5df2;" d="M888 10 q-15 -20 -27 -30 q-37 -30 -87 -30 l-540 0 q-28 3 -42 10 q-42 21 -42 74 l0 528 l79 -36 l-24 -24 l0 -78 l479 0 l0 258 l-528 0 l-12 -6 l-18 24 l552 0 l30 30 l54 -54 l-24 -24 l0 -288 l-54 -30 l0 72 l-479 0 l0 -360 q0 -20 4 -29 q12 -29 50 -25 l497 0 q18 6 27 12 q27 19 27 54 l12 138 q4 -12 10 -88.5 q6 -76.5 56 -97.5 Z" /><glyph glyph-name="uni5E08" unicode="&#x5e08;" d="M972 706 l-282 0 l0 -174 l138 0 l36 36 l48 -48 l-18 -18 l0 -372 q-7 -15 -13 -24 q-19 -29 -41 -48 q-18 40 -75 63 q-39 15 -57 21 l120 -6 l6 6 l0 372 l-144 0 l0 -612 l-54 -24 l0 636 l-132 0 l0 -456 l-54 -24 l0 528 l60 -30 l126 0 l0 174 l-228 0 l-12 -6 l-18 24 l480 0 l48 48 l66 -66 ZM204 628 l-30 -18 l0 -450 l-54 -24 l0 534 l84 -42 ZM366 760 l-30 -30 l0 -468 q0 -94 -39 -166 q-33 -61 -101 -116 q-47 -38 -136 -90 q70 69 140 137 q82 95 82 205 l0 564 l84 -36 Z" /><glyph glyph-name="uni5E38" unicode="&#x5e38;" d="M906 549 q-36 0 -77 -30 q-33 -27 -66 -53 l44 88 l-613 0 q1 -5 1 -15 q0 -39 -20.5 -63.5 q-20.5 -24.5 -57.5 -24.5 q-15 10 -15 22 q0 9 10 19 q21 21 32 35 q34 44 45 89 l5 -47 l282 0 l0 233 l83 -37 l-28 -20 l0 -176 l72 0 q22 36 34 58 q37 66 54 113 l72 -47 q-32 -18 -51 -32 q-57 -41 -93 -92 l188 0 l39 36 l60 -56 ZM343 585 q-24 87 -82 149 l74 -36 q50 -29 50 -58 q0 -13 -9.5 -26.5 q-9.5 -13.5 -32.5 -28.5 ZM792 202 l-24 -24 l0 -168 q-10 -19 -17 -29 q-23 -32 -49 -43 q-11 33 -51 52 q-48 17 -69 26 l126 -6 l6 6 l0 180 l-198 0 l0 -294 l-54 -24 l0 318 l-186 0 l0 -234 l-54 -24 l0 300 l54 -24 l186 0 l0 102 l-120 0 l0 -30 l-54 -18 l0 234 l54 -24 l300 0 l30 30 l48 -48 l-18 -18 l0 -144 l-54 -18 l0 36 l-132 0 l0 -102 l192 0 l36 36 l48 -48 ZM648 334 l0 126 l-306 0 l0 -126 l306 0 Z" /><glyph glyph-name="uni5E74" unicode="&#x5e74;" d="M966 196 l-390 0 l0 -294 l-60 -24 l0 318 l-426 0 l-12 -6 l-18 24 l192 0 l0 270 l60 -36 l204 0 l0 198 l-228 0 l-32 -48 q-42 -59 -86 -107 q-62 -68 -122 -109 q4 0 46 53 q55 68 99 147 q63 112 95 226 l84 -54 q-33 -4 -50 -33 q-14 -29 -28 -57 l504 0 l54 54 l72 -72 l-348 0 l0 -198 l156 0 l54 54 l72 -72 l-282 0 l0 -216 l252 0 l60 60 l78 -78 ZM516 214 l0 216 l-210 0 l0 -216 l210 0 Z" /><glyph glyph-name="uni5E86" unicode="&#x5e86;" d="M944 638 l-716 0 l0 -315 l-4 -76 q-11 -93 -42 -172 q-43 -111 -122 -182 q4 0 28 41 q33 56 53 119 q29 93 29 191 l0 454 l76 -42 l291 0 q-10 30 -17 48 q-22 52 -53 98 l72 -48 q43 -32 43 -58 q0 -21 -22 -40 l262 0 l52 55 l70 -73 ZM990 -56 q-25 -4 -39 -9 q-42 -15 -57 -45 q-9 0 -60 46 q-70 63 -122 151 q-73 124 -94 271 l-18 0 q0 -195 -105 -315 q-96 -110 -273 -153 q16 0 82 40 q94 57 153 144 q83 122 83 284 l-252 0 l-12 -6 l-18 24 l282 0 l6 222 l102 -42 l-36 -30 l-6 -150 l240 0 l54 54 l72 -72 l-336 0 q12 -45 25 -90 q39 -107 103 -182 q92 -107 226 -142 Z" /><glyph glyph-name="uni5F00" unicode="&#x5f00;" d="M972 364 l-276 0 l0 -444 l-60 -24 l0 468 l-246 0 q0 -183 -99 -310 q-94 -121 -231 -140 q134 45 202 159 q68 114 68 291 l-246 0 l-12 -6 l-18 24 l276 0 l0 312 l-192 0 l-12 -6 l-18 24 l684 0 l54 54 l72 -72 l-222 0 l0 -312 l150 0 l54 54 l72 -72 ZM636 382 l0 312 l-246 0 l0 -312 l246 0 Z" /><glyph glyph-name="uni5F13" unicode="&#x5f13;" d="M828 286 l-42 -42 l-90 -240 q-18 -30 -34 -46 q-48 -49 -116 -56 q-9 40 -39 66 q-12 10 -111 60 q79 -18 159 -35 q31 0 53.5 13 q22.5 13 39.5 46 l84 234 l-510 0 l-42 -42 l-54 54 l42 42 l66 234 l48 -48 l402 0 l0 192 l-516 0 l-12 -6 l-18 24 l540 0 l36 36 l54 -54 l-30 -30 l0 -210 l-54 -24 l0 54 l-408 0 l-54 -204 l504 0 l42 42 l60 -60 Z" /><glyph glyph-name="uni5F55" unicode="&#x5f55;" d="M972 40 q-106 16 -194 62 q-65 33 -116 79 q-19 19 -38 39 l100 72 q58 36 122 36 l-66 66 q-55 -59 -115 -112 q-21 -18 -53 -44 q-45 45 -72 126 q-9 27 -18 72 l426 0 l-78 78 l-60 -60 l-78 0 l0 258 l24 24 l-54 54 l-36 -36 l-486 0 l18 -24 l12 6 l462 0 l0 -132 l-456 0 l18 -24 l12 6 l426 0 l0 -132 l-606 0 l18 -24 l12 6 l366 0 l0 -438 l-6 -6 l-144 6 q57 -18 83 -29 q46 -20 61 -61 q30 19 51 53 q7 11 15 31 l0 348 q40 -99 119 -190 q60 -69 127 -122 q53 -42 60 -42 q30 33 90 47 q20 4 54 7 ZM288 202 q-13 37 -24 60 q-34 72 -78 120 q50 -24 82 -49 q54 -41 54 -78 q0 -29 -34 -53 ZM432 208 q-2 0 -50 -27 q-60 -34 -121 -73 q-82 -53 -147 -104 l-48 66 q5 0 56 18 q73 26 136 52 q84 35 168 80 l6 -12 Z" /><glyph glyph-name="uni5F85" unicode="&#x5f85;" d="M954 436 l-606 0 l-18 -6 l-18 24 l252 0 l0 162 l-174 0 l-18 -6 l-18 24 l210 0 l0 180 l96 -36 l-36 -24 l0 -120 l138 0 l54 54 l72 -72 l-264 0 l0 -162 l204 0 l54 54 l72 -72 ZM353 734 q-26 -9 -43 -25 q-13 -12 -25 -31 q-15 -18 -29 -36 q-40 -47 -81 -84 q-59 -54 -121 -90 q2 0 40 43 q46 52 93 117 q63 88 104 168 l62 -62 ZM948 268 l-192 0 l0 -324 q-10 -17 -19 -27 q-27 -30 -65 -45 q-7 37 -45 58 q-35 16 -69 32 l126 -12 l12 12 l0 306 l-336 0 l-12 -6 l-18 24 l366 0 l0 132 l90 -42 l-30 -30 l0 -60 l78 0 l48 48 l66 -66 ZM504 40 q-10 35 -19 56 q-27 64 -65 106 q37 -21 74 -41 q47 -31 47 -63 q0 -14 -8.5 -27.5 q-8.5 -13.5 -28.5 -30.5 ZM366 542 q-29 -20 -45 -34 q-50 -45 -74 -96 l38 -24 l-25 -19 l0 -450 l-56 -31 l0 469 q-31 -29 -50 -46 q-61 -54 -106 -84 q2 0 42 49 q51 63 98 134 q64 97 109 194 l69 -62 Z" /><glyph glyph-name="uni5F97" unicode="&#x5f97;" d="M819 718 l-19 -18 l0 -285 l-57 -24 l0 60 l-252 0 l0 -42 l-56 -24 l0 381 l56 -30 l246 0 l31 30 l51 -48 ZM347 735 q-24 -8 -44 -25 q-14 -12 -26 -30 q-15 -18 -29 -35 q-37 -42 -83 -82 q-63 -55 -123 -89 q2 0 41 43 q53 57 95 114 q64 85 106 165 l63 -61 ZM951 183 l-195 0 l0 -224 q-15 -21 -25 -32 q-32 -35 -63 -46 q-5 43 -64 70 q-28 13 -56 25 l139 -11 l12 11 l0 207 l-214 0 q28 -34 42 -53 q27 -36 27 -58 q0 -32 -50 -48 q-9 87 -38 159 l-63 0 l-13 -6 l-18 24 l327 0 l0 125 l-290 0 l-12 -6 l-19 24 l409 0 l44 41 l63 -59 l-138 0 l0 -125 l75 0 l51 48 l69 -66 ZM360 547 q-29 -20 -46 -34 q-51 -44 -75 -93 l38 -24 l-25 -19 l0 -441 l-58 -30 l0 459 q-30 -28 -50 -45 q-62 -53 -108 -82 q3 0 43 48 q46 55 99 132 q69 101 112 190 l70 -61 ZM743 605 l0 113 l-252 0 l0 -113 l252 0 ZM743 469 l0 118 l-252 0 l0 -118 l252 0 Z" /><glyph glyph-name="uni5FC3" unicode="&#x5fc3;" d="M540 562 q-17 47 -29 76 q-37 87 -79 140 q54 -23 97 -57 q58 -47 58 -90 q0 -18 -11 -35 q-11 -17 -36 -34 ZM888 208 q-22 55 -39 90 q-51 102 -117 180 q113 -73 123 -81 q74 -59 74 -112 q0 -40 -41 -77 ZM774 52 q-5 -18 -10 -28 q-33 -62 -110 -62 l-246 0 q-13 1 -20 3 q-46 15 -64 69 l0 564 l90 -48 l-36 -30 l0 -468 q5 -10 9 -15 q13 -17 27 -21 l222 0 q18 6 27 12 q29 20 33 54 l12 132 q10 -61 21 -121 q12 -35 45 -41 ZM180 424 q4 -45 5.5 -67.5 q1.5 -22.5 1.5 -36.5 q0 -77 -19 -120 q-25 -58 -84 -58 q-6 4 -9 7 q-10 10 -10 19 q0 14 19 28 q27 34 41 60 q44 79 55 168 Z" /><glyph glyph-name="uni606D" unicode="&#x606d;" d="M966 184 q-23 -7 -37 -12 q-41 -16 -65 -36 q-5 0 -52 32 q-64 44 -116 97 q-74 75 -120 165 l-180 0 q-23 -33 -45 -66 q-58 -77 -129 -140 q-98 -87 -198 -124 q6 0 55 37 q63 48 121 111 q79 87 124 182 l-246 0 l-12 -6 l-18 24 l282 0 l0 168 l-168 0 l-12 -6 l-18 24 l198 0 l0 174 l96 -42 l-42 -30 l0 -102 l204 0 l0 168 l96 -42 l-30 -24 l0 -102 l108 0 l54 54 l72 -72 l-234 0 l0 -168 l168 0 l54 54 l72 -72 l-342 0 q18 -26 37 -51 q52 -63 117 -107 q94 -64 206 -88 ZM804 -56 q-14 46 -25 75 q-32 85 -71 147 q43 -35 86 -69 q64 -57 64 -95 q0 -17 -12.5 -31.5 q-12.5 -14.5 -41.5 -26.5 ZM630 -26 q-14 38 -24 62 q-30 69 -66 130 q44 -28 82 -62 q57 -52 57 -85 q0 -31 -49 -45 ZM522 304 l-30 -24 l0 -324 q-6 -23 -12 -35 q-19 -37 -54 -49 q-11 37 -54 58 l-78 32 l132 -6 l6 6 l0 378 l90 -36 ZM288 166 q0 -78 -15 -122 q-24 -71 -90 -71 q-10 0 -15 1 q-6 3 -8 5 q-8 7 -8 15 q0 11 16 22 q26 20 42 36 q47 48 78 114 ZM588 448 l0 168 l-204 0 l0 -168 l204 0 Z" /><glyph glyph-name="uni606F" unicode="&#x606f;" d="M774 664 l-18 -18 l0 -426 l-54 -24 l0 48 l-414 0 l0 -30 l-54 -24 l0 528 l60 -36 l102 0 q12 19 18 33 q18 43 18 93 l84 -42 q-19 -10 -30 -19 q-35 -28 -54 -65 l264 0 l30 30 l48 -48 ZM882 -36 q-15 42 -27 68 q-39 80 -97 135 q75 -35 128 -79 q49 -41 49 -71 q0 -17 -11.5 -29.5 q-11.5 -12.5 -41.5 -23.5 ZM499 24 q-6 34 -11 55 q-16 60 -45 105 q49 -32 79 -64.5 q30 -32.5 30 -54.5 q0 -15 -12 -25 q-12 -10 -41 -16 ZM752 -31 q-10 -19 -20 -29 q-31 -30 -85 -37 l-284 0 q-12 2 -19 4 q-43 14 -62 51 l0 209 l81 -39 l-25 -11 l0 -142 q5 -10 10 -15 q15 -17 39 -24 l241 0 q19 8 27 14 q27 20 23 47 l0 104 q4 -5 21 -70 q13 -49 53 -62 ZM153 145 q15 -17 15 -61 q0 -44 -15 -79 q-18 -41 -50 -52 q-7 -4 -14 -4 q-11 0 -17.5 9.5 q-6.5 9.5 -6.5 23.5 q0 25 20 31 q21 20 31 35 q33 46 37 97 ZM702 544 l0 120 l-408 0 l0 -120 l408 0 ZM702 400 l0 126 l-414 0 l0 -126 l414 0 ZM702 262 l0 120 l-414 0 l0 -120 l414 0 Z" /><glyph glyph-name="uni60A8" unicode="&#x60a8;" d="M780 520 l48 102 l-378 0 q-26 -28 -44 -46 q-56 -55 -112 -92 q2 0 36 42 q47 57 84 111 q54 79 96 159 l78 -48 q-28 -17 -44 -29 q-50 -38 -76 -79 l360 0 l42 42 l66 -66 q-42 -4 -85 -36 q-36 -30 -71 -60 ZM882 280 q-28 40 -47 66 q-57 76 -115 138 q100 -46 120 -58 q74 -45 74 -88 q0 -14 -7.5 -28.5 q-7.5 -14.5 -24.5 -29.5 ZM678 562 l-24 -18 l0 -246 q-9 -21 -16 -33 q-21 -35 -44 -51 q-15 37 -60 61 q-54 23 -78 35 l132 -6 l6 6 l0 288 l84 -36 ZM898 -21 q-15 45 -27 73 q-38 85 -96 144 q77 -38 126.5 -82 q49.5 -44 49.5 -78 q0 -35 -53 -57 ZM522 442 q-47 -16 -93 -54 q-114 -92 -135 -102 q35 37 56 63 q66 80 106 153 l66 -60 ZM366 766 q-45 -18 -78 -65 q-28 -40 -55 -80 l63 -26 l-38 -19 l0 -338 l-57 -15 l0 360 q-28 -26 -47 -42 q-59 -49 -118 -84 q3 0 43 44 q57 63 97 120 q60 86 95 175 l95 -30 ZM518 44 q-4 20 -6 34 q-17 82 -49 136 q51 -37 79.5 -69.5 q28.5 -32.5 28.5 -57.5 q0 -16 -11.5 -26.5 q-11.5 -10.5 -41.5 -16.5 ZM769 -15 q-9 -21 -19 -31 q-30 -32 -85 -39 l-281 0 q-11 2 -18 4 q-43 14 -62 54 l0 223 l80 -41 l-25 -12 l0 -152 q5 -11 10 -16 q15 -17 39 -25 l239 0 q10 4 16 7 q38 23 33 58 l0 110 q3 -4 20 -74 q13 -52 53 -66 ZM176 172 q16 -19 16 -65 q0 -45 -17 -87 q-17 -42 -48 -52 q-8 -5 -14 -5 q-11 0 -18 11 q-7 11 -7 26 q0 26 20 32 q23 21 34 37 q34 48 34 103 Z" /><glyph glyph-name="uni60D1" unicode="&#x60d1;" d="M756 688 q-14 22 -25 36 q-32 41 -71 72 q58 -15 89.5 -28.5 q31.5 -13.5 31.5 -34.5 q0 -20 -25 -45 ZM942 628 l-348 0 q7 -49 14 -81 q22 -98 64 -177 q23 37 37 63 q43 80 65 153 l78 -42 q-48 -17 -85 -88 q-49 -94 -71 -116 q26 -28 45 -44 q58 -50 117 -76 l48 132 q-2 -11 -4 -26 q-2 -15 -2 -39 q0 -34 7 -68 q7 -34 23 -65 q-77 0 -150 45 q-54 33 -114 99 q-26 -24 -44 -38 q-56 -44 -112 -70 q28 25 45 42 q56 54 87 96 q-2 0 -21 37 q-22 43 -43 105 q-28 82 -38 158 l-468 0 l-12 -6 l-18 24 l492 0 l-12 162 l90 -36 l-30 -18 l6 -108 l228 0 l54 54 l72 -72 ZM874 -34 q-8 25 -14 42 q-40 101 -109 170 q73 -34 127 -81 q49 -43 49 -76 q0 -17 -12.5 -30.5 q-12.5 -13.5 -40.5 -24.5 ZM486 520 l-18 -18 l0 -132 l-48 -24 l0 36 l-210 0 l0 -42 l-54 -24 l0 246 l60 -30 l198 0 l30 30 l42 -42 ZM494 29 q-6 35 -11 57 q-16 65 -44 110 q49 -35 78.5 -68.5 q29.5 -33.5 29.5 -55.5 q0 -16 -11.5 -26.5 q-11.5 -10.5 -41.5 -16.5 ZM558 310 l-456 -120 l-42 66 l498 54 ZM745 -28 q-9 -20 -19 -30 q-31 -32 -85 -39 l-281 0 q-11 2 -18 4 q-43 14 -62 53 l0 218 l80 -40 l-25 -12 l0 -148 q5 -11 10 -16 q15 -17 39 -25 l239 0 q18 8 26 14 q27 21 23 50 l0 108 q3 -4 20 -72 q13 -51 53 -65 ZM152 155 q16 -19 16 -64 q0 -44 -17 -84.5 q-17 -40.5 -48 -51.5 q-7 -4 -14 -4 q-11 0 -18 10.5 q-7 10.5 -7 24.5 q0 26 20 32 q23 21 34 36 q34 47 34 101 ZM420 400 l0 114 l-210 0 l0 -114 l210 0 Z" /><glyph glyph-name="uni620F" unicode="&#x620f;" d="M816 585 q-19 33 -32 52 q-41 60 -79 90 q52 -16 87 -29 q67 -26 67 -57 q0 -25 -43 -56 ZM965 -119 q-16 0 -63 15 q-74 23 -135 66 q-86 60 -130 147 q-46 -34 -77 -53 q-95 -59 -188 -94 q1 0 39 26 q52 36 94 68 q62 48 114 96 q-17 58 -25 97 q-25 119 -25 231 l-167 -12 l-12 18 l179 13 l-6 309 l99 -44 l-37 -24 l6 -235 l210 18 l43 56 l75 -68 l-328 -25 q1 -55 3 -91 q7 -102 28 -193 q1 0 26 28 q36 39 64 75 q46 58 77 107 l68 -62 q-13 -3 -21 -6 q-50 -19 -78 -62 q-20 -27 -33 -44 q-41 -50 -84 -86 q9 -19 19 -38 q26 -43 65 -80 q54 -50 119 -72 q10 39 16 64 q20 74 40 139 q-1 -10 -2 -16 q-7 -48 -7 -84 q0 -51 7 -94 q7 -43 27 -90 ZM444 617 q-14 -12 -22 -21 q-26 -28 -36 -60 q-6 -25 -11 -42 q-29 -96 -69 -179 q5 -10 70 -105 q49 -71 49 -111 q0 -20 -10.5 -35.5 q-10.5 -15.5 -34.5 -27.5 q-14 43 -25 71 q-33 81 -78 150 l-34 -52 q-44 -63 -91 -115 q-67 -74 -134 -118 q2 0 41 43 q53 59 95 117 q62 87 100 171 q-11 19 -21 39 q-33 59 -57 98 q-39 63 -84 125 q37 -37 60 -62 q65 -70 125 -142 q16 45 25 76 q27 94 38 186 l-265 0 l-11 -6 l-18 24 l294 0 l40 41 l64 -65 Z" /><glyph glyph-name="uni6210" unicode="&#x6210;" d="M774 628 q-8 18 -15 29 q-41 68 -105 109 q56 -14 90 -25 q66 -22 66 -56 q0 -12 -8.5 -26 q-8.5 -14 -27.5 -31 ZM966 -104 q-14 0 -55 13 q-64 20 -123 57 q-80 50 -128 122 l-40 -38 q-50 -44 -109 -80 q-82 -50 -157 -68 q4 0 49 28 q55 34 111 81 q75 62 122 125 q-3 0 -29 56 q-34 74 -55 155 q-30 117 -30 233 l-294 0 l0 -180 l156 0 l36 36 l54 -54 l-24 -24 l0 -252 q-8 -33 -18 -52 q-31 -57 -96 -80 q-4 37 -43 58 q-36 16 -71 32 q13 0 27.5 -0.5 q14.5 -0.5 29.5 -0.5 q51 0 76 12 q35 17 35 61 l0 246 l-162 0 q-2 -47 -4 -93 q-12 -113 -47 -201 q-50 -124 -141 -186 q69 69 102 165 q30 88 30 201 l0 366 l72 -36 l282 0 l0 210 l96 -36 l-36 -12 l0 -162 l234 0 l54 54 l72 -72 l-360 0 q1 -31 3 -61 q7 -80 21 -147 q21 -99 60 -182 q1 0 22 42 q28 57 47 113 q28 84 39 163 l84 -48 q-12 -7 -18 -13 q-20 -19 -24 -41 q-10 -32 -18 -53 q-46 -123 -102 -217 q25 -38 45 -59 q61 -64 141 -91 l48 198 q2 -11 2 -31.5 q0 -20.5 1 -32.5 q0 -16 -0.5 -32 q-0.5 -16 -0.5 -32 q0 -50 6 -85 q6 -35 28 -75 Z" /><glyph glyph-name="uni6211" unicode="&#x6211;" d="M822 586 q-23 32 -38 51 q-48 60 -88 93 q57 -17 90 -28 q62 -22 62 -58 q0 -13 -5.5 -26 q-5.5 -13 -20.5 -32 ZM948 490 l-336 0 q1 -54 4 -89 q9 -104 32 -193 q33 37 53 62 q62 77 103 148 l66 -60 q-48 -28 -106 -92 q-81 -90 -98 -106 q22 -48 42 -75 q60 -81 150 -111 q7 18 12 31 q36 90 54 143 q-4 -20 -6 -34 q-6 -43 -6 -87 q0 -33 4 -68 q4 -35 14 -69 q-111 13 -188.5 72.5 q-77.5 59.5 -123.5 161.5 q-37 -27 -64 -43 q-82 -49 -164 -71 q45 26 73 44 q84 56 137 112 q-16 57 -24 96 q-24 118 -24 228 l-204 0 l0 -150 l162 48 l0 -6 l-30 -15 q-73 -36 -132 -63 l0 -312 q-11 -19 -19 -30 q-25 -36 -47 -54 q-19 42 -66 64 q-60 20 -90 32 l162 -6 l6 6 l0 276 q-40 -18 -66 -30 q-67 -32 -138 -72 l-42 72 l246 72 l0 168 l-216 0 l-12 -6 l-18 24 l246 0 l0 168 q-43 -8 -71 -12 q-85 -12 -157 -12 q7 0 61 13 q71 17 145 41 q96 31 166 66 l60 -60 l-150 -24 l0 -180 l204 0 l0 294 l96 -42 l-36 -30 l0 -222 l210 0 l54 54 l72 -72 Z" /><glyph glyph-name="uni624B" unicode="&#x624b;" d="M972 274 l-78 78 l-60 -60 l-306 0 l0 186 l330 0 l-78 78 l-60 -60 l-192 0 l0 198 q40 0 103 10 q138 22 176 22 l24 0 q11 -2 15 -2 l-72 72 q-136 -40 -311 -71 q-128 -23 -259 -38 q-94 -11 -108 -11 q116 0 259 6 q47 2 119 6 l0 -192 l-330 0 l18 -24 l12 6 l300 0 l0 -186 l-420 0 l18 -24 l12 6 l390 0 l0 -288 l-6 -6 l-186 6 q16 -8 75 -25 q83 -24 99 -77 q27 19 52 56 q8 12 20 34 l0 300 l444 0 Z" /><glyph glyph-name="uni6253" unicode="&#x6253;" d="M978 646 l-216 0 l0 -702 q-15 -18 -26 -28 q-35 -31 -76 -38 q-7 36 -51 59 q-38 19 -75 37 l156 -12 l12 12 l0 672 l-192 0 l-12 -6 l-18 24 l372 0 l54 54 l72 -72 ZM480 568 l-163 0 l0 -204 l157 66 l0 -6 l-157 -102 l0 -354 q-13 -19 -23 -29 q-31 -32 -66 -43 q-9 40 -60 65 q-27 13 -53 25 l126 -6 l13 6 l0 306 l-120 -84 l-50 66 l170 66 l0 228 l-126 0 l-13 -6 l-19 24 l158 0 l0 222 l100 -42 l-37 -24 l0 -156 l56 0 l44 42 l63 -60 Z" /><glyph glyph-name="uni6280" unicode="&#x6280;" d="M960 -44 q-27 -2 -43 -6 q-49 -12 -71 -42 q-44 26 -72 44 q-83 54 -144 112 q-22 -19 -44 -37 q-57 -43 -122 -77 q-92 -47 -182 -66 q4 0 53 24 q62 31 123 72 q85 58 142 120 q-2 0 -21 35 q-24 43 -45 99 q-29 76 -42 148 l-24 0 l-12 -6 l-18 24 l174 0 l0 180 l-162 0 l-12 -6 l-18 24 l192 0 l0 210 l90 -42 l-36 -24 l0 -144 l150 0 l54 54 l72 -72 l-276 0 l0 -180 l90 0 l36 36 l60 -60 q-17 -10 -26 -18 q-28 -25 -40 -60 q-17 -42 -30 -68 q-40 -78 -90 -136 q18 -13 37 -26 q48 -31 103 -57 q78 -37 154 -55 ZM421 568 l-159 0 l0 -204 l153 66 l0 -6 l-153 -102 l0 -354 q-7 -12 -12 -18 q-33 -40 -74 -54 q-8 34 -43 56 q-46 22 -67 34 l123 -6 l12 6 l0 306 l-117 -84 l-48 66 l165 66 l0 228 l-123 0 l-12 -6 l-18 24 l153 0 l0 222 l98 -42 l-37 -24 l0 -156 l55 0 l43 42 l61 -60 ZM756 382 l-246 0 q7 -31 13 -51 q37 -118 107 -201 q2 0 26 33 q31 43 54 89 q32 65 46 130 Z" /><glyph glyph-name="uni62FE" unicode="&#x62fe;" d="M964 440 q-21 -3 -33 -6 q-38 -9 -65 -24 q-4 0 -39 39 q-46 51 -83 111 q-52 84 -76 174 q-18 -31 -35 -61 q-46 -74 -98 -141 q-73 -92 -151 -159 q3 0 38 48 q47 65 91 146 q61 114 105 241 l81 -43 q-7 -3 -10 -5 q-10 -8 -10 -22 q0 -7 1 -10 q15 -27 31 -54 q41 -64 94 -118 q74 -75 159 -116 ZM816 391 l-303 0 l-12 -6 l-19 25 l229 0 l43 43 l62 -62 ZM841 238 l-19 -18 l0 -299 l-55 -31 l0 92 l-241 0 l0 -79 l-56 -25 l0 415 l62 -36 l228 0 l31 30 l50 -49 ZM408 562 l-151 0 l0 -204 l145 66 l0 -6 l-145 -102 l0 -354 q-12 -19 -21 -29 q-28 -32 -61 -43 q-7 34 -41 56 q-43 22 -63 34 l116 -6 l12 6 l0 306 l-111 -84 l-46 66 l157 66 l0 228 l-117 0 l-11 -6 l-18 24 l146 0 l0 222 l93 -42 l-35 -24 l0 -156 l52 0 l41 42 l58 -60 ZM767 1 l0 237 l-241 0 l0 -237 l241 0 Z" /><glyph glyph-name="uni634C" unicode="&#x634c;" d="M54 -8 l96 -6 l9 6 l0 306 l-91 -84 l-38 66 l129 66 l0 228 l-96 0 l-9 -6 l-15 24 l120 0 l0 222 l77 -42 l-29 -24 l0 -156 l43 0 l34 42 l48 -60 l-125 0 l0 -204 l120 66 l0 -6 l-120 -102 l0 -354 q-5 -12 -9 -18 q-25 -40 -58 -54 q-6 34 -34 56 q-36 22 -52 34 ZM828 -116 q-11 37 -55 58 q-56 20 -83 32 l144 -12 l12 12 l0 828 l78 -36 l-24 -18 l0 -792 q-12 -20 -20 -31 q-26 -33 -52 -41 ZM750 574 l0 -426 l-48 -24 l0 504 l72 -36 l-24 -18 ZM642 484 l-54 -24 l0 48 l-174 0 l0 -48 l-54 -24 l0 294 l54 -30 l168 0 l30 30 l48 -48 l-18 -18 l0 -180 ZM318 304 l132 0 l0 132 l90 -30 q-18 -9 -24 -27.5 q-6 -18.5 -6 -45.5 l0 -29 l72 0 l30 30 l42 -42 l-18 -18 l-12 -222 q-2 -37 -9 -57 q-22 -60 -87 -75 q0 25 -18 41 q-3 2 -72 37 l96 -12 q12 10 18 17 q20 24 24 49 l12 234 l-78 0 q-5 -38 -10 -75 q-20 -89 -68 -159 q-67 -98 -180 -144 q7 0 51 43 q58 57 95 127 q52 99 52 208 l-102 0 l-12 -6 l-18 24 ZM414 526 l174 0 l0 156 l-174 0 l0 -156 Z" /><glyph glyph-name="uni6362" unicode="&#x6362;" d="M984 196 l-312 0 q13 -28 27 -56 q39 -67 93 -112 q78 -65 180 -84 q-12 -1 -20 -3 q-46 -12 -70 -45 q-8 0 -47 29 q-53 39 -97 97 q-60 79 -84 174 l-24 0 l-30 -70 q-45 -82 -112 -141 q-95 -83 -224 -107 q10 0 63 29 q76 41 131 99 q80 83 112 190 l-234 0 l-12 -6 l-18 24 l102 0 l0 270 q-13 -11 -22 -18 q-24 -19 -50 -36 q2 0 38 48 q46 61 88 131 q60 101 96 193 l84 -48 q-12 -5 -20 -9 q-47 -25 -70 -75 l150 0 l36 36 l66 -66 q-56 -11 -103 -66 q-36 -45 -71 -90 l150 0 l42 42 l60 -60 l-30 -30 l0 -222 l18 0 l48 48 l66 -66 ZM396 556 l-156 0 l0 -204 l150 66 l0 -6 l-150 -102 l0 -354 q-12 -19 -21 -29 q-28 -31 -63 -43 q-8 34 -42 56 q-45 22 -66 34 l120 -6 l12 6 l0 306 l-114 -84 l-48 66 l162 66 l0 228 l-120 0 l-12 -6 l-18 24 l150 0 l0 222 l96 -42 l-36 -24 l0 -156 l54 0 l42 42 l60 -60 ZM702 646 l-162 0 q-11 -17 -18 -28 q-45 -65 -96 -116 l36 -18 l144 0 q20 28 32 47 q38 60 64 115 ZM792 214 l0 252 l-138 0 q-1 -47 -2 -78 q-4 -91 -16 -174 l156 0 ZM588 340 l0 126 l-120 0 l0 -252 l108 0 l12 126 Z" /><glyph glyph-name="uni6392" unicode="&#x6392;" d="M961 172 l-216 0 l0 -257 l-54 -24 l0 917 l81 -48 l-27 -17 l0 -147 l103 0 l49 53 l64 -71 l-216 0 l0 -182 l92 0 l43 47 l60 -65 l-195 0 l0 -188 l114 0 l43 47 l59 -65 ZM616 755 l-27 -24 l0 -793 l-54 -23 l0 263 l-124 0 l-11 -6 l-16 24 l151 0 l0 182 l-103 0 l-11 -6 l-16 24 l130 0 l0 182 l-103 0 l-11 -6 l-16 24 l130 0 l0 200 l81 -41 ZM406 562 l-153 0 l0 -204 l147 66 l0 -6 l-147 -102 l0 -354 q-12 -19 -21 -29 q-28 -32 -61 -43 q-7 34 -42 56 q-44 22 -64 34 l118 -6 l11 6 l0 306 l-111 -84 l-47 66 l158 66 l0 228 l-117 0 l-12 -6 l-18 24 l147 0 l0 222 l94 -42 l-35 -24 l0 -156 l53 0 l41 42 l59 -60 Z" /><glyph glyph-name="uni63A8" unicode="&#x63a8;" d="M710 620 q-6 20 -10 34 q-28 82 -76 142 q48 -23 79 -45 q58 -41 58 -75 q0 -31 -51 -56 ZM981 -28 l-461 0 l0 -72 l-52 -19 l0 569 q-21 -35 -35 -57 q-45 -68 -91 -113 q2 0 34 66 q40 83 74 178 q48 135 70 259 l81 -42 q-32 -17 -49.5 -75 q-17.5 -58 -19.5 -64 l293 0 l52 54 l69 -73 l-224 0 l0 -175 l86 0 l52 54 l69 -73 l-207 0 l0 -181 l92 0 l52 54 l69 -72 l-213 0 l0 -199 l138 0 l52 54 l69 -73 ZM403 568 l-147 0 l0 -204 l141 66 l0 -6 l-141 -102 l0 -354 q-12 -19 -20 -29 q-27 -32 -59 -43 q-7 34 -40 56 q-42 22 -61 34 l113 -6 l11 6 l0 306 l-107 -84 l-45 66 l152 66 l0 228 l-113 0 l-11 -6 l-17 24 l141 0 l0 222 l90 -42 l-34 -24 l0 -156 l51 0 l39 42 l57 -60 ZM670 408 l0 175 l-150 0 l0 -175 l150 0 ZM670 208 l0 181 l-150 0 l0 -181 l150 0 ZM670 -9 l0 199 l-150 0 l0 -199 l150 0 Z" /><glyph glyph-name="uni63D0" unicode="&#x63d0;" d="M834 724 l-24 -24 l0 -312 l-54 -24 l0 60 l-252 0 l0 -42 l-54 -24 l0 402 l54 -24 l246 0 l36 36 l48 -48 ZM972 -26 q-25 -8 -38 -15 q-41 -21 -52 -51 q-91 15 -181 30 q-103 21 -159 55 q-73 44 -98 119 q-13 -22 -25 -43 q-32 -49 -75 -93 q-59 -60 -122 -92 q5 0 44 43 q53 58 92 127 q56 98 80 208 l72 -54 q-24 -15 -35 -28 q-19 -22 -25 -50 q12 -20 21 -32 q56 -73 141 -100 l0 306 l-270 0 l-12 -6 l-18 24 l516 0 l48 48 l66 -66 l-276 0 l0 -144 l126 0 l42 42 l60 -60 l-228 0 l0 -156 q38 -7 89 -10 q51 -3 93 -3 l15 0 l13 0 l12 0 q18 0 36 0.5 q18 0.5 37 0.5 l11 0 ZM412 570 l-156 0 l0 -202 l150 65 l0 -6 l-150 -101 l0 -349 q-6 -12 -10 -18 q-28 -40 -69 -53 q-9 38 -57 64 q-25 13 -49 25 l118 -6 l11 6 l0 302 l-111 -83 l-47 65 l158 65 l0 226 l-117 0 l-12 -6 l-18 24 l147 0 l0 220 l91 -42 l-35 -24 l0 -154 l56 0 l41 41 l59 -59 ZM756 598 l0 120 l-252 0 l0 -120 l252 0 ZM756 442 l0 138 l-252 0 l0 -138 l252 0 Z" /><glyph glyph-name="uni653B" unicode="&#x653b;" d="M942 -53 q-16 -1 -26 -1 q-61 -5 -97 -23 q-35 26 -57 44 q-68 56 -114 110 l-36 -32 q-48 -39 -102 -72 q-78 -47 -156 -73 q5 0 49 26 q58 34 108 75 q69 57 109 117 q-2 0 -21 45 q-24 56 -39 119 q-22 90 -22 169 q-18 -29 -30 -47 q-33 -49 -72 -101 q2 0 31 67 q40 92 67 179 q41 131 59 259 l103 -48 q-50 -18 -73 -85 q-19 -59 -37 -117 l212 0 l55 48 l75 -66 l-130 0 q-5 -35 -10 -69 q-15 -86 -38 -164 q-31 -108 -75 -189 q17 -16 34 -31 q45 -38 93 -69 q68 -44 140 -71 ZM492 202 q-2 0 -62 -22 q-75 -27 -155 -56 q-168 -60 -203 -72 l-36 66 l192 36 l0 462 l-138 0 l-12 -6 l-18 24 l300 0 l54 54 l72 -72 l-204 0 l0 -450 l210 36 ZM723 540 l-144 0 l-20 -47 q4 -30 9 -60 q12 -73 27 -135 q21 -87 46 -144 q2 0 21 52 q23 64 39 138 q22 104 22 196 Z" /><glyph glyph-name="uni6599" unicode="&#x6599;" d="M643 504 q-7 22 -13 36 q-35 85 -83 133 q46 -24 74 -42 q53 -34 53 -69 q0 -27 -31 -58 ZM974 237 l-165 -35 l0 -302 l-59 -23 l0 307 l-326 -64 l-10 18 l336 64 l0 588 l91 -41 l-32 -29 l0 -501 l53 12 l43 64 l69 -58 ZM611 277 q-9 38 -17 61 q-24 68 -63 114 l88 -60 q32 -29 32 -55 q0 -31 -40 -60 ZM153 499 q-12 33 -21 54 q-25 59 -57 112 q58 -39 89 -66 q31 -27 31 -50 q0 -12 -10 -25 q-10 -13 -32 -25 ZM513 427 l-203 0 l0 -89 q61 -23 95 -37 q65 -28 65 -62 q0 -12 -6.5 -25 q-6.5 -13 -22.5 -30 q-21 30 -36 48 q-46 55 -95 88 l0 -415 l-59 -23 l0 420 q-13 -20 -26 -39 q-31 -43 -75 -93 q-55 -63 -114 -111 q1 0 35 49 q45 66 82 131 q54 96 92 188 l-164 0 l-13 -6 l-19 24 l202 0 l0 351 l92 -42 l-33 -24 l0 -226 q26 33 41 56 q50 73 77 140 l72 -53 q-35 -27 -58 -46 q-67 -55 -132 -114 l0 -42 l79 0 l52 48 l72 -66 Z" /><glyph glyph-name="uni65B0" unicode="&#x65b0;" d="M961 415 l-128 0 l0 -516 l-56 -30 l0 546 l-123 0 l0 -95 q-4 -42 -7 -83 q-16 -102 -57 -181 q-59 -114 -164 -175 q6 0 46 51 q53 68 86 145 q46 109 46 225 l0 404 l56 -36 q50 12 80 20 q92 25 149 52 l55 -60 q-63 0 -144 -11 q-50 -7 -146 -25 l0 -213 l212 0 l39 41 l56 -59 ZM228 466 q-5 15 -9 25 q-25 61 -57 107 q38 -21 60 -35 q41 -27 41 -52 q0 -11 -8 -22 q-8 -11 -27 -23 ZM582 406 l-252 0 l0 -138 l120 0 l42 42 l60 -60 l-222 0 l0 -294 q-7 -17 -13 -27 q-18 -29 -41 -45 q-11 33 -51 53 q-35 16 -69 31 l120 -6 l6 6 l0 282 l-174 0 l-12 -6 l-18 24 l204 0 l0 138 l-204 0 l-12 -6 l-18 24 l276 0 q17 35 27 60 q30 75 45 156 l-276 0 l-12 -6 l-18 24 l222 0 q-12 28 -21 45 q-28 55 -57 87 q48 -12 79 -34 q37 -26 37 -56 q0 -22 -20 -42 l120 0 l42 42 l60 -60 l-132 0 l60 -42 q-47 -25 -85 -82 q-30 -46 -59 -92 l144 0 l42 42 l60 -60 ZM468 28 q-7 20 -12 33 q-33 78 -84 129 q42 -13 80 -43 q47 -37 47 -71 q0 -27 -31 -48 ZM30 -74 q1 0 25 38 q30 48 57 99 q39 74 62 139 l78 -42 q-47 -22 -136 -148 q-44 -62 -86 -86 Z" /><glyph glyph-name="uni65E5" unicode="&#x65e5;" d="M774 688 l-24 -24 l0 -684 l-60 -24 l0 120 l-378 0 l0 -108 l-60 -30 l0 804 l66 -36 l366 0 l36 36 l54 -54 ZM690 394 l0 294 l-378 0 l0 -294 l378 0 ZM690 94 l0 282 l-378 0 l0 -282 l378 0 Z" /><glyph glyph-name="uni666E" unicode="&#x666e;" d="M654 406 q20 36 33 60 q39 72 69 132 l66 -60 q-50 -7 -93 -54 q-65 -71 -75 -78 ZM960 352 l-900 0 l-12 -6 l-18 24 l348 0 l0 276 l-264 0 l-12 -6 l-18 24 l288 0 q-10 30 -19 49 q-27 57 -65 95 q64 -27 79 -35 q46 -26 46 -58 q0 -24 -23 -51 l144 0 q19 27 30 46 q36 60 54 110 l78 -54 q-32 -13 -50 -24 q-56 -33 -82 -78 l210 0 l48 48 l66 -66 l-276 0 l0 -276 l234 0 l48 48 l66 -66 ZM264 412 q-14 37 -25 60 q-32 68 -71 114 l98 -62 q34 -28 34 -55 q0 -14 -8.5 -28.5 q-8.5 -14.5 -27.5 -28.5 ZM764 238 l-17 -20 l0 -299 l-52 -27 l0 67 l-410 0 l0 -47 l-51 -20 l0 406 l57 -40 l399 0 l28 33 l46 -53 ZM552 370 l0 276 l-120 0 l0 -276 l120 0 ZM695 118 l0 120 l-410 0 l0 -120 l410 0 ZM695 -21 l0 119 l-410 0 l0 -119 l410 0 Z" /><glyph glyph-name="uni6700" unicode="&#x6700;" d="M764 747 l-17 -16 l0 -240 l-52 -21 l0 53 l-410 0 l0 -37 l-51 -16 l0 326 l57 -33 l399 0 l28 27 l46 -43 ZM972 -32 q-14 -3 -22 -5 q-51 -15 -56 -43 q-39 19 -64 33 q-74 43 -128 93 q-31 -31 -53 -49 q-68 -55 -139 -77 q33 20 54 36 q65 50 114 114 q-23 38 -36 65 q-39 82 -54 169 l-36 0 l-12 -6 l-18 24 l264 0 l36 36 l60 -60 q-30 -22 -62 -75 q-80 -133 -94 -147 q43 -25 73 -40 q92 -46 173 -68 ZM954 406 l-468 0 l0 -312 l102 18 l0 -6 l-102 -36 l0 -150 l-54 -24 l0 162 q-69 -16 -114 -27 q-121 -31 -240 -69 l-36 60 l144 24 l0 360 l-102 0 l-12 -6 l-18 24 l762 0 l60 60 l78 -78 ZM695 651 l0 96 l-410 0 l0 -96 l410 0 ZM695 539 l0 96 l-410 0 l0 -96 l410 0 ZM786 304 l-180 0 q9 -43 18 -70 q28 -80 78 -134 q21 36 33 61 q36 75 51 143 ZM432 322 l0 84 l-192 0 l0 -84 l192 0 ZM432 202 l0 102 l-192 0 l0 -102 l192 0 ZM432 82 l0 102 l-192 0 l0 -132 l192 30 Z" /><glyph glyph-name="uni670D" unicode="&#x670d;" d="M952 -46 l-23 0 q-53 -5 -62 -42 q-18 15 -30 26 q-68 61 -121 118 q-38 -36 -64 -58 q-81 -67 -160 -104 l0 883 l54 -30 l230 0 l37 37 l54 -55 q-28 -24 -40 -65 q-8 -27 -14 -80 q-7 -35 -15 -53 q-24 -55 -70 -63 q0 37 -35 56 q-31 14 -62 29 l115 -6 q12 31 18 52 q18 65 18 130 l-236 0 l0 -321 l242 0 l37 36 l54 -54 q-14 -10 -21 -17 q-23 -24 -27 -50 q-8 -26 -14 -43 q-35 -103 -77 -181 q34 -34 58 -54 q74 -60 154 -91 ZM406 715 l0 -742 q-10 -16 -19 -24 q-27 -27 -64 -38 q-8 38 -49 60 q-37 17 -73 33 l135 -12 l12 12 l0 299 l-141 0 l0 -12 q0 -44 -7 -89 q-12 -79 -39 -143 q-37 -87 -101 -155 q24 42 37 74 q40 98 52 206 l0 606 l65 -38 l128 0 l32 31 l51 -50 l-19 -18 ZM788 390 l-157 0 q7 -56 15 -90 q24 -104 70 -177 q20 49 31 81 q34 100 41 186 ZM348 540 l0 193 l-141 0 l0 -193 l141 0 ZM698 93 q-28 52 -42 87 q-43 109 -43 210 l-67 0 l0 -454 q33 26 53 44 q60 55 99 113 ZM348 322 l0 199 l-141 0 l0 -199 l141 0 Z" /><glyph glyph-name="uni672A" unicode="&#x672a;" d="M960 52 q-13 -4 -22 -7 q-52 -22 -80 -59 q-6 0 -59 43 q-72 58 -131 131 q-83 101 -128 216 l-12 0 l0 -474 l-54 -18 l0 426 q-25 -33 -50 -65 q-64 -75 -147 -143 q-114 -93 -235 -146 q5 0 70 50 q88 68 159 143 q102 109 167 227 l-348 0 l-12 -6 l-18 24 l414 0 l0 198 l-306 0 l-12 -6 l-18 24 l336 0 l0 180 l84 -30 l-30 -24 l0 -126 l198 0 l54 54 l72 -72 l-324 0 l0 -198 l288 0 l48 48 l66 -66 l-372 0 l40 -68 q56 -81 129 -140 q104 -84 233 -116 Z" /><glyph glyph-name="uni67D2" unicode="&#x67d2;" d="M936 640 l-342 -90 l0 -96 q0 -18 3 -27 q9 -27 39 -27 l180 0 q8 1 13 3 q30 12 35 45 l12 96 q5 -53 7 -62 q9 -50 35 -76 q-11 -16 -20 -24 q-28 -24 -65 -24 l-11 0 l-204 0 q-26 5 -39 12 q-39 21 -39 66 l0 96 l-168 -36 l-18 12 l186 42 l0 258 l90 -42 l-36 -30 l0 -168 l228 60 l36 60 l78 -48 ZM294 664 q-12 28 -21 44 q-28 49 -63 76 q43 -14 69 -25 q50 -21 50 -46 q0 -22 -35 -49 ZM450 706 q-110 -142 -130 -174 q-68 -111 -68 -216 q0 -21 -9.5 -31.5 q-9.5 -10.5 -23.5 -10.5 q-17 0 -29 13 q-12 13 -10 35 q4 9 5 14 q5 17 5 34 q0 30 -14 53 q-19 31 -62 49 q17 0 55 -10 q23 -6 31 -6 q13 0 23.5 3.5 q10.5 3.5 22.5 12.5 l198 246 l6 -12 ZM192 556 q-14 26 -25 42 q-32 47 -71 78 q62 -18 96.5 -34 q34.5 -16 34.5 -37 q0 -13 -11 -26 q-11 -13 -24 -23 ZM962 -32 q-22 -6 -35 -10 q-41 -14 -72 -36 q-5 0 -56 33 q-70 45 -128 100 q-84 80 -137 171 l-17 0 l0 -333 l-54 -23 l0 327 q-28 -31 -55 -62 q-71 -73 -150 -128 q-111 -77 -222 -108 q6 0 67 36 q82 49 151 109 q98 86 156 182 l-315 0 l-12 -6 l-18 23 l398 0 l0 139 l83 -35 l-29 -29 l0 -75 l261 0 l53 52 l72 -69 l-351 0 q22 -27 45 -54 q59 -62 137 -111 q108 -68 228 -93 Z" /><glyph glyph-name="uni67E5" unicode="&#x67e5;" d="M960 406 q-13 -3 -22 -5 q-52 -16 -80 -49 q-6 0 -58 30 q-70 41 -129 93 q-83 74 -131 159 l-12 0 l0 -204 l-54 -24 l0 192 q-27 -30 -53 -60 q-68 -68 -153 -125 q-117 -77 -238 -109 q7 0 64 34 q79 47 150 108 q100 86 170 188 l-312 0 l-12 -6 l-18 24 l402 0 l0 156 l78 -42 l-24 -18 l0 -96 l270 0 l60 60 l78 -78 l-378 0 l44 -48 q60 -57 133 -99 q105 -60 225 -81 ZM774 346 l-24 -24 l0 -288 l-48 -24 l0 60 l-378 0 l0 -42 l-54 -18 l0 378 l60 -24 l366 0 l30 30 l48 -48 ZM930 -62 l-840 0 l-12 -6 l-18 24 l744 0 l54 54 l72 -72 ZM702 226 l0 120 l-378 0 l0 -120 l378 0 ZM702 88 l0 120 l-378 0 l0 -120 l378 0 Z" /><glyph glyph-name="uni6982" unicode="&#x6982;" d="M966 -44 q-10 -12 -18 -18 q-25 -20 -54 -24 l-54 0 q-26 5 -39 11 q-39 19 -39 61 l0 276 l-34 -78 q-48 -91 -115 -162 q-93 -98 -211 -138 q11 0 73 47 q87 66 147 153 q86 125 110 280 l-66 0 l-24 -24 l-36 36 l24 24 l30 228 l60 -42 l-24 -18 l-24 -186 l66 0 q8 58 12 97 q12 117 12 215 l-96 0 l-18 -6 l-18 24 l222 0 l42 42 l60 -60 l-144 0 q-1 -34 -1 -57 q-5 -137 -23 -255 l78 0 l36 36 l54 -54 l-174 0 l-12 -60 l66 -36 l-24 -18 l0 -246 q2 -14 5 -21 q10 -21 37 -21 l36 0 q16 27 22 71 q5 55 8 85 q2 -10 4 -75.5 q2 -65.5 44 -86.5 ZM594 700 l-18 -18 l0 -354 l-48 -18 l0 24 l-102 0 l0 -234 l102 72 q-5 16 -9 27 q-12 29 -33 63 q4 -6 62 -64 q46 -46 46 -76 q0 -27 -30 -46 l-30 84 l-124 -138 l-42 42 q4 8 5 13 q5 17 5 37 l0 628 l48 -30 l96 0 l30 30 l42 -42 ZM370 554 l-143 0 l0 -141 q54 -25 84 -46 q30 -21 30 -46 q0 -13 -7.5 -26.5 q-7.5 -13.5 -25.5 -28.5 q-12 28 -21 45 q-27 50 -60 85 l0 -470 l-49 -23 l0 481 q-10 -24 -19 -47 q-24 -57 -54 -115 q-40 -77 -81 -138 q1 0 26 66 q25 66 58 170 q41 130 64 234 l-111 0 l-13 -5 l-18 23 l148 0 l0 224 l74 -36 l-25 -23 l0 -165 l50 0 l37 35 l56 -53 ZM528 532 l0 162 l-102 0 l0 -162 l102 0 ZM528 352 l0 162 l-102 0 l0 -162 l102 0 Z" /><glyph glyph-name="uni699C" unicode="&#x699c;" d="M188 565 l-114 0 l-13 -6 l-19 24 l152 0 l0 231 l77 -37 l-26 -24 l0 -170 l51 0 l38 37 l58 -55 l-147 0 l0 -145 q55 -26 86 -48 q31 -22 31 -48 q0 -25 -34 -56 q-13 29 -22 46 q-28 52 -61 87 l0 -483 l-51 -25 l0 496 q-10 -25 -19 -49 q-23 -53 -55 -117 q-39 -77 -84 -143 q1 0 26 67 q35 93 61 176 q40 129 65 242 ZM463 659 l-13 -6 l-18 24 l230 0 q-6 17 -10 27 q-28 61 -71 98 q74 -27 75 -27 q46 -22 46 -52 q0 -12 -4 -21.5 q-4 -9.5 -17 -24.5 l162 0 l44 41 l62 -59 l-486 0 ZM400 398 q15 16 22 28 q24 39 28 79 l13 -36 l125 0 q-9 32 -17 52 q-25 61 -65 102 q42 -20 72 -42 q50 -38 50 -71 q0 -22 -22 -41 l94 0 q16 31 25 52 q28 63 43 120 l75 -47 q-36 -20 -69 -56 q-6 -6 -55 -69 l156 0 l37 36 l56 -54 q-39 -8 -79 -35 q-46 -36 -71 -54 l57 89 l-406 0 q1 -6 1 -18 q0 -34 -16 -59.5 q-16 -25.5 -47 -29.5 q-8 5 -11 8 q-11 10 -11 21 q0 13 15 25 ZM594 -17 q7 1 13 1 l10 0 l23 0 q12 0 25 -1 q45 0 66 11 q31 16 37 59 l25 113 l-212 0 q-13 -30 -25 -60 q-36 -70 -92 -120 q-80 -71 -188 -92 q13 0 68 36 q78 51 126 122 q68 100 68 227 l-131 0 l-13 -6 l-19 24 l287 0 q-4 17 -7 27 q-20 61 -55 103 q39 -20 63 -34 q47 -27 47 -52 q0 -22 -35 -44 l187 0 l44 41 l62 -59 l-368 0 l-12 -95 l205 0 l38 35 l56 -53 q-17 -12 -25 -21 q-27 -29 -31 -62 q-24 -88 -37 -114 q-33 -64 -94 -75 q-4 36 -39 57 q-46 20 -67 32 Z" /><glyph glyph-name="uni6CD5" unicode="&#x6cd5;" d="M954 323 l-377 0 l74 -55 q-55 -32 -101 -84 q-22 -25 -75 -100 q-47 -67 -77 -100 l389 25 q-18 29 -30 47 q-40 59 -81 103 q61 -25 128 -81 q80 -67 80 -113 q0 -18 -10.5 -30.5 q-10.5 -12.5 -36.5 -22.5 l-37 78 q-7 0 -67 -8 q-96 -13 -166 -25 q-107 -19 -212 -45 l-43 72 q68 23 117 82 q37 45 72 126 q26 65 52 131 l-204 0 l-19 -6 l-18 24 l265 0 l0 218 l-185 0 l-13 -6 l-18 24 l216 0 l0 225 l99 -43 l-31 -24 l0 -158 l130 0 l56 55 l74 -73 l-260 0 l0 -218 l179 0 l56 54 l74 -72 ZM220 589 q-16 33 -27 53 q-35 61 -75 100 q44 -19 79 -37 q69 -37 69 -68 q0 -26 -46 -48 ZM137 380 q-14 35 -24 57 q-32 67 -71 109 q67 -36 102 -60 q35 -24 35 -50 q0 -27 -42 -56 ZM194 -16 q1 -6 1 -16 q0 -29 -13.5 -44 q-13.5 -15 -32.5 -15 q-18 0 -31.5 14 q-13.5 14 -13.5 39 q0 16 7 34 q3 6 4 10 q9 26 9 50 q0 35 -15 62 q-20 35 -67 60 q8 -3 18.5 -5.5 q10.5 -2.5 25.5 -2.5 q26 0 42 9 q23 12 34 42 q13 29 27 58 q34 72 66 147 q49 114 79 193 l6 -18 l-66 -180 q-42 -116 -59 -186 q-25 -102 -25 -186 l0 -28 q0 -11 4 -37 Z" /><glyph glyph-name="uni6CE8" unicode="&#x6ce8;" d="M615 605 q-16 43 -27 68 q-35 77 -73 123 q72 -42 110.5 -71 q38.5 -29 38.5 -57 q0 -31 -49 -63 ZM961 -53 l-646 0 l-14 -6 l-19 24 l319 0 l0 314 l-180 0 l-13 -6 l-20 24 l213 0 l0 255 l-213 0 l-13 -6 l-20 24 l46 0 l393 0 l67 59 l87 -77 l-287 0 l0 -255 l107 0 l60 53 l80 -71 l-247 0 l0 -314 l160 0 l60 53 l80 -71 ZM234 611 q-15 35 -26 56 q-34 64 -74 105 q63 -27 104 -55.5 q41 -28.5 41 -54.5 q0 -13 -10.5 -26 q-10.5 -13 -34.5 -25 ZM153 393 q-7 22 -12 36 q-32 81 -81 137 q65 -37 99.5 -62.5 q34.5 -25.5 34.5 -51.5 q0 -28 -41 -59 ZM209 -24 q1 -6 1 -17 q0 -30 -12.5 -45.5 q-12.5 -15.5 -31.5 -15.5 q-18 0 -31.5 14.5 q-13.5 14.5 -13.5 40.5 q0 18 7 36 q3 6 4 10 q9 26 9 52 q0 37 -15 65 q-21 39 -66 65 q8 -3 13 -4 q18 -5 31 -5 q24 0 40 10 q23 14 35 44 q12 30 26 61 q43 98 65 153 q41 102 77 203 l6 -19 q-49 -143 -97 -286 q-51 -170 -51 -293 l0 -27 q0 -15 4 -42 Z" /><glyph glyph-name="uni6D3B" unicode="&#x6d3b;" d="M935 481 l-263 0 l0 -179 l85 0 l31 30 l55 -53 l-24 -24 l0 -314 l-56 -18 l0 83 l-244 0 l0 -89 l-55 -18 l0 433 l55 -30 l98 0 l0 179 l-227 0 l-12 -6 l-18 23 l257 0 l0 185 q-42 -6 -70 -9 q-86 -9 -163 -9 q6 0 64 12 q86 18 157 38 q102 29 195 69 l61 -78 q-21 6 -44 6 q-20 0 -90 -12 q-35 -6 -55 -6 l0 -196 l147 0 l48 48 l68 -65 ZM228 613 q-14 34 -25 55 q-33 64 -71 104 q49 -27 98 -53 q41 -30 41 -56 q0 -14 -9.5 -26 q-9.5 -12 -33.5 -24 ZM150 396 q-7 22 -12 36 q-32 82 -78 136 q63 -37 96 -62 q33 -25 33 -52 q0 -13 -9.5 -27.5 q-9.5 -14.5 -29.5 -30.5 ZM204 -16 q1 -6 1 -16 q0 -31 -12.5 -46.5 q-12.5 -15.5 -30.5 -15.5 q-17 0 -29.5 14.5 q-12.5 14.5 -12.5 40.5 q0 16 5 31 q5 15 7 22 q6 22 6 44 q0 35 -15 64 q-20 39 -63 64 q7 -3 12 -4 q18 -5 30 -5 q23 0 39 10 q22 14 33 44 q1 0 26 60 q32 75 62 152 q40 102 74 201 l6 -19 q-47 -142 -93 -283 q-49 -168 -49 -290 l0 -29 q0 -12 4 -39 ZM763 24 l0 261 l-244 0 l0 -261 l244 0 Z" /><glyph glyph-name="uni6E29" unicode="&#x6e29;" d="M834 718 l-24 -24 l0 -332 l-60 -24 l0 72 l-278 0 l0 -48 l-60 -24 l0 428 l60 -30 l272 0 l36 36 l54 -54 ZM230 614 q-17 34 -29 55 q-38 64 -79 103 q47 -19 84 -38 q73 -38 73 -71 q0 -13 -12 -25.5 q-12 -12.5 -37 -23.5 ZM994 -56 l-724 0 l-12 -6 l-18 24 l108 0 l0 364 l60 -36 l394 0 l36 36 l48 -48 l-24 -24 l0 -292 l30 0 l42 42 l60 -60 ZM142 400 q-13 37 -24 59 q-32 66 -76 111 q1 -1 83 -47 q61 -34 61 -65 q0 -13 -10.5 -27.5 q-10.5 -14.5 -33.5 -30.5 ZM203 -9 q1 -6 1 -16 q0 -29 -14.5 -45 q-14.5 -16 -33.5 -16 q-19 0 -33.5 15 q-14.5 15 -14.5 40 q0 17 6 31 q6 14 8 21 q7 22 7 44 q0 36 -16 64 q-22 37 -71 63 q9 -3 14 -4 q20 -5 34 -5 q25 0 43 10 q24 13 37 43 q13 30 28 60 q30 63 69 151 q54 121 84 199 l6 -19 q-35 -93 -70 -185 q-43 -117 -62 -192 q-26 -103 -26 -191 q0 -37 4 -68 ZM750 586 l0 132 l-278 0 l0 -132 l278 0 ZM750 428 l0 140 l-278 0 l0 -140 l278 0 ZM808 -38 l0 310 l-98 0 l0 -310 l98 0 ZM662 -38 l0 310 l-104 0 l0 -310 l104 0 ZM510 -38 l0 310 l-108 0 l0 -310 l108 0 Z" /><glyph glyph-name="uni6E38" unicode="&#x6e38;" d="M426 616 q-12 33 -21 54 q-28 63 -63 114 q47 -25 74 -43 q51 -34 51 -65 q0 -14 -10 -29 q-10 -15 -31 -31 ZM954 250 l-176 0 l0 -288 q-6 -10 -10 -16 q-26 -38 -54 -56 q-11 37 -54 58 l-78 32 l138 -6 l6 6 l0 270 l-132 0 l-12 -6 l-18 24 l162 0 l0 132 l24 -12 l78 96 l-192 0 l-12 -6 l-18 24 l234 0 l36 36 l60 -60 q-55 0 -114 -50 l-54 -46 l40 -24 l-30 -24 l0 -66 l62 0 l48 48 l66 -66 ZM954 604 l-312 0 q-18 -28 -31 -44 q-39 -49 -77 -76 q11 14 17 23 q20 29 31 55 l-176 0 l-6 -150 l82 0 l30 30 l46 -42 l-18 -18 l-24 -324 q-6 -33 -14 -51 q-25 -54 -82 -69 q-7 29 -39 44 q-29 11 -57 22 q24 -3 32 -3.5 q8 -0.5 26 -0.5 q40 0 59 12 q26 17 26 58 l21 324 l-88 0 q0 -188 -63 -320.5 q-63 -132.5 -187 -189.5 q103 73 153 216 q45 130 45 312 l6 150 l-36 0 l-12 -6 l-18 24 l210 0 l42 42 l48 -48 q19 41 30 69 q36 90 54 165 l78 -48 q-32 -20 -57 -60 q-15 -24 -39 -78 l186 0 l48 48 l66 -66 ZM193 625 q-13 33 -23 53 q-30 61 -64 100 q39 -19 68 -37 q58 -36 58 -68 q0 -12 -9 -24 q-9 -12 -30 -24 ZM123 416 q-11 35 -20 57 q-27 66 -61 109 q57 -36 86.5 -60 q29.5 -24 29.5 -50 q0 -27 -35 -56 ZM171 20 q1 -6 1 -16 q0 -29 -11 -44 q-11 -15 -27 -15 q-16 0 -27.5 13.5 q-11.5 13.5 -11.5 39.5 q0 14 6 34 q4 9 5 16 q6 24 6 43 q0 36 -13 63 q-17 35 -57 60 q7 -3 15.5 -5.5 q8.5 -2.5 21.5 -2.5 q22 0 36 9 q19 12 29.5 41.5 q10.5 29.5 22.5 58.5 q32 80 56 147 q40 111 67 193 l5 -18 q-42 -137 -83 -273 q-44 -163 -44 -280 q0 -32 3 -64 Z" /><glyph glyph-name="uni7279" unicode="&#x7279;" d="M976 425 l-582 0 l-17 -6 l-17 24 l241 0 l0 158 l-167 0 l-17 -5 l-17 23 l201 0 l0 177 l93 -36 l-35 -23 l0 -118 l133 0 l51 53 l69 -71 l-253 0 l0 -158 l196 0 l52 53 l69 -71 ZM970 260 l-184 0 l0 -316 q-10 -17 -18 -26 q-26 -30 -63 -45 q-7 36 -43 57 l-66 32 l121 -12 l11 12 l0 298 l-322 0 l-12 -5 l-17 23 l351 0 l0 129 l87 -41 l-29 -29 l0 -59 l75 0 l46 47 l63 -65 ZM544 38 q-10 34 -18 54 q-26 62 -63 104 q35 -21 70 -41 q46 -31 46 -61 q0 -27 -35 -56 ZM425 522 l-140 0 l0 -202 l128 60 q-23 -19 -38 -30 q-45 -34 -95 -65 l0 -380 l-47 -17 l0 373 q-20 -12 -33 -20 q-76 -49 -130 -99 l-46 60 l209 95 l0 225 l-99 0 q-16 -41 -26 -67 q-32 -80 -61 -135 l12 52 q19 83 29 134 q19 99 29 183 l75 -42 q-26 -8 -38 -60 q-8 -34 -14 -47 l93 0 l0 256 l82 -36 l-30 -30 l0 -190 l30 0 l46 48 l64 -66 Z" /><glyph glyph-name="uni7384" unicode="&#x7384;" d="M960 622 l-492 0 l48 -48 q-64 -34 -124 -108 q-65 -90 -98 -132 l264 0 q28 32 46 54 q54 67 92 132 l78 -78 q-26 -6 -41 -12 q-46 -19 -73 -54 q-64 -71 -127 -141 q-74 -80 -133 -132 q-75 -66 -160 -117 l486 12 q-26 46 -43 72 q-52 80 -89 114 q88 -58 140 -98 q97 -75 97 -134 q0 -18 -9.5 -37 q-9.5 -19 -29.5 -37 q-9 22 -15 35 q-18 38 -39 67 q-10 0 -96 -8 q-86 -8 -199.5 -21.5 q-113.5 -13.5 -220.5 -30.5 l-42 78 q104 34 201 134 q82 92 165 184 q-59 -7 -97 -12 q-104 -15 -197 -36 l-36 66 q76 22 130 121 q43 83 86 167 l-354 0 l-12 -6 l-18 24 l456 0 q-12 37 -21 59 q-28 66 -63 109 l62 -30 q71 -39 71 -80 q0 -27 -31 -58 l300 0 l60 60 l78 -78 Z" /><glyph glyph-name="uni7387" unicode="&#x7387;" d="M696 418 q22 30 36 51 q42 63 72 123 l72 -60 q-50 0 -103 -54 q-56 -58 -77 -60 ZM870 220 q-22 34 -39 55 q-52 64 -111 101 q59 0 118.5 -30.5 q59.5 -30.5 59.5 -72.5 q0 -28 -28 -53 ZM978 100 l-438 0 l0 -210 l-60 -36 l0 246 l-414 0 l-12 -6 l-18 24 l444 0 l0 144 q-24 -5 -39 -9 q-42 -13 -75 -33 l-30 78 q58 15 109 64 q1 1 83 92 q-32 -3 -54 -7 q-63 -12 -126 -35 l-30 60 q51 21 87 68 q31 40 51 100 l-330 0 l-12 -6 l-18 24 l414 0 q-10 32 -18 51 q-25 58 -60 93 q40 -12 79 -41 q46 -34 46 -64 q0 -11 -5 -20 q-5 -9 -18 -19 l282 0 l48 48 l66 -66 l-444 0 l48 -42 q-40 -13 -86 -56 q-60 -56 -82 -70 l180 0 q15 20 25 32 q28 35 53 64 l66 -48 q-2 0 -46 -30 q-58 -40 -109 -80 q-70 -55 -127 -112 l234 12 q-8 17 -14 28 q-20 33 -46 56 q49 -18 87 -47 q51 -39 51 -74 q0 -14 -8 -27 q-8 -13 -28 -26 l-30 78 l-162 -30 l84 -36 l-36 -30 l0 -84 l312 0 l54 54 l72 -72 ZM240 406 q-16 35 -27 57 q-32 62 -69 111 q48 -14 88 -44 q47 -34 47 -68 q0 -14 -9.5 -28.5 q-9.5 -14.5 -29.5 -27.5 ZM324 382 q-13 -16 -124 -100 q-46 -35 -68 -68 l-48 66 q47 16 77 28 q89 35 163 74 Z" /><glyph glyph-name="uni7396" unicode="&#x7396;" d="M978 -62 q-57 0 -102 -18 q-5 0 -37 57 q-42 74 -69 165 q-38 127 -38 258 q-23 -56 -45 -112 q-65 -132 -167 -230 q-143 -138 -334 -186 q20 0 125 70 q144 97 245 231 q141 188 170 419 l-156 0 q-12 -26 -23 -51 q-30 -61 -67 -117 q-52 -78 -108 -132 q3 0 40 68 q49 90 85 183 q52 135 73 265 l96 -54 q-37 -11 -58 -58 q-20 -59 -32 -86 l156 0 l42 42 l60 -60 q-42 -19 -65 -76 q-2 -5 -25 -74 l16 -92 q25 -109 69 -204 q60 -130 149 -208 ZM431 674 l-162 0 l0 -251 l46 0 l45 43 l65 -61 l-156 0 l0 -245 l143 37 l6 -6 q-2 0 -50 -19.5 q-48 -19.5 -131.5 -56.5 q-83.5 -37 -161.5 -76 l-45 66 l168 43 l0 257 l-123 0 l-13 -6 l-20 24 l162 0 l0 251 l-136 0 l-13 -6 l-19 25 l272 0 l52 49 l71 -68 Z" /><glyph glyph-name="uni73A9" unicode="&#x73a9;" d="M904 694 l-396 0 l-11 -6 l-18 24 l326 0 l41 42 l58 -60 ZM980 -14 q-11 -16 -19 -25 q-27 -28 -63 -35 l-122 0 q-24 5 -35 12 q-35 22 -35 72 l0 426 l-99 0 l0 -156 q0 -150 -97 -261 q-97 -111 -234 -129 q126 53 195 147 q78 106 78 255 l0 144 l-99 0 l-12 -6 l-17 24 l425 0 l46 48 l64 -66 l-192 0 l0 -402 q0 -13 1 -20 q9 -46 58 -46 l35 0 q20 8 29 15 q29 21 29 51 l11 126 q0 -76 6 -105 q11 -53 47 -69 ZM453 677 l-164 0 l0 -263 l46 0 l46 45 l65 -65 l-157 0 l0 -256 l144 38 l7 -6 q-3 0 -52 -21 q-68 -29 -129 -57 q-79 -36 -166 -82 l-45 70 l176 45 l0 269 l-131 0 l-13 -6 l-19 26 l163 0 l0 263 l-137 0 l-13 -7 l-20 26 l275 0 l52 52 l72 -71 Z" /><glyph glyph-name="uni7537" unicode="&#x7537;" d="M876 238 l-36 -36 l-12 -126 q-13 -49 -28 -75 q-45 -78 -128 -93 q-9 30 -33 52 q-5 5 -87 56 l150 -30 q48 22 64 105 q10 73 20 147 l-300 0 q-34 -149 -171 -240 q-122 -81 -285 -96 q166 47 253 111 q111 82 149 225 l-312 0 l-12 -6 l-18 24 l348 0 q2 16 3 27 q9 75 9 123 l-192 0 l0 -42 l-60 -24 l0 456 l72 -36 l474 0 l36 36 l54 -54 l-24 -24 l0 -342 l-60 -24 l0 54 l-264 0 l54 -24 q-14 -19 -22 -33 q-24 -44 -32 -93 l300 0 l36 36 l54 -54 ZM750 592 l0 150 l-228 0 l0 -150 l228 0 ZM750 424 l0 150 l-228 0 l0 -150 l228 0 ZM468 592 l0 150 l-210 0 l0 -150 l210 0 ZM468 424 l0 150 l-210 0 l0 -150 l210 0 Z" /><glyph glyph-name="uni7565" unicode="&#x7565;" d="M984 303 q-19 -5 -31 -9 q-35 -13 -59 -33 q-41 21 -67 37 q-77 48 -135 106 q-20 -17 -40 -33 q-50 -40 -107 -77 q-82 -53 -155 -86 q1 0 44 31 q57 42 105 82 q71 60 124 118 q-23 32 -36 55 q-41 71 -59 141 q-24 -48 -40 -77 q-50 -87 -103 -148 q1 0 26 54 q34 72 60 143 q40 107 63 201 l89 -48 q-23 -15 -35 -26 q-37 -34 -48 -75 l207 0 l42 42 l65 -66 q-10 -4 -16 -7 q-36 -20 -55 -52 q-10 -16 -17 -27 q-42 -63 -84 -110 q40 -32 70 -50 q91 -56 192 -86 ZM865 208 l-24 -24 l0 -272 l-54 -18 l0 77 l-225 0 l0 -65 l-54 -18 l0 361 l54 -30 l220 0 l35 36 l48 -47 ZM401 641 l-18 -18 l0 -512 l-53 -17 l0 29 l-200 0 l0 -87 l-52 -18 l0 670 l52 -30 l194 0 l30 30 l47 -47 ZM782 641 l-196 0 q8 -21 14 -35 q38 -83 92 -137 q27 40 43 70 q26 48 47 102 ZM330 394 l0 247 l-76 0 l0 -247 l76 0 ZM787 -11 l0 213 l-225 0 l0 -213 l225 0 ZM213 394 l0 247 l-83 0 l0 -247 l83 0 ZM330 141 l0 235 l-76 0 l0 -235 l76 0 ZM213 141 l0 235 l-83 0 l0 -235 l83 0 Z" /><glyph glyph-name="uni767B" unicode="&#x767b;" d="M978 364 q-14 0 -22 -1 q-49 -8 -68 -41 q-11 0 -76 45 q-91 63 -156 147 q-93 119 -128 270 l6 12 q5 -20 9 -33 q24 -76 57 -123 q30 27 48 46 q57 59 90 110 l54 -66 q-22 -7 -36 -13 q-87 -35 -150 -89 q8 -13 13 -21 q32 -48 65 -81 q31 29 50 49 q58 60 100 113 l54 -72 q-41 -11 -66 -21 q-76 -31 -126 -81 l34 -26 q44 -32 97 -60 q77 -41 151 -64 ZM648 460 l-276 0 l-12 -6 l-18 24 l204 0 l42 42 l60 -60 ZM432 640 l-42 -74 q-57 -87 -131 -158 q-102 -98 -223 -146 q8 0 72 50 q85 67 153 151 q96 119 141 255 l-216 0 l-12 -6 l-18 24 l246 0 l36 36 l54 -54 q-24 -15 -35 -28 q-19 -22 -25 -50 ZM721 349 l-16 -15 l0 -178 l-52 -21 l0 56 l-307 0 l0 -46 l-52 -20 l0 270 l52 -25 l301 0 l27 25 l47 -46 ZM228 478 q-17 32 -29 52 q-38 60 -79 98 q53 -19 83 -33 q56 -27 56 -61 q0 -25 -31 -56 ZM918 -62 l-792 0 l-12 -6 l-18 24 l288 0 q-8 31 -15 51 q-21 58 -57 105 q68 -38 72 -41 q42 -30 42 -62 q0 -25 -24 -53 l162 0 q13 30 20 50 q23 63 34 118 l72 -36 q-13 -13 -21 -22 q-48 -54 -81 -110 l192 0 l60 60 l78 -78 ZM653 207 l0 148 l-307 0 l0 -148 l307 0 Z" /><glyph glyph-name="uni7684" unicode="&#x7684;" d="M918 563 l-23 -23 l-6 -443 q-7 -54 -18 -82 q-34 -87 -113 -109 q-4 43 -48 68 q-39 19 -77 37 q15 0 53.5 -4 q38.5 -4 49.5 -4 q45 0 67 18 q29 24 29 82 l6 460 l-240 0 q-24 -51 -40 -81 q-50 -91 -96 -134 q2 0 29 60 q36 78 64 162 q40 120 60 232 l92 -47 q-44 -15 -69 -99 q-16 -56 -28 -76 l222 0 l34 35 l52 -52 ZM672 196 q-7 26 -12 43 q-32 103 -84 178 q53 -37 84 -62 q59 -48 59 -89 q0 -18 -11 -35 q-11 -17 -36 -35 ZM468 592 l-24 -24 l0 -564 l-54 -24 l0 54 l-252 0 l0 -72 l-54 -24 l0 696 l60 -30 l42 0 q15 35 23 59 q26 75 37 145 l78 -48 q-43 -30 -82 -93 q-19 -32 -38 -63 l180 0 l36 36 l48 -48 ZM390 346 l0 240 l-252 0 l0 -240 l252 0 ZM390 52 l0 276 l-252 0 l0 -276 l252 0 Z" /><glyph glyph-name="uni76D8" unicode="&#x76d8;" d="M948 466 l-198 0 l0 -180 q-10 -19 -17 -30 q-22 -33 -49 -48 q-19 34 -63 56 q-54 22 -81 34 l150 -6 l6 6 l0 168 l-372 0 q0 -123 -77 -200 q-57 -58 -181 -106 q125 81 166 152 q38 66 38 154 l-180 0 l-12 -6 l-18 24 l210 0 l0 234 l60 -36 l54 0 q8 23 13 38 q16 49 23 88 l84 -36 q-12 -7 -20 -12 q-47 -33 -70 -78 l276 0 l36 36 l54 -54 l-30 -30 l0 -150 l96 0 l42 42 l60 -60 ZM510 298 q-14 30 -23 48 q-28 53 -55 84 q41 -20 64 -33 q45 -26 45 -52 q0 -22 -31 -47 ZM969 -81 l-891 0 l-18 -5 l-18 22 l175 0 l0 272 l61 -28 l448 0 l31 28 l48 -44 l-18 -17 l0 -211 l54 0 l55 50 l73 -67 ZM696 484 l0 180 l-372 0 l0 -180 l372 0 ZM732 -64 l0 228 l-115 0 l0 -228 l115 0 ZM563 -64 l0 228 l-122 0 l0 -228 l122 0 ZM387 -64 l0 228 l-109 0 l0 -228 l109 0 ZM516 502 q-12 30 -20 47 q-25 52 -52 79 q4 -4 62 -33 q46 -23 46 -46 q0 -22 -36 -47 Z" /><glyph glyph-name="uni770B" unicode="&#x770b;" d="M972 448 l-570 0 l-54 -90 l360 0 l36 36 l54 -54 l-30 -30 l0 -384 l-54 -24 l0 72 l-360 0 l0 -60 l-54 -24 l0 396 l-36 -36 q-45 -44 -95 -82 q-71 -55 -133 -86 q4 0 55 45 q67 59 125 127 q81 96 132 194 l-258 0 l-18 -6 l-18 24 l300 0 l48 102 l-210 0 l-18 -6 l-18 24 l252 0 l36 108 q-41 -2 -69 -3 q-191 -9 -291 -9 q13 0 108 11 q146 17 261 37 q173 30 321 72 l78 -66 q-76 0 -167 -10 q-91 -10 -175 -26 l-42 -114 l276 0 l54 54 l72 -72 l-408 0 l-48 -102 l432 0 l54 54 l72 -72 ZM714 238 l0 102 l-360 0 l0 -102 l360 0 ZM714 124 l0 96 l-360 0 l0 -96 l360 0 ZM714 -8 l0 114 l-360 0 l0 -114 l360 0 Z" /><glyph glyph-name="uni7801" unicode="&#x7801;" d="M966 317 l-35 -36 l-35 -248 q-11 -39 -22 -59 q-36 -63 -104 -74 q0 41 -42 68 q-37 21 -74 41 q24 -6 49 -10.5 q25 -4.5 47 -4.5 q46 0 70 20 q30 25 30 79 l29 230 l-305 0 l-29 -30 l-46 48 l29 31 l17 284 l81 -42 l-35 -30 l-17 -243 l184 0 l40 370 l-299 0 l-12 -6 l-17 24 l323 0 l34 36 l52 -54 l-29 -30 l-34 -340 l57 0 l35 37 l58 -61 ZM822 159 l-404 0 l-11 -6 l-17 25 l322 0 l46 48 l64 -67 ZM450 704 l-167 0 q-14 -47 -24 -78 q-29 -88 -63 -166 l118 0 l31 30 l49 -49 l-19 -18 l0 -397 l-55 -25 l0 67 l-111 0 l0 -91 l-56 -24 l0 427 q-17 -32 -30 -51 q-40 -59 -87 -102 q2 0 34 63 q40 81 75 170 q49 126 76 244 l-130 0 l-12 -6 l-19 25 l285 0 l43 43 l62 -62 ZM320 86 l0 355 l-111 0 l0 -355 l111 0 Z" /><glyph glyph-name="uni786E" unicode="&#x786e;" d="M918 490 l-18 -18 l0 -540 q-10 -13 -18 -20 q-25 -23 -54 -34 q-4 44 -56 65 q-26 10 -52 19 l114 -6 l6 6 l0 210 l-138 0 l0 -216 l-54 -24 l0 240 l-132 0 q0 -91 -44 -155 q-50 -73 -202 -145 q53 45 82 70 q97 84 110 176 l0 402 q-12 -11 -21 -18 q-32 -26 -57 -42 q2 0 32 44 q43 62 77 122 q51 89 89 182 l84 -48 q-35 -15 -59 -37.5 q-24 -22.5 -37 -58.5 l168 0 l42 42 l66 -66 q-46 -6 -79 -32 q-13 -10 -83 -100 l156 0 l30 30 l48 -48 ZM439 651 l-160 0 q-8 -24 -13 -41 q-32 -94 -70 -177 l113 0 l30 27 l47 -44 l-18 -16 l0 -354 l-53 -22 l0 59 l-107 0 l0 -81 l-54 -22 l0 382 q-17 -29 -29 -46 q-38 -53 -83 -91 q1 0 32 57 q44 82 73 151 q46 111 73 218 l-125 0 l-12 -6 l-18 22 l274 0 l41 39 l59 -55 ZM840 352 l0 138 l-138 0 l0 -138 l138 0 ZM726 640 l-168 0 q-14 -20 -23 -33 q-26 -36 -55 -69 l48 -30 l132 0 q15 21 24 36 q26 45 42 96 ZM840 190 l0 144 l-138 0 l0 -144 l138 0 ZM648 352 l0 138 l-132 0 l0 -138 l132 0 ZM648 190 l0 144 l-132 0 l0 -144 l132 0 ZM315 99 l0 317 l-107 0 l0 -317 l107 0 Z" /><glyph glyph-name="uni793A" unicode="&#x793a;" d="M816 706 l-630 0 l-12 -6 l-18 24 l534 0 l54 54 l72 -72 ZM846 -8 l-28 62 q-39 82 -77 143 q-57 92 -117 155 q100 -78 158 -124 q109 -87 109 -151 q0 -22 -10.5 -42.5 q-10.5 -20.5 -34.5 -42.5 ZM942 460 l-414 0 l0 -474 q-10 -19 -18 -30 q-25 -36 -54 -54 q-19 45 -69 67 q-47 18 -93 35 l156 -6 l6 6 l0 456 l-360 0 l-12 -6 l-18 24 l726 0 l66 66 l84 -84 ZM366 316 q-51 -41 -111 -116 l-102 -128 q-62 -73 -123 -116 q3 0 45 57 q52 70 99 153 q65 115 102 222 l90 -72 Z" /><glyph glyph-name="uni793C" unicode="&#x793c;" d="M972 -22 q-12 -18 -21 -28 q-30 -30 -69 -38 l-204 0 q-23 3 -35 10 q-36 21 -43 74 l0 818 l95 -55 l-39 -30 l0 -702 q4 -20 9 -30 q16 -31 47 -31 l119 0 q34 3 51 21 q17 18 17 40 q0 8 -1 12 l12 138 q4 -68 9 -106 q10 -70 53 -93 ZM351 636 q-12 32 -22 53 q-29 60 -74 113 q55 -25 89 -44 q65 -36 65 -67 q0 -14 -14 -28 q-14 -14 -44 -27 ZM508 557 q-32 -24 -51 -42 q-58 -55 -91 -117 l0 -19 q50 -8 95 -30 q54 -27 54 -56 q0 -12 -8.5 -23.5 q-8.5 -11.5 -28.5 -24.5 q-10 14 -17 23 q-44 56 -95 93 l0 -464 l-67 -19 l0 446 q-15 -13 -29 -26 q-39 -34 -77 -62 q-54 -40 -109 -71 q3 0 54 51 q67 67 124 138 q81 101 134 203 l-253 0 l-15 -6 l-22 24 l290 0 l45 37 l67 -55 Z" /><glyph glyph-name="uni795E" unicode="&#x795e;" d="M923 591 l-17 -19 l0 -401 l-52 -25 l0 68 l-154 0 l0 -308 l-51 -31 l0 339 l-148 0 l0 -50 l-51 -30 l0 506 l51 -31 l148 0 l0 211 l80 -50 l-29 -18 l0 -143 l149 0 l28 31 l46 -49 ZM270 646 l-10 30 q-28 72 -70 132 q46 -24 74 -43 q54 -36 54 -66 q0 -14 -10.5 -26.5 q-10.5 -12.5 -37.5 -26.5 ZM400 568 q-26 -24 -42 -42 q-49 -55 -76 -114 l0 -18 q44 -9 79 -29 q45 -26 45 -56 q0 -23 -31 -47 q-15 24 -25 39 q-31 44 -68 75 l0 -456 l-55 -18 l0 438 q-31 -33 -52 -53 q-65 -61 -127 -103 q3 0 45 50 q59 69 103 135 q66 98 111 199 l-210 0 l-12 -6 l-19 24 l241 0 l37 36 l56 -54 ZM854 424 l0 167 l-154 0 l0 -167 l154 0 ZM854 232 l0 173 l-154 0 l0 -173 l154 0 ZM649 424 l0 167 l-148 0 l0 -167 l148 0 ZM649 232 l0 173 l-148 0 l0 -173 l148 0 Z" /><glyph glyph-name="uni7ACB" unicode="&#x7acb;" d="M492 610 q-12 37 -21 59 q-27 68 -57 109 q64 -36 96 -61 q32 -25 32 -48 q0 -14 -12 -29 q-12 -15 -38 -30 ZM888 562 l-762 0 l-12 -6 l-18 24 l654 0 l60 60 l78 -78 ZM66 -38 l-12 -6 l-18 24 l480 0 q1 0 24 75 q29 94 56 193 q37 135 64 260 l90 -66 q-9 -2 -14 -5 q-32 -19 -46 -73 l-22 -58 q-46 -120 -55 -143 q-38 -102 -67 -183 l288 0 l54 54 l72 -72 l-894 0 ZM360 64 q-5 30 -10 61 q-16 81 -36 153 q-28 99 -68 194 q66 -88 104 -145 q72 -107 72 -170 q0 -29 -15 -53 q-15 -24 -47 -40 Z" /><glyph glyph-name="uni7B26" unicode="&#x7b26;" d="M983 655 l-270 0 q5 -5 68 -51 q47 -34 47 -59 q0 -23 -39 -47 q-15 37 -26 59 q-35 66 -80 98 l-35 0 q-29 -40 -48 -62 q-59 -67 -111 -95 q1 0 32 44 q39 56 72 117 q48 88 73 166 l64 -50 q-16 -16 -25 -27 q-29 -34 -51 -74 l217 0 l47 50 l65 -69 ZM577 655 l-235 0 q30 -25 60 -49 q48 -44 48 -73 q0 -14 -11.5 -25 q-11.5 -11 -37.5 -17 q-5 20 -9 33 q-26 77 -67 131 l-59 0 q-28 -43 -49 -67 q-63 -74 -133 -109 q4 0 37 39 q43 50 81 118 q53 94 81 196 l77 -51 q-11 -9 -18 -15 q-42 -40 -64 -92 l188 0 l47 50 l64 -69 ZM978 352 l-210 0 l0 -408 q-4 -9 -7 -14 q-22 -33 -59 -52 q-12 33 -43 52 q-8 5 -107 38 l150 -6 l6 6 l0 384 l-336 0 l-12 -6 l-18 24 l366 0 l0 144 l90 -42 l-30 -24 l0 -78 l84 0 l54 54 l72 -72 ZM534 106 q-7 23 -12 38 q-32 90 -78 154 q48 -32 76 -54 q54 -42 54 -77 q0 -15 -10 -30.5 q-10 -15.5 -30 -30.5 ZM391 498 q-48 -20 -82 -74 q-29 -45 -57 -90 l66 -29 l-39 -21 l0 -382 l-60 -16 l0 406 q-28 -30 -48 -48 q-59 -55 -123 -95 q3 0 45 50 q54 64 100 136 q64 101 99 197 l99 -34 Z" /><glyph glyph-name="uni7B2C" unicode="&#x7b2c;" d="M932 682 l-255 0 q35 -43 53 -69.5 q18 -26.5 18 -43.5 q0 -14 -11 -25 q-11 -11 -36 -18 q-5 31 -9 51 q-12 55 -33 105 l-47 0 q-12 -14 -20 -23 q-50 -55 -99 -91 q17 22 28 39 q66 100 97 207 l77 -42 q-12 -4 -18 -8 q-40 -23 -53 -64 l196 0 l47 48 l65 -66 ZM517 682 l-232 0 q1 -4 48 -67 q19 -26 19 -41 q0 -13 -9.5 -23.5 q-9.5 -10.5 -33.5 -18.5 q-5 31 -9 50 q-13 55 -33 100 l-47 0 q-34 -39 -56 -62 q-69 -71 -128 -112 q2 0 34 39 q45 55 79 109 q51 81 83 164 l71 -60 q-11 -4 -18 -7 q-41 -20 -59 -53 l178 0 l47 48 l66 -66 ZM936 214 q-16 -12 -24 -21 q-26 -29 -30 -63 q-10 -40 -21 -64 q-34 -72 -99 -110 q-4 48 -58 78 l-56 30 l126 -12 q30 23 46 72 q5 17 20 90 l-312 0 l0 -318 l-60 -24 l0 330 q-26 -27 -52 -53 q-71 -66 -149 -113 q-114 -69 -237 -98 q6 0 64 31 q75 40 145 93 q96 72 157 152 l-198 0 l-36 -36 l-48 48 q36 16 53 101 q11 55 19 73 l48 -30 l234 0 l0 120 l-288 0 l-12 -6 l-18 24 l600 0 l42 42 l54 -54 l-30 -30 l0 -126 l-60 -24 l0 36 l-228 0 l0 -120 l306 0 l42 42 l60 -60 ZM756 370 l0 120 l-228 0 l0 -120 l228 0 ZM468 232 l0 120 l-234 0 q-9 -28 -17.5 -59 q-8.5 -31 -12.5 -61 l264 0 Z" /><glyph glyph-name="uni7B54" unicode="&#x7b54;" d="M950 666 l-266 0 q28 -21 45 -40 q25 -28 25 -50 q0 -28 -46 -40 q-5 25 -9 41 q-13 47 -33 89 l-55 0 q-18 -23 -29 -35 q-34 -38 -62 -58 q20 38 32 64 q37 79 59 152 l91 -37 q-25 -15 -42.5 -30.5 q-17.5 -15.5 -30.5 -37.5 l194 0 l55 56 l72 -74 ZM526 672 l-224 0 q39 -34 61 -57 q22 -23 22 -41 q0 -13 -10.5 -23.5 q-10.5 -10.5 -36.5 -20.5 l-5 25 q-16 58 -49 117 l-37 0 q-33 -41 -56 -66 q-71 -77 -143 -132 q2 0 35 42 q43 54 80 114 q53 86 84 166 l85 -38 q-15 -8 -24 -15 q-30 -22 -48 -53 l163 0 l43 44 l60 -62 ZM972 274 q-12 -3 -20 -6 q-48 -18 -70 -54 q-6 0 -65 34 q-79 46 -147 102 q-96 80 -154 170 l-56 -64 q-74 -76 -166 -145 q-129 -96 -270 -157 q6 0 78 51 q90 64 179 147 q120 112 199 228 l84 -42 l-24 -6 q22 -28 45 -56 q61 -65 141 -113 q114 -68 246 -89 ZM354 286 l-12 -6 l-18 24 l264 0 l42 42 l60 -60 l-336 0 ZM756 142 l-18 -18 l0 -210 l-60 -24 l0 66 l-348 0 l0 -54 l-60 -24 l0 318 l60 -30 l342 0 l30 30 l54 -54 ZM678 -26 l0 174 l-348 0 l0 -174 l348 0 Z" /><glyph glyph-name="uni7B7E" unicode="&#x7b7e;" d="M941 653 l-252 0 q35 -44 52 -71 q17 -27 17 -45 q0 -15 -10 -25.5 q-10 -10.5 -36 -18.5 q-5 32 -9 52 q-12 57 -32 108 l-47 0 q-20 -25 -34 -40 q-41 -45 -84 -77 q29 42 46 71 q53 92 78 182 l76 -43 q-18 -9 -28 -16 q-32 -24 -42 -58 l194 0 l47 49 l64 -68 ZM530 653 l-230 0 q1 -3 48 -69 q18 -25 18 -42 q0 -13 -9.5 -24 q-9.5 -11 -32.5 -19 q-5 31 -9 51 q-12 57 -32 103 l-47 0 q-33 -40 -55 -64 q-66 -71 -127 -115 q2 0 34 40 q42 54 78 113 q51 84 82 169 l70 -62 q-11 -4 -18 -7 q-40 -21 -58 -55 l176 0 l47 49 l65 -68 ZM966 280 q-15 -2 -24 -4 q-55 -15 -78 -56 q-6 0 -63 29 q-73 37 -145 87 q-98 68 -164 142 q-27 -29 -53 -58 q-69 -68 -153 -126 q-115 -79 -238 -122 q6 0 71 42 q86 55 163 126 q109 99 180 210 l78 -42 q-6 -3 -9 -5 q-11 -8 -15 -19 l52 -44 q68 -52 153 -90 q120 -54 245 -70 ZM672 268 l-342 0 l-12 -6 l-18 24 l258 0 l48 48 l66 -66 ZM498 10 q-4 27 -7 45 q-19 100 -53 177 q39 -30 68 -67 q40 -51 40 -90 q0 -21 -10.5 -37 q-10.5 -16 -37.5 -28 ZM924 -68 l-792 0 l-12 -6 l-18 24 l474 0 q1 0 21 40 q20 40 44 96 q32 76 49 134 l84 -42 q-54 -25 -100 -102 l-74 -126 l198 0 l54 54 l72 -72 ZM324 -20 q-8 44 -16 71 q-24 82 -62 139 q44 -30 78 -64 q49 -50 49 -87 q0 -39 -49 -59 Z" /><glyph glyph-name="uni7BAD" unicode="&#x7bad;" d="M926 691 l-250 0 q35 -40 52 -64 q17 -24 17 -41 q0 -28 -46 -40 q-5 29 -9 47 q-13 56 -31 98 l-47 0 q-20 -23 -34 -36 q-43 -42 -82 -70 q29 37 45 64 q52 83 77 165 l76 -39 q-18 -7 -28 -14 q-31 -21 -42 -53 l192 0 l46 45 l64 -62 ZM954 442 l-894 0 l-12 -6 l-18 24 l306 0 q-14 27 -23 42 q-29 47 -55 66 q74 -26 81 -30 q41 -20 41 -46 q0 -15 -14 -32 l180 0 q11 23 18 38 q35 73 42 88 l66 -48 q-23 -10 -37 -18 q-42 -25 -65 -60 l270 0 l48 48 l66 -66 ZM519 691 l-227 0 q4 -10 37 -49 q28 -33 28 -51 q0 -12 -9.5 -22 q-9.5 -10 -32.5 -17 q-2 16 -4 27 q-13 64 -37 112 l-46 0 q-33 -36 -55 -57 q-69 -68 -125 -105 q2 0 34 37 q39 46 76 101 q52 79 82 153 l69 -56 q-19 -7 -29 -13 q-31 -18 -46 -43 l174 0 l47 45 l64 -62 ZM858 352 l-30 -24 l0 -372 q-5 -10 -9 -16 q-24 -40 -51 -62 q-11 37 -55 58 q-56 20 -83 32 l132 -6 l6 6 l0 426 l90 -42 ZM672 310 l-30 -18 l0 -264 l-54 -18 l0 342 l84 -42 ZM498 334 l-24 -24 l0 -354 q-7 -17 -13 -27 q-18 -29 -41 -45 q-7 37 -45 58 q-35 16 -69 32 l108 -6 l6 6 l0 138 l-204 0 l0 -204 l-54 -24 l0 498 l60 -36 l192 0 l36 36 l48 -48 ZM420 238 l0 90 l-204 0 l0 -90 l204 0 ZM420 130 l0 90 l-204 0 l0 -90 l204 0 Z" /><glyph glyph-name="uni7CFB" unicode="&#x7cfb;" d="M852 712 q-13 2 -29 2 l-25 0 q-47 0 -193 -17 q-77 -9 -119 -9 l54 -42 q-53 -21 -103 -53 q-72 -49 -143 -97 l270 0 q26 22 43 36 q42 35 89 78 l66 -54 q-71 -33 -166 -87 q-83 -48 -166 -95 q-105 -60 -166 -88 l492 0 q-30 27 -48 43 q-55 48 -90 71 l144 -52 q92 -42 92 -89 q0 -25 -26 -51 q-11 11 -18 19 q-27 29 -42 47 l-228 -12 l0 -306 q-12 -19 -20 -30 q-25 -33 -52 -48 q-17 47 -85 72 q-33 12 -65 24 l156 -6 l6 6 l0 276 q-60 -3 -98 -6 q-109 -10 -202 -30 l-36 72 q116 0 220 69 q88 61 176 123 q-63 -5 -103 -9 q-113 -13 -203 -33 l-24 54 q59 16 107 51 q26 19 139 141 q-67 -2 -155 -4 q-88 -2 -193 -2 q14 0 100 10 q117 14 250 35 q173 28 322 63 l72 -72 ZM864 -56 q-17 19 -33 37 q-47 51 -89 89 q-64 58 -130 102 q7 -4 123 -46 q149 -55 149 -122 q0 -29 -20 -60 ZM66 -68 q2 0 38 32 q50 44 93 89 q64 67 115 137 l66 -48 q-47 -25 -105 -69 q-49 -38 -98 -75 q-61 -44 -109 -66 Z" /><glyph glyph-name="uni7EA7" unicode="&#x7ea7;" d="M966 -50 q-29 0 -45 -2 q-50 -7 -69 -34 q-20 16 -34 27 q-80 67 -140 141 l-40 -36 q-54 -44 -113 -76 q-85 -46 -177 -68 q6 0 51 22 q58 29 117 71 q79 57 132 123 q-1 0 -21 45 q-26 58 -47 119 q-30 88 -46 166 q-12 -58 -23 -115 q-35 -136 -93 -235 q-81 -139 -196 -184 q10 0 68 66 q78 90 127 207 q69 166 69 363 l0 132 l-102 0 l-12 -6 l-18 24 l378 0 l42 42 l66 -66 q-57 -21 -87 -106 q-44 -123 -51 -134 l66 0 l42 42 l60 -60 q-11 -8 -17 -15 q-20 -22 -31 -51 q-17 -46 -29 -75 q-38 -89 -79 -153 q16 -16 32 -31 q44 -40 88 -71 q66 -46 132 -72 ZM382 545 q-56 -52 -128 -138 q-60 -72 -119 -144 l220 25 l7 -6 q-52 -13 -85 -22 q-98 -29 -175 -64 l-33 61 q71 22 128 118 l52 90 l-160 -37 l-34 56 q29 19 45 34 q49 45 75 100 l67 172 l73 -56 q-37 -36 -81 -93 q-109 -140 -125 -157 l153 0 l60 116 l60 -55 ZM89 -5 l-40 66 l313 49 l13 -6 q-34 -11 -57 -18 q-131 -44 -229 -91 ZM774 418 l-78 0 l-30 -24 l-42 54 q43 25 73 105 q23 64 47 129 l-204 0 l0 -192 q7 -27 14 -53 q19 -64 47 -127 q37 -85 83 -150 q23 40 36 70 q39 90 54 188 Z" /><glyph glyph-name="uni7ECD" unicode="&#x7ecd;" d="M905 703 l-29 -25 l0 -149 q-2 -32 -7 -50 q-32 -111 -150 -125 q0 36 -49 61 q-26 13 -51 26 q32 -4 43.5 -4.5 q11.5 -0.5 25.5 -0.5 q60 0 91 19 q40 24 40 80 l0 69 l0 99 l-186 0 q0 -147 -64 -246.5 q-64 -99.5 -185 -152.5 q89 68 135 162 q50 102 50 237 l-114 0 l-14 -6 l-22 25 l393 0 l36 31 l57 -50 ZM898 235 l-29 -25 l0 -279 l-64 -19 l0 87 l-272 0 l0 -93 l-64 -19 l0 411 l72 -38 l257 0 l35 32 l65 -57 ZM431 538 q-63 -54 -142 -143 q-66 -74 -131 -147 l244 25 l7 -6 q-58 -13 -94 -23 q-111 -30 -194 -66 l-37 63 q81 23 143 121 q28 47 57 94 l-177 -38 l-37 57 q31 21 49 36 q56 48 83 102 l74 177 l81 -57 q-38 -35 -80 -85 l-72 -88 q-42 -51 -76 -85 l169 0 l67 119 l66 -56 ZM107 -28 l-45 69 l347 49 l15 -6 q-38 -11 -63 -18 q-143 -44 -254 -94 ZM805 18 l0 224 l-272 0 l0 -224 l272 0 Z" /><glyph glyph-name="uni7ED1" unicode="&#x7ed1;" d="M342 592 l-18 24 l126 0 l0 192 l78 -36 l-30 -24 l0 -132 l42 0 l42 42 l60 -60 l-144 0 l0 -174 l36 0 l36 36 l54 -54 l-126 0 l-6 -168 l54 0 l36 36 l54 -54 l-144 0 q0 -132 -96 -226 q-92 -90 -228 -104 q122 33 196 117 q80 91 80 213 l-108 0 l-12 -6 l-18 24 l138 0 l6 168 l-78 0 l-12 -6 l-18 24 l108 0 l0 174 l-96 0 l-12 -6 ZM126 274 l198 24 l6 -6 q-46 -12 -76 -21 q-86 -27 -158 -63 l-30 60 q66 22 116 115 q23 44 46 89 l-144 -36 l-30 54 q15 11 24 19 q57 51 84 113 l60 168 l66 -54 q-34 -37 -73 -91 q-104 -144 -113 -155 l138 0 l54 114 l54 -54 q-51 -51 -115 -135 q-54 -71 -107 -141 ZM84 10 l-36 66 l282 48 l12 -6 q-53 -18 -86 -31 q-98 -38 -172 -77 ZM730 694 l128 0 l45 42 l64 -60 q-51 -29 -89 -108 l-52 -114 q49 -33 84.5 -97 q35.5 -64 35.5 -126 q0 -53 -27 -90 q-31 -42 -93 -59 q4 30 -28 46.5 q-32 16.5 -62 31.5 q30 -6 52 -6 q50 0 74 29 q21 25 21 70 q0 50 -24 105 q-24 55 -59 90 l58 228 l-135 0 l0 -768 l-57 -30 l0 852 l64 -36 Z" /><glyph glyph-name="uni7EDF" unicode="&#x7edf;" d="M630 658 q-12 30 -22 49 q-30 57 -68 95 q48 -19 76 -32 q54 -25 54 -54 q0 -26 -40 -58 ZM972 -20 q-12 -20 -22 -30 q-30 -30 -68 -30 l-150 0 q-19 4 -29 9 q-32 15 -43 45 l0 384 l84 -36 l-30 -24 l0 -306 q5 -10 9 -15 q12 -15 27 -15 l90 0 q19 4 29 9 q31 16 43 51 l18 108 q0 -63 6.5 -96.5 q6.5 -33.5 35.5 -53.5 ZM924 622 l-312 0 l54 -42 q-47 -28 -76 -48 q-86 -61 -140 -126 l342 6 q-9 15 -16 24 q-44 58 -98 90 q74 -20 126 -49 q74 -41 74 -84 q0 -29 -38 -59 q-5 11 -9 19 q-12 22 -33 47 l-288 -30 l72 -36 q-12 -22 -18 -38 q-18 -49 -18 -106 q0 -137 -124 -224 q-109 -76 -242 -76 q139 31 220 95 q98 78 98 199 l0 180 q-20 -2 -32 -4 q-34 -6 -64 -14 l-30 60 q60 12 105 55 q10 10 111 161 l-192 0 l-12 -6 l-18 24 l432 0 l54 54 l72 -72 ZM394 552 q-54 -51 -128 -141 q-60 -73 -119 -146 l220 25 l7 -6 q-30 -7 -50 -12 q-115 -32 -210 -76 l-33 63 q72 22 128 120 l52 92 l-160 -38 l-34 57 q29 20 45 35 q49 46 75 102 l67 175 l73 -57 q-40 -40 -81 -94 q-116 -151 -125 -161 l153 0 l60 118 l60 -56 ZM101 -9 l-40 68 l313 50 l13 -6 q-58 -19 -95 -32 q-108 -39 -191 -80 Z" /><glyph glyph-name="uni7EE3" unicode="&#x7ee3;" d="M966 388 q-4 1 -13 1 q-23 0 -39.5 -14.5 q-16.5 -14.5 -31.5 -28.5 q-72 50 -109 90 q-52 56 -77 132 l-30 0 l0 -198 l-54 -18 l0 192 q-15 -24 -30 -47 q-39 -56 -85 -107 q-64 -71 -131 -116 q2 0 35 37 q41 46 79 103 q53 78 84 154 l-162 0 l-12 -6 l-18 24 l240 0 l0 120 q-34 -4 -56 -6 q-67 -6 -124 -6 q7 0 62 12 q55 12 139 34 q100 27 183 56 l48 -66 q-15 3 -32 3 q-25 0 -103 -14 q-39 -7 -63 -7 l0 -126 l168 0 l48 48 l66 -66 l-234 0 q25 -57 72 -95 q52 -42 180 -85 ZM385 547 q-56 -51 -127 -137 q-59 -71 -117 -142 l217 25 l7 -6 q-29 -7 -49 -12 q-118 -32 -208 -73 l-33 60 q71 22 127 117 q25 44 51 89 l-159 -36 l-33 55 q29 19 45 34 q49 45 74 99 l66 170 l73 -55 q-36 -36 -128 -156 q-41 -54 -77 -92 l152 0 l59 115 l60 -55 ZM930 172 q-31 -25 -68 -174 q-29 -120 -118 -120 q-4 37 -40 62 l-68 40 l138 -18 q33 26 49 94 q14 83 23 122 l-90 0 l-30 -30 l-36 36 l18 18 l36 96 l-138 0 q0 -164 -121 -289 q-121 -125 -287 -125 q150 38 249 148 q105 117 105 266 l-66 0 l-12 -6 l-18 24 l282 0 l30 30 l42 -42 l-24 -24 l-24 -84 l84 0 l30 30 l54 -54 ZM94 3 l-39 65 l310 49 l13 -6 q-3 0 -45 -14 q-58 -20 -109 -39 q-67 -26 -130 -55 Z" /><glyph glyph-name="uni7EFC" unicode="&#x7efc;" d="M960 632 q-46 -8 -84 -34 q-38 -26 -72 -51 l48 97 l-384 0 q0 -53 -11 -78 q-16 -37 -61 -37 q-25 8 -25 18 q0 7 10 16 q26 24 27 26 q14 19 21 33 q21 43 21 89 l12 -49 l174 0 q-10 30 -18 48 q-24 53 -60 98 q48 -28 74 -43 q49 -29 49 -59 q0 -11 -4.5 -20.5 q-4.5 -9.5 -16.5 -23.5 l186 0 l42 42 l72 -72 ZM852 468 l-390 0 l-12 -6 l-18 24 l318 0 l42 43 l60 -61 ZM888 -34 q-24 55 -41 87 q-52 97 -109 155 q76 -43 112 -71 q75 -58 75 -106 q0 -36 -37 -65 ZM948 305 l-66 66 l-48 -48 l-444 0 l18 -25 l12 7 l198 0 l0 -333 l-6 -6 l-150 6 q68 -23 81 -30 q41 -23 45 -67 q41 7 70 38 q9 10 20 29 l0 363 l270 0 ZM357 560 q-54 -53 -121 -139 q-56 -73 -112 -145 l208 25 l6 -6 q-49 -13 -80 -22 q-91 -28 -165 -65 l-32 62 q68 22 121 119 q24 45 49 91 l-151 -37 l-32 56 q27 20 42 35 q49 47 72 100 l63 174 l69 -56 q-31 -33 -76 -94 q-102 -140 -119 -159 l145 0 l56 117 l57 -56 ZM540 183 q-42 -21 -82 -62 l-68 -76 q-41 -44 -78 -67 q12 16 24 31 q31 41 61 89 q44 70 77 140 l66 -55 ZM80 5 l-38 67 l296 50 l13 -7 l-54 -18 q-121 -43 -217 -92 Z" /><glyph glyph-name="uni804C" unicode="&#x804c;" d="M921 716 l-22 -24 l0 -367 l-56 -31 l0 61 l-251 0 l0 -42 l-56 -31 l0 490 l56 -37 l246 0 l33 37 l50 -56 ZM921 -72 q-8 27 -16 53 q-22 64 -52 123 q-40 80 -88 135 q72 -51 125 -106 q81 -83 81 -139 q0 -44 -50 -66 ZM490 728 l-127 0 l0 -532 l97 18 l0 -6 l-97 -31 l0 -225 l-49 -18 l0 225 q-47 -12 -77 -21 q-86 -26 -159 -59 l-36 62 l84 12 l0 575 l-48 0 l-12 -6 l-18 25 l327 0 l48 49 l67 -68 ZM363 -90 q1 0 41 46 q51 59 99 124 q68 92 117 177 l67 -67 q-48 -38 -111 -98 q-99 -94 -105 -100 q-59 -53 -108 -82 ZM843 374 l0 342 l-251 0 l0 -342 l251 0 ZM314 569 l0 159 l-133 0 l0 -159 l133 0 ZM314 385 l0 166 l-133 0 l0 -166 l133 0 ZM314 184 l0 183 l-133 0 l0 -208 l133 25 Z" /><glyph glyph-name="uni8054" unicode="&#x8054;" d="M570 592 q-10 45 -18 72 q-25 82 -60 132 q43 -21 82 -58 q51 -48 51 -85 q0 -18 -13 -34 q-13 -16 -42 -27 ZM966 -26 l-24 0 q-54 -4 -72 -36 q-5 0 -42 42 q-50 57 -84 127 q-50 102 -60 215 l-18 0 q0 -141 -88 -267 q-88 -126 -212 -153 q113 59 179.5 172 q66.5 113 66.5 248 l-174 0 l-12 -6 l-18 24 l204 0 l0 198 l-156 0 l-12 -6 l-18 24 l246 0 q22 45 36 76 q41 91 72 176 l90 -66 q-60 -19 -103 -79 q-36 -54 -71 -107 l120 0 l48 48 l66 -66 l-264 0 l0 -198 l162 0 l48 48 l66 -66 l-240 0 l20 -70 q30 -82 79 -147 q69 -91 165 -131 ZM488 716 l-128 0 l0 -538 l98 18 l0 -6 l-98 -31 l0 -227 l-49 -19 l0 228 q-48 -12 -78 -21 q-88 -27 -161 -60 l-36 62 l85 13 l0 581 l-49 0 l-12 -7 l-18 25 l330 0 l49 50 l67 -68 ZM311 555 l0 161 l-135 0 l0 -161 l135 0 ZM311 369 l0 167 l-135 0 l0 -167 l135 0 ZM311 166 l0 185 l-135 0 l0 -210 l135 25 Z" /><glyph glyph-name="uni8086" unicode="&#x8086;" d="M984 508 l-108 0 l0 -144 l-48 -24 l0 36 l-138 0 l0 -126 l150 0 l30 30 l48 -48 l-228 0 l0 -120 l192 0 l36 36 l54 -54 l-282 0 l0 -210 l-48 -24 l0 234 l-210 0 l-12 -6 l-18 24 l240 0 l0 120 l-168 0 l-12 -6 l-18 24 l198 0 l0 126 l-162 0 l-12 -6 l-18 24 l192 0 l0 114 l-174 0 l-12 -6 l-18 24 l204 0 l0 102 l-156 0 l-12 -6 l-18 24 l186 0 l0 162 l78 -42 l-30 -18 l0 -102 l132 0 l30 30 l42 -42 l-18 -18 l0 -90 l30 0 l30 30 l48 -48 ZM462 298 l-210 0 l36 -30 q-33 -32 -53 -55 q-62 -69 -103 -137 l216 30 q-3 10 -5 16 q-15 40 -43 68 q37 -20 74 -61 q46 -50 46 -86 q0 -18 -10.5 -30.5 q-10.5 -12.5 -37.5 -20.5 l-18 102 q-30 -8 -50 -13 q-113 -33 -190 -71 l-36 60 q51 27 84 96 q13 27 48 132 l-144 0 l-12 -6 l-18 24 l120 0 l0 420 l54 -30 l126 0 l42 42 l60 -60 l-228 0 l0 -114 l102 0 l36 36 l54 -54 l-192 0 l0 -102 l108 0 l36 36 l54 -54 l-198 0 l0 -120 l138 0 l48 48 l66 -66 ZM828 526 l0 102 l-138 0 l0 -102 l138 0 ZM828 394 l0 114 l-138 0 l0 -114 l138 0 Z" /><glyph glyph-name="uni80FD" unicode="&#x80fd;" d="M948 466 q-9 -22 -19 -33 q-30 -33 -83 -33 l-198 0 q-28 5 -42 12 q-42 22 -42 72 l0 318 l90 -36 l-36 -24 l0 -168 q27 13 45 23 q107 59 189 127 l48 -66 q-54 -6 -112 -29 q-164 -66 -170 -67 l0 -72 q2 -12 5 -18 q11 -20 37 -24 l168 0 q20 2 29 6 q29 14 25 48 l6 96 q14 -71 18 -82 q13 -38 42 -50 ZM462 514 l-24 54 q-38 -3 -65 -5 q-150 -16 -283 -49 l-30 66 q71 19 123 93 q43 67 87 135 l72 -48 q-59 -26 -117 -81 l-99 -99 l306 6 q-12 24 -21 39 q-28 46 -63 81 q44 -24 89 -48 q62 -39 62 -79 q0 -15 -9 -31.5 q-9 -16.5 -28 -33.5 ZM960 -14 q-13 -18 -24 -28 q-35 -30 -84 -38 l-198 0 q-18 1 -28 4 q-62 18 -62 86 l0 366 l90 -42 l-36 -30 l0 -168 q28 16 47 27 q110 67 193 141 l54 -72 q-67 -7 -151 -47 q-104 -50 -143 -61 l0 -114 q1 -12 4 -18 q9 -18 32 -18 l174 0 q20 5 30 11 q30 19 30 61 l6 120 q5 -14 13 -72 q12 -88 53 -108 ZM468 430 l-24 -24 l0 -450 q-8 -10 -13 -16 q-34 -36 -71 -50 q0 41 -38 61 q-35 15 -70 29 l126 -6 l6 6 l0 162 l-198 0 l0 -228 l-54 -30 l0 594 l54 -30 l192 0 l36 36 l54 -54 ZM384 310 l0 120 l-198 0 l0 -120 l198 0 ZM384 160 l0 132 l-198 0 l0 -132 l198 0 Z" /><glyph glyph-name="uni8272" unicode="&#x8272;" d="M954 -2 q-10 -17 -18 -27 q-24 -30 -54 -45 l-582 0 q-32 2 -48 8 q-48 19 -48 76 l0 480 q-31 -27 -50 -42 q-60 -48 -100 -66 q101 92 180.5 200 q79.5 108 137.5 238 l84 -48 q-32 -16 -52 -33 q-25 -22 -38 -51 l258 0 l42 42 l66 -66 q-69 -20 -124 -63 q-22 -17 -92 -87 l210 0 l36 36 l48 -48 l-24 -24 l0 -276 l-54 -24 l0 78 l-474 0 l0 -228 q2 -22 7 -32 q15 -32 53 -28 l504 0 q20 6 30 13 q32 22 36 59 l6 132 l18 -114 q4 -22 16 -37 q9 -12 26 -23 ZM612 670 l-258 0 q-19 -30 -32 -49 q-41 -57 -82 -95 l24 -12 l222 0 q28 26 45 44 q50 55 81 112 ZM732 274 l0 222 l-210 0 l0 -222 l210 0 ZM468 274 l0 222 l-210 0 l0 -222 l210 0 Z" /><glyph glyph-name="uni83B7" unicode="&#x83b7;" d="M792 388 q-10 30 -18 48 q-24 54 -54 84 q54 -26 83.5 -46 q29.5 -20 29.5 -39 q0 -11 -10 -23 q-10 -12 -31 -24 ZM927 649 l-262 0 l0 -90 l-57 -17 l0 107 l-200 0 l0 -96 l-57 -17 l0 113 l-245 0 l-11 -5 l-17 22 l273 0 l0 136 l80 -34 l-23 -17 l0 -85 l200 0 l0 136 l79 -34 l-22 -17 l0 -85 l142 0 l51 51 l69 -68 ZM966 -56 q-12 0 -20 -1 q-48 -8 -76 -41 q-8 0 -51 44 q-58 60 -95 138 q-52 110 -52 238 l-24 0 q-10 -49 -19 -97 q-31 -114 -87 -193 q-80 -113 -200 -142 q11 0 63 40 q74 57 119 136 q64 112 64 256 l-186 0 l-12 -6 l-18 24 l216 0 l0 186 l90 -42 l-30 -24 l0 -120 l198 0 l48 48 l66 -66 l-270 0 q8 -40 16 -79 q27 -93 78 -163 q72 -98 182 -136 ZM419 471 q-31 -12 -50 -21 q-56 -28 -93 -62 q19 -35 30 -57 q34 -70 45 -122 q3 -26 6.5 -66 q3.5 -40 3.5 -56 q0 -83 -26 -132 q-34 -64 -116 -83 q-3 27 -41 46 q-34 15 -67 29 l131 -9 q19 15 28 25 q29 33 29 71 q2 13 3 31.5 q1 18.5 1 48.5 q0 39 -1.5 58 q-1.5 19 -7.5 54 q-16 -15 -31 -30 q-39 -36 -82 -67 q-61 -44 -115 -69 q1 0 39 32 q44 38 87 81 q59 60 90 106 q-5 21 -8 33 q-10 35 -26 59 q-31 -20 -52 -32 q-65 -36 -130 -56 q19 11 32 19 q75 47 133 95 q-22 22 -38 34 q-48 38 -99 58 l11 4 q32 -11 51 -19 q56 -25 98 -60 q22 21 36 34 q45 43 72 72 l57 -49 Z" /><glyph glyph-name="uni85CF" unicode="&#x85cf;" d="M810 544 q-10 22 -17 36 q-23 44 -49 78 q36 -14 57 -24 q41 -20 41 -43 q0 -10 -7.5 -22 q-7.5 -12 -24.5 -25 ZM956 689 l-302 0 l0 -68 l-59 -24 l0 92 l-192 0 l0 -74 l-58 -25 l0 99 l-244 0 l-12 -6 l-17 25 l273 0 l0 124 l87 -44 l-29 -31 l0 -49 l192 0 l0 117 l88 -43 l-29 -31 l0 -43 l168 0 l58 62 l76 -81 ZM966 514 l-252 0 q1 -36 1 -61 q5 -148 23 -275 q23 42 36 71 q42 92 60 175 l72 -42 q-11 -11 -17 -19 q-20 -25 -31 -47 q-8 -22 -14 -37 q-37 -85 -88 -155 q8 -22 16 -36 q47 -82 128 -114 q3 29 6 47 q10 53 30 97 q-1 -7 -1.5 -16.5 q-0.5 -9.5 -0.5 -26.5 q0 -46 5 -88 q5 -42 21 -97 q-9 0 -43 14 q-50 21 -95 55 q-61 47 -96 111 q-18 -18 -36 -35 q-49 -45 -101 -81 q-77 -53 -157 -88 q39 24 64 41 q75 53 128 109 l-216 0 l-30 -30 l-42 42 l24 24 l0 414 l54 -30 l126 0 l42 42 l60 -60 l-126 0 l0 -102 l48 0 l30 30 l42 -42 l-18 -18 l0 -120 l-48 -18 l0 30 l-54 0 l0 -144 l36 0 l42 42 l48 -48 q15 18 24 30 q27 36 42 66 q-1 0 -10 59.5 q-9 59.5 -16 138.5 q-10 108 -10 192 l-372 0 l0 -354 l-14 -58 q-22 -69 -63 -124 q-57 -78 -139 -112 q7 0 43 38 q50 53 81 123 q44 101 44 223 l-90 0 q-3 -27 -5 -54 q-10 -65 -31 -120 q-30 -77 -78 -120 q24 44 36 77 q36 100 36 217 l-42 0 l-12 -6 l-18 24 l204 0 l0 120 l-96 0 l-24 -24 l-30 30 l18 18 l0 162 l60 -30 l-24 -18 l0 -120 l96 0 l0 156 l60 -30 l360 0 l0 96 l66 -30 l-24 -18 l0 -48 l150 0 l42 42 l60 -60 ZM480 316 l0 102 l-72 0 l0 -102 l72 0 ZM570 196 l0 102 l-162 0 l0 -102 l162 0 ZM474 34 l0 144 l-66 0 l0 -144 l66 0 Z" /><glyph glyph-name="uni884C" unicode="&#x884c;" d="M900 688 l-444 0 l-12 -6 l-18 24 l348 0 l54 54 l72 -72 ZM388 746 q-29 -9 -49 -25 q-13 -10 -28 -31 q-17 -18 -33 -36 q-45 -46 -92 -84 q-67 -54 -137 -90 q3 0 46 43 q56 56 106 117 q68 83 117 168 l70 -62 ZM966 430 l-192 0 l0 -462 q-10 -21 -17 -33 q-22 -36 -49 -51 q-21 42 -83 65 q-62 23 -67 25 l150 -6 l6 6 l0 456 l-336 0 l-12 -6 l-18 24 l492 0 l54 54 l72 -72 ZM403 554 q-33 -20 -51 -34 q-57 -45 -84 -96 l43 -24 l-29 -19 l0 -450 l-64 -31 l0 469 q-34 -29 -56 -46 q-69 -54 -120 -84 q3 0 48 49 q51 56 110 134 q76 101 125 194 l78 -62 Z" /><glyph glyph-name="uni89C4" unicode="&#x89c4;" d="M858 663 l0 -419 l-54 -24 l0 473 l-282 0 l0 -473 l-54 -30 l0 557 l66 -36 l264 0 l36 36 l54 -54 l-30 -30 ZM984 -21 q-6 -17 -12 -27 q-20 -31 -54 -46 l-162 0 q-17 6 -27 12 q-29 19 -45 55 l0 326 l90 -36 l-36 -25 l0 -241 q4 -23 16.5 -29.5 q12.5 -6.5 25.5 -12.5 l102 0 q31 19 31 97.5 q0 78.5 5 107.5 q4 -13 12.5 -87 q8.5 -74 53.5 -94 ZM714 566 q-28 -15 -31.5 -99.5 q-3.5 -84.5 -4.5 -88.5 q-10 -55 -19 -109 q-34 -127 -107 -220 q-102 -129 -264 -167 q15 0 87 48 q99 66 161 159 q88 131 88 295 l0 224 l90 -42 ZM456 364 l-174 0 l-12 -102 q58 -39 116 -77 q40 -34 40 -64 q0 -30 -42 -57 q-7 22 -13 37 q-38 88 -107 143 q-10 -34 -19 -68 q-28 -82 -69 -141 q-59 -86 -140 -121 q8 0 51 47 q58 64 95 147 q52 118 52 256 l-156 0 l-12 -6 l-18 24 l186 0 l0 174 l-120 0 l-12 -6 l-18 24 l150 0 l0 222 l84 -42 l-36 -24 l0 -156 l48 0 l48 48 l66 -66 l-162 0 l0 -174 l60 0 l48 48 l66 -66 Z" /><glyph glyph-name="uni89D2" unicode="&#x89d2;" d="M876 514 l-24 -24 l0 -510 q-8 -21 -15 -33 q-23 -38 -57 -57 q-11 40 -54.5 59.5 q-43.5 19.5 -83.5 36.5 l138 -6 l6 6 l0 198 l-228 0 l0 -258 l-54 -24 l0 282 l-204 0 l-14 -66 q-24 -78 -69 -132 q-65 -77 -163 -96 q6 0 45 31 q55 44 89 97 q50 78 58 172 l0 336 q-32 -30 -54 -48 q-66 -53 -132 -84 q4 0 55 52 q67 67 125 145 q82 108 132 217 l96 -42 q-19 -8 -31 -15 q-36 -22 -59 -57 l228 0 l42 42 l66 -66 q-35 -18 -56 -33 q-65 -46 -106 -105 l222 0 l42 42 l60 -60 ZM786 364 l0 150 l-228 0 l0 -150 l228 0 ZM600 676 l-240 0 l-30 -40 q-42 -56 -66 -86 l36 -18 l210 0 q19 23 31 40 q37 52 59 104 ZM786 202 l0 144 l-228 0 l0 -144 l228 0 ZM504 364 l0 150 l-204 0 l0 -150 l204 0 ZM504 202 l0 144 l-204 0 l0 -144 l204 0 Z" /><glyph glyph-name="uni89E3" unicode="&#x89e3;" d="M912 676 q-14 -12 -21 -22 q-23 -31 -27 -68 q-6 -37 -15 -57 q-27 -60 -87 -75 q0 30 -28 44 q-38 13 -56 22 l90 -6 q33 16 49 62 q11 32 17 94 l-144 0 l-16 -52 q-24 -61 -62 -109 q-53 -67 -126 -97 q4 0 30 26 q36 36 64 84 q40 69 56 148 l-114 0 l-12 -6 l-18 24 l336 0 l36 36 l48 -48 ZM948 136 l-192 0 l0 -240 l-48 -18 l0 258 l-180 0 l-12 -6 l-18 24 l210 0 l0 138 l-120 0 l-66 -102 q15 43 23 72 q26 90 37 162 l66 -18 q-11 -16 -18 -27 q-20 -32 -36 -69 l114 0 l0 126 l72 -36 l-24 -24 l0 -66 l90 0 l36 36 l54 -54 l-180 0 l0 -138 l90 0 l42 42 l60 -60 ZM493 499 l-19 -18 l0 -529 l-6 -12 q-16 -27 -49 -40 q-8 30 -37 46 q-38 15 -56 24 l93 -6 l6 6 l0 226 l-111 0 l0 -249 l-43 -18 l0 267 l-99 0 l-6 -54 q-12 -66 -38 -123 q-36 -80 -98 -136 q28 44 42 75 q45 96 56 197 l0 355 q-12 -13 -21 -21 q-27 -24 -59 -43 q1 0 34 45 q46 63 78 121 q49 88 80 178 l74 -41 q-20 -12 -31 -22 q-34 -30 -50 -71 l136 0 l37 35 l62 -59 q-45 -10 -89 -52 q-36 -35 -71 -70 l111 0 l31 29 l43 -40 ZM363 638 l-136 0 l-86 -116 l37 -12 l111 0 q16 22 25 37 q29 46 49 91 ZM425 365 l0 128 l-111 0 l0 -128 l111 0 ZM271 365 l0 128 l-99 0 l0 -128 l99 0 ZM425 213 l0 134 l-111 0 l0 -134 l111 0 ZM271 213 l0 134 l-99 0 l0 -134 l99 0 Z" /><glyph glyph-name="uni8BA4" unicode="&#x8ba4;" d="M268 628 q-16 34 -28 54 q-36 61 -79 102 q76 -31 114.5 -54 q38.5 -23 38.5 -48 q0 -13 -11 -26 q-11 -13 -35 -28 ZM978 -38 q-11 0 -39 -1.5 q-28 -1.5 -69 -28.5 q-8 0 -59 68 q-66 88 -109 199 q-60 155 -60 321 q-6 -70 -11 -140 q-29 -162 -115 -279 q-120 -162 -336 -205 q22 0 104 50 q118 72 193 180 q105 152 105 352 l0 312 l102 -42 l-30 -30 l0 -162 l18 -116 q31 -138 91 -249 q84 -154 215 -229 ZM461 184 l-34 -32 q-70 -66 -88 -82 q-56 -51 -124 -109 l-47 57 l33 23 l0 431 l-126 0 l-14 -5 l-19 23 l153 0 l40 34 l60 -52 l-27 -23 l0 -374 l193 109 Z" /><glyph glyph-name="uni8BAF" unicode="&#x8baf;" d="M966 -62 q-1 -1 -2 -1 q-9 -3 -22 1 q-8 0 -46 35 q-54 49 -93 121 q-55 101 -71 228 l0 402 l-240 0 l66 -36 l-36 -24 l0 -258 l78 0 l42 42 l60 -60 l-180 0 l0 -462 l-54 -24 l0 486 l-138 0 l-12 -6 l-18 24 l168 0 l0 318 l-120 0 l-12 -6 l-18 24 l408 0 l30 30 l54 -54 l-24 -24 l0 -288 l0 -13 q0 -73 16 -139 q28 -117 98 -190 q7 26 13 43 q18 50 41 89 q-6 -28 -8 -47 q-5 -39 -5 -65 q0 -38 5.5 -73 q5.5 -35 19.5 -73 ZM225 614 q-14 34 -24 54 q-32 63 -68 104 q66 -32 99 -55 q33 -23 33 -48 q0 -27 -40 -55 ZM392 166 q-15 -16 -29 -32 q-69 -75 -77 -84 q-40 -43 -107 -110 l-40 58 l29 24 l0 435 l-110 0 l-11 -6 l-17 24 l132 0 l35 35 l51 -53 l-23 -23 l0 -378 l167 110 Z" /><glyph glyph-name="uni8BF7" unicode="&#x8bf7;" d="M964 430 l-579 0 l-12 -6 l-19 25 l260 0 l0 99 l-165 0 l-13 -6 l-19 24 l197 0 l0 112 l-203 0 l-13 -7 l-19 25 l235 0 l0 118 l83 -38 l-32 -24 l0 -56 l159 0 l45 43 l63 -61 l-267 0 l0 -112 l108 0 l45 44 l63 -62 l-216 0 l0 -99 l191 0 l44 43 l64 -62 ZM225 619 q-15 34 -25 55 q-32 63 -70 104 q68 -32 102 -56 q34 -24 34 -48 q0 -13 -9.5 -27 q-9.5 -14 -31.5 -28 ZM843 301 l0 -376 q-8 -17 -15 -26 q-22 -28 -55 -36 q-12 34 -53 54 l-74 32 l134 -6 l6 6 l0 148 l-293 0 l0 -197 l-63 -31 l0 506 l63 -37 l287 0 l31 31 l51 -50 l-19 -18 ZM398 146 q-13 -14 -25 -28 q-21 -22 -70 -74 q-55 -57 -105 -106 l-38 58 q4 8 5 13 q5 16 5 31 l0 420 l-117 0 l-12 -6 l-17 24 l140 0 l36 35 l49 -53 l-24 -24 l0 -402 l173 112 ZM786 233 l0 86 l-293 0 l0 -86 l293 0 ZM786 115 l0 99 l-293 0 l0 -99 l293 0 Z" /><glyph glyph-name="uni8D26" unicode="&#x8d26;" d="M972 24 q-12 -4 -19 -7 q-44 -19 -69 -46 q-5 0 -43 43 q-51 58 -90 130 q-55 102 -77 218 l-71 0 l0 -379 l132 78 q-7 -8 -93 -106 q-14 -16 -58 -68 l-45 48 q3 8 5.5 18 q2.5 10 2.5 20 l0 389 l-88 0 l-11 -6 l-16 24 l115 0 l0 422 l83 -42 l-27 -24 l0 -297 q3 0 41 39 q52 52 93 109 q61 83 97 167 l78 -65 q-53 -30 -109 -85 q-47 -49 -94 -97 q-57 -57 -106 -86 l0 -41 l231 0 l50 53 l66 -71 l-259 0 q11 -35 23 -70 q34 -82 87 -146 q73 -88 171 -122 ZM439 709 l-25 -25 l0 -499 l-57 -19 l0 543 l-194 0 l0 -567 l-55 -19 l0 636 l55 -31 l188 0 l36 38 l52 -57 ZM314 572 l-30 -25 l0 -306 l-10 -70 q-19 -81 -66 -143 q-65 -86 -172 -116 q8 0 50 32 q60 46 95 104 q51 84 51 187 l0 381 l82 -44 ZM417 -95 q-23 43 -40 70 q-51 80 -105 135 q71 -38 107 -60 q67 -40 67 -82 q0 -15 -6 -29.5 q-6 -14.5 -23 -33.5 Z" /><glyph glyph-name="uni8D30" unicode="&#x8d30;" d="M522 514 l-342 0 l-12 -6 l-18 24 l270 0 l42 42 l60 -60 ZM966 622 l-312 0 l0 -108 q4 -52 8 -103 q17 -122 61 -221 q61 -137 165 -204 q7 33 12 54 q15 60 36 114 q0 -27 -2.5 -73.5 q-2.5 -46.5 -2.5 -55.5 q0 -34 3.5 -59.5 q3.5 -25.5 13.5 -51.5 q-3 -2 -5 -2 q-7 -2 -15 -2 q-10 0 -17.5 2.5 q-7.5 2.5 -16.5 7.5 q-11 0 -77 58 q-90 80 -145 182 q-78 145 -78 318 l0 144 l-516 0 l-12 -6 l-18 24 l546 0 l0 168 l84 -42 l-24 -24 l0 -102 l126 0 q-10 26 -19 42 q-27 47 -65 78 q49 -19 77 -32 q52 -24 52 -53 q0 -17 -15 -35 l42 0 l48 48 l66 -66 ZM570 412 l-432 0 l-12 -6 l-18 24 l360 0 l42 42 l60 -60 ZM534 322 l-24 -24 l0 -210 l-48 -24 l0 258 l-252 0 l0 -246 l-54 -18 l0 312 l54 -30 l246 0 l30 30 l48 -48 ZM528 -98 q-28 35 -47 56 q-59 65 -115 106 q90 -26 139.5 -51 q49.5 -25 49.5 -58 q0 -25 -27 -53 ZM372 250 q-10 -16 -15 -28 q-15 -36 -15 -74 q-11 -32 -22 -63 q-34 -74 -90 -119 q-80 -64 -194 -64 q16 0 61 17 q72 27 121 75 q69 67 82 166 l0 120 l72 -30 Z" /><glyph glyph-name="uni8D44" unicode="&#x8d44;" d="M966 418 q-14 -4 -23 -7 q-53 -20 -91 -53 q-8 0 -52 23 q-61 32 -114 79 q-73 65 -110 144 q-41 -130 -183 -203 q-111 -57 -273 -73 q143 46 184 64 q100 44 153 102 q66 73 77 182 l-96 0 q-23 -35 -40 -56 q-51 -64 -104 -106 q2 0 26 38 q34 53 59 104 q37 76 59 152 l90 -36 q-52 -17 -78 -78 l348 0 l48 48 l72 -72 q-55 0 -104 -37 q-41 -33 -82 -65 l66 108 l-240 0 l60 -30 q-12 -7 -16 -13 q-8 -11 -8 -23 q18 -25 37 -49 q52 -57 121 -93 q97 -50 214 -50 ZM186 664 q-16 26 -28 42 q-35 47 -74 78 q38 -11 77 -22 q57 -21 57 -49 q0 -11 -7.5 -23 q-7.5 -12 -24.5 -26 ZM336 748 l-78 -114 q-25 -39 -49 -77 q-27 -46 -27 -84 q0 -9 4 -31 q5 -13 5 -23 q0 -18 -10 -29 q-10 -11 -25 -11 q-13 0 -22.5 10.5 q-9.5 10.5 -13.5 34.5 q1 6 3 26 q2 20 2 29 q0 29 -12 49 q-12 20 -47 34 q5 -2 13 -3 q8 -1 23 -1 q29 0 52 8 q32 11 56 38 l120 150 l6 -6 ZM810 305 l-25 -23 l0 -204 l-58 -17 l0 238 l-419 0 l0 -227 l-58 -17 l0 291 l64 -29 l407 0 l38 35 l51 -47 ZM854 -131 l-40 30 q-48 33 -109 70 q-80 47 -156 81 q131 -29 199 -49 q125 -37 125 -88 q0 -22 -19 -44 ZM575 229 q-13 -16 -20 -28 q-23 -38 -31 -82 q-30 -129 -182 -193 q-121 -51 -282 -51 q203 30 303 106 q123 94 123 277 l89 -29 Z" /><glyph glyph-name="uni8F6C" unicode="&#x8f6c;" d="M975 408 l-351 0 l-41 -142 l239 0 l31 34 l56 -63 q-3 0 -34 -22 q-46 -33 -78 -66 q-49 -50 -82 -110 q30 -8 65 -38 q41 -35 41 -64 q0 -26 -34 -41 q-17 19 -33 37 q-41 42 -93 85 q-69 56 -139 94 q35 -9 57 -16 q67 -21 116 -46 l25 35 q58 86 97 164 l-244 0 l-21 -23 l-36 40 l21 23 l36 119 l-128 0 l-10 -5 l-15 22 l158 0 l46 171 l-118 0 l-10 -5 l-15 22 l148 0 l46 189 l76 -52 l-41 -23 l-30 -114 l168 0 l36 40 l51 -57 l-260 0 l-46 -171 l260 0 l35 40 l51 -57 ZM453 608 l-224 0 l-88 -243 l113 0 l0 176 l81 -36 l-31 -19 l0 -121 l37 0 l44 43 l62 -61 l-143 0 l0 -170 l137 25 l6 -6 l-143 -43 l0 -260 l-50 -18 l0 260 l-175 -49 l-31 55 l206 30 l0 176 l-119 0 l-31 -24 l-38 48 l32 24 l75 213 l-100 0 l-13 -6 l-18 24 l137 0 l56 176 l75 -49 l-38 -18 l-37 -109 l112 0 l44 42 l62 -60 Z" /><glyph glyph-name="uni8FD8" unicode="&#x8fd8;" d="M869 260 l-24 44 q-30 51 -64 98 q-47 63 -91 99 q75 -33 133 -76 q81 -60 81 -108 q0 -33 -35 -57 ZM897 730 l-212 0 q-20 -43 -33 -71.5 q-13 -28.5 -40 -81.5 l56 -27 l-23 -17 l0 -501 l-55 -22 l0 518 q-18 -27 -35 -53 q-41 -58 -101 -123 q-77 -85 -154 -141 q3 0 59 69 q72 89 129 184 q83 137 124 266 l-262 0 l-11 -5 l-17 21 l457 0 l51 50 l67 -66 ZM234 570 q-7 24 -12 39 q-33 90 -82 151 q69 -40 104 -68.5 q35 -28.5 35 -57.5 q0 -15 -11 -31.5 q-11 -16.5 -34 -32.5 ZM949 -11 q-20 -6 -31 -13 q-33 -21 -44 -60 l-379 0 q-60 9 -94 19 q-105 32 -156 97 l-46 0 l-117 -116 l-40 55 l157 85 l0 318 l-117 0 l-17 -6 l-18 24 l146 0 l35 37 l52 -55 l-23 -25 l0 -305 q19 -19 33 -29 q45 -33 95 -44 q5 0 106.5 5 q101.5 5 222.5 9 q121 4 235 4 Z" /><glyph glyph-name="uni9000" unicode="&#x9000;" d="M834 718 l-24 -24 l0 -288 l-60 -18 l0 30 l-288 0 l0 -308 l186 60 q-33 -22 -56 -38 q-68 -49 -142 -111 l-60 57 q4 13 6 20 q6 23 6 38 l0 630 l72 -30 l270 0 l36 36 l54 -54 ZM888 334 q-41 -6 -66 -13 q-74 -21 -120 -59 q86 -52 130.5 -86.5 q44.5 -34.5 44.5 -67.5 q0 -14 -7 -27.5 q-7 -13.5 -24 -28.5 q-21 23 -41 47 q-53 57 -113 107 q-85 71 -170 116 q29 -5 48 -10 q58 -15 108 -38 q31 23 51 38 q65 49 111 88 l48 -66 ZM232 564 q-13 40 -23 65 q-31 74 -73 125 q70 -40 106 -69 q36 -29 36 -57 q0 -15 -11 -31 q-11 -16 -35 -33 ZM962 -17 q-20 -6 -31 -13 q-35 -21 -46 -60 l-386 0 q-61 9 -96 19 q-108 32 -160 97 l-47 0 l-119 -116 l-41 55 l160 85 l0 318 l-119 0 l-18 -6 l-18 24 l149 0 l36 37 l53 -55 l-24 -25 l0 -305 q20 -19 34 -29 q46 -33 97 -44 q5 0 108 5 q103 5 227.5 9 q124.5 4 240.5 4 ZM750 586 l0 132 l-288 0 l0 -132 l288 0 ZM750 436 l0 132 l-288 0 l0 -132 l288 0 Z" /><glyph glyph-name="uni901A" unicode="&#x901a;" d="M870 526 l-18 -18 l0 -432 q-9 -15 -15 -24 q-18 -25 -39 -42 q-9 25 -32 41 q-7 5 -82 37 l108 -6 l6 6 l0 138 l-162 0 l0 -150 l-54 -18 l0 168 l-156 0 l0 -180 l-60 -24 l0 558 l72 -36 l156 0 q-13 30 -24 48 q-33 54 -78 84 q30 -10 48 -17 q56 -23 90 -49 l114 120 l-366 0 l-12 -6 l-18 24 l402 0 l42 42 l66 -66 q-48 -17 -77 -31 q-88 -42 -145 -95 q2 -4 2 -6 q3 -9 3 -14 q0 -11 -4.5 -19 q-4.5 -8 -18.5 -15 l174 0 l30 30 l48 -48 ZM236 556 q-7 23 -12 38 q-33 88 -83 148 q50 -30 81 -50 q59 -38 59 -73 q0 -15 -10.5 -30.5 q-10.5 -15.5 -34.5 -32.5 ZM959 -14 q-20 -6 -31 -13 q-35 -21 -46 -59 l-382 0 q-60 8 -95 18 q-105 31 -158 96 l-47 0 l-117 -114 l-41 54 l158 84 l0 312 l-117 0 l-18 -6 l-18 24 l147 0 l36 36 l53 -54 l-24 -24 l0 -300 q19 -19 33 -29 q45 -32 96 -43 q5 0 107.5 5 q102.5 5 225.5 9 q123 4 238 4 ZM798 394 l0 132 l-162 0 l0 -132 l162 0 ZM798 244 l0 132 l-162 0 l0 -132 l162 0 ZM582 394 l0 132 l-156 0 l0 -132 l156 0 ZM582 244 l0 132 l-156 0 l0 -132 l156 0 Z" /><glyph glyph-name="uni9500" unicode="&#x9500;" d="M919 671 q-50 -18 -99 -67 q-74 -74 -85 -82 q22 33 36 56 q43 72 76 146 l72 -53 ZM539 540 q-14 36 -24 58 q-31 67 -65 108 q58 -35 79 -51 q53 -41 53 -71 q0 -13 -10 -24 q-10 -11 -33 -20 ZM883 475 l-24 -24 l0 -510 q-13 -13 -22 -20 q-27 -22 -55 -33 q-4 36 -43 57 l-70 32 l130 -6 l6 6 l0 195 l-266 0 l0 -261 l-54 -23 l0 634 l60 -29 l101 0 l0 303 l83 -36 l-30 -24 l0 -243 l100 0 l30 29 l54 -47 ZM443 586 l-247 0 l-62 -138 l179 0 l44 42 l61 -60 l-168 0 l0 -148 l82 0 l43 42 l62 -60 l-187 0 l0 -248 l162 66 q-31 -25 -53 -43 q-59 -50 -132 -121 l-55 54 q5 6 7 9 q16 24 16 45 l0 238 l-116 0 l-13 -6 l-18 24 l147 0 l0 148 l-67 0 q-17 -26 -27 -41 q-34 -48 -59 -73 q2 0 30 65 q36 84 63 171 q39 124 55 238 l99 -48 q-30 -11 -49.5 -54 q-19.5 -43 -37.5 -84 l136 0 l43 42 l62 -60 ZM805 344 l0 131 l-266 0 l0 -131 l266 0 ZM805 190 l0 136 l-266 0 l0 -136 l266 0 Z" /><glyph glyph-name="uni9501" unicode="&#x9501;" d="M910 697 q-44 -15 -111 -91 q-36 -40 -67 -55 q26 36 41 60 q47 75 80 144 l57 -58 ZM542 551 q-9 25 -16 41 q-41 96 -88 157 q67 -31 108 -75 q32 -34 32 -64 q0 -33 -36 -59 ZM905 511 l-18 -18 l0 -343 l-57 -24 l0 379 l-311 0 l0 -367 l-58 -29 l0 448 l63 -35 l121 0 l0 280 l75 -30 l-23 -23 l0 -227 l127 0 l34 35 l47 -46 ZM905 -88 q-15 16 -29 32 q-37 37 -79 72 q-58 48 -111 75 q105 -24 148 -42 q87 -36 87 -88 q0 -23 -16 -49 ZM691 301 q0 -125 -55 -211 q-47 -73 -141 -125 q-68 -37 -189 -76 l148 80 q86 53 130 113 q56 76 56 178 l0 175 l80 -41 q-17 -5 -22.5 -20 q-5.5 -15 -5.5 -37 l0 -24 q0 -9 -1 -12 ZM432 594 l-240 0 l-60 -137 l174 0 l42 42 l60 -60 l-162 0 l0 -147 l78 0 l42 42 l60 -59 l-180 0 l0 -249 l165 68 q-31 -25 -53 -44 q-64 -55 -130 -121 l-48 54 q4 8 6 13 q6 16 6 30 l0 249 l-114 0 l-12 -6 l-18 23 l144 0 l0 147 l-66 0 q-16 -25 -26 -40 q-32 -47 -58 -73 q2 0 29 65 q34 80 61 169 q38 125 54 236 l96 -48 q-29 -11 -48 -53.5 q-19 -42.5 -36 -83.5 l132 0 l42 42 l60 -59 Z" /><glyph glyph-name="uni9526" unicode="&#x9526;" d="M924 268 l-24 -24 l0 -228 q-10 -19 -18 -29 q-25 -31 -60 -43 q-7 36 -48 54.5 q-41 18.5 -78 35.5 l138 -12 l12 12 l0 228 l-168 0 l0 -366 l-54 -24 l0 390 l-150 0 l0 -282 l-54 -30 l0 366 l60 -36 l144 0 l0 120 l-114 0 l0 -24 l-48 -18 l0 354 l54 -30 l60 0 l48 126 l78 -42 q-22 -12 -35 -21 q-40 -28 -67 -63 l198 0 l36 36 l54 -54 l-24 -24 l0 -252 l-60 -24 l0 36 l-126 0 l0 -120 l162 0 l36 36 l48 -48 ZM420 583 l-233 0 l-58 -139 l169 0 l40 43 l59 -61 l-158 0 l0 -149 l76 0 l41 42 l0 10 l58 -71 l-175 0 l0 -263 l152 65 q-14 -12 -25 -21 q-63 -54 -138 -133 l-53 54 q4 13 5 21 q6 29 6 44 l0 233 l-110 0 l-11 -6 l-18 25 l139 0 l0 149 l-63 0 q-15 -26 -25 -41 q-30 -47 -56 -74 q2 0 28 66 q34 85 59 172 q37 126 52 241 l93 -49 q-28 -11 -46 -54.5 q-18 -43.5 -35 -84.5 l128 0 l41 42 l58 -61 ZM804 550 l0 114 l-294 0 l0 -114 l294 0 ZM804 418 l0 114 l-294 0 l0 -114 l294 0 Z" /><glyph glyph-name="uni952E" unicode="&#x952e;" d="M970 535 l-130 0 l0 -139 l-54 -25 l0 37 l-101 0 l0 -115 l84 0 l41 42 l60 -61 l-185 0 l0 -115 l101 0 l48 49 l65 -67 l-214 0 l0 -144 l-53 -25 l0 169 l-101 0 l-12 -6 l-18 24 l131 0 l0 115 l-83 0 l-12 -6 l-18 25 l119 0 l0 115 l-77 0 l-12 -6 l-18 24 l107 0 l0 109 l-113 0 l-12 -6 l-18 24 l143 0 l0 103 l-83 0 l-12 -6 l-18 24 l113 0 l0 116 l71 -31 l-24 -18 l0 -67 l95 0 l36 37 l54 -55 l-30 -30 l0 -73 l30 0 l41 43 l59 -61 ZM970 -28 q-22 -4 -34 -10 q-38 -18 -49 -56 q-23 2 -62 2 l-55 0 q-127 0 -190 15 q-102 24 -156 98 q-27 -32 -45 -51 q-56 -59 -103 -89 q26 27 42 46 q49 59 82 123 q-18 30 -28 49 q-33 60 -55 109 l95 -121 q29 49 40 130 q8 58 8 154 l-60 0 l-29 -30 l-48 49 q51 33 80 115 q22 69 45 139 l-107 0 l-12 -6 l-18 24 l137 0 l29 31 l54 -55 q-51 -28 -87 -143 q-24 -78 -38 -105 l54 0 l29 30 l48 -49 q-12 -9 -18 -17 q-20 -27 -24 -67 q-2 -48 -6 -78 q-13 -90 -47 -164 q36 -37 76 -58 q51 -27 108 -27 l344 12 ZM347 594 l-194 0 l-53 -137 l141 0 l35 36 l53 -54 l-135 0 l0 -141 l59 0 l35 36 l53 -53 l-147 0 l0 -259 l130 64 q-14 -12 -24 -21 q-59 -54 -121 -130 l-47 54 q5 11 7 17 q8 22 8 36 l0 239 l-88 0 l-12 -6 l-17 23 l117 0 l0 141 l-53 0 q-6 -13 -10 -22 q-26 -51 -54 -85 q1 0 23 63 q28 80 50 167 q32 126 44 234 l77 -48 q-21 -11 -36 -53.5 q-15 -42.5 -29 -83.5 l100 0 l35 36 l53 -53 ZM786 553 l0 103 l-101 0 l0 -103 l101 0 ZM786 426 l0 109 l-101 0 l0 -109 l101 0 Z" /><glyph glyph-name="uni95ED" unicode="&#x95ed;" d="M294 634 q-15 33 -27 53 q-37 61 -87 103 q53 -18 88 -34 q67 -31 67 -66 q0 -26 -41 -56 ZM888 694 l-18 -18 l0 -726 q-6 -10 -10 -16 q-26 -37 -62 -50 q-11 45 -61 67 q-45 18 -89 35 l156 -12 l12 12 l0 708 l-396 0 l-12 -6 l-18 24 l420 0 l30 30 l48 -48 ZM774 460 l-192 0 l0 -396 q-10 -20 -18 -31 q-24 -34 -54 -41 q-13 47 -73 72 q-30 12 -59 24 l144 -12 l12 12 l0 312 q-20 -27 -39 -54 q-52 -66 -115 -120 q-91 -78 -188 -120 q5 0 57 42 q68 55 125 121 q80 93 124 191 l-246 0 l-12 -6 l-18 24 l312 0 l0 186 l90 -48 l-42 -24 l0 -114 l102 0 l36 36 l54 -54 ZM168 634 l0 -696 l-54 -24 l0 792 l90 -48 l-36 -24 Z" /><glyph glyph-name="uni95EE" unicode="&#x95ee;" d="M305 641 q-8 19 -15 31 q-41 73 -103 124 q55 -18 91 -34 q69 -31 69 -65 q0 -27 -42 -56 ZM917 701 l-19 -18 l0 -728 q-10 -17 -18 -26 q-24 -28 -56 -39 q-12 44 -63 66 q-46 18 -91 35 l160 -12 l13 12 l0 710 l-408 0 l-13 -6 l-18 23 l432 0 l31 30 l50 -47 ZM690 451 l-18 -19 l0 -277 l-55 -19 l0 82 l-220 0 l0 -88 l-55 -19 l0 397 l61 -38 l208 0 l30 31 l49 -50 ZM175 641 l0 -728 l-55 -24 l0 823 l92 -47 l-37 -24 ZM617 237 l0 214 l-220 0 l0 -214 l220 0 Z" /><glyph glyph-name="uni95FB" unicode="&#x95fb;" d="M291 646 q-8 19 -15 31 q-42 75 -101 125 q53 -18 89 -34 q69 -31 69 -66 q0 -27 -42 -56 ZM897 706 l-18 -18 l0 -726 q-10 -17 -18 -26 q-25 -29 -56 -40 q-11 45 -62 67 q-46 18 -91 35 l159 -12 l13 12 l0 708 l-404 0 l-13 -6 l-18 24 l428 0 l31 30 l49 -48 ZM774 184 l-144 -12 l0 -192 l-60 -24 l0 210 l-342 -36 l-18 18 l126 12 l0 402 l-78 0 l-12 -6 l-18 24 l444 0 l42 42 l60 -60 l-144 0 l0 -372 l48 6 l42 42 l54 -54 ZM163 646 l0 -696 l-55 -24 l0 792 l91 -48 l-36 -24 ZM570 454 l0 108 l-186 0 l0 -108 l186 0 ZM570 316 l0 114 l-186 0 l0 -114 l186 0 ZM570 184 l0 114 l-186 0 l0 -132 l186 18 Z" /><glyph glyph-name="uni9646" unicode="&#x9646;" d="M972 382 l-312 0 l0 -396 l150 0 l0 318 l78 -42 l-18 -18 l0 -336 l-60 -24 l0 84 l-360 0 l-36 -36 l-48 48 l30 30 l0 294 l90 -42 l-36 -30 l0 -246 l150 0 l0 396 l-240 0 l-12 -6 l-18 24 l270 0 l0 186 l-198 0 l-12 -6 l-18 24 l228 0 l0 204 l102 -54 l-42 -30 l0 -120 l150 0 l54 54 l72 -72 l-276 0 l0 -186 l198 0 l48 48 l66 -66 ZM366 698 q-46 -30 -80 -110 l-46 -116 q45 -35 76 -100 q31 -65 31 -128 q0 -55 -24 -92 q-27 -42 -83 -60 q3 30 -25.5 47 q-28.5 17 -55.5 33 q27 -6 47 -6 q45 0 65 27.5 q20 27.5 20 73.5 q0 50 -21.5 106.5 q-21.5 56.5 -53.5 92.5 l52 232 l-121 0 l0 -782 l-51 -31 l0 868 l57 -36 l115 0 l41 43 l57 -62 Z" /><glyph glyph-name="uni96C6" unicode="&#x96c6;" d="M894 280 l-606 0 l0 -36 l-54 -18 l0 354 q-39 -36 -63 -56 q-74 -63 -117 -88 q3 0 46 48 q55 61 104 133 q69 102 108 197 l72 -54 q-33 -15 -57 -52 q-20 -31 -39 -62 l246 0 q-8 32 -15 52 q-22 59 -57 98 l74 -34 q47 -27 47 -59 q0 -26 -31 -57 l216 0 l54 54 l72 -72 l-342 0 l0 -96 l192 0 l42 42 l60 -60 l-294 0 l0 -102 l192 0 l42 42 l60 -60 l-294 0 l0 -96 l228 0 l48 48 l66 -66 ZM934 -29 q-13 -2 -21 -4 q-48 -14 -86 -45 q-11 0 -53 18 q-62 26 -115 68 q-71 56 -110 132 l-26 0 l0 -250 l-48 -22 l0 250 q-24 -23 -47 -45 q-64 -57 -131 -97 q-98 -59 -201 -86 q6 0 57 26 q71 36 129 81 q83 64 139 143 l-272 0 l-11 -6 l-16 22 l353 0 l0 88 l69 -28 l-21 -16 l0 -44 l261 0 l43 44 l59 -60 l-321 0 q19 -22 38 -43 q54 -51 121 -82 q96 -44 210 -44 ZM504 532 l0 96 l-216 0 l0 -96 l216 0 ZM504 412 l0 102 l-216 0 l0 -102 l216 0 ZM504 298 l0 96 l-216 0 l0 -96 l216 0 Z" /><glyph glyph-name="uni9738" unicode="&#x9738;" d="M54 34 l-18 24 l246 0 l0 78 l-114 0 l0 -18 l-42 -12 l0 162 l42 -18 l114 0 l0 66 l-42 0 l0 -18 l-48 -18 l0 114 l-108 0 l-12 -6 l-18 24 l138 0 l0 78 l60 -30 l-12 -18 l0 -30 l132 0 l0 78 l66 -30 l-18 -18 l0 -30 l48 0 l36 36 l54 -54 l-138 0 l0 -90 l-48 -18 l0 30 l-66 0 l42 -30 l-18 -12 l0 -24 l108 0 l24 24 l36 -36 l-12 -12 l0 -102 l-48 -18 l0 30 l-108 0 l0 -78 l120 0 l36 36 l54 -54 l-210 0 l0 -138 l-48 -24 l0 162 l-216 0 l-12 -6 ZM858 394 l0 -426 q-5 -12 -10 -19 q-30 -45 -80 -59 q-13 23 -24 35 q-33 38 -78 49 l120 -12 l12 12 l0 186 l-162 0 q0 -85 -52 -157 q-70 -97 -212 -119 q84 22 144 96 q66 82 66 186 l0 288 l54 -30 l156 0 l36 36 l48 -48 l-18 -18 ZM795 567 l40 99 l-314 0 l0 -164 l-51 -22 l0 186 l-302 0 q-18 -73 -26 -84 q-16 -20 -48 -20 q-24 8 -24 24 q0 17 24 30 q18 17 28 29 q32 37 46 75 l0 -38 l302 0 l0 65 l-268 0 l-17 -5 l-17 22 l564 0 l46 44 l62 -61 l-319 0 l0 -65 l314 0 l40 38 l62 -60 q-44 0 -93 -46 q-25 -24 -49 -47 ZM396 589 l-183 0 l0 16 l183 0 l0 -16 ZM590 605 l171 0 l0 -16 l-171 0 l0 16 ZM213 529 l183 0 l0 -16 l-183 0 l0 16 ZM590 529 l171 0 l0 -16 l-171 0 l0 16 ZM240 334 l132 0 l0 60 l-132 0 l0 -60 ZM636 304 l162 0 l0 102 l-162 0 l0 -102 ZM636 178 l162 0 l0 108 l-162 0 l0 -108 ZM168 154 l114 0 l0 78 l-114 0 l0 -78 ZM330 154 l108 0 l0 78 l-108 0 l0 -78 Z" /><glyph glyph-name="uni9875" unicode="&#x9875;" d="M930 712 l-420 0 l-78 -168 l252 0 l30 30 l54 -54 l-18 -18 l0 -336 l-60 -24 l0 384 l-396 0 l0 -378 l-60 -30 l0 462 l66 -36 l114 0 l30 168 l-354 0 l-12 -6 l-18 24 l744 0 l54 54 l72 -72 ZM846 -92 q-21 19 -41 38 q-56 49 -113 87 q-84 56 -170 91 q129 -20 206 -49 q131 -48 131 -120 q0 -22 -13 -47 ZM552 418 q-12 -17 -18 -28 q-19 -37 -19 -72 q1 -9 1 -14 q0 -132 -66 -219 q-58 -77 -171 -124 q-93 -39 -231 -59 q132 41 191 68 q101 46 154 105 q63 71 63 169 l0 216 l96 -42 Z" /><glyph glyph-name="uni9886" unicode="&#x9886;" d="M934 721 l-207 0 l-86 -156 l150 0 l36 31 l50 -43 l-22 -19 l0 -374 l-57 -19 l0 405 l-221 0 l0 -399 l-57 -19 l0 468 l57 -31 l43 0 q12 25 17 43 q18 57 18 113 l-164 0 l-14 -6 l-22 25 l372 0 l43 37 l64 -56 ZM420 514 q-10 23 -18 37 q-47 86 -114 131 q-16 -27 -31 -53 q-40 -66 -85 -127 q-62 -85 -124 -150 q1 0 38 62 q46 77 88 162 q61 124 96 226 l84 -60 q-10 -1 -15 -3 q-34 -12 -39 -45 q46 -28 93 -55 q62 -42 62 -76 q0 -25 -35 -49 ZM855 -102 q-31 44 -53 71 q-68 82 -139 128 q-19 -24 -37 -47 q-52 -57 -116 -95 q-94 -55 -204 -69 q165 40 256 160 q86 113 86 263 l0 181 l79 -31 l-29 -25 l0 -42 q0 -21 1 -43 q0 -66 -5.5 -121 q-5.5 -55 -23.5 -106 q11 -12 121 -70 q87 -46 87 -94 q0 -27 -23 -60 ZM306 382 q-12 31 -21 50 q-27 57 -63 100 q43 -24 69 -39 q50 -29 50 -57 q0 -25 -35 -54 ZM462 292 q-52 -17 -103 -79 q-73 -88 -95 -107 q35 -30 53 -52 q30 -35 30 -59 q0 -16 -10.5 -26.5 q-10.5 -10.5 -36.5 -18.5 q-10 20 -19 39 q-26 48 -57 93 q-44 62 -92 108 q24 -14 40 -23 q47 -28 86 -55 q23 36 37 60 q43 74 65 132 l-246 0 l-12 -6 l-18 24 l276 0 l36 36 l66 -66 Z" /><glyph glyph-name="uni9898" unicode="&#x9898;" d="M939 733 l-207 0 q-13 -22 -20 -36 q-26 -48 -40 -86 l146 0 l25 26 l45 -41 l-15 -16 l0 -321 l-50 -15 l0 352 l-217 0 l0 -337 l-51 -20 l0 398 l51 -26 l50 0 q7 22 10 36 q11 47 11 86 l-131 0 l-11 -5 l-15 21 l323 0 l40 41 l56 -57 ZM888 36 q-15 23 -25 38 q-62 89 -121 144 q69 -33 103 -54 q63 -38 63 -78 q0 -13 -4 -24.5 q-4 -11.5 -16 -25.5 ZM762 514 l-20 -20 l0 -67 q0 -84 -14 -140 q-23 -91 -85 -152 q-79 -77 -223 -110 q116 35 191.5 137 q75.5 102 75.5 235 l0 143 l75 -26 ZM413 733 l-15 -15 l0 -285 l-54 -20 l0 45 l-152 0 l0 -49 l-54 -20 l0 389 l54 -30 l147 0 l30 30 l44 -45 ZM990 -14 q-29 -8 -46 -16 q-51 -24 -74 -62 l-366 12 q-25 0 -68 8 q-83 15 -149 49 q-95 48 -149 129 q-9 -22 -16 -36 q-43 -86 -98 -150 q1 0 21.5 53 q20.5 53 43.5 125 q31 99 49 182 l72 -48 q-22 -15 -33 -27 q-33 -36 -33 -81 q19 -21 32 -34 q41 -40 82 -62 l0 288 l-198 0 l-12 -6 l-18 24 l378 0 l42 42 l60 -60 l-201 0 l0 -138 l69 0 l42 42 l60 -60 l-171 0 l0 -156 q72 -17 147.5 -24.5 q75.5 -7.5 149.5 -7.5 q64 0 191 7 q127 7 193 7 ZM344 610 l0 123 l-152 0 l0 -123 l152 0 ZM344 472 l0 123 l-152 0 l0 -123 l152 0 Z" /><glyph glyph-name="uni9996" unicode="&#x9996;" d="M954 592 l-432 0 q-16 -26 -27 -43 q-33 -49 -69 -89 l264 0 l36 36 l54 -54 l-24 -24 l0 -504 l-60 -24 l0 78 l-402 0 l0 -66 l-60 -24 l0 612 l66 -30 l102 0 q14 21 22 36 q25 47 32 96 l-378 0 l-12 -6 l-18 24 l336 0 q-7 20 -13 34 q-35 81 -89 140 q63 -26 92 -46 q50 -35 50 -74 q0 -12 -5.5 -26 q-5.5 -14 -16.5 -28 l162 0 q21 34 33 58 q39 75 57 140 l78 -60 q-53 -18 -103 -79 q-24 -30 -47 -59 l258 0 l48 48 l66 -66 ZM696 310 l0 132 l-402 0 l0 -132 l402 0 ZM696 154 l0 138 l-402 0 l0 -138 l402 0 ZM696 -14 l0 150 l-402 0 l0 -150 l402 0 Z" /><glyph glyph-name="uni99A8" unicode="&#x99a8;" d="M954 646 q-9 -10 -16 -15 q-22 -17 -44 -21 l-102 0 q-10 3 -16 6 q-19 9 -26 24 l0 84 l-114 0 q-8 -42 -19 -67 q-33 -75 -101 -113 q45 41 61 105 q11 44 11 123 l54 -30 l102 0 l30 30 l36 -36 l-18 -18 l0 -60 l24 -18 l66 0 l36 30 l36 -24 ZM912 340 q-34 26 -58 41 q-73 47 -140 73 l-40 -22 q-50 -26 -104 -45 q-77 -27 -144 -35 q29 8 49 15 q117 41 209 105 l-120 42 q30 -3 48 -5 q55 -7 90 -19 q13 11 21 18 q25 22 45 42 l-180 0 l-12 18 l204 0 l30 30 l66 -48 q-32 -8 -51 -16 q-59 -24 -93 -62 q104 -19 151 -47 q39 -23 39 -53 q0 -15 -10 -32 ZM546 706 l-210 0 l0 -72 l78 0 l42 42 l60 -60 l-354 0 l-12 -6 l-18 24 l162 0 l0 72 l-168 0 l-24 -6 l-18 24 l210 0 l0 90 l66 -30 l-24 -24 l0 -36 l108 0 l42 42 l60 -60 ZM504 544 l-18 -18 l0 -102 l-42 -18 l0 30 l-264 0 q0 -60 -25 -105 q-7 -13 -107 -123 q40 58 58 88 q32 53 32 98 l0 192 l42 -24 l258 0 l24 24 l42 -42 ZM978 112 q-12 -4 -20 -7 q-49 -20 -76 -47 q-27 7 -45 12 q-46 14 -99 36 l-6 -6 l0 -204 l-48 -24 l0 48 l-336 0 l0 -30 l-48 -24 l0 252 q-26 -13 -45 -21 q-111 -50 -219 -81 q4 0 55 26 q64 33 129 73 q88 55 152 111 l-210 0 l-12 -6 l-18 24 l354 0 l0 66 q-30 -2 -51 -3 q-142 -9 -225 -9 q10 0 76 8 q98 12 185 27 q121 21 225 49 l48 -54 q-42 -1 -95.5 -3.5 q-53.5 -2.5 -120.5 -14.5 l0 -66 l246 0 l60 60 l78 -78 l-324 0 q25 -15 50 -29 q66 -34 137 -55 q103 -30 203 -30 ZM444 454 l0 90 l-108 0 l0 -90 l108 0 ZM696 124 q-26 16 -43 28 q-51 36 -89 74 l-36 0 l0 -102 l-24 -18 l174 0 l18 18 ZM294 454 l0 90 l-114 0 l0 -90 l114 0 ZM684 22 l0 66 l-336 0 l0 -66 l336 0 ZM486 106 l0 120 q-41 -7 -88 -41 q-65 -47 -80 -55 l36 -24 l132 0 ZM684 -62 l0 66 l-336 0 l0 -66 l336 0 Z" /><glyph glyph-name="uni9AD8" unicode="&#x9ad8;" d="M923 676 l-841 0 l-11 -6 l-17 23 l432 0 q-12 24 -20 38 q-26 44 -55 77 q49 -18 76 -29 q50 -21 50 -45 q0 -19 -28 -41 l293 0 l52 52 l69 -69 ZM731 577 l-20 -21 l0 -135 l-54 -21 l0 42 l-339 0 l0 -28 l-54 -21 l0 233 l61 -35 l325 0 l34 35 l47 -49 ZM894 310 l-30 -30 l0 -312 q-10 -23 -17 -35 q-23 -38 -49 -49 q-18 40 -69 64 q-44 19 -87 38 l156 -6 l6 6 l0 330 l-618 0 l0 -408 l-60 -24 l0 486 l60 -36 l612 0 l36 36 l60 -60 ZM681 202 l-19 -20 l0 -151 l-58 -27 l0 59 l-240 0 l0 -39 l-58 -26 l0 256 l64 -33 l227 0 l33 33 l51 -52 ZM657 464 l0 106 l-339 0 l0 -106 l339 0 ZM604 83 l0 119 l-240 0 l0 -119 l240 0 Z" /><glyph glyph-name="uni9B54" unicode="&#x9b54;" d="M540 550 l-120 0 l0 -30 q44 -8 56 -12 q35 -12 35 -32 q0 -15 -19 -34 q-12 15 -20 24 q-25 26 -52 42 l0 -120 l-42 -18 l0 144 q-31 -30 -51 -47 q-61 -54 -105 -79 q17 14 27 25 q62 64 99 137 l-84 0 l-12 -6 l-18 24 l144 0 l0 96 l66 -30 l-24 -24 l0 -42 l42 0 l30 30 l48 -48 ZM948 676 l-762 0 l0 -384 q0 -125 -39 -226 q-39 -101 -111 -164 q43 65 69 159 q23 85 33 195 l0 474 l54 -36 l342 0 q-10 24 -18 39 q-25 49 -54 81 q47 -17 69 -27 q40 -19 40 -49 q0 -18 -13 -44 l276 0 l48 48 l66 -66 ZM948 394 q-15 -5 -24 -9 q-27 -12 -42 -27 q-40 27 -63 48 q-68 64 -99 144 l-18 0 l0 -168 l-36 -12 l0 150 q-21 -24 -36 -39 q-45 -43 -96 -75 l54 -24 q-14 -7 -22 -13 q-24 -18 -32 -41 l228 0 l30 30 l42 -42 l-18 -18 l0 -174 l-48 -18 l0 24 l-228 0 q-19 -29 -38 -57 q-54 -68 -127 -117 q-103 -69 -231 -90 q117 35 197 91 q98 68 157 173 l-144 0 l0 -36 l-48 -18 l0 282 l48 -30 l156 0 q6 12 9 20 q9 25 9 52 q-13 -6 -22 -9 q-31 -12 -50 -15 q41 26 65 46 q74 60 115 128 l-78 0 l-12 18 l120 0 l0 96 l60 -30 l-24 -24 l0 -42 l126 0 l42 42 l60 -60 l-198 0 q28 -41 51 -64 q71 -69 165 -92 ZM804 -38 l-12 42 q-31 -5 -50 -9 q-59 -12 -100 -27 l-24 36 q29 12 47 42 q14 24 25 66 l48 -24 q-15 -12 -24 -21 q-31 -29 -48 -57 l120 6 l-24 60 q18 -4 45 -29 q32 -29 32 -53 q0 -23 -35 -32 ZM948 -68 q-12 -12 -21 -18 q-30 -20 -63 -24 l-258 0 q-20 3 -30 8 q-30 16 -30 58 l0 150 l66 -24 l-24 -12 l0 -114 q1 -12 4 -18 q9 -18 32 -18 l222 0 q8 1 13 3 q30 12 35 45 l6 90 q6 -15 13.5 -66.5 q7.5 -51.5 34.5 -59.5 ZM768 238 l0 72 l-186 0 l-12 -72 l198 0 ZM768 220 l-204 0 q-2 -15 -4 -24 q-6 -28 -14 -48 l222 0 l0 72 ZM534 310 l-180 0 l0 -72 l174 0 q2 18 4 41 q2 23 2 31 ZM522 220 l-168 0 l0 -72 l150 0 q4 12 6 20 q9 31 12 52 Z" /><glyph glyph-name="uniFF01" unicode="&#xff01;" d="M242 616 q0 -22 -18.5 -149.5 q-18.5 -127.5 -35.5 -235.5 q-10 -58 -20 -115 q-11 55 -21 111 q-15 88 -36.5 225 q-21.5 137 -21.5 162 q0 29 21 43.5 q21 14.5 51 14.5 q31 0 56 -15.5 q25 -15.5 25 -40.5 ZM220 -56.5 q-17 -19.5 -50 -19.5 q-33 0 -53 22 q-20 22 -20 51 q0 29 18 49 q18 20 51 20 q33 0 52 -22 q19 -22 19 -52 q0 -29 -17 -48.5 Z" /></font>
</defs>
</svg>
