<?xml version="1.0" standalone="no"?><!DOCTYPE svg PUBLIC "-//W3C//DTD SVG 1.1//EN" "http://www.w3.org/Graphics/SVG/1.1/DTD/svg11.dtd" ><svg xmlns="http://www.w3.org/2000/svg"><metadata></metadata><defs><font id="1.000;ZHKJ;zihun144hao-langyuanti" horiz-adv-x="1000"><font-face font-family="zihun144hao-langyuanti" font-weight="400" font-stretch="normal" units-per-em="1000" panose-1="0 0 5 0 0 0 0 0 0 0" ascent="1000" descent="-200" x-height="0" bbox="-40 -305 989 766" underline-thickness="50" underline-position="-75" unicode-range="U+0021-9646" /><missing-glyph horiz-adv-x="1000"  /><glyph glyph-name="A" unicode="a" d="M676 -4 q5 -15 5 -26 q0 -20 -14 -31.5 q-14 -11.5 -39 -11.5 l-71 0 q-51 0 -68 50 l-38 116 l-213 0 l-36 -115 q-8 -26 -24.5 -38.5 q-16.5 -12.5 -42.5 -12.5 l-51 0 q-25 0 -39.5 12 q-14.5 12 -14.5 32 q0 12 4 24 l196 592 q17 50 68 50 l91 0 q50 0 68 -48 l219 -593 ZM406 228 l-65 199 l-62 -199 l127 0 Z" /><glyph glyph-name="B" unicode="b" d="M586 362 q0 -50 -33 -64 l-33 -14 l19 -7 q47 -18 47 -70 l0 -190 q0 -47 -18 -65.5 q-18 -18.5 -64 -20.5 l-392 -21 q-29 -1 -45.5 14.5 q-16.5 15.5 -16.5 44.5 l0 621 q0 29 16.5 44.5 q16.5 15.5 45.5 14.5 l416 -23 q58 -3 58 -61 l0 -203 ZM220 355 l196 0 l0 134 l-196 6 l0 -140 ZM220 66 l196 2 l0 144 l-196 0 l0 -146 Z" /><glyph glyph-name="C" unicode="c" d="M595 528 q0 -29 -16.5 -44.5 q-16.5 -15.5 -45.5 -13.5 l-313 17 l0 -419 l324 12 q31 1 46 -10.5 q15 -11.5 15 -39.5 l0 -54 q0 -28 -14.5 -38.5 q-14.5 -10.5 -45.5 -10.5 l-435 0 q-29 0 -44.5 15.5 q-15.5 15.5 -15.5 44.5 l0 578 q0 29 15.5 44.5 q15.5 15.5 44.5 15.5 l425 0 q29 0 44.5 -15.5 q15.5 -15.5 15.5 -44.5 l0 -37 Z" /><glyph glyph-name="D" unicode="d" d="M626 36 q0 -56 -58 -62 l-456 -52 q-29 -3 -45.5 12.5 q-16.5 15.5 -16.5 45.5 l0 602 q0 30 16 45.5 q16 15.5 45 12.5 l455 -51 q59 -6 59 -31 l1 -522 ZM220 80 l236 28 l0 342 l-236 36 l0 -406 Z" /><glyph glyph-name="E" unicode="e" d="M551 539 q0 -29 -16 -45 q-16 -16 -45 -15 l-271 6 l2 -130 l240 0 q29 0 44.5 -15.5 q15.5 -15.5 15.5 -44.5 l0 -30 q0 -29 -15.5 -44.5 q-15.5 -15.5 -44.5 -15.5 l-238 0 l2 -138 l285 6 q29 1 45 -15 q16 -16 16 -45 l0 -26 q0 -29 -15.5 -44.5 q-15.5 -15.5 -44.5 -15.5 l-401 0 q-29 0 -44.5 15.5 q-15.5 15.5 -15.5 44.5 l0 578 q0 29 15.5 44.5 q15.5 15.5 44.5 15.5 l381 0 q29 0 44.5 -15.5 q15.5 -15.5 15.5 -44.5 l0 -26 Z" /><glyph glyph-name="F" unicode="f" d="M531 539 q0 -29 -16 -45 q-16 -16 -45 -15 l-248 5 l2 -148 l226 6 q29 1 45 -15 q16 -16 16 -45 l0 -31 q0 -29 -16 -45 q-16 -16 -45 -15 l-224 5 l3 -218 q2 -60 -59 -60 l-60 0 q-29 0 -44.5 15.5 q-15.5 15.5 -15.5 44.5 l0 587 q0 29 15.5 44.5 q15.5 15.5 44.5 15.5 l361 0 q29 0 44.5 -15.5 q15.5 -15.5 15.5 -44.5 l0 -26 Z" /><glyph glyph-name="G" unicode="g" d="M615 521 q0 -29 -16 -44.5 q-16 -15.5 -45 -14.5 l-338 12 l0 -382 l252 -4 l0 140 l-124 0 q-29 0 -44.5 15.5 q-15.5 15.5 -15.5 44.5 l0 25 q0 29 15.5 44.5 q15.5 15.5 44.5 15.5 l232 0 q29 0 44.5 -15.5 q15.5 -15.5 15.5 -44.5 l0 -51 l0 -34 l-1 0 l0 -238 q0 -29 -15.5 -44.5 q-15.5 -15.5 -44.5 -15.5 l-465 0 q-29 0 -44.5 15.5 q-15.5 15.5 -15.5 44.5 l0 575 q0 29 15.5 44.5 q15.5 15.5 44.5 15.5 l445 0 q29 0 44.5 -15.5 q15.5 -15.5 15.5 -44.5 l0 -44 Z" /><glyph glyph-name="H" unicode="h" d="M469 360 l3 205 q1 29 17 44.5 q16 15.5 44 15.5 l50 0 q61 0 59 -60 l-8 -578 q-1 -29 -17 -44.5 q-16 -15.5 -44 -15.5 l-50 0 q-60 0 -59 60 l3 229 l-248 0 l3 -229 q2 -60 -59 -60 l-53 0 q-29 0 -44.5 15.5 q-15.5 15.5 -15.5 44.5 l0 578 q0 29 15.5 44.5 q15.5 15.5 44.5 15.5 l43 0 q28 0 44 -15.5 q16 -15.5 17 -44.5 l3 -205 l252 0 Z" /><glyph glyph-name="I" unicode="i" d="M230 -22 q0 -29 -15.5 -44.5 q-15.5 -15.5 -44.5 -15.5 l-50 0 q-29 0 -44.5 15.5 q-15.5 15.5 -15.5 44.5 l0 587 q0 29 15.5 44.5 q15.5 15.5 44.5 15.5 l50 0 q29 0 44.5 -15.5 q15.5 -15.5 15.5 -44.5 l0 -587 Z" /><glyph glyph-name="J" unicode="j" d="M114 479 q-29 1 -44 16.5 q-15 15.5 -15 43.5 l0 26 q0 29 15.5 44.5 q15.5 15.5 44.5 15.5 l331 0 q29 0 44.5 -15.5 q15.5 -15.5 15.5 -44.5 l0 -34 q0 -29 -16 -45 q-16 -16 -45 -15 l-64 2 l0 -483 q0 -29 -15.5 -44.5 q-15.5 -15.5 -44.5 -15.5 l-211 0 q-29 0 -44.5 15.5 q-15.5 15.5 -15.5 44.5 l0 30 q0 29 16.5 44.5 q16.5 15.5 45.5 13.5 l102 -6 l0 404 l-100 3 Z" /><glyph glyph-name="K" unicode="k" d="M222 -13 q2 -60 -59 -60 l-53 0 q-29 0 -44.5 15.5 q-15.5 15.5 -15.5 44.5 l0 578 q0 29 15.5 44.5 q15.5 15.5 44.5 15.5 l43 0 q29 0 45 -16 q16 -16 16 -44 l2 -161 l208 199 q22 20 42 20 q22 0 43 -21 l39 -40 q20 -22 20 -42 q0 -24 -25 -43 l-182 -137 l213 -300 q13 -17 13 -34 q0 -28 -35 -48 l-66 -38 q-13 -8 -29 -8 q-30 0 -51 38 l-158 300 l-29 -24 l3 -239 Z" /><glyph glyph-name="L" unicode="l" d="M418 70 q29 0 44.5 -15.5 q15.5 -15.5 15.5 -44.5 l0 -23 q0 -29 -15.5 -44.5 q-15.5 -15.5 -44.5 -15.5 l-308 0 q-29 0 -44.5 15.5 q-15.5 15.5 -15.5 44.5 l0 578 q0 29 15.5 44.5 q15.5 15.5 44.5 15.5 l55 0 q61 0 59 -60 l-7 -495 l201 0 Z" /><glyph glyph-name="M" unicode="m" d="M754 625 q29 0 44.5 -15.5 q15.5 -15.5 15.5 -44.5 l0 -577 q0 -29 -15.5 -44.5 q-15.5 -15.5 -44.5 -15.5 l-55 0 q-29 0 -44.5 15.5 q-15.5 15.5 -14.5 45.5 l9 332 l-98 -208 q-20 -45 -70 -45 l-90 0 q-50 0 -70 43 l-95 200 l9 -323 q1 -30 -14.5 -45.5 q-15.5 -15.5 -44.5 -15.5 l-56 0 q-29 0 -44.5 15.5 q-15.5 15.5 -15.5 44.5 l0 577 q0 29 15.5 44.5 q15.5 15.5 44.5 15.5 l54 0 q25 0 41.5 -10 q16.5 -10 29.5 -32 l192 -344 l192 345 q13 22 29.5 32 q16.5 10 41.5 10 l54 0 Z" /><glyph glyph-name="N" unicode="n" d="M597 625 q29 0 44.5 -15.5 q15.5 -15.5 15.5 -44.5 l0 -578 q0 -29 -15.5 -44.5 q-15.5 -15.5 -44.5 -15.5 l-62 0 q-49 0 -73 37 l-238 362 l5 -339 q2 -60 -59 -60 l-60 0 q-29 0 -44.5 15.5 q-15.5 15.5 -15.5 44.5 l0 578 q0 29 15.5 44.5 q15.5 15.5 44.5 15.5 l70 0 q25 0 42.5 -8 q17.5 -8 30.5 -28 l232 -364 l-5 340 q-1 60 59 60 l58 0 Z" /><glyph glyph-name="O" unicode="o" d="M605 0 q0 -29 -15.5 -44.5 q-15.5 -15.5 -44.5 -15.5 l-425 0 q-29 0 -44.5 15.5 q-15.5 15.5 -15.5 44.5 l0 565 q0 29 15.5 44.5 q15.5 15.5 44.5 15.5 l425 0 q29 0 44.5 -15.5 q15.5 -15.5 15.5 -44.5 l0 -565 ZM226 98 l212 4 l0 372 l-212 -8 l0 -368 Z" /><glyph glyph-name="P" unicode="p" d="M576 252 q0 -29 -15.5 -44.5 q-15.5 -15.5 -44.5 -15.5 l-296 0 l0 -205 q0 -29 -15.5 -44.5 q-15.5 -15.5 -44.5 -15.5 l-50 0 q-29 0 -44.5 15.5 q-15.5 15.5 -15.5 44.5 l0 593 q0 29 16.5 44.5 q16.5 15.5 45.5 14.5 l406 -23 q58 -3 58 -61 l0 -303 ZM220 327 l188 0 l0 165 l-188 6 l0 -171 Z" /><glyph glyph-name="Q" unicode="q" d="M654 91 q60 0 60 -59 l0 -45 q0 -29 -15.5 -44.5 q-15.5 -15.5 -44.5 -15.5 l-544 0 q-29 0 -44.5 15.5 q-15.5 15.5 -15.5 44.5 l0 578 q0 29 15.5 44.5 q15.5 15.5 44.5 15.5 l445 0 q29 0 44.5 -15.5 q15.5 -15.5 15.5 -44.5 l0 -474 l39 0 ZM218 85 l229 3 l0 385 l-229 4 l0 -392 Z" /><glyph glyph-name="R" unicode="r" d="M576 252 q0 -29 -12 -44.5 q-12 -15.5 -34 -15.5 l-66 0 l108 -194 q12 -21 12 -38 q0 -15 -9.5 -24 q-9.5 -9 -26.5 -9 l-69 0 q-24 0 -41 11 q-17 11 -29 34 l-114 220 l-85 0 l0 -205 q0 -29 -15.5 -44.5 q-15.5 -15.5 -44.5 -15.5 l-40 0 q-29 0 -44.5 15.5 q-15.5 15.5 -15.5 44.5 l0 586 q0 29 16.5 44.5 q16.5 15.5 45.5 13.5 l386 -22 q42 -2 60 -17 q18 -15 18 -44 l0 -296 ZM210 327 l199 0 l0 148 l-199 6 l0 -154 Z" /><glyph glyph-name="S" unicode="s" d="M94 262 q-22 7 -32.5 26 q-10.5 19 -10.5 45 l0 232 q0 29 15.5 44.5 q15.5 15.5 44.5 15.5 l380 0 q29 0 44.5 -16 q15.5 -16 14.5 -45 l-2 -47 q-2 -30 -18 -44.5 q-16 -14.5 -45 -12.5 l-259 21 l4 -94 l278 -88 q46 -15 46 -69 l0 -242 q0 -29 -15.5 -44.5 q-15.5 -15.5 -44.5 -15.5 l-385 -1 q-30 0 -45 15.5 q-15 15.5 -14 45.5 l2 40 q2 31 18 50 q16 19 44 17 l273 -24 l5 90 l-298 101 Z" /><glyph glyph-name="T" unicode="t" d="M30 565 q0 29 15.5 44.5 q15.5 15.5 44.5 15.5 l430 0 q29 0 44.5 -15.5 q15.5 -15.5 15.5 -44.5 l0 -23 q0 -29 -15.5 -44.5 q-15.5 -15.5 -44.5 -15.5 l-126 0 l7 -495 q2 -60 -59 -60 l-59 0 q-60 0 -59 60 l7 495 l-141 0 q-29 0 -44.5 15.5 q-15.5 15.5 -15.5 44.5 l0 23 Z" /><glyph glyph-name="U" unicode="u" d="M436 89 l-7 476 q-1 60 59 60 l57 0 q29 0 44.5 -15.5 q15.5 -15.5 15.5 -44.5 l0 -578 q0 -29 -15.5 -44.5 q-15.5 -15.5 -44.5 -15.5 l-435 0 q-29 0 -44.5 15.5 q-15.5 15.5 -15.5 44.5 l0 578 q0 29 15.5 44.5 q15.5 15.5 44.5 15.5 l56 0 q61 0 59 -60 l-7 -480 l218 4 Z" /><glyph glyph-name="V" unicode="v" d="M602 618 q48 -11 48 -48 q0 -10 -5 -25 l-190 -569 q-16 -49 -68 -49 l-89 0 q-52 0 -68 49 l-186 577 q-4 12 -4 24 q0 19 12 32 q12 13 35 17 l66 13 q12 2 17 2 q43 0 55 -47 l116 -418 l118 414 q12 46 54 46 q6 0 18 -2 l71 -16 Z" /><glyph glyph-name="W" unicode="w" d="M151 626 q5 1 15 1 q22 0 36 -13 q14 -13 19 -37 l77 -363 l83 330 q7 26 27 42.5 q20 16.5 47 16.5 l40 0 q25 0 45 -15.5 q20 -15.5 27 -40.5 l100 -359 l72 388 q9 51 53 51 q4 0 16 -2 l87 -15 q23 -4 35.5 -16.5 q12.5 -12.5 12.5 -32.5 q0 -12 -4 -24 l-179 -557 q-7 -24 -25.5 -37.5 q-18.5 -13.5 -43.5 -14.5 l-48 -1 q-52 -1 -67 51 l-95 335 l-79 -333 q-13 -53 -66 -53 l-46 0 l-12 1 q-25 2 -43 16 q-18 14 -25 37 l-166 562 q-4 11 -4 23 q0 40 49 49 l62 11 Z" /><glyph glyph-name="X" unicode="x" d="M71 -43 q-31 18 -31 45 q0 18 14 38 l181 255 l-152 226 q-13 17 -13 36 q0 27 31 47 l27 17 q19 12 36 12 q27 0 47 -28 l126 -167 l119 168 q20 29 47 29 q18 0 36 -12 l42 -26 q30 -19 30 -46 q0 -18 -13 -37 l-154 -222 l186 -251 q14 -20 14 -37 q0 -28 -33 -46 l-61 -33 q-20 -10 -34 -10 q-28 0 -48 31 l-129 194 l-134 -194 q-20 -29 -47 -29 q-16 0 -36 11 l-51 29 Z" /><glyph glyph-name="Y" unicode="y" d="M598 607 q32 -20 32 -47 q0 -17 -11 -35 l-201 -340 l0 -205 q0 -29 -15.5 -44.5 q-15.5 -15.5 -44.5 -15.5 l-50 0 q-29 0 -44.5 15.5 q-15.5 15.5 -15.5 44.5 l0 207 l-197 341 q-11 20 -11 35 q0 28 33 47 l41 23 q16 9 32 9 q31 0 49 -35 l137 -277 l141 279 q8 17 21 26 q13 9 29 9 q15 0 31 -10 l44 -27 Z" /><glyph glyph-name="Z" unicode="z" d="M119 458 q-60 -3 -63 57 l-2 47 q-1 29 14.5 45 q15.5 16 44.5 16 l396 -1 q29 0 44.5 -15.5 q15.5 -15.5 15.5 -44.5 l0 -34 q0 -24 -4.5 -41 q-4.5 -17 -17.5 -34 l-292 -385 l285 11 q59 3 62 -57 l2 -38 q1 -29 -14.5 -45 q-15.5 -16 -44.5 -16 l-435 1 q-29 0 -44.5 15.5 q-15.5 15.5 -15.5 44.5 l0 33 q0 22 6 39.5 q6 17.5 20 35.5 l299 382 l-256 -16 Z" /><glyph glyph-name="a" unicode="a" d="M562 26 q3 -13 3 -29 q0 -17 -3 -38 q-2 -17 -16.5 -24.5 q-14.5 -7.5 -43.5 -7.5 l-92 0 q-23 0 -38.5 10.5 q-15.5 10.5 -19.5 29.5 l-215 -27 q-5 -1 -15 -1 q-35 0 -54.5 22 q-19.5 22 -20.5 63 l-7 343 q-1 29 15.5 45 q16.5 16 45.5 15 l266 -9 q14 25 52 25 l37 0 q30 0 45.5 -15.5 q15.5 -15.5 14.5 -45.5 l-6 -323 q23 0 35.5 -7.5 q12.5 -7.5 16.5 -25.5 ZM206 89 l147 17 l3 177 l-157 -1 l7 -193 Z" /><glyph glyph-name="b" unicode="b" d="M485 416 q29 -1 44 -16.5 q15 -15.5 15 -43.5 l0 -373 q0 -30 -16 -45 q-16 -15 -46 -13 l-272 22 q0 -13 -15.5 -20 q-15.5 -7 -44.5 -7 l-41 0 q-29 0 -45 16 q-16 16 -16 44 l-8 680 q0 60 59 60 l61 0 q61 0 59 -60 l-3 -238 l269 -6 ZM379 78 l0 199 l-165 -4 l-2 -185 l167 -10 Z" /><glyph glyph-name="c" unicode="c" d="M371 419 q29 -1 44 -18 q15 -17 13 -46 l-2 -25 q-2 -28 -19.5 -42.5 q-17.5 -14.5 -46.5 -12.5 l-155 13 l6 -216 l170 9 q29 1 45.5 -14.5 q16.5 -15.5 16.5 -44.5 l0 -26 q0 -29 -15.5 -44.5 q-15.5 -15.5 -43.5 -16.5 l-275 -6 q-29 -1 -44.5 14.5 q-15.5 15.5 -16.5 44.5 l-8 379 q-1 29 15 44.5 q16 15.5 45 14.5 l271 -7 Z" /><glyph glyph-name="d" unicode="d" d="M475 720 q59 0 59 -60 l-8 -707 q0 -28 -16 -44 q-16 -16 -45 -16 l-40 0 q-26 0 -41 12 q-15 12 -18 35 l-264 -5 q-62 -2 -62 58 l0 361 q0 28 15 43.5 q15 15.5 44 16.5 l262 6 l-3 240 q-1 60 59 60 l58 0 ZM363 277 l-159 4 l0 -202 l159 0 l0 198 Z" /><glyph glyph-name="e" unicode="e" d="M462 425 q28 -1 43.5 -16.5 q15.5 -15.5 15.5 -44.5 l0 -185 q0 -29 -15.5 -45 q-15.5 -16 -44.5 -16 l-256 3 l2 -66 l263 11 q29 1 45 -14 q16 -15 16 -44 l0 -17 q0 -28 -15 -43.5 q-15 -15.5 -44 -16.5 l-363 -7 q-29 -1 -44.5 14.5 q-15.5 15.5 -16.5 44.5 l-8 393 q-1 29 15.5 45 q16.5 16 45.5 15 l361 -11 ZM362 234 l4 71 l-165 -1 l2 -61 l159 -9 Z" /><glyph glyph-name="f" unicode="f" d="M15 361 q0 29 11.5 44.5 q11.5 15.5 32.5 15.5 l58 1 l-2 222 q0 28 13.5 45 q13.5 17 40.5 20 l165 18 q60 6 66 -52 l2 -18 q3 -29 -11 -45.5 q-14 -16.5 -43 -18.5 l-65 -5 l-2 -163 l75 2 q29 1 45 -15 q16 -16 16 -45 l0 -21 q0 -29 -16 -45 q-16 -16 -45 -15 l-77 2 l-1 -301 q0 -34 -20 -57 q-20 -23 -57 -23 q-40 0 -60.5 24 q-20.5 24 -20.5 56 l-1 304 l-45 1 q-29 1 -44 16.5 q-15 15.5 -15 43.5 l0 9 Z" /><glyph glyph-name="g" unicode="g" d="M485 446 q29 0 45 -16 q16 -16 16 -44 l-2 -621 q0 -59 -59 -61 l-374 -8 q-29 -1 -45 15 q-16 16 -16 45 l0 29 q0 29 16 45 q16 16 45 15 l265 -6 l1 106 l-278 -6 q-28 -1 -43.5 15 q-15.5 16 -15.5 45 l0 374 q0 30 16 45 q16 15 46 13 l288 -14 q15 29 54 29 l41 0 ZM379 86 l3 192 l-178 2 l0 -198 l175 4 Z" /><glyph glyph-name="h" unicode="h" d="M210 -10 q0 -28 -16 -44 q-16 -16 -45 -16 l-40 0 q-29 0 -45 16 q-16 16 -16 44 l-8 670 q0 60 59 60 l60 0 q59 0 59 -60 l-3 -244 l222 15 q30 2 46 -13 q16 -15 16 -45 l0 -317 q26 0 40.5 -15.5 q14.5 -15.5 14.5 -44.5 l0 -9 q0 -29 -15.5 -44.5 q-15.5 -15.5 -44.5 -15.5 l-97 0 q-29 0 -44.5 15.5 q-15.5 15.5 -15.5 44.5 l0 295 l-124 -14 l-3 -278 Z" /><glyph glyph-name="i" unicode="i" d="M132 490 q-38 0 -65 27 q-27 27 -27 65 q0 38 27 64.5 q27 26.5 65 26.5 q38 0 64.5 -26.5 q26.5 -26.5 26.5 -64.5 q0 -38 -26.5 -65 q-26.5 -27 -64.5 -27 ZM49 352 q0 35 22.5 58.5 q22.5 23.5 57.5 23.5 l6 0 q35 0 57 -23 q22 -23 22 -59 l0 -364 q0 -36 -22 -59 q-22 -23 -57 -23 l-6 0 q-35 0 -57.5 23.5 q-22.5 23.5 -22.5 58.5 l0 364 Z" /><glyph glyph-name="j" unicode="j" d="M130 490 q-38 0 -65 27 q-27 27 -27 65 q0 38 27 64.5 q27 26.5 65 26.5 q38 0 64.5 -26.5 q26.5 -26.5 26.5 -64.5 q0 -38 -26.5 -65 q-26.5 -27 -64.5 -27 ZM50 353 q0 82 85 82 q45 0 62 -21 q17 -21 17 -61 l0 -588 q0 -29 -15.5 -44.5 q-15.5 -15.5 -44.5 -15.5 l-134 0 q-29 0 -44.5 15.5 q-15.5 15.5 -15.5 44.5 l0 9 q0 29 12 44.5 q12 15.5 35 15.5 l43 0 l0 519 Z" /><glyph glyph-name="k" unicode="k" d="M482 38 q14 -22 14 -39 q0 -26 -34 -44 l-48 -25 q-15 -8 -31 -8 q-16 0 -29 9.5 q-13 9.5 -20 26.5 l-87 199 l-40 -27 l-1 -143 q0 -28 -16 -44 q-16 -16 -45 -16 l-36 0 q-29 0 -45 16 q-16 16 -16 44 l-8 693 q0 60 59 60 l52 0 q59 0 59 -60 l-1 -388 l159 124 q23 19 45 19 q21 0 40 -20 l22 -23 q21 -21 21 -43 q0 -25 -26 -42 l-112 -75 l124 -194 Z" /><glyph glyph-name="l" unicode="l" d="M254 46 q29 0 44.5 -15.5 q15.5 -15.5 15.5 -44.5 l0 -9 q0 -29 -15.5 -44.5 q-15.5 -15.5 -44.5 -15.5 l-145 0 q-29 0 -45 16 q-16 16 -16 44 l-8 683 q0 60 59 60 l49 0 q59 0 59 -60 l-7 -614 l54 0 Z" /><glyph glyph-name="m" unicode="m" d="M732 56 q27 0 42 -15.5 q15 -15.5 15 -44.5 l0 -9 q0 -29 -15.5 -44.5 q-15.5 -15.5 -44.5 -15.5 l-95 0 q-29 0 -44.5 15.5 q-15.5 15.5 -15.5 44.5 l0 312 l-106 -11 l0 -301 q0 -29 -15.5 -44.5 q-15.5 -15.5 -44.5 -15.5 l-41 0 q-29 0 -45 15.5 q-16 15.5 -15 45.5 l7 312 l-116 -11 l0 -302 q0 -29 -15.5 -44.5 q-15.5 -15.5 -44.5 -15.5 l-38 0 q-29 0 -44.5 15.5 q-15.5 15.5 -15.5 44.5 l0 398 q0 29 15.5 44.5 q15.5 15.5 44.5 15.5 l38 0 q40 0 54 -28 l214 14 q31 3 47 -14 l217 14 q29 2 45.5 -13 q16.5 -15 16.5 -45 l0 -317 Z" /><glyph glyph-name="n" unicode="n" d="M433 431 q29 3 45.5 -12.5 q16.5 -15.5 16.5 -45.5 l0 -317 q26 0 40.5 -15.5 q14.5 -15.5 14.5 -44.5 l0 -9 q0 -29 -15.5 -44.5 q-15.5 -15.5 -44.5 -15.5 l-98 0 q-29 0 -44.5 15.5 q-15.5 15.5 -15.5 44.5 l0 285 l-130 -14 l0 -271 q0 -29 -15.5 -44.5 q-15.5 -15.5 -44.5 -15.5 l-42 0 q-29 0 -44.5 15.5 q-15.5 15.5 -15.5 44.5 l0 398 q0 29 15.5 44.5 q15.5 15.5 44.5 15.5 l46 0 q28 0 42 -9 q14 -9 14 -30 l231 25 Z" /><glyph glyph-name="o" unicode="o" d="M505 -15 q0 -29 -15 -44 q-15 -15 -43 -15 l-349 0 q-28 0 -43 15 q-15 15 -15 44 l0 383 q0 29 15 44 q15 15 43 15 l349 0 q28 0 43 -15 q15 -15 15 -44 l0 -383 ZM202 66 l140 4 l0 219 l-140 -6 l0 -217 Z" /><glyph glyph-name="p" unicode="p" d="M482 431 q29 2 45.5 -13.5 q16.5 -15.5 16.5 -44.5 l0 -374 q0 -28 -15 -43.5 q-15 -15.5 -44 -16.5 l-273 -6 l2 -175 q0 -60 -59 -60 l-56 0 q-60 0 -59 60 l8 617 q0 28 16 44 q16 16 45 16 l36 0 q43 0 56 -20 l281 16 ZM382 274 l-174 -7 l2 -185 l172 -4 l0 196 Z" /><glyph glyph-name="q" unicode="q" d="M40 372 q0 30 16 45 q16 15 46 13 l270 -22 q0 13 15.5 20 q15.5 7 44.5 7 l46 0 q22 0 36.5 -16 q14.5 -16 14.5 -44 l8 -617 q2 -60 -59 -60 l-56 0 q-59 0 -59 60 l2 175 l-266 6 q-29 1 -44 16.5 q-15 15.5 -15 43.5 l0 373 ZM200 78 l167 4 l3 178 l-170 11 l0 -193 Z" /><glyph glyph-name="r" unicode="r" d="M329 433 q9 3 18 3 q21 0 33.5 -15 q12.5 -15 14.5 -41 l2 -30 q2 -28 -11.5 -42.5 q-13.5 -14.5 -43.5 -21.5 l-139 -31 l0 -278 q0 -29 -15.5 -44.5 q-15.5 -15.5 -44.5 -15.5 l-43 0 q-29 0 -44.5 15.5 q-15.5 15.5 -15.5 44.5 l0 408 q0 29 15.5 44.5 q15.5 15.5 44.5 15.5 l43 0 q31 0 45.5 -10.5 q14.5 -10.5 14.5 -38.5 l126 37 Z" /><glyph glyph-name="s" unicode="s" d="M392 200 q51 -13 51 -67 l0 -146 q0 -29 -15.5 -44.5 q-15.5 -15.5 -44.5 -15.5 l-294 -1 q-30 0 -45 15.5 q-15 15.5 -14 45.5 l1 26 q2 30 18 44.5 q16 14.5 45 12.5 l188 -13 l2 39 l-196 58 q-48 15 -48 68 l0 147 q0 29 15.5 44.5 q15.5 15.5 44.5 15.5 l280 0 q29 0 44.5 -15.5 q15.5 -15.5 14.5 -45.5 l-1 -30 q-1 -30 -17.5 -44.5 q-16.5 -14.5 -45.5 -11.5 l-177 16 l2 -47 l192 -51 Z" /><glyph glyph-name="t" unicode="t" d="M10 359 q0 29 11 44 q11 15 32 16 l43 1 l-1 90 q0 60 59 60 l51 0 q60 0 60 -60 l-1 -87 l68 2 q29 1 45 -15 q16 -16 16 -45 l0 -17 q0 -29 -16 -45 q-16 -16 -45 -15 l-69 2 l-1 -234 l57 0 q29 0 44.5 -15.5 q15.5 -15.5 15.5 -44.5 l0 -9 q0 -29 -15.5 -44.5 q-15.5 -15.5 -44.5 -15.5 l-155 0 q-28 0 -44 15.5 q-16 15.5 -17 44.5 l-5 306 l-29 1 q-29 1 -44 16.5 q-15 15.5 -15 43.5 l0 5 Z" /><glyph glyph-name="u" unicode="u" d="M75 306 q-26 0 -40.5 15.5 q-14.5 15.5 -14.5 44.5 l0 9 q0 29 15.5 44.5 q15.5 15.5 44.5 15.5 l99 0 q29 0 44.5 -15.5 q15.5 -15.5 15.5 -44.5 l0 -298 l137 14 l0 284 q0 29 15.5 44.5 q15.5 15.5 44.5 15.5 l44 0 q29 0 44.5 -15.5 q15.5 -15.5 15.5 -44.5 l0 -398 q0 -29 -15.5 -44.5 q-15.5 -15.5 -44.5 -15.5 l-44 0 q-24 0 -42 6 q-18 6 -18 23 l-239 -15 q-29 -2 -45.5 13.5 q-16.5 15.5 -16.5 44.5 l0 317 Z" /><glyph glyph-name="v" unicode="v" d="M342 389 q7 21 20.5 32 q13.5 11 32.5 11 q10 0 22 -3 l45 -12 q22 -5 33.5 -18 q11.5 -13 11.5 -30 q0 -13 -6 -27 l-145 -368 q-19 -47 -70 -47 l-59 0 q-50 0 -68 48 l-134 374 q-5 15 -5 26 q0 37 45 49 l35 9 q10 3 20 3 q20 0 34 -11.5 q14 -11.5 20 -33.5 l78 -278 l90 276 Z" /><glyph glyph-name="w" unicode="w" d="M101 434 q5 1 14 1 q46 0 56 -49 l49 -228 l70 217 q8 26 24.5 38 q16.5 12 42.5 12 l24 0 q52 0 67 -50 l71 -231 l52 239 q5 24 19.5 36.5 q14.5 12.5 35.5 12.5 q6 0 16 -2 l51 -9 q22 -4 34.5 -16.5 q12.5 -12.5 12.5 -31.5 q0 -11 -5 -26 l-132 -370 q-16 -47 -68 -49 l-33 -1 q-52 -1 -67 51 l-65 218 l-63 -218 q-16 -54 -67 -51 l-38 2 q-52 3 -66 52 l-112 376 q-4 11 -4 23 q0 20 12.5 32.5 q12.5 12.5 36.5 16.5 l32 5 Z" /><glyph glyph-name="x" unicode="x" d="M43 331 q-15 20 -15 38 q0 31 37 50 l31 16 q18 9 32 9 q13 0 24 -7.5 q11 -7.5 24 -23.5 l79 -103 l79 115 q11 15 25 23.5 q14 8.5 30 8.5 q17 0 33 -10 l32 -19 q35 -22 35 -51 q0 -20 -15 -38 l-120 -149 l120 -152 q17 -21 17 -44 q0 -27 -23 -44 l-42 -29 q-22 -14 -40 -14 q-29 0 -50 29 l-85 119 l-89 -120 q-21 -28 -48 -28 q-18 0 -40 14 l-23 15 q-31 21 -31 49 q0 22 16 42 l123 158 l-116 146 Z" /><glyph glyph-name="y" unicode="y" d="M98 -49 q-58 5 -58 62 l0 355 q0 29 15.5 44.5 q15.5 15.5 44.5 15.5 l49 0 q29 0 44.5 -16.5 q15.5 -16.5 14.5 -45.5 l-11 -282 l122 -8 l-7 291 q-1 30 14.5 45.5 q15.5 15.5 44.5 15.5 l49 0 q29 0 44.5 -15.5 q15.5 -15.5 15.5 -44.5 l0 -612 q0 -29 -15.5 -44.5 q-15.5 -15.5 -44.5 -15.5 l-320 -1 q-29 0 -44.5 15.5 q-15.5 15.5 -14.5 45.5 l1 30 q1 30 17 44.5 q16 14.5 46 12.5 l220 -14 l-3 106 l-224 16 Z" /><glyph glyph-name="z" unicode="z" d="M107 287 q-29 -2 -45.5 12.5 q-16.5 14.5 -17.5 44.5 l-1 30 q-1 30 14.5 45.5 q15.5 15.5 44.5 15.5 l262 -1 q29 0 44.5 -15.5 q15.5 -15.5 15.5 -44.5 l0 -26 q0 -24 -5 -41.5 q-5 -17.5 -18 -33.5 l-182 -222 l163 14 q29 2 46 -12.5 q17 -14.5 18 -43.5 l1 -21 q1 -29 -14.5 -45 q-15.5 -16 -44.5 -16 l-288 1 q-29 0 -44.5 13.5 q-15.5 13.5 -15.5 39.5 l0 12 q0 23 6 40 q6 17 20 35 l180 229 l-139 -10 Z" /><glyph glyph-name="uni4E00" unicode="&#x4e00;" d="M856 401 q26 0 43.5 -17.5 q17.5 -17.5 17.5 -43.5 l0 -18 q0 -26 -17.5 -43.5 q-17.5 -17.5 -43.5 -17.5 l-711 0 q-26 0 -43.5 17.5 q-17.5 17.5 -17.5 43.5 l0 18 q0 26 17.5 43.5 q17.5 17.5 43.5 17.5 l711 0 Z" /><glyph glyph-name="uni4E03" unicode="&#x4e03;" d="M505 348 l0 -330 l239 0 l1 128 q0 27 17.5 44 q17.5 17 43.5 17 l27 0 q26 0 43.5 -17.5 q17.5 -17.5 17.5 -43.5 l0 -208 q0 -26 -17.5 -43.5 q-17.5 -17.5 -43.5 -17.5 l-429 0 q-26 0 -43.5 17.5 q-17.5 17.5 -17.5 43.5 l0 395 l-215 -20 q-27 -2 -46 13 q-19 15 -21 42 l-2 22 q-2 26 13.5 45 q15.5 19 41.5 21 l229 22 l0 211 q0 26 17.5 43.5 q17.5 17.5 43.5 17.5 l41 0 q26 0 43.5 -17.5 q17.5 -17.5 17.5 -43.5 l0 -196 l364 34 q26 2 45.5 -13.5 q19.5 -15.5 21.5 -41.5 l2 -23 q2 -26 -13.5 -45 q-15.5 -19 -41.5 -21 l-379 -35 Z" /><glyph glyph-name="uni4E09" unicode="&#x4e09;" d="M839 679 q26 0 43.5 -17.5 q17.5 -17.5 17.5 -43.5 l0 -16 q0 -26 -17.5 -43.5 q-17.5 -17.5 -43.5 -17.5 l-683 0 q-26 0 -43.5 17.5 q-17.5 17.5 -17.5 43.5 l0 16 q0 26 17.5 43.5 q17.5 17.5 43.5 17.5 l683 0 ZM828 390 q26 0 43.5 -17.5 q17.5 -17.5 17.5 -43.5 l0 -16 q0 -26 -17.5 -43.5 q-17.5 -17.5 -43.5 -17.5 l-643 0 q-26 0 -43.5 17.5 q-17.5 17.5 -17.5 43.5 l0 16 q0 26 17.5 43.5 q17.5 17.5 43.5 17.5 l643 0 ZM882 43 q26 0 43.5 -17.5 q17.5 -17.5 17.5 -43.5 l0 -18 q0 -26 -17.5 -43.5 q-17.5 -17.5 -43.5 -17.5 l-762 0 q-26 0 -43.5 17.5 q-17.5 17.5 -17.5 43.5 l0 18 q0 26 17.5 43.5 q17.5 17.5 43.5 17.5 l762 0 Z" /><glyph glyph-name="uni4E5D" unicode="&#x4e5d;" d="M888 152 q24 0 40 -17.5 q16 -17.5 16 -43.5 l0 -158 q0 -26 -17.5 -43.5 q-17.5 -17.5 -43.5 -17.5 l-248 0 q-26 0 -43.5 17.5 q-17.5 17.5 -17.5 43.5 l0 514 l-149 0 l-183 -541 q-7 -19 -22.5 -30 q-15.5 -11 -34.5 -11 q-12 0 -18 2 l-36 11 q-21 6 -33 21.5 q-12 15.5 -12 35.5 q0 13 4 22 l166 490 l-139 0 q-26 0 -43.5 17.5 q-17.5 17.5 -17.5 43.5 l0 19 q0 26 17.5 43.5 q17.5 17.5 43.5 17.5 l187 0 l40 117 q7 19 22 30 q15 11 34 11 q12 0 18 -2 l35 -10 q21 -6 33.5 -22 q12.5 -16 12.5 -36 q0 -8 -4 -22 l-23 -67 l201 0 q26 0 43.5 -17.5 q17.5 -17.5 17.5 -43.5 l0 -518 l97 0 l0 83 q0 26 16.5 43.5 q16.5 17.5 40.5 17.5 Z" /><glyph glyph-name="uni4E8C" unicode="&#x4e8c;" d="M820 682 q26 0 43.5 -17.5 q17.5 -17.5 17.5 -43.5 l0 -18 q0 -26 -17.5 -43.5 q-17.5 -17.5 -43.5 -17.5 l-642 0 q-26 0 -43.5 17.5 q-17.5 17.5 -17.5 43.5 l0 18 q0 26 17.5 43.5 q17.5 17.5 43.5 17.5 l642 0 ZM864 89 q26 0 43.5 -17.5 q17.5 -17.5 17.5 -43.5 l0 -18 q0 -26 -17.5 -43.5 q-17.5 -17.5 -43.5 -17.5 l-733 0 q-26 0 -43.5 17.5 q-17.5 17.5 -17.5 43.5 l0 18 q0 26 17.5 43.5 q17.5 17.5 43.5 17.5 l733 0 Z" /><glyph glyph-name="uni4E94" unicode="&#x4e94;" d="M877 23 q26 0 43.5 -17.5 q17.5 -17.5 17.5 -43.5 l0 -11 q0 -26 -17.5 -43.5 q-17.5 -17.5 -43.5 -17.5 l-757 0 q-26 0 -43.5 17.5 q-17.5 17.5 -17.5 43.5 l0 11 q0 26 17.5 43.5 q17.5 17.5 43.5 17.5 l116 0 q-1 8 0 15 l35 262 l-92 0 q-26 0 -43.5 17.5 q-17.5 17.5 -17.5 43.5 l0 10 q0 26 17.5 43.5 q17.5 17.5 43.5 17.5 l109 0 l20 151 l-167 0 q-26 0 -43.5 17.5 q-17.5 17.5 -17.5 43.5 l0 10 q0 26 17.5 43.5 q17.5 17.5 43.5 17.5 l717 0 q26 0 43.5 -17.5 q17.5 -17.5 17.5 -43.5 l0 -10 q0 -26 -17.5 -43.5 q-17.5 -17.5 -43.5 -17.5 l-392 0 l-20 -151 l313 0 q26 0 43.5 -17.5 q17.5 -17.5 17.5 -43.5 l0 -348 l57 0 ZM662 23 l0 277 l-234 0 l-36 -277 l270 0 Z" /><glyph glyph-name="uni4F0D" unicode="&#x4f0d;" d="M319 719 q18 -8 27.5 -22.5 q9.5 -14.5 9.5 -31.5 q0 -15 -8 -31 l-102 -200 l7 0 q26 0 43.5 -17.5 q17.5 -17.5 17.5 -43.5 l0 -462 q0 -26 -17.5 -43.5 q-17.5 -17.5 -43.5 -17.5 l-34 0 q-26 0 -43.5 17.5 q-17.5 17.5 -17.5 43.5 l0 402 q-4 -1 -12 -1 q-14 0 -27 7 l-29 15 q-16 8 -25 22.5 q-9 14.5 -9 31.5 q0 16 7 29 l146 288 q8 16 21.5 25 q13.5 9 30.5 9 q14 0 27 -6 l31 -14 ZM895 8 q24 -3 39 -20 q15 -17 15 -41 l0 -12 q0 -26 -17.5 -43.5 q-17.5 -17.5 -43.5 -17.5 l-466 0 q-26 0 -43.5 17.5 q-17.5 17.5 -17.5 43.5 l0 12 q0 26 17.5 43.5 q17.5 17.5 43.5 17.5 l33 0 l0 3 l30 270 l-32 0 q-26 0 -43.5 17.5 q-17.5 17.5 -17.5 43.5 l0 10 q0 26 17.5 43.5 q17.5 17.5 43.5 17.5 l46 0 l16 148 l-70 0 q-26 0 -43.5 17.5 q-17.5 17.5 -17.5 43.5 l0 10 q0 26 17.5 43.5 q17.5 17.5 43.5 17.5 l424 0 q26 0 43.5 -17.5 q17.5 -17.5 17.5 -43.5 l0 -10 q0 -26 -17.5 -43.5 q-17.5 -17.5 -43.5 -17.5 l-196 0 l-16 -148 l177 0 q26 0 43.5 -17.5 q17.5 -17.5 17.5 -43.5 l0 -344 ZM611 8 l126 0 l0 273 l-95 0 l-31 -273 Z" /><glyph glyph-name="uni516B" unicode="&#x516b;" d="M384 708 q22 -5 35.5 -21.5 q13.5 -16.5 13.5 -37.5 q0 -9 -3 -18 l-194 -707 q-5 -21 -20.5 -33 q-15.5 -12 -36.5 -12 q-12 0 -18 2 l-39 11 q-22 6 -34 21.5 q-12 15.5 -12 35.5 q0 10 3 19 l198 706 q6 21 21.5 32.5 q15.5 11.5 35.5 11.5 q5 0 15 -2 l35 -8 ZM921 -25 q4 -14 4 -21 q0 -21 -12.5 -37 q-12.5 -16 -34.5 -22 l-38 -11 q-6 -2 -17 -2 q-20 0 -35.5 11.5 q-15.5 11.5 -21.5 30.5 l-227 704 q-3 11 -3 20 q0 20 12 36 q12 16 33 22 l34 9 q6 2 18 2 q19 0 33.5 -11 q14.5 -11 21.5 -30 l233 -701 Z" /><glyph glyph-name="uni516D" unicode="&#x516d;" d="M890 589 q26 0 43.5 -17.5 q17.5 -17.5 17.5 -43.5 l0 -18 q0 -26 -17.5 -43.5 q-17.5 -17.5 -43.5 -17.5 l-777 0 q-26 0 -44 18 q-18 18 -18 44 l0 18 q0 26 17.5 43 q17.5 17 43.5 17 l324 0 l-3 100 q0 27 17 44.5 q17 17.5 43 18.5 l38 0 q27 1 44.5 -16 q17.5 -17 17.5 -43 l2 -104 l295 0 ZM912 -15 q6 -14 6 -28 q0 -17 -9.5 -31.5 q-9.5 -14.5 -26.5 -22.5 l-34 -16 q-13 -6 -26 -6 q-17 0 -32 9.5 q-15 9.5 -23 25.5 l-174 365 q-6 14 -6 28 q0 18 9 32 q9 14 26 22 l34 16 q14 6 27 6 q17 0 31.5 -9 q14.5 -9 22.5 -26 l175 -365 ZM379 362 q17 -8 26 -22 q9 -14 9 -32 q0 -14 -6 -28 l-174 -365 q-8 -16 -23 -25.5 q-15 -9.5 -32 -9.5 q-12 0 -26 6 l-34 16 q-17 8 -26.5 23 q-9.5 15 -9.5 32 q0 13 6 27 l175 365 q8 17 22.5 26 q14.5 9 31.5 9 q13 0 27 -6 l34 -16 Z" /><glyph glyph-name="uni5341" unicode="&#x5341;" d="M62 375 q0 26 17.5 43.5 q17.5 17.5 43.5 17.5 l294 0 l0 253 q0 26 17.5 43.5 q17.5 17.5 43.5 17.5 l38 0 q26 0 43.5 -17.5 q17.5 -17.5 17.5 -43.5 l0 -253 l297 0 q26 0 43.5 -17.5 q17.5 -17.5 17.5 -43.5 l0 -18 q0 -26 -17.5 -43.5 q-17.5 -17.5 -43.5 -17.5 l-297 0 l0 -384 q0 -26 -17.5 -43.5 q-17.5 -17.5 -43.5 -17.5 l-38 0 q-26 0 -43.5 17.5 q-17.5 17.5 -17.5 43.5 l0 384 l-294 0 q-26 0 -43.5 17.5 q-17.5 17.5 -17.5 43.5 l0 18 Z" /><glyph glyph-name="uni53C1" unicode="&#x53c1;" d="M929 253 q28 -19 28 -49 q0 -18 -11 -35 l-5 -8 q-19 -30 -52 -30 q-20 0 -39 14 l-128 98 l0 -3 q0 -25 -17.5 -41 q-17.5 -16 -43.5 -16 l-321 0 q-26 0 -43.5 16 q-17.5 16 -17.5 40 l-121 -91 q-19 -14 -39 -14 q-15 0 -28.5 7.5 q-13.5 7.5 -22.5 21.5 l-7 11 q-10 16 -10 34 q0 31 25 49 l125 89 l-90 0 q-26 0 -43.5 17.5 q-17.5 17.5 -17.5 43.5 q0 26 17.5 43.5 q17.5 17.5 43.5 17.5 l296 0 l21 33 l-240 -9 q-19 -1 -34 9.5 q-15 10.5 -21 28.5 l-10 29 q-4 12 -4 19 q0 16 8.5 29.5 q8.5 13.5 22.5 21.5 l229 126 q14 8 28 8 q22 0 38 -16 q21 -21 21 -46 q0 -18 -10.5 -34.5 q-10.5 -16.5 -29.5 -26.5 l-74 -39 l300 11 l-5 4 q-25 21 -25 49 q0 26 20 46 l1 1 q18 18 41 18 q20 0 36 -13 l141 -110 q29 -23 29 -52 q0 -21 -17 -38 l-10 -9 q-18 -18 -41 -18 q-19 0 -36 14 l-32 26 q-27 -18 -65 -19 l-90 -3 l-27 -40 l317 0 q26 0 43.5 -17.5 q17.5 -17.5 17.5 -43.5 q0 -26 -17.5 -43.5 q-17.5 -17.5 -43.5 -17.5 l-98 0 l138 -93 ZM651 297 l-64 49 l-167 0 l-65 -49 l296 0 ZM244 25 q-26 0 -43.5 16.5 q-17.5 16.5 -17.5 41.5 q0 25 17.5 41.5 q17.5 16.5 43.5 16.5 l513 0 q26 0 43.5 -16.5 q17.5 -16.5 17.5 -41.5 q0 -25 -17.5 -41.5 q-17.5 -16.5 -43.5 -16.5 l-513 0 ZM852 -17 q26 0 43.5 -17 q17.5 -17 17.5 -42 q0 -25 -17.5 -42 q-17.5 -17 -43.5 -17 l-699 0 q-26 0 -43.5 17 q-17.5 17 -17.5 42 q0 25 17.5 42 q17.5 17 43.5 17 l699 0 Z" /><glyph glyph-name="uni56DB" unicode="&#x56db;" d="M87 639 q0 26 17.5 43.5 q17.5 17.5 43.5 17.5 l701 0 q26 0 43.5 -17.5 q17.5 -17.5 17.5 -43.5 l0 -696 q0 -26 -17.5 -43.5 q-17.5 -17.5 -43.5 -17.5 l-701 0 q-26 0 -43.5 17.5 q-17.5 17.5 -17.5 43.5 l0 696 ZM550 172 q-13 0 -22 9 q-9 9 -9 22 l0 357 l-40 0 l-43 -371 q-1 -13 -10.5 -21 q-9.5 -8 -22.5 -6 l-92 9 q-14 2 -21.5 11.5 q-7.5 9.5 -6.5 23.5 l45 354 l-81 0 l0 -542 l503 0 l0 154 l-200 0 ZM672 304 l78 0 l0 256 l-78 0 l0 -256 Z" /><glyph glyph-name="uni58F9" unicode="&#x58f9;" d="M124 593 q-25 0 -38 14.5 q-13 14.5 -13 38.5 q0 24 13 38.5 q13 14.5 38 14.5 l296 0 q0 22 17.5 37 q17.5 15 43.5 15 l34 0 q26 0 43.5 -7.5 q17.5 -7.5 17.5 -18.5 l0 -26 l300 0 q25 0 38 -14.5 q13 -14.5 13 -38.5 q0 -24 -13 -38.5 q-13 -14.5 -38 -14.5 l-300 0 l0 -29 l231 0 q25 0 38 -11.5 q13 -11.5 13 -30.5 q0 -19 -13 -30.5 q-13 -11.5 -38 -11.5 l-620 0 q-25 0 -38 11.5 q-13 11.5 -13 30.5 q0 19 13 30.5 q13 11.5 38 11.5 l233 0 l0 29 l-296 0 ZM841 253 q-26 0 -43.5 13 q-17.5 13 -17.5 33 l0 45 l-561 0 l0 -30 q0 -26 -17.5 -43.5 q-17.5 -17.5 -43.5 -17.5 l-16 0 q-26 0 -43.5 17.5 q-17.5 17.5 -17.5 43.5 l0 79 q0 26 17.5 43.5 q17.5 17.5 43.5 17.5 l715 0 q26 0 43.5 -17.5 q17.5 -17.5 17.5 -43.5 l0 -79 q0 -26 -17.5 -43.5 q-17.5 -17.5 -43.5 -17.5 l-16 0 ZM696 321 q24 0 32.5 -7.5 q8.5 -7.5 8.5 -21.5 q0 -14 -8.5 -21.5 q-8.5 -7.5 -32.5 -7.5 l-399 0 q-24 0 -32.5 7.5 q-8.5 7.5 -8.5 21.5 q0 14 8.5 21.5 q8.5 7.5 32.5 7.5 l399 0 ZM882 -24 q26 0 43.5 -15.5 q17.5 -15.5 17.5 -39.5 q0 -24 -17.5 -39.5 q-17.5 -15.5 -43.5 -15.5 l-766 0 q-26 0 -43.5 15.5 q-17.5 15.5 -17.5 39.5 q0 24 17.5 39.5 q17.5 15.5 43.5 15.5 l142 0 q3 15 16 27 q13 12 33 16 l-99 0 q-26 0 -43.5 17.5 q-17.5 17.5 -17.5 43.5 l0 96 q0 26 17.5 43.5 q17.5 17.5 43.5 17.5 l589 0 q26 0 43.5 -17.5 q17.5 -17.5 17.5 -43.5 l0 -96 q0 -26 -17.5 -43.5 q-17.5 -17.5 -43.5 -17.5 l-117 0 q21 -5 34.5 -17 q13.5 -12 16.5 -26 l151 0 ZM718 105 l0 47 l-431 0 l0 -47 l431 0 ZM390 -15 q2 -6 2 -9 l206 0 q0 3 2 9 q9 25 32 34 l-274 0 q23 -9 32 -34 Z" /><glyph glyph-name="uni62FE" unicode="&#x62fe;" d="M937 535 q22 -19 22 -45 q0 -15 -9 -30 l-10 -17 q-10 -17 -26.5 -26 q-16.5 -9 -34.5 -7 q7 -16 7 -30 l0 -4 q0 -26 -17.5 -43.5 q-17.5 -17.5 -43.5 -17.5 l-333 0 q-26 0 -43.5 17.5 q-17.5 17.5 -17.5 43.5 l0 4 q0 13 4 22 q-9 -3 -18 -3 q-26 0 -44 21 l-11 12 q-10 11 -14 23 q-9 -7 -18 -7 l-37 0 l0 -132 l22 3 q4 1 12 1 q23 0 39 -15 q16 -15 19 -39 l1 -8 l1 -10 q0 -23 -14 -38.5 q-14 -15.5 -37 -19.5 l-43 -7 l0 -261 q0 -26 -17.5 -43.5 q-17.5 -17.5 -43.5 -17.5 l-111 0 q-26 0 -43.5 17.5 q-17.5 17.5 -17.5 43.5 l0 4 q0 26 12.5 43.5 q12.5 17.5 31.5 17.5 l43 0 l0 173 l-24 -4 q-4 -1 -11 -1 q-22 0 -38.5 14.5 q-16.5 14.5 -20.5 36.5 l-2 9 q-1 4 -1 11 q0 23 14.5 39.5 q14.5 16.5 38.5 20.5 l44 7 l0 155 l-35 0 q-26 0 -43.5 17.5 q-17.5 17.5 -17.5 43.5 l0 12 q0 26 14 43.5 q14 17.5 34 17.5 l48 0 l0 107 q0 26 17.5 43.5 q17.5 17.5 43.5 17.5 l24 0 q26 0 43.5 -17.5 q17.5 -17.5 17.5 -43.5 l0 -107 l13 0 q26 0 43.5 -17.5 q17.5 -17.5 17.5 -43.5 l0 -1 l256 231 q17 15 38 15 q20 0 36 -12 l16 -12 q21 -17 26 -41 l198 -166 ZM492 441 l333 0 l-170 147 l-167 -147 l4 0 ZM832 260 q26 0 43.5 -17.5 q17.5 -17.5 17.5 -43.5 l0 -276 q0 -26 -17.5 -43.5 q-17.5 -17.5 -43.5 -17.5 l-347 0 q-26 0 -43.5 17.5 q-17.5 17.5 -17.5 43.5 l0 276 q0 26 17.5 43.5 q17.5 17.5 43.5 17.5 l347 0 ZM749 138 l-181 0 l0 -153 l181 0 l0 153 Z" /><glyph glyph-name="uni634C" unicode="&#x634c;" d="M286 243 q2 -12 2 -16 q0 -42 -46 -53 l0 -257 q0 -29 -15.5 -44.5 q-15.5 -15.5 -44.5 -15.5 l-66 0 q-29 0 -44.5 15.5 q-15.5 15.5 -15.5 44.5 l0 6 q0 29 7 44.5 q7 15.5 19 15.5 l26 0 l0 163 q-22 -1 -36.5 12 q-14.5 13 -19.5 38 l0 3 q-2 12 -2 17 q0 42 49 53 l9 2 l0 187 q-28 0 -42.5 15.5 q-14.5 15.5 -14.5 44.5 l0 4 q0 28 13.5 44 q13.5 16 35.5 16 l8 0 l0 108 q0 29 15.5 44.5 q15.5 15.5 44.5 15.5 l14 0 q29 0 44.5 -15.5 q15.5 -15.5 15.5 -44.5 l0 -108 q23 0 33.5 -15 q10.5 -15 10.5 -45 l0 -4 q0 -28 -11.5 -44 q-11.5 -16 -30.5 -16 l-2 0 l0 -165 q17 -2 28.5 -14.5 q11.5 -12.5 15.5 -33.5 l0 -2 ZM935 -79 q0 -29 -15.5 -44.5 q-15.5 -15.5 -44.5 -15.5 l-151 0 q-60 0 -60 60 l0 8 q1 29 17 44.5 q16 15.5 44 15.5 l76 0 l0 699 q0 29 15.5 44.5 q15.5 15.5 44.5 15.5 l13 0 q29 0 44.5 -15.5 q15.5 -15.5 15.5 -44.5 l1 -767 ZM358 384 q-29 0 -44.5 15.5 q-15.5 15.5 -15.5 44.5 l0 226 q0 29 15.5 44.5 q15.5 15.5 44.5 15.5 l223 0 q29 0 44.5 -15.5 q15.5 -15.5 15.5 -44.5 l0 -225 q0 -29 -15.5 -44.5 q-15.5 -15.5 -44.5 -15.5 l-223 -1 ZM724 95 q-26 0 -39.5 15.5 q-13.5 15.5 -13.5 44.5 l-1 416 q0 29 13.5 44.5 q13.5 15.5 39.5 15.5 q26 0 39.5 -15.5 q13.5 -15.5 13.5 -44.5 l0 -416 q0 -29 -13.5 -44.5 q-13.5 -15.5 -38.5 -15.5 ZM436 510 l67 0 l0 95 l-67 0 l0 -95 ZM582 309 q29 0 44.5 -15.5 q15.5 -15.5 15.5 -44.5 l-1 -319 q0 -28 -15 -43.5 q-15 -15.5 -44 -16.5 l-83 -1 q-29 0 -44.5 14 q-15.5 14 -15.5 41 q0 27 8 41.5 q8 14.5 23 14.5 l31 0 l0 194 l-24 0 l-57 -264 q-4 -23 -17 -35 q-13 -12 -33 -12 q-10 0 -22 3 l-29 7 q-46 11 -46 52 q0 13 2 20 l56 236 q-27 14 -27 53 l0 15 q0 28 14.5 43.5 q14.5 15.5 42.5 16.5 l5 20 q12 49 54 49 q4 0 16 -2 l22 -4 q26 -4 38.5 -20.5 q12.5 -16.5 9.5 -42.5 l76 0 Z" /><glyph glyph-name="uni67D2" unicode="&#x67d2;" d="M339 535 q-2 10 -2 15 q0 21 13 37 q13 16 35 21 l110 25 l0 56 q0 26 17.5 43.5 q17.5 17.5 43.5 17.5 l38 0 q26 0 43.5 -17.5 q17.5 -17.5 17.5 -43.5 l0 -21 l172 39 q10 2 15 2 q21 0 36.5 -12.5 q15.5 -12.5 20.5 -34.5 l2 -7 q2 -10 2 -15 q0 -21 -13 -37.5 q-13 -16.5 -35 -21.5 l-200 -46 l0 -98 l151 0 l0 22 q0 26 17.5 43.5 q17.5 17.5 43.5 17.5 l7 0 q26 0 43.5 -17.5 q17.5 -17.5 17.5 -43.5 l0 -83 q0 -26 -17.5 -43.5 q-17.5 -17.5 -43.5 -17.5 l-318 0 q-26 0 -43.5 17.5 q-17.5 17.5 -17.5 43.5 l0 122 l-80 -19 q-10 -2 -15 -2 q-21 0 -37.5 13 q-16.5 13 -21.5 35 l-2 10 ZM201 597 q-30 0 -51 21 q-21 21 -21 52 q0 30 21 51 q21 21 51 21 q31 0 52 -21 q21 -21 21 -51 q0 -31 -21 -52 q-21 -21 -52 -21 ZM201 434 q-30 0 -51 21 q-21 21 -21 52 q0 30 21 51 q21 21 51 21 q31 0 52 -21 q21 -21 21 -51 q0 -31 -21 -52 q-21 -21 -52 -21 ZM89 274 q-11 17 -11 34 q0 17 9 31.5 q9 14.5 25 21.5 l153 73 q18 8 32 8 q16 0 29.5 -9 q13.5 -9 22.5 -25 q11 -22 11 -39 q0 -35 -32 -49 l-150 -72 q-18 -8 -34 -8 q-33 0 -51 28 l-4 6 ZM889 234 q26 0 43.5 -17.5 q17.5 -17.5 17.5 -43.5 l0 -10 q0 -26 -17.5 -43.5 q-17.5 -17.5 -43.5 -17.5 l-106 0 l117 -107 q22 -20 22 -47 q0 -26 -21 -45 l-24 -23 q-18 -18 -42 -18 q-24 0 -42 18 l-216 209 l-1 -178 q0 -27 -17.5 -44 q-17.5 -17 -43.5 -17 l-35 0 q-26 0 -44 18 q-18 18 -18 44 l1 176 l-217 -208 q-18 -18 -42 -18 q-22 0 -42 18 l-23 23 q-20 19 -20 45 q0 28 22 47 l118 107 l-104 0 q-26 0 -43.5 17.5 q-17.5 17.5 -17.5 43.5 l0 10 q0 26 17.5 43.5 q17.5 17.5 43.5 17.5 l309 0 q2 24 19 40 q17 16 42 16 l36 0 q25 0 42 -15.5 q17 -15.5 19 -40.5 l311 0 Z" /><glyph glyph-name="uni7396" unicode="&#x7396;" d="M919 498 q0 -12 -7 -24 l-342 -574 q-9 -14 -22.5 -21.5 q-13.5 -7.5 -28.5 -7.5 q-16 0 -29 7 l-27 14 q-16 8 -25 22.5 q-9 14.5 -9 31.5 q0 17 9 32 l288 507 l-146 0 l-37 -92 q-7 -18 -22 -28 q-15 -10 -33 -10 q-10 0 -25 5 l-11 4 q-18 7 -28 22 q-10 15 -10 32 q0 12 5 25 l105 261 q7 18 22 28 q15 10 33 10 q10 0 25 -5 l10 -4 q19 -7 29 -22 q10 -15 10 -33 q0 -12 -5 -25 l-14 -34 l224 0 q26 0 43.5 -17.5 q17.5 -17.5 17.5 -43.5 l0 -60 ZM361 40 q26 0 43 -17.5 q17 -17.5 17 -44.5 q0 -23 -14.5 -39.5 q-14.5 -16.5 -37.5 -20.5 l-217 -32 l-10 -1 q-23 0 -40 15 q-17 15 -20 39 l0 3 q-3 26 11.5 44.5 q14.5 18.5 40.5 22.5 l34 5 l0 232 l-23 0 q-26 0 -43.5 17.5 q-17.5 17.5 -17.5 43.5 l0 3 q0 28 15.5 44.5 q15.5 16.5 47.5 16.5 l21 0 l0 207 l-28 0 q-26 0 -43.5 17.5 q-17.5 17.5 -17.5 43.5 l0 3 q0 26 17.5 43.5 q17.5 17.5 43.5 17.5 l211 0 q26 0 43.5 -17.5 q17.5 -17.5 17.5 -43.5 l0 -3 q0 -26 -14 -43.5 q-14 -17.5 -35 -17.5 l-50 0 l0 -207 l23 0 q26 0 43.5 -17.5 q17.5 -17.5 17.5 -43.5 l0 -3 q0 -28 -16 -44.5 q-16 -16.5 -48 -16.5 l-20 0 l0 -212 l39 5 l9 1 ZM925 -4 q11 -17 11 -35 q0 -33 -30 -52 l-15 -10 q-16 -10 -33 -10 q-15 0 -28 7.5 q-13 7.5 -22 21.5 l-84 128 q-11 17 -11 34 q0 15 8 29 q8 14 23 23 l15 9 q14 10 32 10 q31 0 50 -28 l84 -127 Z" /><glyph glyph-name="uni8086" unicode="&#x8086;" d="M767 285 l0 -47 l92 0 q26 0 43.5 -15.5 q17.5 -15.5 17.5 -38.5 q0 -23 -17.5 -38.5 q-17.5 -15.5 -43.5 -15.5 l-92 0 l0 -50 l121 0 q26 0 43.5 -16 q17.5 -16 17.5 -40 q0 -24 -17.5 -40 q-17.5 -16 -43.5 -16 l-121 0 l0 -57 q0 -26 -17.5 -43.5 q-17.5 -17.5 -43.5 -17.5 l-28 0 q-26 0 -43.5 17 q-17.5 17 -17.5 42 l0 59 l-93 0 q-26 0 -43.5 16 q-17.5 16 -17.5 40 q0 24 17.5 40 q17.5 16 43.5 16 l93 0 l0 50 l-73 0 q-26 0 -43.5 15.5 q-17.5 15.5 -17.5 38.5 q0 23 17.5 38.5 q17.5 15.5 43.5 15.5 l73 0 l0 47 l-75 0 q-26 0 -43.5 15.5 q-17.5 15.5 -17.5 39.5 q0 24 17.5 39.5 q17.5 15.5 43.5 15.5 l75 0 l0 46 l-101 0 q-26 0 -43.5 15.5 q-17.5 15.5 -17.5 38.5 q0 23 17.5 38.5 q17.5 15.5 43.5 15.5 l101 0 l0 46 l-75 0 q-26 0 -43.5 16 q-17.5 16 -17.5 40 q0 24 17.5 39.5 q17.5 15.5 43.5 15.5 l75 0 q0 19 17.5 31 q17.5 12 43.5 12 l28 0 q26 0 43.5 -6 q17.5 -6 17.5 -15 l0 -22 l96 0 q26 0 43.5 -17.5 q17.5 -17.5 17.5 -43.5 l0 -85 q12 0 20.5 -17.5 q8.5 -17.5 8.5 -43.5 l0 -3 q0 -61 -24 -61 l-5 0 l0 -89 q0 -26 -17.5 -43.5 q-17.5 -17.5 -43.5 -17.5 l-96 0 ZM472 -60 q1 -5 1 -14 q0 -25 -17 -42.5 q-17 -17.5 -43 -17.5 q-19 0 -34 12 q-15 12 -21 31 l-194 -34 q-4 -1 -12 -1 q-16 0 -29 8.5 q-13 8.5 -20 24.5 l-32 69 q-5 12 -5 19 q0 4 2 12 l33 141 q0 2 2 6 q-24 2 -39 18 q-15 16 -15 39 q0 18 10 32.5 q10 14.5 27 20.5 l0 393 q0 26 17.5 43.5 q17.5 17.5 43.5 17.5 l216 0 q26 0 43.5 -17.5 q17.5 -17.5 17.5 -43.5 l0 -2 q0 -26 -17.5 -43.5 q-17.5 -17.5 -43.5 -17.5 l-135 0 l0 -48 l128 0 q26 0 43.5 -13 q17.5 -13 17.5 -33 q0 -20 -17.5 -33.5 q-17.5 -13.5 -43.5 -13.5 l-128 0 l0 -47 l132 0 q26 0 43.5 -13 q17.5 -13 17.5 -33 q0 -20 -17.5 -33.5 q-17.5 -13.5 -43.5 -13.5 l-132 0 l0 -45 l162 0 q26 0 43.5 -16 q17.5 -16 17.5 -41 q0 -25 -17.5 -41 q-17.5 -16 -43.5 -16 l-142 0 l-34 -144 l117 20 l-7 31 q-2 10 -2 15 q0 25 17.5 42 q17.5 17 43.5 17 q21 0 37.5 -13.5 q16.5 -13.5 20.5 -35.5 l31 -146 ZM749 549 l58 0 l0 46 l-58 0 l0 -46 ZM807 395 l0 46 l-58 0 l0 -46 l58 0 Z" /><glyph glyph-name="uni8D30" unicode="&#x8d30;" d="M892 -5 q26 0 43.5 -17.5 q17.5 -17.5 17.5 -43.5 l0 -13 q0 -26 -17.5 -43.5 q-17.5 -17.5 -43.5 -17.5 l-111 0 q-23 0 -38.5 14 q-15.5 14 -18.5 36 l-95 635 l-512 0 q-26 0 -43.5 17.5 q-17.5 17.5 -17.5 43.5 l0 8 q0 26 17.5 43.5 q17.5 17.5 43.5 17.5 l493 0 q-3 27 12.5 46.5 q15.5 19.5 42.5 22.5 l35 4 q25 2 43.5 -12 q18.5 -14 22.5 -39 l3 -22 l24 0 q-1 3 -1 8 q0 25 17.5 42.5 q17.5 17.5 42.5 17.5 q25 0 42.5 -17.5 q17.5 -17.5 17.5 -42.5 q0 -4 -2 -14 q16 -8 25 -22 q9 -14 9 -33 l0 -8 q0 -26 -17.5 -43.5 q-17.5 -17.5 -43.5 -17.5 l-94 0 l82 -550 l21 0 ZM183 422 q-26 0 -43.5 14.5 q-17.5 14.5 -17.5 35.5 q0 21 17.5 35 q17.5 14 43.5 14 l335 0 q26 0 43.5 -14 q17.5 -14 17.5 -35 q0 -22 -17.5 -36 q-17.5 -14 -43.5 -14 l-335 0 ZM84 349 q0 21 17.5 35 q17.5 14 43.5 14 l425 0 q26 0 43.5 -14 q17.5 -14 17.5 -35 q0 -21 -17.5 -35.5 q-17.5 -14.5 -43.5 -14.5 l-425 0 q-26 0 -43.5 14.5 q-17.5 14.5 -17.5 35.5 ZM79 212 q0 26 17.5 43.5 q17.5 17.5 43.5 17.5 l438 0 q26 0 43.5 -17.5 q17.5 -17.5 17.5 -43.5 l0 -139 q0 -26 -17.5 -43.5 q-17.5 -17.5 -43.5 -17.5 l-24 0 q-26 0 -43.5 17.5 q-17.5 17.5 -17.5 43.5 l0 94 l-268 0 l0 -94 q0 -26 -17.5 -43.5 q-17.5 -17.5 -43.5 -17.5 l-24 0 q-26 0 -43.5 17.5 q-17.5 17.5 -17.5 43.5 l0 139 ZM617 -22 q21 -8 33 -23.5 q12 -15.5 12 -33.5 q0 -13 -7 -26 l-5 -8 q-8 -15 -21.5 -23 q-13.5 -8 -30.5 -8 q-15 0 -25 5 l-237 100 l-183 -100 q-16 -8 -30 -8 q-15 0 -28.5 7.5 q-13.5 7.5 -21.5 21.5 q-10 16 -10 33 q0 18 9.5 33 q9.5 15 27.5 23 l170 82 l28 62 q7 16 20.5 24.5 q13.5 8.5 30.5 8.5 q9 0 13 -1 l10 -2 q25 -5 39.5 -21.5 q14.5 -16.5 14.5 -38.5 q0 -11 -5 -24 l-3 -9 l199 -74 Z" /><glyph glyph-name="uni9646" unicode="&#x9646;" d="M604 0 l0 292 l-120 0 q-26 0 -43.5 17.5 q-17.5 17.5 -17.5 43.5 l0 11 q0 26 17.5 43.5 q17.5 17.5 43.5 17.5 l120 0 l0 102 l-89 0 q-26 0 -43.5 17.5 q-17.5 17.5 -17.5 43.5 l0 11 q0 26 17.5 43.5 q17.5 17.5 43.5 17.5 l89 0 l0 27 q0 26 17.5 43.5 q17.5 17.5 43.5 17.5 l34 0 q26 0 43.5 -12.5 q17.5 -12.5 17.5 -31.5 l0 -44 l93 0 q26 0 43.5 -17.5 q17.5 -17.5 17.5 -43.5 l0 -11 q0 -26 -17.5 -43.5 q-17.5 -17.5 -43.5 -17.5 l-93 0 l0 -102 l122 0 q26 0 43.5 -17.5 q17.5 -17.5 17.5 -43.5 l0 -11 q0 -26 -17.5 -43.5 q-17.5 -17.5 -43.5 -17.5 l-122 0 l0 -292 l39 0 l0 144 q0 26 17.5 43.5 q17.5 17.5 43.5 17.5 l9 0 q26 0 43.5 -17.5 q17.5 -17.5 17.5 -43.5 l0 -216 q0 -26 -17.5 -43.5 q-17.5 -17.5 -43.5 -17.5 l-373 0 q-26 0 -43.5 17.5 q-17.5 17.5 -17.5 43.5 l0 218 q0 26 17.5 43.5 q17.5 17.5 43.5 17.5 l8 0 q26 0 43.5 -17.5 q17.5 -17.5 17.5 -43.5 l0 -146 l39 0 ZM68 664 q0 26 17.5 43.5 q17.5 17.5 43.5 17.5 l221 0 q26 0 43.5 -17.5 q17.5 -17.5 17.5 -43.5 l0 -57 q0 -7 -3 -15 l-62 -181 q24 0 39.5 -17.5 q15.5 -17.5 15.5 -43.5 l0 -321 q0 -26 -17.5 -43.5 q-17.5 -17.5 -43.5 -17.5 l-51 0 q-26 0 -43.5 16 q-17.5 16 -17.5 40 q0 55 43 55 l3 0 l0 212 q-9 0 -18 9 q-9 9 -16 24 l-17 40 q-4 8 -4 19 q0 9 3 16 l68 202 l-76 0 l0 -689 q0 -26 -17.5 -43.5 q-17.5 -17.5 -43.5 -17.5 l-24 0 q-26 0 -43.5 17.5 q-17.5 17.5 -17.5 43.5 l0 752 Z" /><glyph glyph-name="zero" unicode="0" d="M501 627 q29 0 44.5 -15.5 q15.5 -15.5 15.5 -44.5 l0 -585 q0 -29 -15.5 -44.5 q-15.5 -15.5 -44.5 -15.5 l-384 0 q-29 0 -45 16 q-16 16 -16 44 l-6 584 q0 60 59 60 l392 1 ZM414 64 l0 417 l-203 10 l-5 -430 l208 3 Z" /><glyph glyph-name="one" unicode="1" d="M147 484 l-16 -2 q-29 -3 -46 11.5 q-17 14.5 -18 44.5 l-1 29 q-1 30 14.5 45.5 q15.5 15.5 44.5 15.5 l131 0 q29 0 44.5 -15.5 q15.5 -15.5 15.5 -44.5 l-4 -511 l31 2 q31 2 49.5 -14.5 q18.5 -16.5 18.5 -52.5 q0 -65 -63 -65 l-238 1 q-30 0 -45 13.5 q-15 13.5 -15 42.5 q0 57 58 60 l46 3 l-7 437 Z" /><glyph glyph-name="two" unicode="2" d="M207 456 q1 -30 -14.5 -45.5 q-15.5 -15.5 -44.5 -15.5 l-30 0 q-58 0 -60 45 l-2 45 l-3 82 q-1 30 14.5 45.5 q15.5 15.5 44.5 15.5 l342 -1 q29 0 44.5 -15.5 q15.5 -15.5 15.5 -44.5 l0 -41 q0 -22 -5 -39 q-5 -17 -16 -35 l-249 -395 l214 18 q29 2 45.5 -13 q16.5 -15 17.5 -44 l1 -37 q1 -30 -14.5 -45.5 q-15.5 -15.5 -44.5 -15.5 l-353 1 q-29 0 -44.5 15 q-15.5 15 -15.5 44 l0 20 q0 22 5 39 q5 17 17 35 l257 401 l-122 -7 l0 -12 Z" /><glyph glyph-name="three" unicode="3" d="M171 187 q-29 -2 -45 12.5 q-16 14.5 -18 44.5 l-2 42 q-1 25 7.5 42.5 q8.5 17.5 27.5 31.5 l155 119 l-181 -11 q-30 -2 -46 12.5 q-16 14.5 -17 44.5 l-2 47 q-1 29 14.5 45 q15.5 16 44.5 16 l322 -1 q29 0 44.5 -15.5 q15.5 -15.5 15.5 -44.5 l0 -38 q0 -22 -7 -39.5 q-7 -17.5 -23 -34.5 l-125 -129 l103 0 q29 0 44.5 -18.5 q15.5 -18.5 14.5 -55.5 l-3 -273 q0 -29 -15.5 -44.5 q-15.5 -15.5 -44.5 -15.5 l-323 -1 q-29 0 -44.5 15.5 q-15.5 15.5 -14.5 45.5 l1 38 q1 30 17.5 44.5 q16.5 14.5 45.5 12.5 l221 -15 l-5 134 l-162 -11 Z" /><glyph glyph-name="four" unicode="4" d="M159 586 q12 44 49 44 q15 0 26 -5 l52 -19 q41 -15 41 -44 q0 -10 -5 -25 l-106 -309 l113 4 l-4 221 q-1 30 15 45.5 q16 15.5 45 15.5 l40 0 q60 0 60 -60 l-2 -209 l49 3 q30 2 46 -10 q16 -12 17 -40 l2 -47 q1 -30 -13.5 -45.5 q-14.5 -15.5 -43.5 -15.5 l-59 0 l-1 -113 q0 -29 -15.5 -44.5 q-15.5 -15.5 -44.5 -15.5 l-27 0 q-28 0 -43.5 15 q-15.5 15 -16.5 44 l-2 114 l-221 0 q-29 0 -44.5 15.5 q-15.5 15.5 -15.5 44.5 l0 27 q0 39 10 73 l99 336 Z" /><glyph glyph-name="five" unicode="5" d="M434 587 q29 1 45 -15 q16 -16 15 -45 l-1 -31 q-1 -30 -17.5 -45 q-16.5 -15 -45.5 -13 l-215 10 l5 -97 l212 -21 q28 -3 42.5 -19 q14.5 -16 14.5 -44 l0 -287 q0 -29 -15.5 -44.5 q-15.5 -15.5 -44.5 -15.5 l-310 -1 q-29 0 -44.5 16 q-15.5 16 -14.5 45 l2 48 q2 29 18 43.5 q16 14.5 45 12.5 l205 -16 l6 129 l-221 27 q-27 3 -41 20 q-14 17 -14 44 l0 290 q0 29 15.5 44.5 q15.5 15.5 44.5 15.5 l28 0 q31 0 45.5 -10.5 q14.5 -10.5 15.5 -42.5 l0 -4 l225 6 Z" /><glyph glyph-name="six" unicode="6" d="M431 632 q29 0 44.5 -15.5 q15.5 -15.5 14.5 -45.5 l-1 -30 q-1 -30 -17.5 -45 q-16.5 -15 -45.5 -13 l-205 12 l-1 -122 l232 -5 q29 -1 44 -16.5 q15 -15.5 15 -43.5 l0 -324 q0 -29 -15.5 -44.5 q-15.5 -15.5 -44.5 -15.5 l-334 0 q-29 0 -45 16 q-16 16 -16 44 l-6 587 q0 60 59 60 l322 1 ZM354 66 l0 172 l-136 -3 l-2 -172 l138 3 Z" /><glyph glyph-name="seven" unicode="7" d="M389 628 q27 0 41.5 -13 q14.5 -13 14.5 -36 q0 -9 -1 -14 l-111 -590 q-10 -54 -65 -54 l-37 0 q-27 0 -41.5 13.5 q-14.5 13.5 -14.5 36.5 q0 10 1 15 l92 506 l-184 -11 q-30 -2 -46 12.5 q-16 14.5 -17 44.5 l-1 30 q-1 30 14.5 45.5 q15.5 15.5 44.5 15.5 l310 -1 Z" /><glyph glyph-name="eight" unicode="8" d="M65 314 q-9 8 -12 19.5 q-3 11.5 -3 28.5 l0 206 q0 29 15 44.5 q15 15.5 43 15.5 l376 0 q28 0 43 -15.5 q15 -15.5 15 -44.5 l0 -219 q0 -29 -21 -41 l-14 -8 l16 -9 q8 -5 13.5 -15.5 q5.5 -10.5 5.5 -23.5 l0 -256 q0 -29 -15 -44.5 q-15 -15.5 -43 -15.5 l-376 0 q-28 0 -43 15.5 q-15 15.5 -15 44.5 l0 246 q0 15 3.5 26 q3.5 11 12.5 20 l14 14 l-15 12 ZM379 508 l-164 0 l0 -146 l164 0 l0 146 ZM379 78 l0 152 l-164 0 l0 -155 l164 3 Z" /><glyph glyph-name="nine" unicode="9" d="M107 210 q-29 1 -44 16.5 q-15 15.5 -15 43.5 l0 304 q0 29 15.5 44.5 q15.5 15.5 44.5 15.5 l335 0 q29 0 45 -16 q16 -16 16 -44 l5 -588 q0 -60 -59 -60 l-351 -1 q-29 0 -44.5 15.5 q-15.5 15.5 -14.5 45.5 l1 31 q1 30 17.5 45 q16.5 15 45.5 13 l240 -12 l1 142 l-238 5 ZM347 343 l2 152 l-144 -3 l1 -152 l141 3 Z" /><glyph glyph-name="exclam" unicode="!" d="M286 113 q-29 0 -44.5 15.5 q-15.5 15.5 -15.5 44.5 l0 472 q0 29 15.5 44.5 q15.5 15.5 44.5 15.5 l36 0 q29 0 44.5 -15.5 q15.5 -15.5 15.5 -44.5 l0 -472 q0 -29 -15.5 -44.5 q-15.5 -15.5 -44.5 -15.5 l-36 0 ZM310 -138 q-37 0 -62.5 26 q-25.5 26 -25.5 62 q0 36 25.5 61.5 q25.5 25.5 62.5 25.5 q36 0 61.5 -25.5 q25.5 -25.5 25.5 -61.5 q0 -36 -25.5 -62 q-25.5 -26 -61.5 -26 Z" /><glyph glyph-name="asterisk" unicode="*" d="M191 628 q-13 6 -27 6 q-17 0 -30.5 -10 q-13.5 -10 -20.5 -29 q-3 -9 -3 -17 q0 -20 15 -35 q15 -15 38 -18 l61 -10 l-41 -37 q-24 -21 -24 -48 q0 -24 22 -40 l3 -2 q17 -11 33 -11 q15 0 28 8 q13 8 21 22 l37 65 l28 -58 q8 -17 21.5 -26 q13.5 -9 29.5 -9 q18 0 32 10 q20 13 20 38 q0 28 -24 50 l-40 36 l65 10 q23 4 37.5 18.5 q14.5 14.5 14.5 34.5 q0 8 -3 17 q-6 18 -19.5 27.5 q-13.5 9.5 -31.5 9.5 q-15 0 -29 -7 l-59 -30 l9 60 q1 4 1 11 q0 24 -15.5 40 q-15.5 16 -40.5 16 l-5 0 q-26 0 -42.5 -17.5 q-16.5 -17.5 -14.5 -44.5 l6 -54 l-52 24 Z" /><glyph glyph-name="numbersign" unicode="#" d="M704 445 q30 0 45 -15 q15 -15 15 -51 q0 -56 -56 -56 l-100 0 l-30 -99 l69 0 q60 0 60 -56 q0 -36 -15 -51 q-15 -15 -45 -15 l-107 0 l-40 -129 q-8 -25 -33.5 -37.5 q-25.5 -12.5 -73.5 -12.5 q-25 0 -38 11 q-13 11 -13 30 q0 10 5 27 l34 111 l-68 0 l-40 -130 q-9 -26 -28 -38 q-19 -12 -59 -12 q-70 0 -70 43 q0 13 4 25 l35 112 l-45 0 q-30 0 -45 15 q-15 15 -15 51 q0 56 60 56 l82 0 l31 99 l-56 0 q-60 0 -60 56 q0 36 14.5 51 q14.5 15 44.5 15 l94 0 l42 135 q8 27 29 38.5 q21 11.5 68 11.5 q61 0 61 -42 q0 -11 -5 -26 l-36 -117 l68 0 l42 136 q8 25 26 37.5 q18 12.5 51 12.5 q80 0 80 -44 q0 -12 -4 -24 l-36 -118 l58 0 ZM419 224 l30 99 l-67 0 l-31 -99 l68 0 Z" /><glyph glyph-name="hyphen" unicode="-" d="M520 387 q29 0 44.5 -20.5 q15.5 -20.5 15.5 -58.5 q0 -39 -15.5 -60 q-15.5 -21 -44.5 -21 l-420 0 q-29 0 -44.5 21 q-15.5 21 -15.5 60 q0 38 15.5 58.5 q15.5 20.5 44.5 20.5 l420 0 Z" /><glyph glyph-name="emdash" unicode="&#x2014;" d="M929 387 q29 0 44.5 -20.5 q15.5 -20.5 15.5 -58.5 q0 -39 -15.5 -60 q-15.5 -21 -44.5 -21 l-880 0 q-29 0 -44.5 21 q-15.5 21 -15.5 60 q0 38 15.5 58.5 q15.5 20.5 44.5 20.5 l880 0 Z" /><glyph glyph-name="underscore" unicode="_" d="M470 69 q30 0 45 -16 q15 -16 15 -53 q0 -76 -60 -76 l-340 0 q-60 0 -60 76 q0 37 15 53 q15 16 45 16 l340 0 Z" /><glyph glyph-name="uni3001" unicode="&#x3001;" d="M398 -94 q-17 -12 -33 -12 q-25 0 -46 28 l-83 109 q-16 20 -16 40 q0 24 22 40 q15 12 31 12 q24 0 47 -28 l84 -108 q17 -22 17 -41 q0 -23 -23 -40 Z" /><glyph glyph-name="dollar" unicode="$" d="M270 229 l-165 56 q-55 19 -55 70 l0 201 q0 29 19 44.5 q19 15.5 54 15.5 l143 -1 l0 33 q0 60 72 60 l11 0 q35 0 53.5 -12 q18.5 -12 19.5 -34 l1 -46 l97 0 q35 0 53 -16 q18 -16 17 -45 l-1 -30 q-1 -30 -21.5 -44.5 q-20.5 -14.5 -56.5 -11.5 l-90 7 l-4 -139 l132 -41 q57 -18 57 -69 l0 -191 q0 -29 -19 -44.5 q-19 -15.5 -54 -15.5 l-121 0 l0 -55 q0 -29 -18 -44.5 q-18 -15.5 -51 -15.5 q-66 0 -68 57 l-2 57 l-129 0 q-35 0 -53.5 15.5 q-18.5 15.5 -17.5 45.5 l1 38 q1 29 21.5 44 q20.5 15 56.5 12 l120 -9 l-2 108 ZM267 488 l-55 3 l4 -94 l52 -11 l-1 102 ZM470 156 l-55 17 l0 -62 l52 -4 l3 49 Z" /><glyph glyph-name="plus" unicode="+" d="M506 327 q28 0 44 -14 q16 -14 16 -40 q0 -40 -15 -57.5 q-15 -17.5 -45 -17.5 l-124 -1 l0 -167 q0 -60 -74 -60 q-39 0 -60 15.5 q-21 15.5 -21 44.5 l0 165 l-133 -1 q-30 0 -45 18.5 q-15 18.5 -15 60.5 q0 28 15.5 43 q15.5 15 44.5 15 l133 -1 l0 140 q0 29 21 44.5 q21 15.5 60 15.5 q74 0 74 -60 l0 -142 l124 -1 Z" /><glyph glyph-name="asciitilde" unicode="~" d="M424 311 q17 14 37 14 q32 0 57 -33 l6 -8 q16 -22 16 -39 q0 -25 -29 -45 l-82 -56 q-16 -12 -36 -12 q-13 0 -25 6 l-151 66 l-47 -38 q-22 -18 -44 -18 q-27 0 -48 26 l-2 2 q-16 19 -16 43 q0 15 7.5 28 q7.5 13 21.5 23 l67 46 q26 18 51 18 q17 0 40 -10 l124 -56 l53 43 Z" /><glyph glyph-name="asciicircum" unicode="^" d="M544 441 q5 -9 5 -19 q0 -12 -10 -20 q-10 -8 -26 -8 l-82 0 q-16 0 -27 8 q-11 8 -19 24 l-76 157 l-84 -159 q-16 -30 -47 -30 l-90 0 q-17 0 -26.5 7.5 q-9.5 7.5 -9.5 19.5 q0 10 6 20 l154 261 q17 29 47 29 l95 0 q20 0 30.5 -4 q10.5 -4 18.5 -19 l141 -267 Z" /><glyph glyph-name="percent" unicode="%" d="M209 -122 q-19 0 -29 10.5 q-10 10.5 -10 29.5 q0 11 5 28 l194 590 q8 26 24.5 38 q16.5 12 42.5 12 q80 0 80 -44 q0 -12 -4 -24 l-194 -590 q-8 -26 -24.5 -38 q-16.5 -12 -42.5 -12 l-42 0 ZM89 292 q-34 0 -51.5 18 q-17.5 18 -17.5 52 l0 135 q0 34 17.5 52 q17.5 18 51.5 18 l130 0 q34 0 51.5 -18 q17.5 -18 17.5 -52 l0 -135 q0 -34 -17.5 -52 q-17.5 -18 -51.5 -18 l-130 0 ZM187 392 l0 80 l-67 -4 l0 -77 l67 1 ZM479 -98 q-34 0 -51.5 18 q-17.5 18 -17.5 52 l0 135 q0 34 17.5 52 q17.5 18 51.5 18 l130 0 q34 0 51.5 -18 q17.5 -18 17.5 -52 l0 -135 q0 -34 -17.5 -52 q-17.5 -18 -51.5 -18 l-130 0 ZM577 2 l0 80 l-67 -4 l0 -77 l67 1 Z" /><glyph glyph-name="at" unicode="@" d="M760 651 q33 -2 49 -19.5 q16 -17.5 13 -49.5 l-43 -485 q-2 -29 -22 -48 q-20 -19 -47 -15 l-177 23 q-48 6 -58 34 l-184 -24 q-4 -1 -12 -1 q-50 0 -52 56 l-7 301 q-1 29 15.5 45 q16.5 16 45.5 15 l214 -8 q14 17 49 17 q30 0 45.5 -15.5 q15.5 -15.5 14.5 -45.5 l-6 -257 l40 -6 l29 353 l-486 18 l0 -503 l465 -12 q59 -2 59 -62 q-1 -42 -18 -60 q-17 -18 -51 -17 l-531 15 q-32 1 -48.5 18 q-16.5 17 -16.5 48 l0 645 q0 32 17.5 49 q17.5 17 49.5 16 l653 -25 ZM462 350 l-99 -1 l3 -143 l95 16 l1 128 Z" /><glyph glyph-name="ampersand" unicode="&amp;" d="M492 199 q41 -12 41 -49 q0 -14 -4 -26 l-32 -100 l20 -31 q8 -12 8 -28 q0 -16 -9.5 -32 q-9.5 -16 -24.5 -26 q-21 -15 -48 -15 q-22 0 -28 10 l-16 23 l-258 -18 q-57 -5 -66 53 l-23 141 q-2 14 -2 19 q0 36 28 58 l103 83 l-92 123 q-24 32 -24 74 l0 117 q0 29 15.5 44.5 q15.5 15.5 44.5 15.5 l80 0 l0 -1 l213 3 q42 1 61 -14 q19 -15 20 -45 l4 -177 q2 -49 -29 -74 l-119 -95 l58 -86 l4 12 q14 44 53 44 q10 0 22 -3 ZM223 515 l2 -68 l63 -94 l66 64 l0 95 l-131 3 ZM324 54 l-67 94 l-58 -57 l9 -48 l116 11 Z" /><glyph glyph-name="grave" unicode="`" d="M409 542 q2 -8 2 -11 q0 -21 -37 -22 l-50 -1 q-33 -1 -45 22 l-85 162 q-5 8 -5 16 q0 10 9.5 16 q9.5 6 27.5 6 l90 0 q19 0 29 -6 q10 -6 14 -19 l50 -163 Z" /></font>
</defs>
</svg>
