<?xml version="1.0" standalone="no"?><!DOCTYPE svg PUBLIC "-//W3C//DTD SVG 1.1//EN" "http://www.w3.org/Graphics/SVG/1.1/DTD/svg11.dtd" ><svg xmlns="http://www.w3.org/2000/svg"><metadata></metadata><defs><font id="FontForge 2.0 : JQLaoSongJT : 12-12-2022" horiz-adv-x="1000"><font-face font-family="JQLaoSongJT" font-weight="5" font-stretch="normal" units-per-em="1000" panose-1="0 0 0 0 0 0 0 0 0 0" ascent="860" descent="-226" x-height="0" bbox="-57 -206 1015 836" underline-thickness="20" underline-position="-153" unicode-range="U+0000-9b44" /><missing-glyph horiz-adv-x="1000" d="M0 0 l0 794 l696 0 l0 -794 l-696 0 ZM647 49 l0 696 l-598 0 l0 -696 l598 0 Z" /><glyph glyph-name="exclam" unicode="!" d="M82 71 q0 34 24.5 59.5 q24.5 25.5 59.5 25.5 q35 0 60 -25 q25 -25 25 -60 q0 -36 -25 -60 q-25 -24 -60 -24 q-36 0 -60 24 q-24 24 -24 60 ZM180 234 l-29 0 q-12 119 -33 203 q-37 145 -37 155 q0 47 23 73 q23 26 62 26 q39 0 61.5 -25.5 q22.5 -25.5 22.5 -73.5 q0 -34 -15 -82 q-41 -129 -55 -276 Z" /><glyph glyph-name="numbersign" unicode="#" d="M467 283 l-1 -73 l-97 0 l-29 -210 l-78 0 l29 210 l-113 0 l-29 -210 l-78 0 l29 210 l-96 0 l1 73 l106 0 l18 134 l-96 0 l1 73 l105 0 l30 210 l77 0 l-29 -210 l113 0 l30 210 l77 0 l-29 -210 l88 0 l-1 -73 l-97 0 l-18 -134 l87 0 ZM320 417 l-113 0 l-18 -134 l113 0 l18 134 Z" /><glyph glyph-name="dollar" unicode="$" d="M269 250 l0 -220 q36 7 56 22 q37 28 37 88 q0 32 -14 52.5 q-14 20.5 -79 57.5 ZM428 481 l-21 0 q-20 72 -55 112 q-35 40 -83 48 l0 -215 q130 -66 166.5 -114 q36.5 -48 36.5 -113 q0 -100 -63 -148 q-46 -35 -140 -51 l0 -99 l-55 0 l0 99 q-55 0 -101 16 q-40 17 -67 27 l0 156 l21 -2 q25 -88 66 -128 q31 -30 80 -39 l0 251 q-79 39 -118 75 q-66 61 -66 140 q0 82 61 132 q53 44 124 44 l0 78 l55 0 l0 -76 q63 -9 105 -25 q25 -9 54 -27 l0 -141 ZM213 454 l0 190 q-40 -9 -60 -25 q-29 -23 -29 -66 q0 -45 40 -74 q19 -14 49 -25 Z" /><glyph glyph-name="percent" unicode="%" d="M652 92 q0 -25 6 -37 q12 -23 47 -23 q49 0 96 79 q43 73 43 135 q0 25 -8 44 q-13 31 -46 31 q-51 0 -98 -100 q-40 -85 -40 -129 ZM535 119 q0 99 73 178 q70 75 147 75 q63 0 94 -34 q28 -31 28 -88 q0 -82 -50 -163 q-62 -101 -160 -101 q-59 0 -95.5 38.5 q-36.5 38.5 -36.5 94.5 ZM728 692 l-394 -700 l-55 0 l346 616 l-2 2 q-24 -11 -55 -18 q-31 -7 -58 -7 q-13 0 -24.5 2 q-11.5 2 -20.5 3 q0 -101 -49 -188 q-61 -108 -165 -108 q-53 0 -90 36 q-37 36 -37 94 q0 117 83 192 q68 62 134 62 q32 0 52 -8 q7 -3 32 -19 q18 -13 38.5 -20.5 q20.5 -7.5 57.5 -7.5 q43 0 84 15 q53 19 67 39 q5 7 8 10 q5 5 10 5 l38 0 ZM238 393 q0 -24 13.5 -38.5 q13.5 -14.5 36.5 -14.5 q55 0 102 86 q42 77 42 142 q0 21 -7.5 30.5 q-7.5 9.5 -21.5 14.5 q-4 1 -15.5 9.5 q-11.5 8.5 -16.5 8.5 q-40 0 -86.5 -93.5 q-46.5 -93.5 -46.5 -144.5 Z" /><glyph glyph-name="ampersand" unicode="&amp;" d="M577 419 l206 0 l0 -24 q-33 -3 -46 -10.5 q-13 -7.5 -27 -29.5 q-43 -70 -56 -89.5 q-13 -19.5 -64 -89.5 q38 -49 58 -66 q29 -25 62 -25 q18 0 32.5 10 q14.5 10 24.5 28 l20 -12 l-44 -71 q-20 -24 -52 -40 q-32 -16 -64 -16 q-48 0 -89 28 q-23 16 -63 60 q-43 -33 -87 -54 q-69 -33 -135 -33 q-78 0 -131 43 q-60 49 -60 134 q0 85 73 150 q40 36 123 76 q-52 86 -52 143 q0 83 63 125 q52 35 131 35 q86 0 131 -40 q37 -33 37 -81 q0 -43 -30 -76 q-39 -43 -122 -71 l151 -214 q35 43 50 67 q26 42 26 74 q0 26 -11.5 33 q-11.5 7 -54.5 12 l0 24 ZM201 260 q0 -60 45 -125 q51 -74 116 -74 q20 0 43 11 q23 11 47 28 q-18 24 -61.5 86.5 q-43.5 62.5 -67.5 99.5 l-48 72 q-41 -23 -57.5 -44.5 q-16.5 -21.5 -16.5 -53.5 ZM323 599 q0 -33 28 -81 q20 -35 46 -66 q30 10 45 23 q25 21 25 59 q0 42 -24 80 q-28 44 -67 44 q-23 0 -36 -11 q-17 -15 -17 -48 Z" /><glyph glyph-name="asterisk" unicode="*" d="M278 476 l0 -8 q27 -15 115 -27 q54 -7 54 -51 q0 -20 -14 -34 q-14 -14 -35 -14 q-13 0 -24 5 q-17 8 -31 28 q-30 43 -40.5 54.5 q-10.5 11.5 -36.5 24.5 l-7 -5 q4 -46 16 -75 q27 -65 27 -67 q0 -21 -13.5 -36.5 q-13.5 -15.5 -38.5 -15.5 q-24 0 -35.5 18 q-11.5 18 -11.5 37 q0 12 25 68 q13 29 13 71 l-7 5 q-40 -26 -75 -78 q-25 -37 -55 -37 q-15 0 -31 13 q-16 13 -16 35 q0 17 4 25 q8 17 35 27 q9 3 20 4.5 q11 1.5 23 1.5 q25 0 43 4 q18 4 43 23 l1 7 q-32 16 -120 28 q-50 7 -50 51 q0 25 15 36.5 q15 11.5 29 11.5 q35 0 54 -25 q56 -75 82 -87 l7 3 q0 46 -29 98 q-14 25 -14 47 q0 21 15 35 q15 14 36 14 q27 0 40 -21 q9 -15 9 -33 q0 -21 -12 -44 q-26 -50 -26 -96 l8 -3 q37 27 73 80 q24 35 53 35 q23 0 37 -17 q14 -17 14 -34 q0 -11 -8 -24 q-11 -19 -33 -26 q-7 -2 -49.5 -4.5 q-42.5 -2.5 -78.5 -27.5 Z" /><glyph glyph-name="plus" unicode="+" d="M241 297 l0 209 l88 0 l0 -209 l208 0 l0 -88 l-208 0 l0 -209 l-88 0 l0 209 l-208 0 l0 88 l208 0 Z" /><glyph glyph-name="comma" unicode="," d="M57 -180 l-11 22 q40 27 65 52 q44 44 44 80 q0 22 -20 22 l-22 -2 q-28 0 -47 15 q-27 21 -27 64 q0 38 23 60 q23 22 59 22 q51 0 78 -37 q24 -32 24 -77 q0 -81 -63 -146 q-36 -37 -103 -75 Z" /><glyph glyph-name="hyphen" unicode="-" d="M287 287 l0 -116 l-243 0 l0 116 l243 0 Z" /><glyph glyph-name="slash" unicode="/" d="M302 691 l-236 -710 l-90 0 l236 710 l90 0 Z" /><glyph glyph-name="zero" unicode="0" d="M318 222 l0 229 q0 113 -16 161 q-16 48 -53 48 q-52 0 -63 -106 q-4 -39 -4 -103 l0 -229 q0 -109 15.5 -158 q15.5 -49 53.5 -49 q24 0 38 20 q9 13 14.5 35.5 q5.5 22.5 10 64 q4.5 41.5 4.5 87.5 ZM24 332 q0 174 75 272 q65 84 152 84 q88 0 152 -88 q73 -100 73 -268 q0 -142 -60 -240 q-64 -105 -166 -105 q-97 0 -161.5 97.5 q-64.5 97.5 -64.5 247.5 Z" /><glyph glyph-name="one" unicode="1" d="M442 24 l0 -24 l-375 0 l0 24 q80 0 103 26 q16 18 16 74 l0 385 q0 32 -4 44 q-9 25 -35 25 q-11 0 -33 -7 q-12 -4 -49 -18 l0 26 l252 109 l17 0 l0 -570 q0 -55 16 -72 q21 -22 92 -22 Z" /><glyph glyph-name="two" unicode="2" d="M478 211 l-45 -211 l-416 0 l0 23 q99 106 145 160 q70 82 101 139 q37 67 37 124 q0 40 -20 74 q-32 54 -99 54 q-30 0 -55 -13 q-43 -22 -67 -77 l-28 0 q27 76 64 123 q64 81 156 81 q65 0 115 -36 q70 -50 70 -151 q0 -41 -14 -77 q-26 -66 -100 -137 l-162 -154 l151 0 q79 0 100 12.5 q21 12.5 43 65.5 l24 0 Z" /><glyph glyph-name="three" unicode="3" d="M58 523 l-21 12 q27 59 78 100 q65 53 146 53 q76 0 122 -33.5 q46 -33.5 46 -101.5 q0 -51 -25 -83 q-16 -20 -58 -46 q59 -22 90.5 -69.5 q31.5 -47.5 31.5 -106.5 q0 -107 -85 -184.5 q-85 -77.5 -216 -77.5 q-64 0 -105 22 q-46 25 -46 70 q0 23 18.5 39.5 q18.5 16.5 43.5 16.5 q44 0 96 -49 q52 -49 80 -49 q42 0 68 25 q32 31 32 94 q0 104 -103 161 q-31 17 -98 40 l0 17 q57 18 83 37 q47 35 47 94 q0 47 -26 75 q-26 28 -80 28 q-45 0 -80 -33 q-17 -16 -39 -51 Z" /><glyph glyph-name="four" unicode="4" d="M412 255 l63 0 l0 -111 l-63 0 l0 -144 l-145 0 l0 144 l-248 0 l0 113 q42 67 100 148 q52 72 110 149 q51 67 103 134 l80 0 l0 -433 ZM269 255 l0 294 l-209 -294 l209 0 Z" /><glyph glyph-name="five" unicode="5" d="M149 549 l-22 -81 q72 0 121.5 -10.5 q49.5 -10.5 98.5 -38.5 q41 -23 69 -65 q35 -53 35 -121 q0 -103 -74 -170 q-79 -71 -212 -71 q-61 0 -102 23 q-41 23 -41 65 q0 24 15.5 42 q15.5 18 46.5 18 q36 0 98 -43.5 q62 -43.5 91 -43.5 q34 0 62 21 q38 29 38 83 q0 43 -31.5 79 q-31.5 36 -76.5 56 q-45 20 -100.5 29.5 q-55.5 9.5 -113.5 9.5 l97 345 l322 0 l-43 -127 l-278 0 Z" /><glyph glyph-name="six" unicode="6" d="M470 688 l0 -26 q-94 -19 -154 -67 q-82 -66 -112 -191 q29 12 43.5 14.5 q14.5 2.5 46.5 2.5 q69 0 116 -40 q65 -55 65 -170 q0 -69 -41 -132 q-60 -92 -177 -92 q-88 0 -148 58 q-81 78 -81 239 q0 149 108 259 q121 124 334 145 ZM323 156 q0 117 -16 164 q-19 56 -69 56 q-15 0 -25.5 -2.5 q-10.5 -2.5 -18.5 -10.5 q-1 -12 -2 -19 q-7 -55 -7 -71 q0 -151 15.5 -205 q15.5 -54 61.5 -54 q41 0 53 41 q8 27 8 101 Z" /><glyph glyph-name="seven" unicode="7" d="M477 676 l-235 -676 l-95 0 l200 539 l-207 0 q-32 0 -50 -10 q-34 -19 -48 -75 l-25 0 l44 222 l416 0 Z" /><glyph glyph-name="eight" unicode="8" d="M168 578 q0 -47 38 -89 q34 -38 92 -67 q22 29 29 46 q12 28 12 69 q0 50 -16 80 q-23 42 -73 42 q-35 0 -58.5 -24.5 q-23.5 -24.5 -23.5 -56.5 ZM266 688 q102 0 153 -51 q39 -39 39 -94 q0 -56 -47 -94 q-33 -27 -89 -45 q69 -41 107 -91 q43 -57 43 -123 q0 -93 -64 -148 q-64 -55 -171 -55 q-87 0 -145 42 q-64 46 -64 126 q0 72 50 117 q36 32 100 52 q-64 36 -98 77 q-41 50 -41 109 q0 76 53 124 q60 54 174 54 ZM149 157 q0 -58 24.5 -98 q24.5 -40 70.5 -40 q57 0 78 48 q11 26 11 69 q0 55 -41 99 q-24 26 -92 71 q-35 -52 -43 -80.5 q-8 -28.5 -8 -68.5 Z" /><glyph glyph-name="nine" unicode="9" d="M31 -13 l0 26 q93 19 152 66 q81 66 116 194 q-23 -12 -43.5 -15.5 q-20.5 -3.5 -48.5 -3.5 q-69 0 -116 40 q-65 55 -65 170 q0 69 41 132 q60 92 177 92 q88 0 148 -58 q81 -78 81 -239 q0 -149 -108 -259 q-121 -124 -334 -145 ZM178 519 q0 -117 17.5 -168.5 q17.5 -51.5 67.5 -51.5 q15 0 29 3.5 q14 3.5 15 10.5 q1 7 5 38.5 q4 31.5 4 50.5 q0 151 -15.5 205 q-15.5 54 -61.5 54 q-41 0 -53 -41 q-8 -27 -8 -101 Z" /><glyph glyph-name="at" unicode="@" d="M577 406 q0 65 -44 65 q-43 0 -87 -52 q-50 -60 -50 -143 q0 -43 17 -64 q17 -21 45 -21 q36 0 70 53 q39 62 49 162 ZM595 466 l11 40 l71 0 l-66 -260 q-2 -10 -2 -19 q0 -19 8.5 -33 q8.5 -14 29.5 -14 q55 0 93 70 q35 64 35 137 q0 97 -76 176 q-86 89 -215 89 q-120 0 -198 -85 q-86 -94 -86 -257 q0 -114 83.5 -198.5 q83.5 -84.5 210.5 -84.5 q48 0 91.5 9 q43.5 9 112.5 40 l13 -35 q-60 -29 -102 -42 q-58 -18 -114 -18 q-185 0 -294 117 q-93 99 -93 222 q0 163 112 269 q108 102 264 102 q143 0 240.5 -86.5 q97.5 -86.5 97.5 -216.5 q0 -89 -49 -162 q-56 -83 -142 -83 q-35 0 -59 19 q-33 26 -33 54 q-19 -24 -42 -42 q-40 -30 -79 -30 q-49 0 -74 34.5 q-25 34.5 -25 91.5 q0 76 49 153 q61 96 154 96 q26 0 40 -9 q14 -9 33 -44 Z" /><glyph glyph-name="A" unicode="A" d="M689 25 l0 -25 l-324 0 l0 25 q47 0 63.5 7.5 q16.5 7.5 16.5 31.5 q0 19 -17 64 q-7 19 -29 69 l-225 0 q-22 -57 -33 -88 q-11 -31 -11 -41 q0 -26 28 -36 q19 -7 54 -7 l0 -25 l-203 0 l0 25 q38 6 58 33 q14 19 40 84 l222 548 l28 0 l223 -526 q36 -86 53 -109 q22 -30 56 -30 ZM189 236 l195 0 l-101 243 l-94 -243 Z" /><glyph glyph-name="B" unicode="B" d="M264 343 l0 -250 q0 -33 14 -47 q14 -14 46 -14 q73 0 103 52 q20 35 20 98 q0 95 -52 134 q-36 27 -101 27 l-30 0 ZM264 597 l0 -224 q96 0 128 33 q28 29 28 111 q0 59 -21 91 q-25 38 -82 38 q-27 0 -40 -9.5 q-13 -9.5 -13 -39.5 ZM16 0 l0 25 q51 6 65 14 q23 14 23 57 l0 484 q0 45 -26 60 q-19 11 -62 11 l0 25 l309 0 q92 0 151 -21 q109 -39 109 -139 q0 -72 -61 -112 q-26 -17 -94 -38 q77 -15 126 -53 q63 -49 63 -127 q0 -74 -61 -124 q-75 -62 -220 -62 l-322 0 Z" /><glyph glyph-name="C" unicode="C" d="M657 152 l30 -25 q-63 -72 -118 -104 q-71 -42 -161 -42 q-168 0 -267 105 q-92 98 -92 246 q0 154 98.5 256.5 q98.5 102.5 255.5 102.5 q45 0 94 -16 q49 -16 99 -33 q18 0 29 13 q7 9 17 33 l27 0 l0 -234 l-25 0 q-31 77 -87 134 q-69 70 -146 70 q-101 0 -147 -97 q-38 -81 -38 -225 q0 -62 8.5 -118.5 q8.5 -56.5 34.5 -101.5 q21 -37 58 -59 q46 -28 94 -28 q63 0 116 26 q59 29 120 97 Z" /><glyph glyph-name="D" unicode="D" d="M14 0 l0 25 q44 0 63.5 18 q19.5 18 19.5 48 l0 493 q0 40 -27 55 q-14 8 -56 12 l0 25 l305 0 q192 0 290 -106 q81 -88 81 -222 q0 -150 -85 -243 q-96 -105 -275 -105 l-316 0 ZM259 595 l0 -502 q0 -32 11 -45 q11 -13 46 -13 q94 0 142 61 q58 74 58 242 q0 107 -33 186 q-50 118 -162 118 q-42 0 -55 -15 q-7 -8 -7 -32 Z" /><glyph glyph-name="E" unicode="E" d="M16 651 l0 25 l577 0 l0 -201 l-25 0 q-16 101 -72 137 q-47 30 -157 30 q-44 0 -58.5 -8 q-14.5 -8 -14.5 -39 l0 -232 q77 0 111 28 q40 33 51 121 l26 0 l0 -338 l-26 0 q-9 90 -46 122.5 q-37 32.5 -116 32.5 l0 -242 q0 -33 17.5 -44.5 q17.5 -11.5 66.5 -11.5 q89 0 145 31 q74 41 118 146 l28 0 l-40 -208 l-585 0 l0 25 q51 5 65 14 q23 14 23 57 l0 484 q0 45 -26 60 q-19 11 -62 11 Z" /><glyph glyph-name="F" unicode="F" d="M16 651 l0 25 l567 0 l0 -201 l-24 0 q-19 89 -54 122 q-48 45 -167 45 q-43 0 -57.5 -8 q-14.5 -8 -14.5 -39 l0 -232 q84 0 118 44 q21 28 35 105 l25 0 l0 -338 l-25 0 q-13 98 -49 126.5 q-36 28.5 -104 28.5 l0 -233 q0 -46 28 -60 q22 -11 82 -11 l0 -25 l-360 0 l0 25 q51 5 65 14 q23 14 23 57 l0 484 q0 45 -26 60 q-19 11 -62 11 Z" /><glyph glyph-name="G" unicode="G" d="M755 287 l0 -25 q-42 -5 -54 -10 q-32 -14 -32 -82 l0 -127 q-35 -25 -117.5 -43.5 q-82.5 -18.5 -152.5 -18.5 q-176 0 -275 110 q-87 97 -87 241 q0 151 96 253 q100 106 258 106 q45 0 94 -16 q49 -16 99 -33 q18 0 29 13 q7 9 17 33 l27 0 l0 -234 l-25 0 q-31 77 -87 134 q-69 70 -146 70 q-101 0 -147 -97 q-38 -80 -38 -227 q0 -154 50 -237 q50 -83 145 -83 q62 0 85 20 q19 16 19 53 l0 105 q0 45 -21.5 57.5 q-21.5 12.5 -79.5 12.5 l0 25 l343 0 Z" /><glyph glyph-name="H" unicode="H" d="M759 25 l0 -25 l-340 0 l0 25 q51 6 65 14 q25 15 25 57 l0 230 l-241 0 l0 -230 q0 -41 25 -56 q16 -9 65 -15 l0 -25 l-337 0 l0 25 q40 5 50 9 q35 13 35 62 l0 484 q0 43 -26 58 q-15 9 -59 13 l0 25 l337 0 l0 -25 q-43 0 -61 -10 q-29 -16 -29 -61 l0 -207 l241 0 l0 207 q0 35 -16 51 q-20 20 -74 20 l0 25 l340 0 l0 -25 q-41 0 -60 -11 q-28 -16 -28 -60 l0 -484 q0 -40 24 -55 q16 -10 64 -16 Z" /><glyph glyph-name="I" unicode="I" d="M370 25 l0 -25 l-350 0 l0 25 q63 6 78 21 q15 15 15 50 l0 484 q0 44 -29 60 q-20 11 -64 11 l0 25 l350 0 l0 -25 q-45 0 -65 -10 q-30 -15 -30 -61 l0 -484 q0 -43 27 -59 q21 -12 68 -12 Z" /><glyph glyph-name="J" unicode="J" d="M479 676 l0 -25 q-50 0 -66 -13 q-23 -18 -23 -79 l0 -436 q0 -123 -70 -177 q-54 -42 -148 -42 q-75 0 -119 35 q-50 40 -50 92 q0 38 22.5 57.5 q22.5 19.5 48.5 19.5 q23 0 44 -16 q28 -22 28 -59 q0 -20 -18 -42 q-9 -11 -9 -23 q0 -31 44 -31 q42 0 57 32 q8 17 8 55 l0 556 q0 46 -29 61 q-19 10 -72 10 l0 25 l352 0 Z" /><glyph glyph-name="K" unicode="K" d="M769 25 l0 -25 l-336 0 l0 25 q47 0 63 4 q16 4 16 17 q0 15 -24 44 l-182 227 l-27 -25 l0 -196 q0 -40 24 -55 q16 -10 64 -16 l0 -25 l-337 0 l0 25 q50 5 64 14 q23 14 23 57 l0 484 q0 34 -15 51 q-18 20 -72 20 l0 25 l338 0 l0 -25 q-48 0 -65 -13 q-24 -19 -24 -79 l0 -214 l217 218 q17 17 23 24 q13 15 13 31 q0 18 -16.5 25.5 q-16.5 7.5 -68.5 7.5 l0 25 l289 0 l0 -25 q-86 0 -173 -78 q-20 -18 -148 -149 l305 -378 q10 -13 21 -17 q11 -4 28 -4 Z" /><glyph glyph-name="L" unicode="L" d="M638 227 l-41 -227 l-578 0 l0 25 q50 6 64 15 q22 14 22 56 l0 484 q0 44 -26 60 q-18 11 -60 11 l0 25 l349 0 l0 -25 q-59 0 -77 -13 q-24 -17 -24 -79 l0 -472 q0 -35 18 -45.5 q18 -10.5 71 -10.5 q105 0 166 55 q47 42 87 141 l29 0 Z" /><glyph glyph-name="M" unicode="M" d="M921 25 l0 -25 l-332 0 l0 25 q44 4 54 8 q35 12 35 67 l0 504 l-252 -604 l-27 0 l-250 589 l-2 -465 q0 -55 20 -77 q20 -22 81 -22 l0 -25 l-234 0 l0 25 q59 5 75 20 q16 15 16 60 l0 475 q0 41 -18 56 q-18 15 -71 15 l0 25 l253 0 l200 -472 l200 472 l252 0 l0 -25 q-49 0 -65 -13 q-23 -19 -23 -79 l0 -442 q0 -56 19 -72 q15 -13 69 -20 Z" /><glyph glyph-name="N" unicode="N" d="M16 0 l0 25 q51 6 66 17 q22 16 22 63 l0 474 q-39 48 -58 62 q-14 10 -27 10 l0 25 l211 0 l347 -427 l2 303 q0 51 -16 72 q-20 27 -77 27 l0 25 l215 0 l0 -25 q-51 -6 -64.5 -23 q-13.5 -17 -13.5 -57 l0 -589 l-28 0 l-445 542 l-2 -400 q0 -54 19 -73.5 q19 -19.5 76 -25.5 l0 -25 l-227 0 Z" /><glyph glyph-name="O" unicode="O" d="M389 658 q-95 0 -141 -106 q-36 -83 -36 -216 q0 -164 45 -243 q45 -79 132 -79 q110 0 152 128 q25 76 25 194 q0 132 -36 216 q-45 106 -141 106 ZM389 691 q149 0 249 -95 q105 -100 105 -260 q0 -157 -100 -256 q-100 -99 -254 -99 q-155 0 -254.5 98.5 q-99.5 98.5 -99.5 256.5 q0 160 102 257.5 q102 97.5 252 97.5 Z" /><glyph glyph-name="P" unicode="P" d="M16 0 l0 25 q37 6 44.5 8 q7.5 2 13.5 6 q16 12 21 29.5 q5 17.5 5 48.5 l0 442 q0 57 -22 75 q-15 13 -62 17 l0 25 l322 0 q98 0 161 -28 q101 -45 101 -156 q0 -38 -15 -71 q-23 -50 -76 -80 q-44 -25 -93.5 -31.5 q-49.5 -6.5 -153.5 -6.5 l0 -186 q0 -57 18 -73 q13 -12 70 -19 l0 -25 l-334 0 ZM262 606 l0 -268 q94 0 128 29 q38 32 38 122 q0 84 -27.5 118 q-27.5 34 -90.5 34 q-48 0 -48 -35 Z" /><glyph glyph-name="Q" unicode="Q" d="M730 -117 l6 -24 q-51 -19 -94 -27 q-43 -8 -91 -8 q-88 0 -161 41 q-81 45 -117 133 q-114 34 -179 132 q-59 89 -59 193 q0 169 104 271 q99 97 250 97 q149 0 249 -95 q105 -100 105 -260 q0 -129 -69 -220.5 q-69 -91.5 -184 -121.5 q27 -63 77 -95 q44 -28 96 -28 q20 0 35 3 q22 6 32 9 ZM389 658 q-95 0 -141 -106 q-36 -83 -36 -216 q0 -164 45 -243 q45 -79 132 -79 q110 0 152 128 q25 76 25 194 q0 132 -36 216 q-45 106 -141 106 Z" /><glyph glyph-name="R" unicode="R" d="M276 600 l0 -255 q104 0 140 27 q43 32 43 126 q0 75 -29.5 109.5 q-29.5 34.5 -91.5 34.5 q-39 0 -48.5 -7.5 q-9.5 -7.5 -13.5 -34.5 ZM715 25 l0 -25 l-205 0 l-207 313 l-27 0 l0 -196 q0 -56 19 -72 q15 -13 69 -20 l0 -25 l-338 0 l0 25 q56 7 69 18 q19 17 19 74 l0 442 q0 60 -22 78 q-17 14 -66 14 l0 25 l322 0 q138 0 210 -45.5 q72 -45.5 72 -130.5 q0 -80 -58 -125 q-32 -25 -99 -46 l201 -285 q9 -12 19 -15.5 q10 -3.5 22 -3.5 Z" /><glyph glyph-name="S" unicode="S" d="M484 475 l-28 0 q-18 68 -60 118 q-57 67 -136 67 q-43 0 -75 -24.5 q-32 -24.5 -32 -70.5 q0 -40 20.5 -63.5 q20.5 -23.5 82.5 -54.5 l147 -73 q38 -19 67 -57 q43 -56 43 -127 q0 -79 -55 -137 q-68 -72 -193 -72 q-48 0 -88.5 11 q-40.5 11 -82.5 23 q-14 0 -20 -9.5 q-6 -9.5 -10 -24.5 l-29 0 l0 247 l29 0 q18 -90 62 -145 q55 -69 143 -69 q60 0 92.5 31.5 q32.5 31.5 32.5 80.5 q0 45 -31 74 q-21 19 -81 48 l-67 32 q-111 53 -149 120 q-22 39 -22 94 q0 95 67 150 q58 47 154 47 q47 0 98.5 -16.5 q51.5 -16.5 57.5 -16.5 q18 0 26 15 q4 7 7 19 l30 0 l0 -217 Z" /><glyph glyph-name="T" unicode="T" d="M513 25 l0 -25 l-357 0 l0 25 q59 0 76 14 q21 17 21 78 l0 527 q-75 0 -115 -24 q-65 -39 -78 -145 l-29 0 l3 201 l600 0 l2 -201 l-29 0 q-13 105 -77 144 q-41 25 -115 25 l0 -527 q0 -61 21 -78 q17 -14 77 -14 Z" /><glyph glyph-name="U" unicode="U" d="M701 676 l0 -25 q-45 -7 -59 -20 q-19 -18 -19 -65 l0 -319 q0 -52 -12 -101 q-15 -61 -44 -92 q-35 -38 -94 -57 q-49 -16 -103 -16 q-49 0 -93 10 q-67 15 -110 53 q-37 33 -51 64 q-18 41 -18 117 l0 334 q0 57 -20 75 q-13 12 -62 17 l0 25 l338 0 l0 -25 q-56 0 -73 -13 q-24 -18 -24 -79 l0 -334 q0 -103 35.5 -149 q35.5 -46 108.5 -46 q114 0 155 84 q23 47 23 133 l0 305 q0 52 -16 72 q-21 27 -82 27 l0 25 l220 0 Z" /><glyph glyph-name="V" unicode="V" d="M701 676 l0 -25 q-40 -5 -56 -21 q-16 -16 -34 -61 l-228 -587 l-27 0 l-256 599 q-19 43 -33 53.5 q-14 10.5 -51 16.5 l0 25 l336 0 l0 -25 q-52 0 -69 -7 q-17 -7 -17 -35 q0 -11 12.5 -42.5 q12.5 -31.5 17.5 -43.5 l131 -316 l127 329 q9 22 14.5 39 q5.5 17 5.5 30 q0 46 -86 46 l0 25 l213 0 Z" /><glyph glyph-name="W" unicode="W" d="M981 676 l0 -25 q-26 -2 -43 -18.5 q-17 -16.5 -26 -45.5 l-200 -602 l-27 0 l-168 468 l-7 0 l-182 -468 l-28 0 l-212 602 q-13 37 -25 48 q-12 11 -44 16 l0 25 l294 0 l0 -25 q-31 0 -47.5 -8.5 q-16.5 -8.5 -16.5 -33.5 q0 -6 2 -15 q2 -9 5 -18 l119 -361 l119 305 l-35 96 q-14 24 -29.5 29.5 q-15.5 5.5 -42.5 5.5 l0 25 l312 0 l0 -25 q-37 0 -54.5 -7 q-17.5 -7 -17.5 -31 q0 -8 2 -17 q6 -19 12 -38 l107 -333 l113 340 q1 4 4 16.5 q3 12.5 3 25.5 q0 28 -18.5 36 q-18.5 8 -50.5 8 l0 25 l182 0 Z" /><glyph glyph-name="X" unicode="X" d="M688 676 l0 -25 q-66 -6 -109 -48 q-35 -34 -159 -209 l182 -283 q37 -57 58 -74 q15 -12 39 -12 l0 -25 l-340 0 l0 25 q44 0 62 6 q18 6 18 26 q0 8 -6 23 q-6 15 -15 29 l-101 162 l-38 -51 q-58 -78 -78 -111 q-16 -27 -16 -42 q0 -23 27 -33 q15 -6 54 -9 l0 -25 l-250 0 l0 25 q35 5 51 12 q28 12 53 44 l175 221 l-198 291 q-17 25 -23 32 q-23 26 -57 26 l0 25 l346 0 l0 -25 q-47 0 -63 -6 q-16 -6 -16 -27 q0 -14 15 -37 l97 -150 q90 124 100 141 q14 23 14 44 q0 22 -17.5 28.5 q-17.5 6.5 -54.5 6.5 l0 25 l250 0 Z" /><glyph glyph-name="Y" unicode="Y" d="M699 676 l0 -25 q-30 -5 -43.5 -13 q-13.5 -8 -24.5 -26 l-191 -311 l0 -184 q0 -58 19 -74 q15 -12 73 -18 l0 -25 l-347 0 l0 25 q58 6 72 17 q21 17 21 75 l0 147 l-183 332 q-9 16 -13 21 q-28 34 -67 34 l0 25 l335 0 l0 -25 q-52 0 -66.5 -6 q-14.5 -6 -14.5 -28 q0 -9 10 -28.5 q10 -19.5 14 -27.5 l120 -232 l111 185 q12 18 22 40 q17 36 17 53 q0 26 -22 35 q-22 9 -62 9 l0 25 l220 0 Z" /><glyph glyph-name="Z" unicode="Z" d="M634 241 l-26 -241 l-580 0 l0 16 l382 625 q-122 0 -144.5 -2.5 q-22.5 -2.5 -57.5 -12.5 q-49 -15 -82 -67 q-17 -27 -39 -89 l-28 0 l21 206 l524 0 l0 -16 l-379 -625 q144 0 187 6 q80 11 123 52 q48 45 73 148 l26 0 Z" /><glyph glyph-name="asciicircum" unicode="^" d="M162 311 l-89 0 l178 365 l80 0 l178 -365 l-89 0 l-129 272 l-129 -272 Z" /><glyph glyph-name="underscore" unicode="_" d="M500 -125 l-500 0 l0 50 l500 0 l0 -50 Z" /><glyph glyph-name="grave" unicode="`" d="M246 528 l-56 0 l-142 88 q-20 12 -30 24 q-10 12 -10 29 q0 20 15 32 q15 12 34 12 q15 0 28.5 -8 q13.5 -8 23.5 -20 l137 -157 Z" /><glyph glyph-name="a" unicode="a" d="M473 64 l15 -21 q-23 -27 -50 -42 q-27 -15 -60 -15 q-46 0 -66 24 q-11 13 -18 46 q-42 -42 -95 -59 q-34 -11 -64 -11 q-42 0 -73 25 q-37 30 -37 82 q0 70 81 116 q52 30 188 71 l0 73 q0 43 -16 63 q-20 25 -72 25 q-25 0 -42 -11.5 q-17 -11.5 -17 -24.5 q0 -8 15 -27 q15 -19 15 -41 q0 -26 -22 -43 q-17 -13 -45 -13 q-32 0 -49 17 q-17 17 -17 51 q0 51 47 86 q51 38 140 38 q89 0 144.5 -34.5 q55.5 -34.5 55.5 -102.5 l0 -261 q0 -10 3.5 -17.5 q3.5 -7.5 18.5 -7.5 q6 0 10 4 l10 10 ZM293 100 l0 145 q-55 -12 -88.5 -44.5 q-33.5 -32.5 -33.5 -76.5 q0 -26 13 -46.5 q13 -20.5 38 -20.5 q23 0 43 15 q10 7 28 28 Z" /><glyph glyph-name="b" unicode="b" d="M17 652 l0 24 l194 0 l0 -259 q21 22 41 34 q37 22 81 22 q84 0 136 -66 q52 -66 52 -166 q0 -106 -54 -175 q-63 -80 -179 -80 q-29 0 -57 11 q-35 14 -68 46 l-79 -56 l-12 0 l0 607 q0 26 -8 38 q-8 12 -47 20 ZM211 360 l0 -263 q0 -29 13 -50 q18 -29 55 -29 q47 0 71 47 q24 47 24 161 q0 75 -13 118 q-23 75 -80 75 q-30 0 -49 -21 q-10 -11 -21 -38 Z" /><glyph glyph-name="c" unicode="c" d="M412 109 l18 -18 q-36 -50 -84.5 -77.5 q-48.5 -27.5 -106.5 -27.5 q-94 0 -154 67 q-60 67 -60 162 q0 134 82 203 q65 55 154 55 q59 0 104 -27 q51 -31 51 -82 q0 -32 -19 -48 q-19 -16 -49 -16 q-29 0 -42.5 18.5 q-13.5 18.5 -13.5 84.5 q0 20 -13 29.5 q-13 9.5 -28 9.5 q-39 0 -62 -43 q-23 -43 -23 -125 q0 -102 39 -161.5 q39 -59.5 100 -59.5 q38 0 66 18 q17 11 41 38 Z" /><glyph glyph-name="d" unicode="d" d="M534 43 l0 -23 q-93 -11 -123 -16 q-30 -5 -72 -17 l0 65 q-33 -35 -54 -47 q-33 -19 -85 -19 q-68 0 -119 60 q-56 65 -56 170 q0 123 61 194 q54 63 132 63 q32 0 57.5 -12 q25.5 -12 60.5 -50 l0 183 q0 38 -15.5 48 q-15.5 10 -60.5 10 l0 24 l215 0 l0 -575 q0 -27 8 -39 q13 -19 51 -19 ZM336 112 l0 243 q-10 21 -18 31 q-25 31 -60 31 q-49 0 -69 -57 q-16 -45 -16 -130 q0 -75 10 -115 q18 -73 70 -73 q30 0 59 31 q24 26 24 39 Z" /><glyph glyph-name="e" unicode="e" d="M164 282 l134 0 q0 39 -1.5 64.5 q-1.5 25.5 -7.5 47.5 q-6 22 -16 33 q-14 15 -38 15 q-33 0 -49 -28 q-22 -38 -22 -132 ZM402 125 l24 -14 q-45 -69 -90.5 -97 q-45.5 -28 -107.5 -28 q-83 0 -139 58 q-64 67 -64 187 q0 108 59 175 q59 67 147 67 q88 0 136 -57 q54 -64 54 -171 l-252 0 q0 -77 24 -125 q31 -62 96 -62 q30 0 55.5 14.5 q25.5 14.5 57.5 52.5 Z" /><glyph glyph-name="f" unicode="f" d="M14 0 l0 24 q32 4 41 11 q16 13 16 49 l0 333 l-57 0 l0 44 l57 0 q0 105 23 151 q40 79 159 79 q52 0 91 -24 q45 -28 45 -76 q0 -27 -16.5 -44.5 q-16.5 -17.5 -46.5 -17.5 q-29 0 -44 17.5 q-15 17.5 -15 36.5 q0 14 11 33 q11 19 11 25 q0 10 -9 14.5 q-9 4.5 -21 4.5 q-31 0 -42 -28 q-7 -18 -7 -49 l0 -122 l87 0 l0 -44 l-87 0 l0 -314 q0 -51 15.5 -65 q15.5 -14 66.5 -14 l0 -24 l-278 0 Z" /><glyph glyph-name="g" unicode="g" d="M482 398 l-81 0 q15 -15 23 -30 q17 -31 17 -69 q0 -48 -26 -83.5 q-26 -35.5 -79 -52.5 q-23 -7 -52.5 -8 q-29.5 -1 -73.5 -1 q-17 0 -36.5 -14.5 q-19.5 -14.5 -19.5 -35.5 q0 -24 19 -30 q19 -6 81 -6 l65 -1 q60 0 100 -19 q64 -30 64 -103 q0 -85 -81 -122 q-63 -29 -176 -29 q-93 0 -145.5 24 q-52.5 24 -52.5 67 q0 30 25 50.5 q25 20.5 67 24.5 q-43 17 -56 29 q-22 20 -22 56 q0 42 42 76 q33 26 75 38 q-58 23 -90 62 q-32 39 -32 93 q0 64 51 109 q57 50 154 50 q27 0 54 -5 q27 -5 56 -17 l130 0 l0 -53 ZM324 -52 l-173 0 q-35 -28 -35 -56 q0 -41 54 -57 q30 -9 68 -9 q65 0 98 8 q68 16 68 63 q0 51 -80 51 ZM174 311 q0 -64 10 -90 q15 -39 56 -39 q41 0 56 43 q10 29 10 86 q0 55 -8 82 q-15 49 -58 49 q-41 0 -56 -42 q-10 -28 -10 -89 Z" /><glyph glyph-name="h" unicode="h" d="M534 24 l0 -24 l-235 0 l0 24 q47 4 47 57 l0 242 q0 35 -7 52 q-13 31 -48 31 q-26 0 -54.5 -24 q-28.5 -24 -28.5 -34 l0 -267 q0 -23 7 -35 q11 -19 42 -22 l0 -24 l-241 0 l0 24 q31 6 40 14 q13 12 13 46 l0 510 q0 33 -10 42 q-10 9 -43 16 l0 24 l192 0 l0 -281 q36 42 70 60 q34 18 73 18 q51 0 87 -29 q47 -38 47 -112 l0 -248 q0 -23 6 -36 q11 -24 43 -24 Z" /><glyph glyph-name="i" unicode="i" d="M255 24 l0 -24 l-239 0 l0 24 q32 8 40 15 q13 12 13 45 l0 294 q0 32 -10.5 42.5 q-10.5 10.5 -42.5 16.5 l0 24 l192 0 l0 -380 q0 -27 9 -40.5 q9 -13.5 38 -16.5 ZM60 613 q0 32 22 55 q22 23 56 23 q32 0 54.5 -22.5 q22.5 -22.5 22.5 -55.5 q0 -33 -22 -55 q-22 -22 -55 -22 q-34 0 -56 22 q-22 22 -22 55 Z" /><glyph glyph-name="j" unicode="j" d="M260 461 l0 -459 q0 -106 -45.5 -155.5 q-45.5 -49.5 -138.5 -49.5 q-49 0 -87 23 q-46 28 -46 79 q0 23 16 41 q16 18 46 18 q28 0 45 -19 q14 -16 14 -35 q0 -11 -7 -25 q-16 -32 -16 -34 q0 -9 16 -14 q5 -1 16 -3 q28 0 38 20 q10 20 10 56 l0 474 q0 37 -18 49 q-11 7 -45 10 l0 24 l202 0 ZM108 613 q0 33 21.5 55.5 q21.5 22.5 55.5 22.5 q32 0 55 -23 q23 -23 23 -55 q0 -33 -23 -55 q-23 -22 -55 -22 q-35 0 -56 22 q-21 22 -21 55 Z" /><glyph glyph-name="k" unicode="k" d="M513 461 l0 -23 q-33 -6 -50 -12 q-17 -6 -38.5 -23.5 q-21.5 -17.5 -47.5 -41.5 q-35 -33 -53 -54 l194 -268 q11 -15 25 -15 l0 -24 l-234 0 l0 24 q16 0 29 4 q13 4 13 15 q0 7 -7 19.5 q-7 12.5 -17 25.5 l-95 134 l-23 -24 l0 -114 q0 -34 8.5 -44.5 q8.5 -10.5 43.5 -15.5 l0 -24 l-239 0 l0 24 q27 0 39 21 q9 15 9 39 l0 510 q0 28 -12 43 q-12 15 -36 15 l0 24 l187 0 l0 -431 l128 128 q8 8 14.5 19 q6.5 11 6.5 17 q0 14 -10.5 18.5 q-10.5 4.5 -48.5 10.5 l0 23 l214 0 Z" /><glyph glyph-name="l" unicode="l" d="M255 24 l0 -24 l-239 0 l0 24 q26 0 40 21 q11 17 11 39 l0 510 q0 27 -13.5 42.5 q-13.5 15.5 -37.5 15.5 l0 24 l190 0 l0 -592 q0 -27 10.5 -43.5 q10.5 -16.5 38.5 -16.5 Z" /><glyph glyph-name="m" unicode="m" d="M814 24 l0 -24 l-238 0 l0 24 q33 0 43 19 q6 11 6 38 l0 242 q0 38 -6 53 q-12 30 -48 30 q-28 0 -58 -26 q-26 -22 -26 -32 l0 -267 q0 -27 10.5 -42 q10.5 -15 36.5 -15 l0 -24 l-234 0 l0 24 q31 0 42 20 q6 11 6 37 l0 242 q0 38 -6 53 q-12 30 -49 30 q-28 0 -58 -26 q-25 -22 -25 -32 l0 -267 q0 -27 9 -40.5 q9 -13.5 37 -16.5 l0 -24 l-240 0 l0 24 q31 6 40 13 q15 12 15 47 l0 294 q0 35 -16 47 q-10 8 -39 12 l0 24 l191 0 l0 -72 q21 32 46 51 q43 33 98 33 q60 0 94 -31 q19 -17 37 -56 q33 44 69.5 65.5 q36.5 21.5 78.5 21.5 q51 0 87 -29 q47 -38 47 -112 l0 -251 q0 -27 6 -38 q10 -19 44 -19 Z" /><glyph glyph-name="n" unicode="n" d="M539 24 l0 -24 l-235 0 l0 24 q47 4 47 57 l0 242 q0 35 -7 52 q-13 31 -48 31 q-26 0 -54.5 -24 q-28.5 -24 -28.5 -34 l0 -267 q0 -23 7 -35 q11 -19 42 -22 l0 -24 l-241 0 l0 24 q31 6 40 14 q13 12 13 46 l0 294 q0 33 -10.5 43.5 q-10.5 10.5 -42.5 15.5 l0 24 l191 0 l0 -72 q21 32 46 51 q43 33 98 33 q51 0 87 -29 q47 -38 47 -112 l0 -251 q0 -26 6 -37 q11 -20 43 -20 Z" /><glyph glyph-name="o" unicode="o" d="M172 229 q0 -106 10 -146 q17 -66 70 -66 q47 0 64 58 q13 45 13 154 q0 118 -16.5 165.5 q-16.5 47.5 -61.5 47.5 q-50 0 -67 -63 q-12 -45 -12 -150 ZM25 229 q0 100 62.5 172 q62.5 72 163.5 72 q98 0 161.5 -69.5 q63.5 -69.5 63.5 -174.5 q0 -102 -62.5 -172.5 q-62.5 -70.5 -162.5 -70.5 q-102 0 -164 70.5 q-62 70.5 -62 172.5 Z" /><glyph glyph-name="p" unicode="p" d="M214 346 l0 -243 q9 -20 17 -30 q25 -31 60 -31 q53 0 73 69 q12 42 12 112 q0 88 -11 128 q-18 65 -67 65 q-30 0 -59 -29 q-25 -25 -25 -41 ZM292 -184 l0 -21 l-273 0 l0 24 q34 5 45 16 q11 11 11 42 l0 501 q0 30 -10 42.5 q-10 12.5 -44 16.5 l0 24 l191 0 l0 -66 q20 34 41 51 q35 27 88 27 q72 0 123 -54 q60 -64 60 -177 q0 -119 -55.5 -187 q-55.5 -68 -136.5 -68 q-29 0 -53.5 10.5 q-24.5 10.5 -64.5 49.5 l0 -141 q0 -55 21 -74 q17 -16 57 -16 Z" /><glyph glyph-name="q" unicode="q" d="M342 98 l0 263 q0 33 -17 56.5 q-17 23.5 -50 23.5 q-55 0 -78 -70 q-17 -51 -17 -133 q0 -198 94 -198 q33 0 54 29 q6 9 14 29 ZM536 -181 l0 -24 l-267 0 l0 25 q46 8 57 19 q16 15 16 64 l0 139 q-28 -31 -64 -45 q-28 -11 -55 -11 q-82 0 -132 57 q-57 65 -57 187 q0 97 57 166 q64 77 170 77 q36 0 69 -16 q26 -13 58 -41 l78 56 l15 0 l0 -595 q0 -32 14 -44 q9 -8 41 -14 Z" /><glyph glyph-name="r" unicode="r" d="M295 24 l0 -24 l-266 0 l0 24 q30 6 39 13 q15 13 15 47 l0 294 q0 35 -15 47 q-10 8 -39 12 l0 24 l189 0 l0 -79 q29 39 50 57 q40 34 83 34 q45 0 67 -30 q16 -21 16 -48 q0 -25 -13 -43 q-17 -24 -51 -24 q-32 0 -61 40 q-14 19 -28 19 q-25 0 -44 -32 q-15 -26 -15 -63 l0 -189 q0 -47 14 -63 q14 -16 59 -16 Z" /><glyph glyph-name="s" unicode="s" d="M340 326 l-25 0 q-16 54 -48 84 q-32 30 -76 30 q-26 0 -45 -17 q-19 -17 -19 -40 q0 -43 117 -98 q117 -55 117 -145 q0 -72 -43 -113 q-43 -41 -114 -41 q-23 0 -58 9.5 q-35 9.5 -69 19.5 q-13 0 -27 -28 l-25 0 l0 165 l28 0 q14 -65 49.5 -98.5 q35.5 -33.5 91.5 -33.5 q35 0 53 20 q18 20 18 46 q0 37 -61 69 q-111 58 -115 61 q-62 45 -62 110 q0 65 45 106 q45 41 114 41 q26 0 52 -7 q26 -7 55 -15 q17 0 25 20 l22 0 l0 -145 Z" /><glyph glyph-name="t" unicode="t" d="M305 461 l0 -44 l-94 0 l0 -301 q0 -24 4 -34 q9 -23 35 -23 q16 0 28 10 q12 10 29 42 l25 -11 q-24 -49 -47 -72 q-40 -40 -100 -40 q-69 0 -97 44 q-16 26 -16 61 l0 324 l-52 0 l0 27 q45 38 77 73 q41 45 89 113 l25 0 l0 -169 l94 0 Z" /><glyph glyph-name="u" unicode="u" d="M537 43 l0 -23 q-84 -9 -100 -11 q-47 -6 -94 -22 l0 65 q-35 -30 -56 -42 q-42 -24 -86 -24 q-71 0 -106 43 q-30 37 -30 97 l0 252 q0 31 -9 42.5 q-9 11.5 -40 16.5 l0 24 l188 0 l0 -339 q0 -32 7 -46 q12 -25 49 -25 q25 0 48 15 q14 9 34 29 l0 283 q0 37 -18 49 q-10 7 -44 10 l0 24 l201 0 l0 -360 q0 -30 12 -44 q12 -14 44 -14 Z" /><glyph glyph-name="v" unicode="v" d="M485 461 l0 -24 q-22 -3 -30 -9 q-14 -11 -28 -46 l-160 -396 l-26 0 l-120 296 q-14 36 -35 80 q-12 26 -21.5 44.5 q-9.5 18.5 -17 23 q-7.5 4.5 -26.5 7.5 l0 24 l250 0 l0 -24 q-29 -3 -31 -3 q-22 -5 -22 -24 q0 -2 0 -4 q1 -5 9 -26 l79 -203 l72 182 q11 27 11 45 q0 21 -15 27 q-15 6 -40 6 l0 24 l151 0 Z" /><glyph glyph-name="w" unicode="w" d="M707 461 l0 -24 q-18 -4 -26 -10 q-12 -10 -24 -40 l-155 -401 l-23 0 l-100 303 l-5 0 l-122 -303 l-24 0 l-148 374 q-20 51 -28.5 62 q-8.5 11 -28.5 15 l0 24 l222 0 l0 -24 q-17 -2 -27.5 -7.5 q-10.5 -5.5 -10.5 -22.5 q0 -11 13 -46 q40 -102 71 -185 l68 171 l-21 66 q-5 12 -11 16.5 q-6 4.5 -33 7.5 l0 24 l234 0 l0 -24 q-24 0 -36 -5 q-12 -5 -12 -20 q0 -10 14 -61 q45 -163 46 -168 q27 71 37 96 q43 109 43 121 q0 22 -11 28 q-11 6 -37 9 l0 24 l135 0 Z" /><glyph glyph-name="x" unicode="x" d="M484 24 l0 -24 l-241 0 l0 24 q20 0 32.5 4.5 q12.5 4.5 12.5 16.5 q0 12 -18 41 q-1 2 -19 28 q-18 26 -38 57 q-26 -31 -47 -61 q-33 -46 -33 -60 q0 -13 11.5 -19.5 q11.5 -6.5 38.5 -6.5 l0 -24 l-169 0 l0 24 q33 4 57.5 27.5 q24.5 23.5 120.5 149.5 l-128 197 q-23 35 -52 39 l0 24 l250 0 l0 -24 q-20 0 -33.5 -4.5 q-13.5 -4.5 -13.5 -15.5 q0 -11 30 -56 q24 -37 41 -58 q32 41 55 72 q19 26 19 37 q0 15 -10.5 20 q-10.5 5 -40.5 5 l0 24 l168 0 l0 -24 q-44 -6 -70 -39 l-101 -126 l148 -228 q6 -9 12.5 -13 q6.5 -4 17.5 -7 Z" /><glyph glyph-name="y" unicode="y" d="M480 461 l0 -24 q-22 -3 -30 -9 q-15 -11 -28 -46 l-149 -397 q-34 -90 -49 -118 q-39 -72 -116 -72 q-44 0 -70 27 q-22 23 -22 51 q0 21 10 37 q17 28 56 28 q31 0 45 -18 q11 -14 11 -33 q-3 -14 -3 -18 q0 -17 17 -17 q22 0 43 32 q14 21 23 50 l18 53 l-120 295 q-14 36 -35 80 q-12 26 -21.5 44.5 q-9.5 18.5 -17 23 q-7.5 4.5 -26.5 7.5 l0 24 l250 0 l0 -24 q-32 0 -42.5 -6.5 q-10.5 -6.5 -10.5 -20.5 q0 -9 8.5 -29.5 q8.5 -20.5 11.5 -28.5 l72 -185 l68 192 q8 22 8 23 q3 11 3 22 q0 21 -15 27 q-15 6 -40 6 l0 24 l151 0 Z" /><glyph glyph-name="z" unicode="z" d="M420 160 l-16 -160 l-383 0 l0 25 l234 404 q-100 0 -130 -14 q-43 -20 -61 -96 l-26 0 l7 142 l371 0 l0 -26 l-231 -403 q21 0 31 0 q26 0 47.5 2 q21.5 2 38.5 8 q37 14 63 55 q20 30 27 63 l28 0 Z" /><glyph glyph-name="uni3001" unicode="&#x3001;" d="M284 -4 q4 -15 4 -28 q0 -23 -13.5 -34.5 q-13.5 -11.5 -31.5 -11.5 q-16 0 -31 8.5 q-15 8.5 -21 21.5 q-25 55 -56 87 q-27 20 -53 41 q2 9 25 9 q46 0 101 -24 q65 -29 76 -69 Z" /><glyph glyph-name="emdash" unicode="&#x2014;&#x2015;" d="M1015 322 l-1011 0 l0 30 l1011 0 l0 -30 Z" /><glyph glyph-name="uni634C" unicode="&#x634c;" d="M236 566 q23 22 37 36 q14 14 27 14 q12 0 25 -13 q40 -40 40 -55 q0 -16 -35 -16 l-94 0 l0 -140 q80 46 105 56 q8 -1 16 -1 q-8 -23 -43 -61 q-26 -29 -78 -76 l0 -299 q0 -58 -17 -92 q-25 -49 -81 -49 q-21 0 -29 5.5 q-8 5.5 -8 15.5 q3 18 3 27 q0 11 -5 17 q-9 12 -39 30 q-56 33 -57 36 q-1 2 2 3 q3 1 7 1 q10 0 46 -6 q36 -6 50 -6 q7 0 9 1 q10 3 13.5 12 q3.5 9 3.5 22 q-1 12 -1 15 l0 178 l-44 -38 q-2 -12 -3 -23 q-1 -11 -12 -14 q-11 -3 -31 66 q-8 35 -16 71 q20 8 50 22 q30 14 56 28 l0 199 l-89 0 l-27 33 l116 0 l0 259 q43 -2 64 -4 q65 -6 65 -16 q0 -10 -17 -22 q-3 -2 -9 -5 l0 -211 ZM838 610 q4 -5 -6.5 -12 q-10.5 -7 -22.5 -15 l0 -451 q0 -19 -18.5 -32.5 q-18.5 -13.5 -40.5 -13.5 q-36 0 -40 31 l0 522 q28 -2 57 -4 q58 -11 71 -25 ZM982 770 q0 -8 -12 -18 q-4 -3 -12 -8 l0 -733 q0 -72 -28 -106 q-23 -28 -64 -28 q-21 0 -27.5 4.5 q-6.5 4.5 -6.5 14.5 q3 17 3 26 q0 8 -5 16 q-12 16 -65 46 q-24 13 -25 18 q10 1 20 2 q37 -5 75 -10 q8 0 11 1 q10 3 13 13 q3 10 3 17 q-1 13 -1 16 l0 748 q40 -2 60 -3 q61 -6 61 -16 ZM476 707 l0 -227 l93 0 l0 227 l-93 0 ZM469 739 l92 0 q11 12 24 22 q19 15 29 15 q11 0 43 -31.5 q32 -31.5 34 -42.5 q1 -7 -11 -25 q-4 -6 -13 -17 l0 -224 q0 -18 -18.5 -32.5 q-18.5 -14.5 -39.5 -14.5 q-16 0 -26.5 8.5 q-10.5 8.5 -13.5 29.5 l0 21 l-93 0 q1 -11 -1.5 -19 q-2.5 -8 -10.5 -17 q33 0 66.5 -5 q33.5 -5 36.5 -12 q5 -11 -11 -21 q-10 -6 -20 -12 l-8 -55 l20 0 q12 8 36.5 17.5 q24.5 9.5 30.5 8.5 q18 -4 42.5 -23 q24.5 -19 38.5 -38 q3 -4 -15 -16.5 q-18 -12.5 -18 -18.5 q-1 -1 -1 -14 q0 -9 0 -20 q0 -11 1 -24 q0 -35 -1.5 -57 q-1.5 -22 -7.5 -53 q-19 -100 -63 -154 q-32 -40 -70 -47 q-9 -2 -24 -2 q-29 0 -29 29 q0 5 2 23 q2 16 -36 34 q-18 11 -35 22 q2 3 11 3 q8 0 51 -7 q24 -4 31 -4 q7 0 9 1 q23 11 38 54 q10 29 18 82 q5 36 7.5 71.5 q2.5 35.5 2.5 64.5 q0 19 -1 25 l-8 11 l-35 0 q-5 -31 -12.5 -64 q-7.5 -33 -20.5 -68 q-34 -97 -114 -183 q-68 -73 -97 -73 q24 25 68 110 q50 96 71 227 l6 51 l-63 0 l-27 32 l93 0 l3 80 q-4 -1 -13 -1 q-17 0 -29 7.5 q-12 7.5 -12 24.5 l0 362 q16 -2 44 -14 q28 -12 49 -27 Z" /><glyph glyph-name="uni516B" unicode="&#x516b;" d="M983 7 q5 -6 5 -11 q0 -8 -20.5 -10.5 q-20.5 -2.5 -23.5 -4.5 q-2 -1 -53 -68 q-21 -28 -35 -28 q-5 0 -10 3 q-18 13 -55 72 q-48 78 -88 174 q-52 126 -84 268 q-16 71 -25 151 q-9 80 -9 137 q-1 19 -1 27 q0 5 3.5 20.5 q3.5 15.5 14.5 27.5 q16 17 31 19 q10 1 47.5 -33 q37.5 -34 31.5 -49 q-4 -11 -49 -23 q-14 -3 -44 -9 q14 -87 18 -102 q8 -30 46.5 -130 q38.5 -100 111.5 -206 q54 -78 122 -154 q33 -36 66 -71 ZM489 702 q0 -10 -17.5 -22 q-17.5 -12 -17.5 -13 q-6 -38 -12 -75 q-17 -95 -42 -173 q-37 -115 -100 -229 q-58 -105 -157 -211 q-91 -97 -117 -94 q15 30 30 59 q68 94 104 155 q69 118 100 228 q35 127 50 236 q10 74 10 135 q0 15 0 23.5 q0 8.5 -1 12.5 q0 6 23 6 q39 0 93 -12.5 q54 -12.5 54 -25.5 Z" /><glyph glyph-name="uni7ED1" unicode="&#x7ed1;" d="M358 154 q-19 -33 -143 -104 q-62 -35 -123 -70 q-2 -1 -4 -11 q-5 -23 -13 -29 q-12 27 -23 53 q-12 55 -12 92 q0 15 4 15 q61 6 173.5 35.5 q112.5 29.5 130.5 29.5 q7 0 9 -1 q5 -2 1 -10 ZM664 241 l0 158 q-6 -7 -29 -7 l-92 0 q0 -28 -3.5 -67.5 q-3.5 -39.5 -13.5 -97.5 l25 0 q9 0 30 24 q21 24 37 24 q13 0 25 -12 l21 -22 ZM664 561 l-121 0 l0 -137 q6 0 37 34 q14 16 27 16 q11 0 24 -13 q10 -10 20 -22.5 q10 -12.5 13 -19.5 l0 142 ZM841 685 l-74 0 l0 -561 q10 0 20 -0.5 q10 -0.5 20 -0.5 q20 0 31 3 q24 7 35.5 25.5 q11.5 18.5 11.5 44.5 q0 58 -46 146 q-38 72 -57 89 q-1 1 37 116.5 q38 115.5 35 120.5 l-13 17 ZM760 717 l68 0 q9 9 33 21 q24 12 32 11 q17 0 55 -38 q38 -38 33 -48 q-7 -15 -29 -21 q-22 -6 -23 -10 q-2 -8 -62 -104 q-60 -96 -57 -98 q18 -10 54 -42 q45 -41 68.5 -76.5 q23.5 -35.5 35 -70.5 q11.5 -35 11.5 -63 q0 -63 -43.5 -101.5 q-43.5 -38.5 -101.5 -38.5 q-18 0 -26.5 24.5 q-8.5 24.5 -11.5 25.5 q-4 5 -12 9 q-8 4 -17 6 l0 -178 q0 -20 -19.5 -34.5 q-19.5 -14.5 -43.5 -14.5 q-16 0 -27 9 q-11 9 -13 28 l0 283 l-16 -1 l-128 0 q-8 -40 -17 -70.5 q-9 -30.5 -23 -57.5 q-36 -70 -103 -131 q-54 -49 -77 -54 q13 14 53 81 q46 76 69 183 q3 12 5 26.5 q2 14.5 3 22.5 l-109 0 l-26 32 l140 0 q2 20 4 62.5 q2 42.5 2 77.5 q0 19 0 25 l-70 0 l-25 32 l95 0 l0 137 l-71 0 q12 -11 11 -16 q-2 -10 -13.5 -11.5 q-11.5 -1.5 -19.5 -1.5 q-10 -22 -76 -92 q-83 -88 -152 -129 l245 24 l-3 -16 l-242 -122 q-3 -1 -7 -16 q-4 -15 -14 -17 q-13 -4 -40 36 q-27 40 -32 72 q-2 13 13 22 q9 5 29 11 q40 52 81 105 q35 48 55 85 l-107 -47 q-2 -1 -6 -15 q-4 -14 -13 -14 q-11 0 -32 32 q-21 32 -21 53 q0 10 12 19 q12 9 26 11 q24 39 34.5 57.5 q10.5 18.5 24.5 48.5 q18 38 37 86 q24 59 34 90 q42 -16 63 -24 q64 -27 64 -37 q-1 -12 -11.5 -14 q-10.5 -2 -22.5 -2 q-22 -29 -37 -47 q-87 -106 -150 -157 l129 5 l40 78 q9 -2 18 -4 q17 -8 39 -21 l115 0 l0 220 q46 -1 69 -3 q70 -8 70 -30 q0 -14 -18 -26 q-10 -6 -19 -12 l0 -149 l20 0 q9 0 30 24 q21 24 37 24 q13 0 25 -12 l9 -9 l0 135 q15 -2 45 -13 q30 -11 51 -25 Z" /><glyph glyph-name="uni5B9D" unicode="&#x5b9d;" d="M808 57 q0 -30 -19.5 -47.5 q-19.5 -17.5 -43.5 -17.5 q-20 0 -34 13 q-14 13 -14 38 q0 40 -38 79 q-18 17 -35 35 q5 5 22 5 q24 0 59 -9.5 q35 -9.5 55 -22 q20 -12.5 31 -25.5 q17 -20 17 -48 ZM819 665 q16 20 31 31 q15 11 26 9 q16 -2 55.5 -42 q39.5 -40 36.5 -52 q-1 -6 -26 -11 q-8 -1 -18 -3 q-10 -2 -24 -13 q-37 -31 -66 -50 q15 -15 25 -28.5 q10 -13.5 10 -21.5 q0 -14 -26 -14 l-282 0 l-14 -12 l0 -210 l112 0 q9 0 42 32 q33 32 49 32 q7 0 11 -4 q37 -30 52.5 -48.5 q15.5 -18.5 15.5 -29.5 q0 -14 -27 -14 l-255 0 l0 -258 l226 0 q12 0 46 37 q34 37 51 37 q7 0 12 -4 q26 -20 46 -41 q30 -31 30 -47 q0 -14 -25 -14 l-864 0 l-28 32 l391 0 l0 258 l-242 0 l-28 32 l270 0 l0 222 l-274 0 l-28 32 l562 0 q11 0 45 35 q34 35 50 35 q5 0 12 -5 l6 -6 q19 48 20 51 q6 17 7 21 l-661 0 q0 -38 -2.5 -54 q-2.5 -16 -9.5 -30 q-15 -30 -34 -44 q-19 -14 -40 -14 q-23 0 -41.5 17.5 q-18.5 17.5 -18.5 39.5 q0 13 8.5 25.5 q8.5 12.5 26.5 20.5 q39 17 58 56 q14 36 29 73 q6 0 11.5 -14.5 q5.5 -14.5 9.5 -43.5 l312 0 q-13 6 -20 15.5 q-7 9.5 -9 26.5 q-5 37 -24 64 q-19 23 -37 46 q2 3 17 3 q40 0 78 -14 q52 -19 66 -55 q7 -18 7 -36 q0 -18 -7.5 -30.5 q-7.5 -12.5 -21.5 -19.5 l290 0 Z" /><glyph glyph-name="uni5907" unicode="&#x5907;" d="M472 -43 l0 140 l-162 0 l0 -140 l162 0 ZM472 273 l-162 0 l0 -144 l162 0 l0 144 ZM724 129 l0 144 l-147 0 l-7 -6 l0 -138 l154 0 ZM724 -43 l0 140 l-154 0 l0 -140 l154 0 ZM447 724 l185 0 q17 15 34 27 q22 15 33 14 q16 -3 56 -46.5 q40 -43.5 40 -65.5 q0 -5 -19.5 -10.5 q-19.5 -5.5 -41.5 -11.5 q-20 -23 -54.5 -57.5 q-34.5 -34.5 -77.5 -68.5 q15 -6 29.5 -11.5 q14.5 -5.5 35.5 -11.5 q68 -20 150 -27 q82 -7 159 -13 q6 -4 6 -8 q0 -5 -12 -12.5 q-12 -7.5 -14 -12.5 q-3 -5 -14.5 -46 q-11.5 -41 -21.5 -41 q-49 0 -84 4 q-148 17 -263 90 l-48 34 l-23 -14 q-59 -35 -140 -62 q-70 -23 -143 -36 q45 -11 91 -33 l398 0 q8 7 32 17.5 q24 10.5 30 9.5 q13 -4 37 -20.5 q24 -16.5 41 -33.5 q6 -6 6 -12 q0 -10 -21 -22 q-11 -6 -11 -8 l0 -314 q0 -10 -16.5 -23.5 q-16.5 -13.5 -39.5 -13.5 q-21 0 -31.5 8.5 q-10.5 8.5 -10.5 18.5 l0 13 l-414 0 l0 -6 q0 -17 -13 -29 q-17 -16 -51 -16 q-20 0 -32 9 q-12 9 -12 23 l0 429 q-69 -10 -121 -10 q-41 0 -50 6 q49 12 158 52 q122 45 241 123 l22 15 q-49 58 -80 121 q-66 -64 -171 -109 q-88 -37 -104 -32 q35 35 71 70 q66 56 117 121 q28 36 47 72 q14 27 28 54 q8 5 82 -10.5 q74 -15.5 74 -31.5 q0 -6 -23 -13 q-14 -4 -16 -6 l-30 -33 ZM420 692 l-30 -32 q32 -38 44 -50 q29 -29 65 -53 q43 35 74 70 q40 45 47 65 l-200 0 Z" /><glyph glyph-name="uni7B14" unicode="&#x7b14;" d="M398 429 q-33 -3 -88 -6 q-55 -3 -82 -3 q-23 0 -35.5 1 q-12.5 1 -26.5 4 q14 7 29 15 q62 11 124 22 q84 16 122 30 q66 23 91 33 q11 4 78 32 q24 11 114 -59 q14 -20 29 -39 q-9 -4 -22 -4 q-12 0 -31.5 5.5 q-19.5 5.5 -23.5 5.5 q-30 -6 -72 -13 q-59 -11 -98 -15 l0 -126 l152 18 q24 3 50.5 35.5 q26.5 32.5 38.5 32.5 q30 0 62 -24 q32 -24 32 -44 q0 -15 -26 -18 l-309 -33 l0 -122 l206 23 q29 3 60 38 q31 35 43 35 q33 0 70.5 -25.5 q37.5 -25.5 37.5 -47.5 q0 -17 -30 -20 l-387 -39 l0 -90 q0 -40 50 -40 l299 0 q4 -1 6 0 q7 3 14 14.5 q7 11.5 25 64.5 q14 41 21 39 q3 -2 3 -15 q0 -15 -2.5 -48.5 q-2.5 -33.5 -2.5 -35.5 q0 -11 2 -12 q19 -12 25 -18 q13 -14 13 -31 q0 -10 -6 -24 q-12 -25 -41 -35 q-9 -3 -28 -5 l-388 0 q-51 0 -74.5 25.5 q-23.5 25.5 -23.5 68.5 l0 132 l-329 -33 l-28 28 l357 39 l0 123 l-299 -32 l-24 26 l323 38 l0 129 ZM259 677 l-32 0 q-37 -46 -77 -83 q-46 -43 -88 -66 q10 26 20 53 q48 87 60 127 q4 12 18 81 q3 15 7 31 q0 4 9 4 q27 0 82.5 -22 q55.5 -22 52.5 -35 q-2 -10 -14.5 -11 q-12.5 -1 -18.5 -10 l-27 -37 l123 0 q8 0 44 34 q17 16 32 16 q12 0 28 -13 q23 -19 33.5 -31.5 q10.5 -12.5 10.5 -22.5 q0 -15 -38 -15 l-146 0 q24 -9 41.5 -20.5 q17.5 -11.5 24.5 -26.5 q15 -29 15 -54 q0 -24 -14 -36.5 q-14 -12.5 -35 -12.5 q-22 0 -40 16 q-18 16 -18 43 q0 30 -20 56 q-25 26 -33 35 ZM699 673 l-43 0 q-40 -48 -74 -80 q-42 -39 -86 -63 q10 26 20 53 q48 87 60 127 q4 12 18 81 q3 15 7 31 q0 4 9 4 q27 0 82.5 -22 q55.5 -22 52.5 -35 q-2 -10 -14.5 -11 q-12.5 -1 -18.5 -10 l-31 -43 l133 0 q8 0 44 34 q17 16 32 16 q12 0 28 -13 q23 -19 33.5 -31.5 q10.5 -12.5 10.5 -22.5 q0 -15 -38 -15 l-146 0 q24 -9 41.5 -20.5 q17.5 -11.5 24.5 -26.5 q15 -29 15 -54 q0 -24 -14 -36.5 q-14 -12.5 -35 -12.5 q-22 0 -40 16 q-18 16 -18 43 q0 30 -20 56 q-25 26 -33 35 Z" /><glyph glyph-name="uni58C1" unicode="&#x58c1;" d="M378 268 l0 155 l-112 0 l0 -155 l112 0 ZM362 761 q21 16 26 20 q17 12 26 12 q12 0 45.5 -24 q33.5 -24 34.5 -33 q1 -6 -11 -19 q-4 -4 -14 -13 l0 -141 q-5 -13 -10 -19 q-18 -20 -50 -20 q-18 0 -29.5 9 q-11.5 9 -11.5 16 l0 10 l-157 0 q0 -14 -0.5 -31.5 q-0.5 -17.5 -4.5 -45.5 q15 -7 29.5 -13 q14.5 -6 26.5 -14 l103 0 q14 10 22 14 q24 14 36 14 q12 0 43 -21 q31 -21 33 -29 q1 -4 -12 -13.5 q-13 -9.5 -13 -12.5 l0 -172 l-5 -13 q27 0 71 -9.5 q44 -9.5 52 -18.5 q-3 -5 -6 -10 q-27 -15 -27 -17 l0 -64 l134 0 q11 0 45 35 q34 35 50 35 q5 0 12 -5 q29 -25 43 -40 q27 -29 27 -43 q0 -14 -26 -14 l-285 0 l0 -135 l209 0 q11 0 46 38 q35 38 52 38 q7 0 12 -4 q35 -27 58 -55 q19 -23 19 -34 q0 -15 -25 -15 l-872 0 l-28 32 l425 0 l0 135 l-296 0 l-28 32 l324 0 l0 106 q-14 -9 -35 -9 q-20 0 -31 7.5 q-11 7.5 -11 15.5 l0 13 l-112 0 l0 -19 q0 -15 -18 -25 q-18 -10 -43 -13 q-13 0 -22 5 q-14 8 -14 26 l0 161 q-39 -75 -84 -115 q-33 -29 -49 -29 q10 9 36 61 q31 61 40 148 q2 20 2.5 54 q0.5 34 1.5 53 l0 57 l0 191 q43 -9 80 -30 l166 0 ZM368 591 l0 138 l-157 0 l0 -138 l157 0 ZM777 655 l-190 0 q30 -13 52 -33 q28 -25 33 -53 q1 -5 1 -15 q0 -25 -17 -42 l78 0 q15 25 27 65.5 q12 40.5 16 77.5 ZM706 687 l84 0 q9 0 33 28 q24 28 39 28 q6 0 14 -6 q30 -28 35 -34 q20 -22 20 -33 q0 -15 -30 -15 l-48 0 q15 -5 24 -9 q20 -9 18 -15 q-2 -11 -15 -11 q-13 0 -14 -2 q-20 -25 -32 -39 q-38 -43 -65 -67 l38 0 q11 0 39 30 q28 30 45 30 q9 0 17 -7 q30 -25 41 -36 q24 -24 24 -36 q0 -15 -35 -15 l-176 0 q-2 -1 -4 -5 l0 -89 l51 0 q8 0 32.5 32.5 q24.5 32.5 37.5 32.5 q7 0 14 -7 q24 -26 35 -39 q20 -25 20 -39 q0 -17 -29 -17 l-161 0 l0 -125 q0 -10 -18 -22.5 q-18 -12.5 -36 -12.5 q-11 -1 -27 5 q-16 6 -16 17 l0 138 l-123 0 l-28 37 l151 0 l0 94 l-167 0 l-33 34 l133 0 q-12 12 -12 40 q0 11 1 17 q3 16 -10.5 40.5 q-13.5 24.5 -24.5 45.5 l-23 0 l-28 32 l186 0 q-11 3 -19 12 q-8 9 -10 24 q-5 35 -29 62 q-20 23 -19 24 q2 2 14 2 q31 0 61 -11 q40 -15 50 -43 q6 -15 6 -28 q0 -17 -8.5 -28 q-8.5 -11 -22.5 -14 Z" /><glyph glyph-name="uni997C" unicode="&#x997c;" d="M724 529 l-68 0 q-4 -2 -13 -7 q-2 -1 -7 -3 l0 -223 l88 0 l0 233 ZM706 565 q16 29 32 58 q25 46 31 65.5 q6 19.5 14 55.5 q8 36 8 40 q31 -5 62 -10 q63 -21 60 -34 q-1 -8 -11 -8 q-10 0 -16 -8 q-36 -49 -67 -83 q-43 -47 -84 -76 l57 0 q10 0 35.5 32.5 q25.5 32.5 39.5 32.5 q8 0 15 -7 q27 -27 37 -39 q21 -25 21 -38 q0 -11 -7.5 -14 q-7.5 -3 -23.5 -3 l-62 0 q-2 -5 -10.5 -15.5 q-8.5 -10.5 -8.5 -13.5 l0 -199 q25 31 41 47 q16 16 29 16 q7 0 15 -6 q26 -22 43 -40 q26 -28 26 -43 q0 -16 -30 -16 l-124 0 l0 -346 q0 -11 -16 -25 q-21 -18 -48 -18 q-17 0 -28.5 11.5 q-11.5 11.5 -11.5 21.5 l0 356 l-90 0 q0 -55 -9.5 -105.5 q-9.5 -50.5 -30.5 -100.5 q-38 -85 -128 -141 q-77 -48 -97 -37 q54 22 106 109 q58 97 58 248 l1 27 l-101 0 l-30 37 l131 0 l-2 56 l0 177 l-60 0 l-13 16 q1 -2 2 -8 q-3 -10 -28.5 -15 q-25.5 -5 -26.5 -7 q-25 -31 -69 -62 q-44 -31 -51 -25 q-1 1 25 66 q14 34 14 54 l-138 0 q-43 -67 -94 -118 q-46 -46 -64 -46 q3 15 7 30 q66 112 97 228 q18 68 31 136 q2 10 5 23 q34 -5 68 -9 q71 -20 71 -38 q0 -12 -14 -14 q-14 -2 -16 -6 q-15 -36 -32 -75 q-17 -39 -42 -83 l119 0 l47 37 q9 0 32 -16 q23 -16 39 -32 l112 0 q-9 11 -13.5 25 q-4.5 14 -4.5 35 q1 8 1 12 q0 28 -59 116 q-6 17 -11 34 q24 2 90 -44 q76 -53 86 -107 q1 -6 2 -12 q0 -5 0 -10 q0 -31 -16 -49 l78 0 ZM410 96 l-150 -154 q-1 -1 -8.5 -22 q-7.5 -21 -14.5 -21 q-15 -2 -49.5 46.5 q-34.5 48.5 -28.5 66.5 q4 12 7 29.5 q3 17.5 3 39.5 l1 327 q0 2 9 2 q24 0 65.5 -10.5 q41.5 -10.5 55.5 -22.5 q8 -7 -5 -16.5 q-13 -9.5 -28 -19.5 l1 -288 l142 43 Z" /><glyph glyph-name="uni67E5" unicode="&#x67e5;" d="M951 -87 l-864 0 l-28 32 l732 0 q12 0 46 37 q34 37 51 37 q7 0 12 -4 q26 -20 46 -41 q30 -31 30 -47 q0 -14 -25 -14 ZM688 202 l0 119 l-349 0 l0 -119 l349 0 ZM688 55 l0 115 l-349 0 l0 -115 l349 0 ZM765 375 q18 -11 37.5 -28.5 q19.5 -17.5 21.5 -23.5 q2 -5 -7 -12 q-21 -18 -21 -20 l0 -278 q0 -11 -13 -23 q-18 -16 -47 -16 q-22 0 -35 9.5 q-13 9.5 -13 18.5 l0 21 l-349 0 l0 -14 q0 -20 -19 -34 q-19 -14 -46 -14 q-18 0 -30.5 11.5 q-12.5 11.5 -12.5 26.5 l0 352 q-146 -74 -172 -62 q12 12 24 25 q63 45 88 65 q63 51 114 112 q31 36 53 74 q16 28 27 54 l-251 0 l-30 32 l376 0 l0 157 q0 2 13 2 q28 0 71.5 -7.5 q43.5 -7.5 56.5 -17.5 q-2 -6 -3 -12 q-29 -20 -29 -22 l0 -100 l164 0 q9 0 63 50 q26 24 42 24 q8 0 13 -4 q37 -27 62 -54 q20 -22 20 -34 q0 -14 -27 -14 l-322 0 q30 -34 65 -59 q49 -35 116 -63 q56 -23 171 -34 q44 -4 46 -10 q4 -14 -13 -27 q-12 -9 -15 -14 q-9 -14 -18 -36.5 q-9 -22.5 -18 -45.5 q-3 -4 -13 -4 q-21 0 -60 13.5 q-39 13.5 -80 35.5 ZM569 577 l0 -169 q0 -17 -13 -31 q-18 -19 -53 -19 q-23 0 -33 9 q-10 9 -10 25 l0 120 q-32 -32 -82 -69.5 q-50 -37.5 -98 -64.5 q16 -8 32 -15.5 q16 -7.5 20 -9.5 l344 0 q16 11 24 16 q28 17 40 17 l8 -2 q-48 29 -90 72 q-50 51 -89 121 Z" /><glyph glyph-name="uni5927" unicode="&#x5927;" d="M551 461 l-13 0 q-9 -62 -23 -114.5 q-14 -52.5 -36 -99.5 q-58 -120 -163 -213 q-82 -73 -173 -116 q-78 -37 -97 -28 q31 30 63 60 q98 81 156 158 q94 124 119 263 q7 39 12 90 l-329 0 l-28 33 l360 0 q0 92 4 213 q1 40 4 103 q45 -4 91 -8 q93 -14 93 -25 q0 -13 -17 -24 q-13 -8 -25 -16 q1 -18 1.5 -39.5 q0.5 -21.5 0.5 -33.5 q0 -55 -1.5 -82.5 q-1.5 -27.5 -7.5 -87.5 l229 0 q12 0 46 39 q34 39 51 39 q7 0 12 -4 q23 -18 46 -43 q30 -33 30 -49 q0 -15 -25 -15 l-357 0 q13 -50 36 -101 q35 -77 82 -127 q61 -64 141 -118 q71 -44 142 -87 q7 -14 -15 -32 q-19 -13 -38 -27 q-10 -8 -22.5 -44 q-12.5 -36 -22.5 -37 q-29 0 -104 71 q-89 85 -143 190 q-28 56 -52 146 q-27 100 -27 166 Z" /><glyph glyph-name="uni5230" unicode="&#x5230;" d="M243 220 l-169 0 l-27 37 l196 0 l0 144 q49 -2 73 -3 q75 -5 80 -17 q1 -3 -14 -10.5 q-15 -7.5 -15 -12.5 l0 -101 l53 0 q6 0 31 34.5 q25 34.5 41 34.5 q7 0 13 -6 q21 -19 38 -40 q23 -28 23 -43 q0 -8 -6.5 -12.5 q-6.5 -4.5 -20.5 -4.5 l-172 0 l0 -144 q64 9 126 18 q62 9 86 9 q17 0 20 -3 q2 -2 -3 -7 q-23 -23 -140 -66 q-81 -30 -206 -70 q-107 -34 -109 -37 q-2 -1 -9 -17.5 q-7 -16.5 -21 -21.5 q-16 -6 -37.5 52 q-21.5 58 -21.5 92 q0 15 6 15 q48 0 105 7.5 q57 7.5 80 10.5 l0 162 ZM775 638 q4 -5 -8 -13 q-12 -8 -25 -17 l0 -501 q0 -17 -16 -32 q-20 -19 -50 -19 q-22 0 -34 7.5 q-12 7.5 -12 25.5 l0 582 q32 -3 65 -5 q66 -13 80 -28 ZM213 713 l-151 0 l-29 37 l399 0 q3 0 43 46 q20 23 34 23 q6 0 14 -6 q25 -22 41 -40 q24 -28 24 -43 q0 -17 -29 -17 l-173 0 q-2 -8 -14 -12.5 q-12 -4.5 -24 -8.5 q-1 -7 -26 -37 q-25 -30 -56 -60 q-53 -51 -130 -96 q51 0 162 4 q111 4 150 4 q-13 21 -37 50 q-18 22 -19 25 q-1 3 2 4 q4 2 10 2 q31 0 82 -25 q59 -29 81.5 -65 q22.5 -36 22.5 -77 q0 -47 -33 -60 q-11 -4 -22 -4 q-40 0 -50 65 q-2 14 -6.5 26 q-4.5 12 -11.5 26 q-43 -16 -136 -42 q-68 -19 -136.5 -37 q-68.5 -18 -69.5 -18 q-5 -1 -8.5 -16 q-3.5 -15 -12.5 -20 q-10 -6 -22 24 q-23 56 -23 107 q0 26 10 26 q15 0 42 22 q16 20 32 42 q16 22 34 51.5 q18 29.5 27 59.5 q6 18 9 40 ZM963 800 q0 -10 -13 -21 q-4 -3 -14 -9 l0 -761 q0 -43 -27 -82 q-31 -45 -75 -45 q-21 0 -28 6 q-7 6 -7 19 q1 15 1 23 q0 14 -7 23 q-12 17 -55 41.5 q-43 24.5 -45 31.5 q-1 2 2 4 q2 1 7 1 q11 0 34 -4 q58 -10 67 -10 q7 0 9 1 q10 4 13.5 13 q3.5 9 3.5 22 q-1 15 -1 18 l0 750 q0 2 16 2 q35 0 77 -7 q42 -7 42 -16 Z" /><glyph glyph-name="uni9053" unicode="&#x9053;" d="M160 333 q11 16 29 29.5 q18 13.5 35 15.5 q16 0 55 -42.5 q39 -42.5 34 -57.5 q-1 -6 -14.5 -14.5 q-13.5 -8.5 -26.5 -9.5 l0 -144 q0 -32 60 -76 q50 -37 116 -43 q39 -3 95 -3 q79 0 186.5 5.5 q107.5 5.5 222.5 11.5 q10 0 12 -1 q5 -3 5 -10 q0 -8 -4.5 -19.5 q-4.5 -11.5 -11 -22.5 q-6.5 -11 -8.5 -19 q-2 -8 -2 -15 q0 -4 1 -12.5 q1 -8.5 1 -12.5 q0 -9 -6 -13 q-2 -1 -78.5 -3 q-76.5 -2 -165.5 -2 q-82 0 -142 2 q-60 2 -100 8.5 q-40 6.5 -83.5 34 q-43.5 27.5 -67 61.5 q-23.5 34 -39.5 67 q-21 42 -20 43 l-126 -175 q1 -3 1 -5 q1 -6 1 -13 q0 -18 -10 -23 q-10 -5 -37 32 q-25 44 -49 87 l151 97 l0 209 l-117 0 l-28 33 l131 0 ZM265 642 q15 -30 15 -56 q0 -25 -14.5 -38.5 q-14.5 -13.5 -36.5 -13.5 q-24 0 -40 15 q-19 18 -19 47 q0 36 -27 67 q-17 19 -34 39 q-1 3 2 4 q4 2 11 2 q32 0 76 -17 q53 -21 67 -49 ZM762 241 l0 106 l-259 0 l0 -106 l259 0 ZM762 93 l0 114 l-259 0 l0 -114 l259 0 ZM762 488 l-259 0 l0 -107 l259 0 l0 107 ZM649 653 q13 18 27 37 q20 31 33 67 l29 74 q29 -12 59 -24 q59 -33 55 -40 q-6 -10 -26 -10 q-8 0 -10 0 q-1 0 -2 0 q-13 -12 -25 -23 q-45 -42 -99 -81 l107 0 q12 0 45 32 q33 32 49 32 q7 0 12 -4 q21 -16 42 -37 q27 -27 27 -39 q0 -13 -25 -13 l-267 0 q-12 -5 -23 -10 q-15 -27 -34.5 -52.5 q-19.5 -25.5 -39.5 -38.5 l157 0 q7 10 36 27 q29 17 37 15 q15 -4 43 -20.5 q28 -16.5 46 -32.5 q7 -7 7 -13 q0 -9 -18 -19 q-9 -5 -18 -10 l0 -408 q0 -12 -17 -26.5 q-17 -14.5 -44 -14.5 q-50 0 -50 29 l0 9 l-259 0 q0 -13 -22.5 -28 q-22.5 -15 -48.5 -15 q-14 0 -27.5 9 q-13.5 9 -13.5 18 l0 515 q18 -2 49 -11.5 q31 -9.5 56 -23.5 l51 0 q11 28 11 53 q0 21 -6 48 l-231 0 l-28 29 l193 0 q-23 15 -23 48 q0 6 2 18 q3 15 -10 38 q-18 30 -35 60 q21 -2 43 -4 q99 -34 111 -94 q1 -5 1 -15 q0 -18 -8 -31 q-8 -13 -21 -20 l103 0 Z" /><glyph glyph-name="uni7684" unicode="&#x7684;" d="M317 56 l0 231 l-139 0 l0 -231 l139 0 ZM178 537 l0 -215 l139 0 l0 215 l-139 0 ZM698 302 q15 -34 15 -64 q0 -29 -14.5 -44.5 q-14.5 -15.5 -36.5 -15.5 q-23 0 -41 19 q-18 19 -18 52 q0 41 -27 76 q-18 22 -35 45 q-1 3 2 5 q4 2 12 2 q31 0 76 -20 q53 -24 67 -55 ZM627 598 l177 0 q12 12 33 25 q21 13 29 11 q48 -20 81 -64 q4 -5 -10 -24.5 q-14 -19.5 -14 -28.5 l0 -293 q0 -141 -46 -231 q-55 -107 -122 -107 q-33 0 -46 9 q-13 9 -13 24 q0 11 6 25 q3 7 7 14 q0 14 -36 43 q-15 15 -30 30 q5 5 12 5 q6 0 46 -14 q20 -7 34 -7 q11 0 19 4 q31 14 44 64 q8 31 16 110 q1 13 2 85.5 q1 72.5 1 123.5 q0 18 0 27 q0 15 0 23 q0 13 0 19 q0 10 0 15 q0 8 0 12 q0 42 -2 50 l-8 15 l-197 0 l-2 -3 q-50 -88 -101 -148 q-42 -50 -71 -67 l0 -325 q0 -17 -16 -32 q-20 -19 -50 -19 q-53 0 -53 36 l0 17 l-139 0 l0 -23 q0 -18 -23 -37.5 q-23 -19.5 -52 -19.5 q-15 0 -29.5 11.5 q-14.5 11.5 -14.5 22.5 l0 636 q26 -5 61 -18 q25 -10 46 -22 l16 0 q5 25 11 57.5 q6 32.5 6 57.5 q0 27 -5 63 q-1 12 -5 30 q-1 4 9.5 5 q10.5 1 33.5 1 q54 0 84 -4 q30 -4 29 -9 q0 -13 -15.5 -21 q-15.5 -8 -16.5 -11 q-18 -51 -44 -97.5 q-26 -46.5 -59 -71.5 l86 0 q10 12 39 30 q29 18 36 16 q15 -4 45 -24 q30 -20 50 -39 q8 -8 8 -15 q0 -9 -12.5 -18 q-12.5 -9 -25.5 -18 l0 -102 q25 48 42 101 q25 75 34 157 q4 39 5 60 q1 21 1 40 q-1 24 -1 26 q-1 3 4 4 q8 2 18 2 q46 0 115 -13.5 q69 -13.5 67 -26.5 q-1 -9 -13.5 -13 q-12.5 -4 -25.5 -8 q-7 -9 -21 -49 q-18 -51 -34 -84 Z" /><glyph glyph-name="uni706F" unicode="&#x706f;" d="M91 314 q-13 -7 -25 -7 q-22 0 -37.5 19.5 q-15.5 19.5 -15.5 45.5 q0 20 9.5 38.5 q9.5 18.5 28.5 31 q19 12.5 26 55.5 q5 44 11 89 q14 -26 28 -51 q21 -60 21 -114 q0 -38 -10 -64.5 q-10 -26.5 -36 -42.5 ZM261 497 q19 30 35 68 q3 7 12 36 q14 44 14 47 q27 -11 55 -22 q58 -33 55 -40 q-5 -10 -18 -10 q-6 0 -10 1 q-1 0 -5 2 q-14 -23 -59.5 -66.5 q-45.5 -43.5 -79.5 -66.5 q0 -49 -5 -106.5 q-5 -57.5 -13 -102.5 q32 0 86 -28 q63 -32 87 -71.5 q24 -39.5 24 -85.5 q0 -23 -8 -40.5 q-8 -17.5 -27 -24.5 q-5 -2 -12 -3 q-6 -1 -11 -1 q-22 0 -34.5 18.5 q-12.5 18.5 -19.5 58 q-7 39.5 -41 92.5 q-4 7 -48 65 q-21 -96 -67 -184 q-35 -67 -81 -122 q-37 -45 -47 -45 q8 23 17 46 q36 68 59 140 q36 115 36 234 q0 111 1 146.5 q1 35.5 2 69.5 l0 304 q34 -3 69 -5 q69 -10 69 -22 q0 -17 -17 -26 q-9 -5 -18 -10 l0 -246 ZM617 656 l-222 0 l-26 32 l458 0 q9 0 39 32 q30 32 45 32 q6 0 10 -4 q23 -20 39 -38 q23 -26 23 -40 q0 -14 -24 -14 l-204 0 q-4 -8 -19 -16 q-2 -1 -7 -3 l0 -649 q0 -37 -28 -70 q-33 -39 -78 -39 q-21 0 -29 5.5 q-8 5.5 -8 15.5 q2 14 2 21 q0 11 -7 19 q-14 16 -58 36.5 q-44 20.5 -46 25.5 q-1 2 2 3 q3 1 8 1 q13 0 35 -3 q60 -8 68 -8 q7 0 14 2 q7 2 10.5 10.5 q3.5 8.5 3.5 19.5 q-1 12 -1 14 l0 615 Z" /><glyph glyph-name="uni70B9" unicode="&#x70b9;" d="M210 104 q7 0 14 -20 q7 -20 7 -46 q0 -31 -10 -58 q-13 -34 -40 -61 q-20 -20 -39.5 -29.5 q-19.5 -9.5 -37.5 -9.5 q-27 0 -44.5 18.5 q-17.5 18.5 -17.5 42.5 q0 24 17.5 41.5 q17.5 17.5 52.5 22.5 q35 5 59 35 q19 32 39 64 ZM462 6 q24 -29 24 -61 q0 -31 -19.5 -52.5 q-19.5 -21.5 -50.5 -21.5 q-27 0 -46 18 q-19 18 -19 47 q0 9 2 22 q2 13 2 30 q0 39 -13 67 q-16 35 -19 36 q25 0 55 -15 q42 -21 84 -70 ZM723 -31 q1 -7 1 -19 q0 -31 -19 -50 q-19 -19 -44 -19 q-23 0 -37 15 q-17 18 -17 51 q0 6 2 22 q3 21 -20 61 q-26 45 -26 54 q0 5 7 5 q33 0 83 -32 q61 -39 70 -88 ZM959 -40 q2 -9 2 -24 q0 -30 -14.5 -47.5 q-14.5 -17.5 -34.5 -17.5 q-24 0 -41 23 q-17 23 -17 67 q0 28 -58 117 q-5 16 -10 33 q25 0 88 -44 q75 -53 85 -107 ZM683 196 l0 230 l-361 0 l0 -230 l361 0 ZM555 639 l192 0 q9 0 33 28 q24 28 39 28 q7 0 15 -6 q28 -25 36 -34 q20 -21 20 -33 q0 -15 -30 -15 l-305 0 l0 -149 l116 0 q11 6 33 16 q22 10 32 10 q14 0 47 -18 q33 -18 38 -34 q0 -2 -14.5 -11.5 q-14.5 -9.5 -14.5 -12.5 l0 -251 q0 -8 -17 -19 q-17 -11 -42 -11 q-50 0 -50 24 l0 13 l-361 0 l0 -20 q0 -7 -14 -17 q-21 -14 -53 -14 q-17 0 -31 6.5 q-14 6.5 -14 18.5 l0 359 q13 -1 45.5 -13 q32.5 -12 66.5 -26 l121 0 l0 363 q49 -3 73 -6 q74 -9 74 -21 q0 -7 -17.5 -15 q-17.5 -8 -17.5 -11 l0 -129 Z" /><glyph glyph-name="uni5B9A" unicode="&#x5b9a;" d="M578 748 q7 -18 7 -36 q0 -26 -17.5 -41.5 q-17.5 -15.5 -39.5 -15.5 q-21 0 -36.5 12.5 q-15.5 12.5 -20 42 q-4.5 29.5 -26.5 58.5 q-20 23 -39 46 q2 3 20 3 q42 0 83 -14 q55 -19 69 -55 ZM822 654 q14 15 21 22 q23 22 32 22 q15 -1 56 -40.5 q41 -39.5 41 -51.5 q0 -10 -29 -15 q-9 -1 -29 -3 q-26 -18 -40 -27 q-45 -30 -64 -38 q20 -19 35 -39 q19 -25 19 -39 q0 -14 -21 -14 l-264 0 l-16 -15 l0 -174 l147 0 q7 0 41 34 q16 16 30 16 q13 0 27 -13 q19 -17 30 -31 q11 -14 11 -23 q0 -15 -36 -15 l-250 0 l0 -176 l7 -1 q29 -4 72 -6 q43 -2 84 -2 q77 0 154.5 4 q77.5 4 80.5 3 q8 -3 0 -18 q-3 -5 -16 -24 q-3 -4 -4 -15.5 q-1 -11.5 -1 -13.5 q0 -7 1 -23.5 q1 -16.5 1 -23.5 q0 -22 -14.5 -23.5 q-14.5 -1.5 -62 -3.5 q-47.5 -2 -61.5 -2 q-76 0 -140 7 q-64 7 -118 25 q-82 29 -140 72 q-61 46 -111 117 q-13 -33 -29 -60 q-42 -66 -122 -118 q-70 -45 -106 -45 q-9 0 -12 4 q35 18 85 77 q57 66 85 188 q8 35 10.5 84.5 q2.5 49.5 2.5 98.5 q0 13 0 16 q0 2 0 6 q-1 4 6 6 q6 2 20 2 q37 0 90 -11 q53 -11 53 -22 q0 -10 -11.5 -16 q-11.5 -6 -23.5 -11 q-1 -2 -13 -68 q-6 -30 -16 -70 q31 -31 60 -53 q37 -28 76 -46 l0 363 l-258 0 l-23 32 l540 0 q9 0 38 37 q29 37 43 37 q5 0 8 -2 q13 32 20.5 52 q7.5 20 9.5 35 l-642 0 q0 -19 -1.5 -37.5 q-1.5 -18.5 -10.5 -38.5 q-15 -31 -35 -45.5 q-20 -14.5 -40 -14.5 q-24 0 -42.5 17.5 q-18.5 17.5 -18.5 40.5 q0 30 37.5 47.5 q37.5 17.5 56.5 56.5 q14 37 29 75 q6 0 13 -20.5 q7 -20.5 10 -48.5 l638 0 Z" /><glyph glyph-name="uni8BFB" unicode="&#x8bfb;" d="M589 397 q6 -15 6 -28 q0 -21 -13.5 -32.5 q-13.5 -11.5 -32.5 -11.5 q-17 0 -30 9.5 q-13 9.5 -17 33.5 q-4 24 -20 45 q-16 18 -32 36 q2 2 15 2 q34 0 67 -11 q46 -15 57 -43 ZM263 695 q15 -30 15 -55 q0 -24 -13.5 -36.5 q-13.5 -12.5 -34.5 -12.5 q-22 0 -39 16 q-17 16 -17 43 q0 35 -26 65 q-17 19 -33 38 q-1 2 0 3 q4 3 13 3 q30 0 76 -18.5 q46 -18.5 59 -45.5 ZM533 281 q6 -15 6 -28 q0 -21 -13.5 -32.5 q-13.5 -11.5 -32.5 -11.5 q-17 0 -30 9.5 q-13 9.5 -17 33.5 q-4 24 -20 45 q-16 18 -32 36 q2 2 15 2 q34 0 67 -11 q46 -15 57 -43 ZM615 159 l-251 0 l-29 32 l291 0 l5 18 q11 41 15.5 104.5 q4.5 63.5 4.5 109.5 q-1 28 -1 30 q-1 3 9.5 6 q10.5 3 41.5 3 q35 0 68.5 -5.5 q33.5 -5.5 33.5 -12.5 q0 -14 -14 -17 q-14 -3 -16 -33.5 q-2 -30.5 -8 -91 q-6 -60.5 -21 -111.5 l42 0 q11 0 45 32 q34 32 50 32 q7 0 12 -4 q25 -19 44 -38 q28 -27 28 -40 q0 -14 -28 -14 l-204 0 q-12 -27 -27 -51 q38 -5 79 -16.5 q41 -11.5 74 -27.5 q52 -26 77 -59 q21 -28 21 -58 q0 -24 -13 -41.5 q-13 -17.5 -31 -23.5 q-5 -2 -12 -3 q-6 -1 -10 -1 q-26 0 -45 24 q-9 11 -28 52 q-19 41 -61 79 q-22 19 -67 51 q-54 -71 -143 -123 q-70 -41 -156 -66 q-68 -20 -104 -20 q-12 0 -13 2 q29 16 59 32 q92 38 148 80 q94 70 134 170 ZM833 510 q11 14 22 23 q19 16 31 14 q14 -2 50 -40 q36 -38 34 -50 q-1 -6 -33 -12 q-5 -1 -15 -2 q-20 -17 -46 -38 q-31 -25 -60 -41 q-1 12 -2 24 q16 45 32 90 l-509 0 l-34 32 l255 0 l0 126 l-153 0 l-27 32 l180 0 l0 131 q35 -3 71 -5 q73 -10 83 -21 q-3 -6 -6 -11 q-16 -8 -31 -16 l0 -78 l55 0 q5 0 41 36 q18 18 30 18 q6 0 14 -6 q30 -29 42 -43.5 q12 -14.5 12 -22.5 q0 -14 -29 -14 l-165 0 l0 -126 l158 0 ZM254 96 l144 55 l-157 -161 q-2 -2 -9.5 -24 q-7.5 -22 -14.5 -22 q-12 0 -44 33 q-35 36 -29 50 q7 13 9 31 q2 18 2 43 l0 329 l-5 13 l-111 -12 l-23 30 l130 14 q9 11 22.5 22.5 q13.5 11.5 20.5 11.5 q17 0 51.5 -25 q34.5 -25 38.5 -46 q1 -4 -12.5 -17 q-13.5 -13 -13.5 -17 l1 -308 Z" /><glyph glyph-name="uni5151" unicode="&#x5151;" d="M403 726 q8 -16 12 -33 q4 -17 4 -28 q0 -28 -15.5 -42.5 q-15.5 -14.5 -38.5 -14.5 q-24 0 -43 18 q-19 18 -19 50 q0 30 -18 58 q-24 29 -47 58 q-1 3 2 5 q4 2 12 2 q34 0 80 -19 q56 -23 71 -54 ZM647 567 q12 8 32 18 q26 13 37 13 q14 0 53.5 -27 q39.5 -27 41.5 -37 q2 -4 -14.5 -16.5 q-16.5 -12.5 -16.5 -15.5 l0 -218 q0 -13 -14 -26 q-20 -18 -54 -18 q-25 0 -39 9.5 q-14 9.5 -14 19.5 l0 18 l-18 -9 l0 -234 q0 -15 11.5 -25.5 q11.5 -10.5 29.5 -10.5 l145 0 q9 0 18 1 q9 1 16 13 q23 64 36 97 q10 16 20 33 q3 -2 3 -17 q0 -13 -3 -51 q-3 -38 -3 -50 q0 -9 1 -12 q16 -13 27 -25 q11 -12 11 -28 q0 -7 -1 -11 q-8 -36 -49 -51 q-13 -5 -40 -8 l-247 0 q-48 0 -69.5 27 q-21.5 27 -21.5 71 l0 305 l-204 0 l0 -31 l-1 -11 q4 2 11 2 q46 0 122 -26 q16 -10 33 -20 q-20 -15 -27.5 -21.5 q-7.5 -6.5 -13.5 -15.5 q-19 -55 -52 -108 q-36 -58 -90 -97 q-62 -44 -142 -70 q-66 -21 -109 -21 q-16 0 -24 3 q19 14 38 28 q67 35 110 68 q72 54 101 116 q15 31 26 72.5 q11 41.5 15 83.5 q-7 -15 -23 -25 q-16 -10 -43 -10 q-18 0 -32 12.5 q-14 12.5 -14 21.5 l0 348 q14 -2 46.5 -12 q32.5 -10 56.5 -22 l338 0 ZM659 334 l0 201 l-338 0 l0 -201 l338 0 ZM781 726 q-7 -13 -29 -13 q-4 0 -15 1 q-62 -54 -124 -108 q-56 -43 -75 -37 q15 28 30 57 q27 40 44 88 l34 88 q35 -15 70 -29 q32 -24 65 -47 Z" /><glyph glyph-name="uni4E8C" unicode="&#x4e8c;" d="M845 587 l-697 0 l-27 36 l581 0 q11 0 43.5 38.5 q32.5 38.5 46.5 38.5 q7 0 12 -5 q35 -37 50.5 -59 q15.5 -22 15.5 -33 q0 -16 -25 -16 ZM943 11 l-880 0 l-28 38 l745 0 q12 0 47 43 q35 43 52 43 q5 0 12 -5 q26 -24 47 -49 q30 -36 30 -54 q0 -16 -25 -16 Z" /><glyph glyph-name="uni8D30" unicode="&#x8d30;" d="M429 291 q1 -9 -13 -15 q-14 -6 -14 -7 q1 -2 1 -23 q0 -41 -9 -86 q-12 -61 -40 -110 q-38 -66 -140 -126 q-92 -54 -125 -49 q14 16 28 31 q59 46 90 83 q54 65 65 134 q6 40 8.5 73.5 q2.5 33.5 2.5 65.5 q0 25 -1 36 q0 2 -1 6 q0 2 28 2 q58 0 89 -4.5 q31 -4.5 31 -10.5 ZM574 -30 q26 -26 26 -60 q0 -18 -8.5 -30 q-8.5 -12 -26 -16 q-17.5 -4 -28.5 -4 q-24 0 -39 13 q-15 13 -22 41 q-7 28 -40 62 q-34 30 -68 60 q-1 3 4 5 q6 0 9 0 q38 0 101.5 -20.5 q63.5 -20.5 91.5 -50.5 ZM423 382 q7 8 34 18 q27 10 35 8 q14 -3 41.5 -17 q27.5 -14 44.5 -28 q7 -6 7 -11 q0 -6 -12 -13 q-12 -7 -24 -13 l0 -269 q0 -8 -18 -19 q-18 -11 -43 -11 q-22 0 -34 7.5 q-12 7.5 -12 15.5 l0 296 l-218 0 l0 -266 q0 -20 -12 -32 q-16 -17 -53 -17 q-17 0 -29.5 8 q-12.5 8 -12.5 25 l0 349 q17 -2 45.5 -11 q28.5 -9 51.5 -20 l209 0 ZM523 434 l-403 0 l-29 32 l316 0 q6 0 43 38 q19 19 31 19 q7 0 15 -6 q26 -23 37 -34 q21 -22 21 -34 q0 -15 -31 -15 ZM484 530 l-327 0 l-26 32 l257 0 q9 0 30 25 q21 25 37 25 q12 0 25 -13 q18 -18 28 -31.5 q10 -13.5 10 -22.5 q0 -15 -34 -15 ZM806 676 q-14 4 -23 14 q-9 10 -13 35.5 q-4 25.5 -22 49 q-18 23.5 -35 44.5 q2 3 18 3 q38 0 74 -13 q49 -17 61 -50 q5 -15 7 -29 q8 2 10 2 q7 0 12 -4 q29 -20 51 -41 q32 -30 32 -47 q0 -15 -27 -15 l-269 0 q0 -87 5.5 -161.5 q5.5 -74.5 21.5 -136.5 q30 -126 79 -202 q57 -88 96 -84 q20 3 55 67 q20 27 40 55 q4 -3 4 -14 q0 -12 -22 -109 q-9 -41 -6 -50 q10 -23 12 -28 q13 -29 13 -41 q0 -22 -26 -33 q-9 -4 -25 -4 q-74 0 -163 92 q-104 109 -147 280 q-20 82 -30.5 178 q-10.5 96 -10.5 191 l-498 0 l-30 32 l528 0 q0 61 0.5 101.5 q0.5 40.5 1.5 68.5 q40 -5 61 -7 q63 -8 78 -16 q8 -4 8 -9 q0 -4 -23 -22 q-12 -10 -12 -18 q-9 -16 -9 -98 l92 0 q6 0 14 5 q8 5 17 14 Z" /><glyph glyph-name="uni8FD4" unicode="&#x8fd4;" d="M269 614 q8 -21 8 -36 q0 -26 -17 -41 q-17 -15 -41 -15 q-22 0 -37 12 q-15 12 -19.5 41.5 q-4.5 29.5 -26.5 58.5 q-20 23 -39 46 q2 3 18 3 q43 0 84 -14 q56 -19 70 -55 ZM553 516 q24 -63 45 -97 q29 -48 80 -92 q24 36 53 114 q10 37 21 75 l-199 0 ZM478 697 q82 19 120.5 32 q38.5 13 80.5 34 q23 12 76 39.5 q53 27.5 67 30.5 q19 3 78 -63 q10 -20 20 -39 q-13 -7 -21 -7 q-5 0 -12.5 2 q-7.5 2 -14.5 4 q-25 -6 -64.5 -16 q-39.5 -10 -84.5 -18 q-68 -12 -128 -17.5 q-60 -5.5 -108 -5.5 l0 -126 l269 0 q14 17 31 30 q22 17 36 17 q17 0 61 -39 q44 -39 42 -47 q-2 -8 -21 -21 q-15 -10 -24 -15 q-18 -35 -48 -86 q-33 -56 -79 -113 q43 -22 103.5 -38 q60.5 -16 118.5 -30 q5 -4 5 -9 q0 -6 -13 -18 q-17 -16 -23 -24 q-11 -15 -15.5 -50 q-4.5 -35 -17.5 -38 q-23 -7 -89 24 q-82 38 -145 109 q-71 -58 -156 -96 q-75 -34 -112 -34 q-9 0 -14 3 q18 16 37 32 q131 85 197 159 q-40 61 -66 134 q-22 64 -29 119 l-48 0 l0 -57 q0 -41 -3 -66 q-9 -76 -37 -133 q-42 -85 -91 -137 q-36 -38 -65 -49 q22 -30 55 -50 q45 -28 93 -32 q48 -4 104 -4 q79 0 186.5 5.5 q107.5 5.5 222.5 11.5 q10 0 12 -1 q5 -3 5 -10 q0 -8 -4.5 -19.5 q-4.5 -11.5 -11 -22.5 q-6.5 -11 -8.5 -19 q-2 -8 -2 -15 q0 -4 1 -12.5 q1 -8.5 1 -12.5 q0 -9 -6 -13 q-2 -1 -78.5 -3 q-76.5 -2 -165.5 -2 q-82 0 -142 2 q-60 2 -100 8.5 q-40 6.5 -83.5 34 q-43.5 27.5 -67 61.5 q-23.5 34 -39.5 67 q-21 42 -20 43 l-126 -175 q1 -3 1 -5 q1 -6 1 -13 q0 -18 -10 -23 q-10 -5 -37 32 q-25 44 -49 87 l151 97 l0 209 l-117 0 l-28 33 l131 0 q11 16 29 29.5 q18 13.5 35 15.5 q16 0 55 -42.5 q39 -42.5 34 -57.5 q-1 -6 -14.5 -14.5 q-13.5 -8.5 -26.5 -9.5 l0 -144 q2 -4 3 -7 q6 -13 9 -19 q35 40 56.5 100.5 q21.5 60.5 29.5 133.5 q3 33 4 77.5 q1 44.5 1 49.5 l0 66 l0 226 q55 -12 103 -40 Z" /><glyph glyph-name="uni6362" unicode="&#x6362;" d="M571 493 l-86 0 l0 -257 l74 0 q9 43 12.5 85.5 q3.5 42.5 3.5 86.5 q0 28 -1 47 q-1 19 -3 38 ZM785 236 l0 257 l-59 0 q-3 -4 -16 -5.5 q-13 -1.5 -15 -8.5 q-1 -6 -1 -13 l0 -36 q0 -45 -5 -93 q-5 -48 -19 -101 l115 0 ZM644 525 l132 0 q4 6 27 23 q23 17 32 17 q11 0 47 -27.5 q36 -27.5 35 -35.5 q-2 -15 -18 -25 q-16 -10 -16 -17 l0 -164 q7 4 15 4 q7 0 11 -4 q23 -18 43 -38 q27 -27 27 -40 q0 -14 -27 -14 l-293 0 q24 -44 64 -84 q46 -46 96 -71 q42 -22 113 -36 q53 -11 54 -20 q1 -5 -3 -10 q-9 -9 -17 -19 q-11 -16 -20 -46.5 q-9 -30.5 -20 -41.5 q-7 -8 -67 22 q-71 36 -115 89 q-22 27 -50.5 78 q-28.5 51 -47.5 101 q-10 -24 -23.5 -48.5 q-13.5 -24.5 -31.5 -48.5 q-63 -83 -174 -144 q-95 -52 -143 -52 q-6 0 -10 2 q13 16 27 31 q78 52 99 69 q70 56 113 117 q31 45 49 112 l-236 0 l-29 32 l100 0 l0 251 q-20 -14 -37.5 -22.5 q-17.5 -8.5 -25.5 -8.5 q-2 4 -4 9 q28 35 52 71 q-8 -6 -31 -6 l-83 0 l0 -136 q66 36 95 46 q7 -1 14 -2 q-7 -19 -37.5 -51 q-30.5 -32 -71.5 -67 l0 -308 q0 -56 -18 -91 q-25 -48 -81 -48 q-21 0 -29 5.5 q-8 5.5 -8 14.5 q3 18 3 27 q0 11 -5 17 q-11 14 -71 46 q-25 13 -26 20 q-1 2 1 3 q2 1 7 1 q9 0 32 -4 q53 -9 64 -9 q7 0 10 1 q7 2 12 10 q5 8 5 23 q-1 13 -1 16 l0 189 l-67 -53 q-2 -2 -3 -17.5 q-1 -15.5 -13 -18.5 q-12 -3 -33 64 q-8 35 -16 70 q22 8 60 25.5 q38 17.5 72 34.5 l0 192 l-115 0 l-29 34 l144 0 l0 252 q44 -2 65 -4 q66 -6 66 -16 q0 -10 -17 -21 q-3 -2 -9 -5 l0 -192 q11 12 24.5 25 q13.5 13 26.5 13 q13 0 27 -13 q20 -19 31.5 -34.5 q11.5 -15.5 10.5 -24.5 q12 9 40 73 q9 21 26 61 q20 57 32 102 q4 15 9 35 q38 -4 77 -8 q81 -17 81 -32 q0 -10 -15.5 -12 q-15.5 -2 -17.5 -5 q-7 -13 -12.5 -23 q-5.5 -10 -19.5 -33 l110 0 q15 11 32 19 q25 12 39 10 q23 -5 50.5 -43.5 q27.5 -38.5 21.5 -51.5 q-4 -9 -23 -10 q-19 -1 -20 -2 q-12 -12 -51 -41 q-53 -39 -93 -58 ZM690 670 l-131 0 q-45 -70 -107 -129 q10 -4 13 -6 q9 -5 17 -10 l125 0 q42 61 64 97 q22 36 19 48 Z" /><glyph glyph-name="uni56DE" unicode="&#x56de;" d="M412 484 l0 -267 l163 0 l0 267 l-163 0 ZM409 516 l148 0 q10 10 40.5 23 q30.5 13 37.5 10 q15 -4 38.5 -21.5 q23.5 -17.5 46.5 -38.5 q8 -7 8 -17 q0 -11 -12.5 -26.5 q-12.5 -15.5 -25.5 -30.5 l0 -244 q0 -15 -12 -32 q-19 -26 -55 -26 q-25 0 -36.5 15 q-11.5 15 -11.5 28 l0 29 l-163 0 l0 -50 q0 -15 -23.5 -33 q-23.5 -18 -49.5 -18 q-13 0 -27.5 10 q-14.5 10 -14.5 27 l0 439 q22 -2 51.5 -12 q29.5 -10 60.5 -32 ZM204 679 l0 -699 l590 0 l0 699 l-590 0 ZM192 711 l589 0 q11 20 38 40 q27 20 37 18 q14 -3 32.5 -18 q18.5 -15 54.5 -54 q4 -5 4 -11 q0 -9 -12.5 -22 q-12.5 -13 -25.5 -25 l0 -690 q0 -12 -18 -29 q-23 -21 -50 -21 q-19 0 -33 11 q-14 11 -14 25 l0 13 l-590 0 l0 -17 q0 -22 -22.5 -37.5 q-22.5 -15.5 -54.5 -15.5 q-15 0 -29 9 q-14 9 -14 25 l0 833 q17 -2 49.5 -12 q32.5 -10 58.5 -22 Z" /><glyph glyph-name="uni9B42" unicode="&#x9b42;" d="M135 424 l-101 0 l-28 33 l253 0 q10 0 32.5 26.5 q22.5 26.5 37.5 26.5 q7 0 12 -2 q7 -3 15 -11 q19 -18 29.5 -33 q10.5 -15 10.5 -24 q0 -16 -35 -16 l-116 0 q12 -5 18.5 -9.5 q6.5 -4.5 5.5 -7.5 q-4 -8 -15.5 -10 q-11.5 -2 -11.5 -3 q-43 -63 -79 -116 q-41 -60 -61 -80 l194 20 q-7 16 -17 38 q-10 22 -10 30 q0 6 7 6 q29 0 75 -36 q55 -43 62 -98 q1 -5 1 -10 q0 -5 0 -10 q0 -35 -17 -56 q-17 -21 -40 -21 q-21 0 -35 18.5 q-14 18.5 -14 54.5 q0 5 0 11 q2 9 2 13 q1 16 -5 35 l-194 -107 q-2 -1 -6 -15.5 q-4 -14.5 -14 -17.5 q-11 -2 -35.5 37 q-24.5 39 -28.5 70 q-1 11 20 28 q15 12 20 19 q24 51 41 110 q14 47 27 107 ZM331 612 l-260 0 l-28 33 l192 0 q8 0 40 35 q14 16 26 16 q11 0 21 -10 q20 -19 31.5 -34 q11.5 -15 11.5 -24 q0 -16 -34 -16 ZM600 486 l-87 0 l0 -128 l81 0 q4 32 5 61 q1 29 1 67 ZM591 646 l-78 0 l0 -128 l86 0 q0 32 -4 76 q-4 44 -4 52 ZM793 518 l0 128 l-48 0 q0 -9 -15 -17 q-5 -2 -16 -6 q-1 -27 -1.5 -58.5 q-0.5 -31.5 -0.5 -46.5 l81 0 ZM793 358 l0 128 l-83 0 q0 -29 -4 -61 q-4 -32 -11 -67 l98 0 ZM568 678 q9 21 12.5 42.5 q3.5 21.5 3.5 43.5 q-4 46 -4 49 q0 3 10 3 q35 0 88 -17 q30 -10 29 -16 q-2 -9 -20 -13 q-3 0 -9 -1 q-12 -21 -20 -33 q-27 -38 -57 -58 l178 0 q19 16 32 25 q24 16 34 16 q12 0 44.5 -26.5 q32.5 -26.5 34.5 -36.5 q1 -4 -12.5 -15.5 q-13.5 -11.5 -13.5 -16.5 l0 -295 q0 -11 -20.5 -23 q-20.5 -12 -48.5 -12 q-18 0 -27 7.5 q-9 7.5 -9 15.5 l0 9 l-104 0 l-6 -24 q22 -2 39.5 -6 q17.5 -4 17.5 -8 q1 -10 -10.5 -18 q-11.5 -8 -11.5 -10 l0 -218 q0 -25 11 -38.5 q11 -13.5 42 -13.5 l77 0 q11 3 16 5 q17 7 24 17 q2 3 8 16 q11 24 11 25 q-21 7 -24 39 l-5 28 l-106 -51 q-1 -1 -4 -11.5 q-3 -10.5 -10 -10.5 q-7 0 -23 25.5 q-16 25.5 -16 41.5 q0 8 12 17 q22 36 64 125 q15 31 17 31 q21 -9 43 -17 q43 -22 37 -32 q-3 -6 -13 -7 q-10 -1 -11 -2 q-7 -2 -56 -47 q-24 -22 -47 -44 l105 5 q-4 9 -17 27 q-7 10 -6 14 q2 2 10 2 q24 0 46 -12 q30 -16 37 -47 q2 2 3 3 q5 4 6 3 q2 -2 2 -10 q0 -15 -10 -59 q-10 -44 -7 -50 q14 -8 20 -14 q20 -18 20 -38 q0 -10 -6 -21 q-15 -24 -48 -41 q-10 -5 -29 -12 l-170 0 q-54 0 -77.5 20.5 q-23.5 20.5 -23.5 66.5 l0 171 q-49 -79 -138 -151 q-72 -58 -149 -97 q-67 -34 -83 -29 q28 24 56 47 q88 66 144 129 q89 101 125 215 q9 30 15 66 l-79 0 q-6 -17 -20 -28 q-14 -11 -43 -11 q-17 0 -28 8 q-15 11 -15 31 l0 389 q14 -2 47 -13.5 q33 -11.5 55 -23.5 l61 0 Z" /><glyph glyph-name="uni51FB" unicode="&#x51fb;" d="M432 552 l-276 0 l-28 32 l304 0 l0 205 q7 1 11 1 q41 0 93.5 -8 q52.5 -8 52.5 -23 q0 -11 -16.5 -18 q-16.5 -7 -16.5 -19 l0 -138 l112 0 q11 0 46 35 q35 35 51 35 q5 0 12 -5 q32 -28 44 -40 q28 -29 28 -43 q0 -14 -27 -14 l-266 0 l0 -191 l190 0 q12 0 50 36 q38 36 56 36 q7 0 12 -4 q27 -19 51 -41 q32 -30 32 -45 q0 -14 -27 -14 l-364 0 l0 -343 l160 0 l0 288 q0 2 14 2 q28 0 77.5 -8.5 q49.5 -8.5 59.5 -18.5 q7 -7 -4 -14 q-33 -21 -33 -24 l0 -283 q0 -19 -17 -35.5 q-17 -16.5 -50 -16.5 q-24 0 -35.5 9.5 q-11.5 9.5 -11.5 23.5 l0 45 l-446 0 q0 -10 -20 -29 q-20 -19 -26 -19 q-11 0 -46 26.5 q-35 26.5 -35 38.5 q0 5 11 19 q11 14 11 19 l0 268 q0 3 13 3 q29 0 69 -8.5 q40 -8.5 56 -21.5 q9 -7 -4.5 -15.5 q-13.5 -8.5 -28.5 -18.5 l0 -230 l162 0 l0 343 l-370 0 l-31 32 l401 0 l0 191 Z" /><glyph glyph-name="uni7C4D" unicode="&#x7c4d;" d="M769 219 q17 9 26 13 q29 13 43 13 q13 0 50 -24 q37 -24 39 -32 q1 -4 -14.5 -14.5 q-15.5 -10.5 -15.5 -14.5 l0 -247 q0 -10 -16 -22.5 q-16 -12.5 -46 -12.5 q-23 0 -37 8.5 q-14 8.5 -14 15.5 l0 16 l-162 0 q0 -14 -23 -28.5 q-23 -14.5 -49 -14.5 q-19 0 -30.5 9 q-11.5 9 -11.5 20 l0 352 q30 -3 63 -14 q23 -8 51 -23 l147 0 ZM784 85 l0 102 l-162 0 l0 -102 l162 0 ZM784 -50 l0 103 l-162 0 l0 -103 l162 0 ZM736 309 l0 115 l-79 0 l0 -115 l79 0 ZM689 676 l-24 0 q-44 -51 -84 -86 q-48 -42 -99 -68 q11 26 22 53 q52 86 65 125 q6 21 16 63.5 q10 42.5 10 47.5 q0 4 10 4 q28 0 88 -22 q60 -22 57 -35 q-2 -9 -15 -10 q-13 -1 -20 -10 l-23 -30 l132 0 q8 0 44 34 q17 16 32 16 q12 0 28 -13 q23 -19 33.5 -31.5 q10.5 -12.5 10.5 -22.5 q0 -15 -38 -15 l-198 0 q31 -13 50 -31 q26 -23 30 -49 q1 -5 1 -14 q0 -19 -9 -31 q43 -8 58 -15 q15 -7 11 -13 q-7 -10 -23.5 -22.5 q-16.5 -12.5 -16.5 -14.5 l0 -22 q15 21 24 31 q17 20 30 20 q5 0 12 -5 q21 -18 35 -34 q21 -24 21 -37 q0 -15 -25 -15 l-97 0 l0 -111 q2 1 29 32 q20 23 34 23 q8 0 13 -5 q19 -15 38 -35 q23 -25 23 -37 q0 -14 -27 -14 l-491 0 l-27 32 l127 0 l0 115 l-75 0 l-8 10 q-3 -11 -29 -11 l-136 0 l0 -70 q7 4 20 19 q25 27 41 27 q13 0 27 -13 q19 -17 30.5 -31 q11.5 -14 11.5 -23 q0 -15 -37 -15 l-93 0 l0 -75 l23 0 q9 0 33 28 q24 28 39 28 q7 0 15 -6 q28 -25 36 -34 q20 -21 20 -33 q0 -15 -30 -15 l-136 0 q29 2 73 -19 q54 -25 68 -61 q8 -20 11 -35.5 q3 -15.5 3 -31.5 q0 -30 -14 -46 q-14 -16 -35 -16 q-22 0 -39 19.5 q-17 19.5 -17 53.5 q0 38 -18 69 q-24 32 -32 43 l0 -265 q0 -17 -19 -35.5 q-19 -18.5 -48 -18.5 q-45 0 -45 35 l0 157 l-13 -13 q-104 -111 -149 -111 q6 16 13 31 q40 55 69 124 q10 25 20 62 q10 37 14 58 l-82 0 l-28 32 l156 0 l0 75 l-97 0 l-28 32 l125 0 l0 74 l-128 0 l-28 32 l156 0 l0 141 q0 4 17 4 q26 0 70 -8 q44 -8 53 -16 q-1 7 1 23 q2 14 -10.5 35.5 q-12.5 21.5 -23.5 41.5 l-58 0 q-42 -48 -86 -87 q-51 -45 -100 -70 q11 26 22 53 q52 86 65 125 q6 21 16 63.5 q10 42.5 10 47.5 q0 4 10 4 q28 0 88 -22 q60 -22 57 -35 q-2 -9 -15 -10 q-13 -1 -20 -10 l-21 -27 l115 0 q8 0 44 34 q17 16 32 16 q12 0 28 -13 q23 -19 33.5 -31.5 q10.5 -12.5 10.5 -22.5 q0 -15 -38 -15 l-140 0 q29 -14 46 -31 q23 -22 27 -46 q1 -4 1 -7 q0 -4 0 -7 q0 -25 -15.5 -39.5 q-15.5 -14.5 -35.5 -14.5 q-33 0 -42 33 q-4 -6 -16.5 -13 q-12.5 -7 -12.5 -8 l0 -88 l23 0 q9 0 33 28 q24 28 39 28 q7 0 15 -6 q19 -16 30.5 -28 q11.5 -12 17.5 -21 l90 0 l0 103 q51 -5 75 -9 q33 -14 66 -27 q-7 -10 -23.5 -22.5 q-16.5 -12.5 -16.5 -14.5 l0 -30 l79 0 l0 84 q-14 14 -14 39 q0 5 2 17 q2 14 -13 40 q-20 36 -22 40 Z" /><glyph glyph-name="uni8BB0" unicode="&#x8bb0;" d="M278 695 q15 -30 15 -56 q0 -24 -15.5 -37.5 q-15.5 -13.5 -36.5 -13.5 q-24 0 -42 16 q-18 16 -18 45 q0 35 -28 67 q-18 19 -35 38 q-1 2 0 3 q4 3 14 3 q33 0 82.5 -18.5 q49.5 -18.5 63.5 -46.5 ZM791 728 q15 10 24 14 q29 15 41 15 q13 0 48.5 -28 q35.5 -28 37.5 -38 q1 -4 -18 -20 q-11 -9 -11 -13 l0 -289 q0 -12 -13 -24 q-18 -17 -47 -17 q-22 0 -35.5 9.5 q-13.5 9.5 -13.5 18.5 l0 27 l-229 0 l0 -332 q0 -40 50 -40 l206 0 q11 1 17 2 q20 5 29 17 q9 12 43 128 q9 18 19 36 q1 -1 1 -10 q0 -21 -2 -48 q-7 -93 -7 -95 q0 -14 2 -16 q17 -14 25 -22 q15 -15 15 -31 q0 -7 -3 -18 q-10 -28 -42 -46 q-10 -5 -30 -12 l-336 0 q-48 0 -73 26 q-25 26 -25 68 l0 449 l76 -20 l264 0 l0 277 l-322 0 l-31 32 l340 0 ZM166 58 q7 13 9 31 q2 18 2 43 l0 314 l-130 -14 l-23 30 l146 15 q9 11 22.5 22.5 q13.5 11.5 20.5 11.5 q17 0 51.5 -25 q34.5 -25 38.5 -46 q1 -4 -11.5 -17 q-12.5 -13 -12.5 -17 l0 -297 l158 47 l-168 -164 q-2 -2 -9.5 -23.5 q-7.5 -21.5 -13.5 -22.5 q-13 -2 -50 47.5 q-37 49.5 -30 64.5 Z" /><glyph glyph-name="uni5956" unicode="&#x5956;" d="M233 679 q15 -29 15 -54 q0 -24 -14 -36.5 q-14 -12.5 -35 -12.5 q-22 0 -40 16 q-18 16 -18 43 q0 34 -26 64 q-17 18 -34 37 q-1 2 0 3 q4 3 13 3 q32 0 74 -16 q51 -20 65 -47 ZM280 531 l0 271 q0 2 14 2 q31 0 71.5 -7 q40.5 -7 52.5 -17 q5 -5 -7 -13.5 q-12 -8.5 -26 -18.5 l0 -414 q0 -15 -16 -30 q-20 -19 -48 -19 q-21 0 -31 9 q-10 9 -10 25 l0 166 q-34 -30 -82 -71 q-43 -36 -85 -72 q0 -10 -1 -15 q-4 -17 -17 -21 q-14 -3 -33 59 q-19 62 -11 65 q55 22 122 52 q53 24 107 49 ZM683 694 l132 0 q18 10 41.5 21 q23.5 11 33.5 11 q17 0 53 -45 q36 -45 28 -52 q-6 -6 -24.5 -8 q-18.5 -2 -22.5 -8 q-16 -31 -52.5 -79.5 q-36.5 -48.5 -94.5 -101.5 q-53 -46 -138 -86 q-75 -35 -141 -50 q42 -4 73.5 -12.5 q31.5 -8.5 30.5 -17.5 q-2 -11 -20 -11 q-18 0 -20 -8 l-8 -47 l227 0 q12 0 46 37 q34 37 51 37 q7 0 12 -4 q26 -20 46 -41 q30 -31 30 -47 q0 -14 -25 -14 l-378 0 q29 -38 67 -68 q50 -39 117 -63.5 q67 -24.5 138 -26.5 q71 -2 76 -8 q4 -3 -5 -14.5 q-9 -11.5 -10 -13.5 q-7 -12 -9.5 -54.5 q-2.5 -42.5 -9.5 -44.5 q-3 -1 -12 -1 q-41 0 -110 24 q-81 28 -135 72 q-38 31 -74 82 q-31 43 -56 93 q-12 -37 -27 -64 q-19 -35 -45 -60 q-81 -79 -201 -119 q-90 -30 -167 -30 q-15 0 -26 2 q-11 2 -14 4 q25 14 51 27 q90 33 140 63 q89 54 132 132 q14 24 24 68 l-330 0 l-28 32 l366 0 q7 33 12 77 q0 7 1.5 14 q1.5 7 3.5 7 q49 15 102.5 45.5 q53.5 30.5 107.5 81.5 q-16 4 -26.5 18.5 q-10.5 14.5 -10.5 39.5 q0 6 2 20 q2 14 -11 40 q-3 5 -15 27 q-44 -42 -87.5 -70 q-43.5 -28 -60.5 -28 q4 12 8 24 q76 90 112 183 q24 64 36 108 q2 8 5 19 q38 -4 77 -7 q81 -16 81 -31 q0 -9 -15.5 -11 q-15.5 -2 -18.5 -5 q-1 -2 -11 -19.5 q-10 -17.5 -24 -38.5 ZM809 662 l-148 0 q-21 -31 -51 -63 q37 -13 64 -37 q34 -29 38 -62 q36 40 81 118 q8 22 16 44 Z" /><glyph glyph-name="uni9636" unicode="&#x9636;" d="M623 428 q0 -13 -10 -19 q-13 -5 -25 -10 q-1 -34 -2 -80.5 q-1 -46.5 -21 -141 q-20 -94.5 -83 -168.5 q-51 -60 -118 -100 q-56 -33 -84 -33 q15 20 31 40 q64 64 101 133 q59 112 59 245 q0 83 -2.5 108 q-2.5 25 -3.5 37 q-3 6 6.5 8 q9.5 2 29.5 2 q37 0 79.5 -7 q42.5 -7 42.5 -14 ZM819 418 q5 -5 -7 -12 q-12 -7 -25 -15 l0 -470 q0 -15 -18 -31.5 q-18 -16.5 -48 -16.5 q-22 0 -34 7.5 q-12 7.5 -12 24.5 l0 544 q32 -3 65 -5 q66 -12 79 -26 ZM255 733 l-94 0 l0 -519 q34 -3 57 -6 q23 -3 25 -3 q18 0 27 14 q15 23 15 82 q0 54 -28.5 116 q-28.5 62 -50.5 77 l49 239 ZM681 706 q23 -33 50 -58 q37 -35 85 -61 q36 -20 87 -30 q87 -17 87 -18 q3 -14 -6 -25 q-16 -19 -16 -20 q-10 -20 -18 -51 q-8 -31 -11 -38 q-1 -4 -11 -4 q-26 0 -79 31 q-60 35 -95 79 q-23 28 -47 68 q-29 49 -49 97 q-72 -110 -147.5 -174.5 q-75.5 -64.5 -172.5 -98.5 q13 -22 22.5 -46.5 q9.5 -24.5 15.5 -54 q6 -29.5 6 -52.5 q0 -69 -42 -108 q-35 -32 -79 -32 q-6 0 -21 3 q-15 3 -21 20 q-6 17 -10 32 q-2 3 -17 10 q-21 10 -31 14 l0 -266 q0 -20 -19.5 -35.5 q-19.5 -15.5 -46.5 -15.5 q-19 0 -29 11 q-10 11 -10 28 l0 895 q13 -2 46 -14 q33 -12 54 -27 l87 0 q19 14 34.5 21.5 q15.5 7.5 24.5 7.5 q21 0 55 -36 q34 -36 28 -48 q-4 -6 -27 -17 q-8 -3 -24 -10 l-106 -180 q15 -4 36 -19 q29 -21 53 -51 q44 35 75 67 q53 55 99 129 q37 60 53 93 q9 20 34 82 q-1 5 7 5 q22 0 80.5 -29.5 q58.5 -29.5 58.5 -41.5 q0 -21 -18 -21 q-3 0 -11 2 q-3 -2 -4 -3 q-5 -4 -10 -10 Z" /><glyph glyph-name="uni89E3" unicode="&#x89e3;" d="M402 342 l-42 0 l0 -145 l42 0 l0 145 ZM262 342 l-42 0 l0 -145 l42 0 l0 145 ZM296 516 l-76 0 l0 -142 l42 0 l0 127 q-1 3 8 7 q9 4 26 8 ZM402 516 l-14 0 q4 -11 -12 -23.5 q-16 -12.5 -16 -15.5 l0 -103 l42 0 l0 142 ZM283 548 q20 30 40 60 q25 39 28 57 l-107 0 q-32 -51 -73 -96 q9 -4 21.5 -9.5 q12.5 -5.5 23.5 -11.5 l67 0 ZM683 251 l-71 0 q-28 -39 -51 -64 q-30 -33 -60 -56 l0 -23 l182 0 l0 143 ZM820 728 l-56 0 q0 -8 -9.5 -12 q-9.5 -4 -19.5 -8 q-10 -52 -24.5 -98.5 q-14.5 -46.5 -36.5 -77.5 q36 -10 72 -19 q8 0 10 2 q32 18 55 90 q19 59 19 98 q0 7 -2 11 l-8 14 ZM624 728 l-83 0 l-27 32 l300 0 q11 10 28 19 q17 9 29 9 q25 0 56.5 -27.5 q31.5 -27.5 31.5 -43.5 q0 -7 -17 -20 q-17 -13 -20 -17 q-4 -33 -8 -66 q-15 -77 -48 -124 q-46 -67 -122 -67 q-31 0 -31 24 q0 11 5 29 q3 14 -28 29 q-14 6 -27 13 q-32 -37 -82 -66 q-43 -25 -80 -33 l0 -240 q20 33 37 88 q24 79 24 110 q30 -5 60 -10 q60 -23 58 -38 q-1 -8 -11.5 -9 q-10.5 -1 -15.5 -9 l-17 -26 l47 0 l0 140 q30 -2 60 -4 q61 -11 75 -25 q4 -5 -7 -12 q-11 -7 -23 -15 l0 -84 l24 0 q8 0 30 30 q22 30 34 30 q7 0 12 -6 q19 -22 30 -36 q18 -25 18 -36 q0 -16 -26 -16 l-122 0 l0 -143 l47 0 q5 0 30 33 q25 33 41 33 q7 0 13 -6 q19 -16 38 -39 q23 -27 23 -41 q0 -16 -27 -16 l-165 0 l0 -148 q0 -15 -16.5 -30.5 q-16.5 -15.5 -44.5 -15.5 q-19 0 -31.5 7.5 q-12.5 7.5 -12.5 22.5 l0 164 l-182 0 l0 -79 q0 -10 -0.5 -20 q-0.5 -10 -3.5 -24 q-6 -30 -47.5 -53 q-41.5 -23 -63.5 -19 q-16 3 -17.5 24.5 q-1.5 21.5 -5.5 28.5 q-7 13 -34 28 q-27 15 -54 30 q-1 3 2 4 q3 1 10 1 q13 0 48 -4.5 q35 -4.5 43 -4.5 q8 0 15.5 3.5 q7.5 3.5 8 12 q0.5 8.5 0.5 13.5 l0 152 l-42 0 l0 -71 q0 -14 -17.5 -26.5 q-17.5 -12.5 -38.5 -12.5 q-10 0 -23 6 q-19 9 -19 22 l0 82 l-42 0 q0 -109 -54 -185.5 q-54 -76.5 -135 -101.5 q21 17 51 95 q35 89 35 208 l0 63 l0 271 q-63 -53 -86 -53 q3 13 7 26 q73 97 106 199 q15 48 30 104 q4 15 9 35 q36 -5 73 -9 q76 -17 76 -32 q0 -10 -14.5 -12 q-14.5 -2 -17.5 -6 q-2 -2 -11.5 -22 q-9.5 -20 -21.5 -42 l80 0 q11 9 30 19 q25 13 38 11 q22 -4 48 -42.5 q26 -38.5 20 -51.5 q-3 -7 -15.5 -8.5 q-12.5 -1.5 -25.5 -2.5 q-4 -5 -35 -30 q-38 -30 -69 -50 l50 0 q10 9 29 20 q24 14 35 14 q15 0 47 -28.5 q32 -28.5 36 -42.5 q1 -7 -16.5 -19.5 q-17.5 -12.5 -17.5 -15.5 l0 -34 q32 17 57 47 q37 44 56 114 q7 25 8.5 54 q1.5 29 1.5 71 Z" /><glyph glyph-name="uni7CBE" unicode="&#x7cbe;" d="M171 569 q1 -7 1 -19 q0 -32 -16.5 -51 q-16.5 -19 -38.5 -19 q-20 0 -32 15 q-15 18 -15 51 q0 5 0 11 q2 8 2 12 q2 17 -10 44 q-31 68 -31 71 q0 5 7 5 q29 0 73 -32 q53 -39 60 -88 ZM801 115 l0 83 l-228 0 l0 -83 l228 0 ZM287 529 q16 25 30.5 54.5 q14.5 29.5 20 43.5 q5.5 14 16.5 51.5 q11 37.5 11 40.5 q28 -12 56 -24 q59 -36 56 -44 q-3 -6 -8 -8 q-5 -2 -11 -2 q-6 0 -10 1 q-1 0 -5 2 q-17 -26 -64 -76 q-58 -61 -92 -78 l0 -47 q7 5 21 19 q24 24 41 24 q12 0 25 -10 q23 -17 37.5 -32 q14.5 -15 14.5 -24 q0 -16 -41 -16 l-98 0 l0 -39 q27 -2 57.5 -13 q30.5 -11 49.5 -25 q23 -18 34 -34 q18 -26 18 -60 q0 -37 -20 -59.5 q-20 -22.5 -45 -22.5 q-21 0 -35 16.5 q-14 16.5 -14 47.5 q0 30 -15 60 q-10 20 -30 45 l0 -397 q0 -15 -16 -33 q-20 -23 -49 -23 q-16 0 -27 14.5 q-11 14.5 -11 25.5 l0 308 l-19 -30 q-33 -52 -78 -100 q-45 -48 -65 -48 q4 14 8 28 q59 104 90 202 q12 38 20 72 q8 34 13 65 l-86 0 l-34 32 l151 0 l0 366 q0 4 15 4 q30 0 71.5 -10.5 q41.5 -10.5 50.5 -24.5 q4 -8 -15 -21.5 q-19 -13.5 -19 -18.5 l0 -202 ZM573 316 l0 -86 l228 0 l0 86 l-228 0 ZM774 348 q24 20 43 31 q19 11 29 11 q16 0 56.5 -34 q40.5 -34 42.5 -41 q2 -7 -19 -20 q-7 -4 -22 -13 l0 -309 q0 -38 -37 -68 q-33 -26 -66 -26 q-31 0 -31 27 q0 7 1 11 q5 21 -15 38 q-27 18 -54 36 q-1 3 0 4 q2 2 7 2 q8 0 35.5 -5.5 q27.5 -5.5 35.5 -5.5 q8 0 11 2 q7 4 8 11.5 q1 7.5 2 15.5 l0 68 l-228 0 l0 -167 q0 -11 -21.5 -25 q-21.5 -14 -39.5 -14 q-16 0 -27.5 8.5 q-11.5 8.5 -11.5 22.5 l0 478 q17 -2 44.5 -12 q27.5 -10 55.5 -25 l201 -1 ZM630 659 l-157 0 l-28 32 l185 0 l0 121 q31 -3 63 -5 q65 -10 68 -24 q2 -6 -21 -21 q-4 -2 -12 -7 l0 -64 l80 0 q9 0 33 27 q24 27 39 27 q7 0 15 -6 q36 -32 43 -41 q13 -15 13 -25 q0 -14 -30 -14 l-193 0 l0 -87 l29 0 q8 0 45 34 q18 16 32 16 q13 0 29 -13 q23 -19 33.5 -31.5 q10.5 -12.5 10.5 -22.5 q0 -15 -39 -15 l-140 0 l0 -94 l90 0 q6 0 32.5 29.5 q26.5 29.5 42.5 29.5 q6 0 14 -5 q21 -15 41 -35 q24 -24 24 -37 q0 -14 -28 -14 l-495 0 l-28 32 l209 0 l0 94 l-138 0 l-30 32 l168 0 l0 87 Z" /><glyph glyph-name="uni7ECF" unicode="&#x7ecf;" d="M428 175 q-30 -33 -115 -86 q-57 -35 -140 -79 q-70 -37 -71 -39 q-3 -8 -5 -16 q-5 -17 -16 -21 q-11 38 -21 75 q-3 40 -6 80 q45 7 147 35 q81 22 163 45 q32 3 64 6 ZM96 549 q24 30 57 105.5 q33 75.5 59 152.5 q42 -16 63 -24 q64 -27 64 -37 q-1 -12 -11.5 -14 q-10.5 -2 -22.5 -2 q-38 -47 -61 -75 q-72 -84 -126 -129 l142 5 l45 81 q29 -13 58 -25 q57 -36 54 -48 q-2 -10 -13.5 -11.5 q-11.5 -1.5 -19.5 -1.5 q-8 -13 -43 -52 q-47 -52 -91 -92 q-59 -53 -108 -80 l241 24 l-3 -16 l-242 -122 q-3 -1 -7 -16 q-4 -15 -14 -17 q-13 -4 -40 36 q-27 40 -32 72 q-2 12 20.5 26.5 q22.5 14.5 46.5 30.5 q20 23 40 47 q46 55 86 125 l-122 -53 q-2 -1 -6 -15 q-4 -14 -13 -14 q-11 0 -32 32 q-21 32 -21 53 q0 9 18 24 q27 22 34 30 ZM733 -50 l90 0 q9 0 41 32 q32 32 46 32 q7 0 11 -4 q25 -21 40 -38 q24 -26 24 -40 q0 -14 -25 -14 l-585 0 l-26 32 l262 0 l0 261 l-156 0 l-26 32 l357 0 q5 0 30.5 31.5 q25.5 31.5 41.5 26.5 q-7 10 -15 25 q-4 7 -14 30 q-15 34 -46 65 q-22 23 -57 48 q-75 -77 -172 -129 q-135 -72 -191 -60 q19 13 38 27 q71 41 128 91 q90 80 156 189 q25 41 36 69 q5 13 16 49 l-294 0 l-27 32 l319 0 q29 25 48 36.5 q19 11.5 31 11.5 q14 0 53.5 -38.5 q39.5 -38.5 39.5 -53.5 q0 -11 -18.5 -24 q-18.5 -13 -27.5 -14 q-14 -27 -40.5 -67.5 q-26.5 -40.5 -64.5 -85.5 q28 -6 60.5 -16.5 q32.5 -10.5 53.5 -20.5 q51 -26 75 -59 q21 -29 21 -60 q0 -23 -12.5 -41.5 q-12.5 -18.5 -27 -23 q-14.5 -4.5 -25.5 -4.5 q-8 0 -16 3 q17 -16 28 -30 q11 -14 11 -25 q0 -14 -25 -14 l-147 0 l-19 -15 l0 -246 Z" /><glyph glyph-name="uni7396" unicode="&#x7396;" d="M154 632 l-97 0 l-28 32 l257 0 q8 0 42 34 q16 16 30 16 q13 0 27 -13 q19 -17 30.5 -31 q11.5 -14 11.5 -23 q0 -15 -37 -15 l-100 0 l-28 -27 l0 -207 q7 0 41 33 q16 16 30 16 q7 0 12 -2 q7 -3 15 -10 q19 -17 30 -31 q11 -14 11 -23 q0 -15 -36 -15 l-103 0 l0 -194 q109 29 115 30 q54 13 70 13 q6 0 7 -1 q-1 -3 -2 -5 q-35 -39 -128 -94 q-59 -35 -156 -85 q-78 -40 -79 -42 q-1 0 -6 -17.5 q-5 -17.5 -17 -21.5 q-12 41 -24 81 q-4 43 -7 86 q41 7 119 27 l0 223 l-88 0 l-28 32 l116 0 l0 234 ZM589 595 l115 0 q13 15 30 26 q23 15 39 15 q20 0 59 -40.5 q39 -40.5 34 -55.5 q-1 -5 -27 -22 q-13 -9 -17 -18 q-14 -52 -35 -117.5 q-21 -65.5 -56 -132.5 q17 -36 32 -62 q19 -33 41 -59 q56 -68 160 -126 q12 -12 25 -24 q-7 -6 -29 -13 q-12 -4 -19 -8 q-15 -9 -41 -50 q-12 -19 -28 -30 q-16 -12 -58 48 q-33 47 -70 118 q-16 30 -27 66.5 q-11 36.5 -20 82.5 l-17 -26 q-69 -97 -167 -168 q-80 -58 -167 -92 q-72 -28 -110 -28 q-14 0 -16 5 q-4 11 64 48 q97 53 164 121 q110 111 179 278 q23 58 42.5 122 q19.5 64 27.5 110 l-120 0 l-12 -29 q-56 -124 -111 -195 q-44 -58 -66 -58 q-6 0 -6 6 q29 64 55 153 q30 100 40 208 q0 70 1.5 97.5 q1.5 27.5 3.5 44.5 q-2 4 4 6 q5 2 18 2 q44 0 104.5 -16 q60.5 -16 60.5 -32 q0 -11 -17.5 -15 q-17.5 -4 -18.5 -6 q-4 -7 -12 -33 q-21 -71 -32 -101 Z" /><glyph glyph-name="uni4E5D" unicode="&#x4e5d;" d="M616 530 q14 10 38.5 23 q24.5 13 36.5 14 q18 0 57.5 -35.5 q39.5 -35.5 35.5 -49.5 q-3 -9 -21 -19 q-6 -3 -18 -9 l-27 -395 q0 -8 0.5 -20 q0.5 -12 10.5 -17 q2 -1 23.5 -3.5 q21.5 -2.5 52.5 -2.5 q23 0 40.5 1 q17.5 1 19.5 3 q11 12 29.5 70 q18.5 58 37.5 115 q3 -2 3 -15 q0 -15 -4 -46 q-10 -78 -10 -91 q0 -17 4 -22 q20 -14 34 -31.5 q14 -17.5 14 -37.5 q0 -11 -4 -22 q-9 -27 -40 -38 q-10 -3 -31 -7 l-217 0 q-43 0 -66 28 q-23 28 -23 73 l28 500 l-148 0 q0 -67 -11.5 -127 q-11.5 -60 -33.5 -113 q-49 -120 -143 -218 q-74 -77 -156 -124 q-71 -40 -89 -32 q27 29 55 57 q84 77 138 163 q83 133 101 292 q3 24 5.5 56.5 q2.5 32.5 2.5 45.5 l-225 0 l-27 34 l253 0 q0 87 0 146 q0 59 1 106 q7 1 18.5 2.5 q11.5 1.5 36.5 1.5 q51 0 86.5 -5 q35.5 -5 35.5 -17 q0 -8 -13.5 -16.5 q-13.5 -8.5 -28.5 -17.5 q-1 -35 -2 -102 q-1 -67 -1 -98 l141 0 Z" /><glyph glyph-name="uni5177" unicode="&#x5177;" d="M850 -123 q-5 -2 -12 -3 q-6 -1 -11 -1 q-26 0 -44 25 q-10 14 -28.5 56 q-18.5 42 -64.5 84 q-44 34 -87 69 q0 5 17 5 q32 0 84.5 -13.5 q52.5 -13.5 91.5 -33.5 q51 -26 76 -61 q21 -29 21 -60 q0 -25 -12.5 -43 q-12.5 -18 -30.5 -24 ZM674 467 l0 104 l-358 0 l0 -104 l358 0 ZM674 323 l0 112 l-358 0 l0 -112 l358 0 ZM674 175 l0 116 l-358 0 l0 -116 l358 0 ZM316 716 l0 -113 l358 0 l0 113 l-358 0 ZM304 748 l363 0 q11 8 31.5 19 q20.5 11 25.5 10 q8 0 32.5 -17.5 q24.5 -17.5 47.5 -36.5 q9 -8 9 -17 q0 -10 -13.5 -23.5 q-13.5 -13.5 -13.5 -15.5 l0 -491 q6 1 58 51 q23 22 37 22 q7 0 12 -4 q29 -23 47 -41 q30 -31 30 -47 q0 -14 -25 -14 l-605 0 q32 -12 73.5 -49 q41.5 -37 34.5 -49 q-6 -9 -15 -9 q-1 0 -10.5 1.5 q-9.5 1.5 -13.5 -0.5 q-17 -15 -38 -32 q-25 -21 -46 -37 q-44 -34 -114.5 -62 q-70.5 -28 -111.5 -28 q-11 0 -19.5 3 q-8.5 3 -8.5 7 q31 19 77 54 q50 38 98 93 l75 108 l-254 0 l-28 32 l157 0 l0 614 q22 -7 45 -14 q36 -13 63 -27 Z" /><glyph glyph-name="uni770B" unicode="&#x770b;" d="M709 80 l0 91 l-303 0 l0 -91 l303 0 ZM709 -48 l0 96 l-303 0 l0 -96 l303 0 ZM406 303 l0 -100 l303 0 l0 100 l-303 0 ZM365 682 q-81 0 -120.5 4 q-39.5 4 -60.5 14 q-10 4 -10 8 q0 6 68 9 q182 8 273 35 q68 20 111 35 q60 21 78 19 q15 0 73 -50 q24 -30 48 -59 q-9 -5 -17 -5 q-3 0 -18.5 4.5 q-15.5 4.5 -26.5 4.5 q-58 -6 -112.5 -10.5 q-54.5 -4.5 -92.5 -4.5 q-2 -11 -26 -20.5 q-24 -9.5 -25 -12.5 q-3 -5 -7 -18 q-9 -29 -18 -58 l194 0 q7 0 61 43 q26 21 41 21 q8 0 13 -4 q27 -19 47 -38 q29 -27 29 -40 q0 -14 -30 -14 l-366 0 q-13 -36 -16 -44 q-8 -20 -22 -50 l341 0 q7 0 57 50 q24 24 38 24 q7 0 12 -4 q24 -19 45 -41 q29 -31 29 -47 q0 -14 -24 -14 l-514 0 q-5 -15 -22 -41 q-13 -20 -19 -29 q7 -2 14 -5 q7 -3 15 -9 l284 0 q11 9 40 20 q29 11 37 9 q17 -4 47.5 -22 q30.5 -18 50.5 -35 q7 -7 7 -13 q0 -8 -13 -16.5 q-13 -8.5 -27 -16.5 l0 -339 q0 -10 -21 -24.5 q-21 -14.5 -49 -14.5 q-24 0 -38 9.5 q-14 9.5 -14 19.5 l0 8 l-303 0 l0 -16 q0 -12 -24 -25.5 q-24 -13.5 -52 -13.5 q-17 0 -30.5 8.5 q-13.5 8.5 -13.5 22.5 l0 351 q-70 -65 -157 -110 q-74 -39 -85 -30 q13 15 26 30 q59 43 98 86 q71 79 127 196 l-211 0 l-28 32 l254 0 q7 17 16.5 47 q9.5 30 14.5 47 l-191 0 l-31 32 l229 0 q4 21 10 56.5 q6 35.5 7 48.5 Z" /><glyph glyph-name="uni89C8" unicode="&#x89c8;" d="M574 169 q26 0 44.5 -3 q18.5 -3 18.5 -7 q0 -6 -17 -19 q-17 -13 -17 -16 l0 -95 q0 -20 8.5 -26 q8.5 -6 36.5 -6 l182 0 q10 2 15 3 q17 5 24 14.5 q7 9.5 22 53.5 q15 39 30 78 q4 -3 4 -32 q0 -11 -2 -54.5 q-2 -43.5 -1 -48.5 q0 -5 12.5 -21.5 q12.5 -16.5 12.5 -30.5 q0 -12 -8 -28 q-8 -16 -41 -26 q-11 -3 -32 -6 l-278 0 q-49 0 -71 22 q-22 22 -22 67 l0 30 q-67 -70 -207 -112 q-108 -32 -188 -32 q-21 0 -25 4 q30 15 61 30 q97 34 155 68 q99 58 143 138 q16 30 25 83.5 q9 53.5 9 99.5 q-1 4 6.5 6 q7.5 2 24.5 2 q39 0 84.5 -9.5 q45.5 -9.5 43.5 -20.5 q-2 -11 -15.5 -14.5 q-13.5 -3.5 -16 -13.5 q-2.5 -10 -6 -25 q-3.5 -15 -15.5 -53 ZM246 738 q5 -5 -6 -13 q-15 -12 -30 -23 l0 -223 q0 -19 -18.5 -31.5 q-18.5 -12.5 -41.5 -12.5 q-16 0 -28 7.5 q-12 7.5 -15 22.5 l0 295 q31 -2 63 -3 q64 -9 76 -19 ZM660 393 q17 14 26 21 q29 21 43 21 q14 0 52 -24 q38 -24 40 -33 q1 -4 -19 -18 q-11 -8 -11 -12 l0 -251 q-1 -18 -21.5 -28.5 q-20.5 -10.5 -46.5 -10.5 q-20 0 -34 7.5 q-14 7.5 -15 22.5 l0 273 l-329 0 l0 -260 q-3 -19 -23.5 -30.5 q-20.5 -11.5 -45.5 -11.5 q-14 0 -25 4 q-21 8 -23 26 l0 338 q23 -2 53.5 -10.5 q30.5 -8.5 61.5 -23.5 l317 0 ZM455 781 q5 -6 -7 -14 q-34 -22 -34 -24 l0 -288 q0 -23 -18.5 -35.5 q-18.5 -12.5 -42.5 -12.5 q-18 0 -29.5 8 q-11.5 8 -11.5 24 l0 363 q0 5 23 5 q33 0 72 -7.5 q39 -7.5 48 -18.5 ZM830 556 q16 -31 16 -52 q0 -24 -15.5 -36.5 q-15.5 -12.5 -38.5 -12.5 q-26 0 -44.5 15 q-18.5 15 -18.5 43 q0 33 -29 63 q-19 18 -37 36 q-1 3 2 4 q5 2 13 2 q35 0 86 -17.5 q51 -17.5 66 -44.5 ZM648 673 l162 0 q10 0 23 14 q32 33 46 33 q13 0 26 -12 q20 -18 30 -30 q10 -12 10 -20 q0 -15 -35 -15 l-285 0 q-38 -49 -71 -82 q-42 -42 -82 -65 q10 28 20 56 q46 89 59 133 q7 24 18 86 q3 16 6 32 q0 4 9 4 q26 0 80 -23 q54 -23 52 -37 q-2 -9 -14 -10 q-12 -1 -18 -11 l-36 -53 Z" /><glyph glyph-name="uni52B1" unicode="&#x52b1;" d="M202 705 l267 0 q9 0 33 28 q24 28 39 28 q7 0 15 -6 q28 -25 36 -34 q20 -21 20 -33 q0 -15 -30 -15 l-363 0 l0 -139 l225 0 q7 0 41 34 q16 16 30 16 q13 0 27 -13 q19 -17 30 -31 q11 -14 11 -23 q0 -15 -36 -15 l-94 0 q-4 -9 -19 -13.5 q-15 -4.5 -15 -5.5 q-6 -12 -6 -103 l46 0 q9 9 35 21 q26 12 32 11 q18 -5 41.5 -25.5 q23.5 -20.5 37.5 -42.5 q2 -4 -7 -12 q-25 -21 -25 -26 q-1 -1 -1 -13 q0 -12 0 -25.5 q0 -13.5 1 -29.5 q0 -38 -1.5 -61.5 q-1.5 -23.5 -7.5 -57.5 q-18 -112 -60 -171 q-32 -45 -69 -52 q-14 -3 -23 -3 q-28 0 -28 32 q0 6 0 12 q2 9 2 14 q2 18 -34.5 37.5 q-36.5 19.5 -34.5 24.5 q1 4 11 4 q12 0 34 -5 q47 -11 54 -7 q23 12 37 61 q10 35 17 91 q4 35 6.5 78.5 q2.5 43.5 2.5 100.5 l-8 12 l-60 0 q0 -41 -6 -83 q-6 -42 -16 -75 q-35 -105 -98 -183 q-49 -60 -102 -91 q-46 -26 -51 -14 q43 34 93 124 q56 101 78 263 q3 24 5 91 q2 67 2 122 l-97 0 l0 -209 l0 -57 q0 -127 -53 -217 q-56 -94 -135 -122 q21 20 51 113 q35 107 35 249 l0 75 l0 406 q47 -11 85 -35 ZM779 520 l0 -126 q0 -84 -16 -176 q-16 -92 -46 -154 q-35 -70 -101 -131 q-54 -49 -77 -54 q13 13 53 80 q45 76 68 183 q11 54 15 105.5 q4 51.5 4 103.5 q0 33 0 40 l0 129 l-79 0 l-28 36 l107 0 l0 250 q46 0 68 -2 q69 -7 69 -30 q0 -14 -18 -26 q-10 -7 -19 -13 l0 -179 l55 0 q5 10 31 28 q26 18 33 15 q23 -10 41.5 -24.5 q18.5 -14.5 34.5 -36.5 q4 -5 -9 -24.5 q-13 -19.5 -13 -27.5 l0 -283 q0 -136 -43 -223 q-51 -103 -114 -103 q-30 0 -42 8.5 q-12 8.5 -12 22.5 q0 10 6 24 q3 7 6 14 q0 14 -32 41 q-32 27 -30 30 q4 4 11 4 q9 0 34.5 -9.5 q25.5 -9.5 38.5 -9.5 q11 0 19 4 q35 16 47 85 q4 22 10 83 q0 9 1 124.5 q1 115.5 1 166.5 q0 18 0 28.5 q0 10.5 0 15.5 q-1 9 -1 11 l-73 0 Z" /><glyph glyph-name="uni7075" unicode="&#x7075;" d="M281 178 q-16 -35 -35.5 -50.5 q-19.5 -15.5 -40.5 -15.5 q-26 0 -44 20 q-18 20 -18 46 q0 15 8.5 29 q8.5 14 27.5 23 q39 20 59 65 q15 42 30 84 q9 0 17.5 -39.5 q8.5 -39.5 8.5 -81.5 q0 -22 -3 -43 q-3 -21 -10 -37 ZM870 299 q-5 -9 -18 -9 q-4 0 -11.5 1.5 q-7.5 1.5 -8.5 1.5 q-56 -58 -103.5 -92 q-47.5 -34 -83.5 -40 q-10 -1 -10 2 q19 25 42 54.5 q23 29.5 40 62.5 q6 11 23 56 q2 6 7 18 q31 -10 62 -19 q64 -29 61 -36 ZM718 755 q17 10 26 14 q30 15 43 15 q14 0 53.5 -24 q39.5 -24 41.5 -32 q1 -4 -14.5 -14.5 q-15.5 -10.5 -15.5 -13.5 l0 -271 q-2 -16 -21.5 -26 q-19.5 -10 -43.5 -10 q-20 0 -33 6.5 q-13 6.5 -19 21.5 l0 18 l-160 0 q29 -5 42.5 -10.5 q13.5 -5.5 11.5 -12.5 q-3 -13 -24 -25 q-21 -12 -23 -18 q-3 -3 -10 -49.5 q-7 -46.5 -14 -77.5 q22 -42 48 -72 q30 -35 83 -73 q44 -32 119 -54 q70 -18 141 -35 q5 -4 5 -9 q0 -7 -12 -18 q-19 -17 -23 -23 q-11 -13 -15.5 -47 q-4.5 -34 -17.5 -37 q-24 -6 -88 23 q-83 38 -145 107 q-37 40 -65 87.5 q-28 47.5 -46 96.5 q-14 -40 -25 -63 q-5 -11 -23 -39 q-61 -97 -211 -162 q-118 -51 -192 -51 q-13 0 -16 3 q30 17 61 34 q92 42 147 86 q90 71 123 168 q21 61 34.5 144.5 q13.5 83.5 9.5 122.5 l0 4 l-279 0 l-27 32 l591 0 l0 112 l-520 0 l-25 32 l545 0 l0 108 l-564 0 l-27 32 l574 0 Z" /><glyph glyph-name="uni9886" unicode="&#x9886;" d="M349 329 q4 10 39 25 q23 10 35 8 q22 -4 49 -41 q27 -37 21 -49 q-3 -7 -16 -8.5 q-13 -1.5 -26 -2.5 q-42 -51 -81 -94 q-43 -48 -79 -84 q39 -22 59 -51 q17 -25 17 -50 q0 -22 -11 -38.5 q-11 -16.5 -24.5 -20.5 q-13.5 -4 -22.5 -4 q-27 0 -46 33 q-5 9 -18 38 q-21 46 -80 93 q-28 21 -55 42 q0 5 15 5 q22 0 65 -10.5 q43 -10.5 74 -23.5 q18 39 39 84 q47 99 52 117 l-253 0 l-27 32 l274 0 ZM715 93 q20 2 72.5 -11.5 q52.5 -13.5 85.5 -31.5 q44 -24 64 -54 q20 -30 20 -59 q0 -23 -11 -40 q-11 -17 -24.5 -21 q-13.5 -4 -21.5 -4 q-26 0 -45 35 q-3 6 -17 40 q-19 44 -68 89 q-30 24 -59 48 q-41 -90 -138 -154 q-80 -53 -128 -53 q-6 0 -10 2 q21 14 42 27 q62 39 103 101 q61 92 75 230 q2 20 3 47.5 q1 27.5 1 52.5 q0 39 -1.5 68 q-1.5 29 -2.5 47 q0 3 19 3 q37 0 75 -8 q38 -8 38 -21 q0 -13 -13.5 -21.5 q-13.5 -8.5 -12.5 -48.5 q1 -40 -8.5 -118 q-9.5 -78 -37.5 -145 ZM312 724 q39 -9 80 -28.5 q41 -19.5 62.5 -47.5 q21.5 -28 21.5 -65 q0 -15 -4 -25 q-8 -20 -30 -27 q-16 -4 -22 -4 q-22 0 -34.5 14.5 q-12.5 14.5 -18.5 44 q-6 29.5 -28 60.5 q-14 20 -42 48 q-26 -59 -41.5 -87.5 q-15.5 -28.5 -34.5 -53.5 q33 -4 69.5 -21.5 q36.5 -17.5 49.5 -44 q13 -26.5 13 -51.5 q0 -24 -13.5 -36.5 q-13.5 -12.5 -33.5 -12.5 q-21 0 -37.5 15.5 q-16.5 15.5 -16.5 43.5 q0 29 -15 52 q-6 9 -30 33 q-53 -74 -113 -131 q-54 -50 -75 -54 q9 23 18 46 q83 147 114 249 q19 60 31 120 q4 20 9 51 q39 -10 79 -19 q80 -27 80 -39 q0 -11 -12 -14.5 q-12 -3.5 -20 -5.5 l-6 -10 ZM635 722 l-174 0 l-26 32 l391 0 q6 0 30.5 29.5 q24.5 29.5 38.5 29.5 q6 0 13 -5 q21 -16 38 -35 q22 -24 22 -37 q0 -14 -26 -14 l-177 0 q-11 -6 -21 -12 q-11 -25 -24 -49 q-26 -48 -55 -72 l122 0 q4 9 29.5 27 q25.5 18 32.5 16 q15 -4 37.5 -19 q22.5 -15 40.5 -33 q6 -6 6 -13 q0 -9 -15.5 -18.5 q-15.5 -9.5 -15.5 -10.5 l0 -403 q-2 -19 -19.5 -30.5 q-17.5 -11.5 -37.5 -11.5 q-40 0 -40 30 l0 434 l-194 0 l0 -421 q0 -16 -20 -29 q-20 -13 -44 -13 q-32 0 -42 29 l0 492 q28 -4 52 -10.5 q24 -6.5 43 -15.5 l27 0 q7 18 10 39 q3 21 3 38 q0 20 -2 34 q-2 14 -3 22 Z" /><glyph glyph-name="uni516D" unicode="&#x516d;" d="M579 651 q0 -32 -21 -51 q-21 -19 -50 -19 q-23 0 -38.5 14 q-15.5 14 -15.5 41 q0 35 -27 68 q-28 27 -55 54 q6 6 26 6 q26 0 65 -10 q39 -10 60 -22 q25 -16 37 -30 q19 -22 19 -51 ZM933 485 l-864 0 l-28 34 l732 0 q12 0 46 40 q34 40 51 40 q7 0 12 -4 q22 -19 46 -45 q30 -34 30 -50 q0 -15 -25 -15 ZM893 127 q33 -55 33 -109 q0 -37 -15 -62 q-15 -25 -39 -30 q-12 -2 -18 -2 q-52 0 -79 92 q-20 68 -40 136 q-25 44 -63.5 96.5 q-38.5 52.5 -74.5 102.5 q29 -9 58 -17 q61 -31 124 -82 q78 -63 114 -125 ZM484 294 q0 -14 -17.5 -15.5 q-17.5 -1.5 -25.5 -1.5 q-1 0 -36 -51 q-10 -15 -59 -82 q-64 -88 -173 -167 q-97 -70 -122 -67 q25 28 81 100 q64 83 112 184 q29 62 47 127 q6 21 13 53 q44 -13 89 -26 q91 -40 91 -54 Z" /><glyph glyph-name="uni5F55" unicode="&#x5f55;" d="M432 209 q-30 -38 -110 -92 q-46 -32 -135 -83 q-67 -39 -68 -41 q-1 0 -5 -17.5 q-4 -17.5 -15 -21.5 q-11 40 -21 80 q-3 42 -6 85 q40 7 116 29.5 q76 22.5 149.5 44.5 q73.5 22 89.5 22 q5 0 6 -1 q2 -2 -1 -5 ZM335 325 q15 -33 15 -62 q0 -26 -14 -40.5 q-14 -14.5 -34 -14.5 q-22 0 -39 17.5 q-17 17.5 -17 48.5 q0 31 -16 58 q-22 29 -43 58 q-1 3 2 5 q4 2 11 2 q30 0 72 -19 q50 -23 63 -53 ZM641 731 l-431 0 l-27 32 l452 0 q14 13 22 19 q26 20 43 20 q21 0 58 -39 q37 -39 28 -47 q-12 -11 -28 -22 q-7 -5 -7 -11 l-16 -226 l50 0 q12 0 46 37 q34 37 51 37 q7 0 12 -4 q26 -20 46 -41 q30 -31 30 -47 q0 -14 -25 -14 l-367 0 q0 -8 -11 -19 q-11 -11 -14 -14 q18 -44 35 -74 q22 -37 56 -72 q31 25 85 88 q18 21 48 59 q32 -30 65 -60 q7 -19 15 -37 q-10 -4 -21 -0.5 q-11 3.5 -19 6.5 q-30 -19 -87 -40.5 q-57 -21.5 -79 -21.5 q51 -55 134 -87 q82 -23 164 -46 q5 -4 5 -9 q0 -7 -12 -19 q-17 -17 -22 -24 q-10 -13 -14.5 -48 q-4.5 -35 -17.5 -38 q-22 -7 -86 24 q-80 39 -140 110 q-39 45 -66.5 96.5 q-27.5 51.5 -45.5 107.5 l0 -329 q0 -30 -35.5 -63.5 q-35.5 -33.5 -77.5 -33.5 q-9 0 -16.5 1 q-7.5 1 -9 25.5 q-1.5 24.5 -7.5 36.5 q-9 17 -35 32 q-57 33 -58 36 q-1 2 0 3 q2 2 10 2 q10 0 45 -6 q35 -6 48 -6 q7 0 14.5 2 q7.5 2 10.5 11.5 q3 9.5 3 34.5 l0 372 l-361 0 l-28 32 l566 0 l9 113 l-402 0 l-27 32 l432 0 l10 129 Z" /><glyph glyph-name="uni9646" unicode="&#x9646;" d="M258 733 l-94 0 l0 -519 q34 -3 57 -6 q23 -3 25 -3 q18 0 27 14 q15 23 15 82 q0 54 -28.5 116 q-28.5 62 -50.5 77 l49 239 ZM159 765 l87 0 q19 14 34.5 21.5 q15.5 7.5 24.5 7.5 q21 0 55 -36 q34 -36 28 -48 q-4 -6 -27 -17 q-8 -3 -24 -10 l-106 -180 q33 -10 72 -50 q57 -59 76 -150 q6 -30 6 -53 q0 -69 -42 -108 q-35 -32 -79 -32 q-6 0 -21 3 q-15 3 -21 20 q-6 17 -10 32 q-2 3 -17 10 q-21 10 -31 14 l0 -266 q0 -21 -20 -36 q-20 -15 -43 -15 q-16 0 -28 9.5 q-12 9.5 -14 29.5 l0 895 q19 -3 38 -6 q31 -14 62 -35 ZM600 556 l-191 0 l-30 32 l221 0 l0 206 q46 -3 69 -5 q69 -9 69 -26 q0 -10 -14.5 -17 q-14.5 -7 -14.5 -19 l0 -139 l55 0 q10 0 36 27 q26 27 41 27 q8 0 16 -6 q28 -25 37 -33 q22 -22 22 -33 q0 -14 -32 -14 l-175 0 l0 -160 l91 0 q9 0 42 32 q33 32 49 32 q7 0 11 -4 q37 -30 52.5 -48.5 q15.5 -18.5 15.5 -29.5 q0 -14 -27 -14 l-234 0 l0 -371 l84 0 l0 331 q33 -2 67 -4 q69 -10 76 -21 q6 -9 -14.5 -20 q-20.5 -11 -20.5 -13 l0 -340 q0 -23 -19 -35.5 q-19 -12.5 -43 -12.5 q-20 0 -33 7.5 q-13 7.5 -13 23.5 l0 52 l-275 0 q-6 -11 -24.5 -25.5 q-18.5 -14.5 -25.5 -14.5 q-11 0 -45 25.5 q-34 25.5 -35 36.5 q0 6 12 19 q12 13 12 18 l0 303 q0 3 13 3 q27 0 69.5 -8.5 q42.5 -8.5 60.5 -20.5 q-2 -7 -3 -13 q-17 -10 -33 -20 l0 -271 l81 0 l0 371 l-215 0 l-28 32 l243 0 l0 160 Z" /><glyph glyph-name="uni6BCF" unicode="&#x6bcf;" d="M579 176 q3 -9 5.5 -21 q2.5 -12 2.5 -20 q0 -29 -17.5 -45.5 q-17.5 -16.5 -41.5 -16.5 q-21 0 -37.5 13.5 q-16.5 13.5 -21.5 47 q-5 33.5 -27 65.5 q-20 26 -40 52 q2 3 20 3 q63 0 109 -25 q37 -20 48 -53 ZM670 71 q8 34 11.5 74 q3.5 40 3.5 130 l-365 0 l-26 -204 l376 0 ZM590 412 q7 -20 7 -38 q0 -28 -16.5 -43.5 q-16.5 -15.5 -40.5 -15.5 q-21 0 -36 13 q-15 13 -19.5 44 q-4.5 31 -25.5 61 q-19 24 -38 48 q2 3 19 3 q40 0 81 -15 q55 -20 69 -57 ZM682 501 l-333 0 l-25 -194 l362 0 q0 34 0 67 q0 33 1 65 q0 8 0 12 q0 45 -5 50 ZM319 533 l347 0 q11 10 37.5 25 q26.5 15 33.5 13 q27 -9 47 -23 q20 -14 40 -36 q4 -5 -15 -29 q-11 -14 -11 -21 l0 -145 q26 26 39 39 q25 25 40 25 q6 0 11 -4 q27 -20 47 -41 q30 -31 30 -47 q0 -14 -25 -14 l-142 0 q0 -100 -2.5 -131 q-2.5 -31 -12.5 -73 l10 0 q11 0 44 37 q33 37 49 37 q7 0 11 -4 q26 -20 45 -41 q28 -30 28 -47 q0 -14 -24 -14 l-172 0 q-23 -68 -63 -112 q-50 -54 -91 -54 q-35 0 -48.5 8 q-13.5 8 -13.5 23 q0 10 6 23 q3 7 7 13 q0 11 -23.5 30 q-23.5 19 -46.5 38 q4 4 13 4 q8 0 37 -9 q29 -9 46 -9 q14 0 21 3 q28 11 42 42 l-371 0 q-4 -11 -12 -19 q-12 -12 -29 -15 q-13 -3 -60 36 q-24 20 -24 28 q0 5 19 28 q9 11 9 15 l22 163 l-141 0 l-28 32 l173 0 l33 249 l68 -23 ZM303 684 l440 0 q11 0 45 35 q34 35 50 35 q5 0 12 -5 q29 -25 43 -40 q27 -29 27 -43 q0 -14 -26 -14 l-615 0 q-45 -60 -92 -106 q-55 -55 -108 -85 q2 13 4 26 q22 43 45 86 q33 64 45 105 q5 18 16.5 75.5 q11.5 57.5 11.5 59.5 q0 4 10 4 q32 0 96.5 -26 q64.5 -26 61.5 -42 q-2 -11 -16.5 -12 q-14.5 -1 -21.5 -12 l-28 -41 Z" /><glyph glyph-name="uni79D8" unicode="&#x79d8;" d="M499 148 q-14 -36 -34.5 -53.5 q-20.5 -17.5 -40.5 -17.5 q-24 0 -42.5 21.5 q-18.5 21.5 -18.5 48.5 q0 17 8 31.5 q8 14.5 27 24.5 q48 26 66 92.5 q18 66.5 22 66.5 q9 0 17 -41 q8 -41 8 -89 q0 -38 -2.5 -52 q-2.5 -14 -9.5 -32 ZM175 678 q-36 -3 -66 -3 q-37 0 -49 6 q22 10 44 20 q79 21 121 44 q106 60 116 60 q13 0 55 -46 q15 -27 30 -53 q-8 -3 -13 -3 q-9 0 -20.5 5.5 q-11.5 5.5 -14.5 4.5 q-9 1 -28.5 -5 q-19.5 -6 -33.5 -10 q-4 -7 -14 -18 q-3 -3 -9 -9 l0 -174 l33 0 q9 0 33 28 q24 28 39 28 q7 0 15 -6 q28 -25 36 -34 q20 -21 20 -33 q0 -15 -30 -15 l-146 0 l0 -34 q34 -8 71.5 -30.5 q37.5 -22.5 57 -52 q19.5 -29.5 19.5 -70.5 q0 -22 -6.5 -35.5 q-6.5 -13.5 -23.5 -19.5 q-5 -2 -10 -3 q-5 -1 -10 -1 q-19 0 -30.5 16 q-11.5 16 -17 44 q-5.5 28 -19 53.5 q-13.5 25.5 -31.5 50.5 l0 -479 q0 -14 -24 -26 q-24 -12 -51 -12 q-18 0 -29.5 6.5 q-11.5 6.5 -13.5 22.5 l0 313 q-39 -57 -79 -99 q-36 -38 -49 -38 q5 21 11 43 q39 79 65 176 q11 41 21 92.5 q10 51.5 13 82.5 l-123 0 l-28 32 l169 0 l0 181 ZM871 127 q-2 10 -2 17 q0 12 5 29 q5 17 7 33.5 q2 16.5 2 31.5 q0 45 -24 99 q-2 9 -3 19 q13 2 48 -27 q83 -68 83 -154 q0 -47 -16.5 -75.5 q-16.5 -28.5 -48.5 -24.5 q-12 0 -21.5 6 q-9.5 6 -17.5 17 q-5 -31 -7 -49.5 q-2 -18.5 0 -23.5 q1 -2 20.5 -14 q19.5 -12 19.5 -32 q0 -3 -2 -13 q-8 -37 -45 -59 q-12 -7 -37 -15 l-190 0 q-88 0 -88 83 l0 55 q-73 -57 -139 -91 q-61 -31 -74 -24 q13 15 27 29 q110 83 186 174 l0 433 q-1 3 6 5 q8 0 12 0 q33 0 82 -9.5 q49 -9.5 49 -17.5 q0 -7 -17 -13 q-17 -6 -17 -15 l0 -212 q40 70 74 172 q29 85 45 158 q16 73 16 98 q0 6 10 6 q25 0 89 -26 q64 -26 68 -37 q5 -14 -16 -20 q-21 -6 -22 -8 q-20 -54 -40 -107 q-42 -112 -86 -196 q-64 -122 -138 -195 l0 -79 q0 -49 55 -49 l52 0 q5 -1 17.5 -1.5 q12.5 -0.5 24.5 17.5 q12 18 23 42 q29 61 30 63 ZM720 584 q-8 -5 -21 -5 q-19 0 -35 16 q-21 21 -31 63.5 q-10 42.5 -34 73.5 q-23 23 -46 47 q0 4 15 4 q28 0 70 -13 q42 -13 69 -37 q22 -19 32.5 -40.5 q10.5 -21.5 10.5 -45.5 q0 -20 -8 -37.5 q-8 -17.5 -22 -25.5 Z" /><glyph glyph-name="uni51DD" unicode="&#x51dd;" d="M214 661 q7 -12 10 -25.5 q3 -13.5 3 -24.5 q0 -27 -18 -44 q-18 -17 -42 -17 q-20 0 -35 15 q-15 15 -15 45 q0 49 -43 89 q-14 12 -28 25 q-1 2 1 3 q5 3 18 3 q38 0 79 -15 q52 -19 70 -54 ZM703 80 l0 185 q-4 -2 -10.5 -5 q-6.5 -3 -6.5 -4 q-1 -2 -12 -68 q-5 -33 -14 -69 q19 -21 43 -39 ZM370 657 q33 25 70 66 q31 34 45 57 q4 5 51 -33.5 q47 -38.5 40 -46.5 q-4 -5 -11 -5 q-4 0 -13 2.5 q-9 2.5 -11 1.5 q-14 -9 -30 -18 q-62 -35 -141 -56 q0 -21 5.5 -31 q5.5 -10 30.5 -10 q8 0 13 0 q14 0 22 0 q20 0 37.5 1 q17.5 1 20.5 4 q10 8 26 37 q30 56 32 55 q4 -2 -2 -32 q-6 -30 -6 -38 q0 -11 3 -17 q0 -1 16 -9 q16 -8 16 -26 q0 -10 -5 -27.5 q-5 -17.5 -27 -30.5 q-17 -10 -26 -9 l-154 0 q-18 -3 -41 5 q-33 11 -41 35 q-5 -26 -41 -120 q-44 -117 -57 -152 q-28 -79 -23 -88 q23 -38 33.5 -71.5 q10.5 -33.5 10.5 -59.5 q0 -39 -20.5 -60.5 q-20.5 -21.5 -48.5 -21.5 q-28 0 -46 19 q-21 22 -21 60 q0 35 20 81 q4 8 4 17 q0 28 -40 58.5 q-40 30.5 -39 33.5 q3 5 13 5 q9 0 28 -2.5 q19 -2.5 22 -2.5 q14 0 20 5 q12 11 52 87 q36 69 72 139 q41 77 54 89 q-3 13 -4 35 q-1 22 -1 26 l0 182 q40 -2 59 -4 q60 -6 60 -15 q0 -8 -13.5 -16.5 q-13.5 -8.5 -13.5 -13.5 l0 -85 ZM813 706 l-216 0 l-25 32 l242 0 q9 12 23 20 q22 13 39 11 q12 0 51 -40 q39 -40 32 -52 q-7 -14 -31 -18 q-13 -1 -25 -2 q-27 -29 -58 -53 q-31 -24 -58 -39 l13 -14 q22 -29 22 -62 q0 -19 -7.5 -31.5 q-7.5 -12.5 -25.5 -17.5 l60 0 q-2 11 11 20 q8 8 12 12 q15 13 25 13 q13 0 51 -38 q38 -38 38 -50 q0 -10 -26 -15 q-8 -1 -27 -3 q-33 -23 -49 -34 q-50 -33 -56 -29 q-6 5 11 48 q12 31 14 44 l-38 0 l-18 -20 l0 -148 l38 0 q12 0 43 30 q15 15 26 15 q7 0 16 -6 q22 -17 33 -30 q11 -13 11 -24 q0 -17 -35 -17 l-132 0 l0 -179 q58 -22 120.5 -24 q62.5 -2 67.5 -8 q3 -3 -3 -11 q-10 -13 -11 -16 q-7 -13 -8 -52.5 q-1 -39.5 -8 -42.5 q-22 -8 -94 17 q-83 29 -136 74 q-21 19 -43 47 q-17 21 -37 55 q-3 -9 -7 -20 q-4 -11 -13 -27 q-34 -62 -96 -108 q-55 -41 -84 -41 q-7 0 -9 4 q-2 3 39 39 q31 27 54 72 q-8 -3 -17 -3 q-19 0 -34 15 q-15 15 -15 43 q0 25 -12 47 q-6 10 -25 32 l-12 -35 q-31 -76 -112 -142 q-73 -60 -100 -54 q39 42 85 113 q52 80 61 165 l2 20 l-122 0 l-26 32 l151 0 q0 45 1 75 q1 30 2 57 l-7 0 q-34 -41 -64 -70 q-35 -33 -72 -54 q3 12 6 25 q53 101 63 134 q4 15 12.5 55.5 q8.5 40.5 8.5 43.5 q31 -5 63 -10 q64 -23 61 -37 q-1 -8 -12 -9 q-11 -1 -16 -9 l-26 -37 l54 0 q12 0 44 30 q16 15 27 15 q7 0 16 -6 q45 -33 45 -54 q0 -8 -8.5 -12.5 q-8.5 -4.5 -27.5 -4.5 l-49 0 q-2 -7 -11.5 -12.5 q-9.5 -5.5 -9.5 -7.5 q1 -10 1 -22 q0 -22 -1 -36 q-1 -14 -6 -51 q6 3 27 27 q18 20 31 20 q11 0 24 -13 q18 -18 28 -31.5 q10 -13.5 10 -22.5 q0 -15 -33 -15 l-92 0 l-9 -43 q44 -6 74 -26 q41 -27 45 -72 q17 40 24 116 q4 44 4 111 q0 16 0 21 q0 3 0 9 q-1 3 4 5 q6 2 16 2 q24 0 54.5 -6 q30.5 -6 48.5 -15 l0 118 l-115 0 l-28 32 l189 0 q-13 8 -18 14 q-8 10 -15 39 q-7 29 -34 64 q-29 31 -57 62 q-1 3 2 4 q3 1 10 1 q18 0 49.5 -9.5 q31.5 -9.5 60.5 -24.5 q4 6 32 51 q34 54 34 65 Z" /><glyph glyph-name="uni9B44" unicode="&#x9b44;" d="M247 164 l0 194 l-89 0 l0 -194 l89 0 ZM158 570 l0 -180 l89 0 l0 180 l-89 0 ZM166 789 q-1 2 2 3 q3 1 7 1 q26 0 75 -16.5 q49 -16.5 48 -26.5 q-1 -11 -15 -16 q-4 -1 -15 -3 q-13 -28 -23 -45 q-30 -51 -67 -84 l61 0 q13 9 36.5 19.5 q23.5 10.5 28.5 9.5 q12 -4 31 -17 q8 -6 36 -29 q16 -13 16 -24 q0 -10 -15 -19 q-15 -9 -15 -10 l0 -411 q-2 -15 -23.5 -26.5 q-21.5 -11.5 -45.5 -11.5 q-38 0 -41 28 l0 21 l-89 0 l0 -56 q0 -18 -20.5 -30 q-20.5 -12 -45.5 -12 q-19 0 -30.5 8 q-11.5 8 -11.5 25 l0 568 q16 -2 46 -11.5 q30 -9.5 53 -21.5 q12 30 16.5 62 q4.5 32 4.5 65 q-4 57 -4 60 ZM907 51 q-20 0 -27 14 q-7 14 -13 51 q-45 -22 -117 -50 q-13 -5 -33 -12 q-2 -1 -4 -11.5 q-2 -10.5 -6 -13.5 q-2 -2 -4 1 q-3 4 -5 10 l0 -13 q0 -26 10 -37 q10 -11 43 -11 l97 0 q20 5 30 16 q17 18 29 56 ZM500 471 l0 -128 l95 0 l0 128 l-95 0 ZM595 631 l-95 0 l0 -128 l95 0 l0 128 ZM786 503 l0 128 l-66 0 l-17 -18 l0 -110 l83 0 ZM786 343 l0 128 l-83 0 l0 -128 l83 0 ZM554 663 q19 50 19 84 q0 7 -2 22 q-2 15 -2 25 q0 4 11 4 q27 0 80 -12 q53 -12 52 -20 q-2 -6 -17 -10 q-5 -1 -16 -3 q-13 -20 -23 -31 q-30 -36 -67 -59 l183 0 q19 16 32 25 q24 16 34 16 q12 0 44.5 -26.5 q32.5 -26.5 34.5 -36.5 q1 -4 -12.5 -15.5 q-13.5 -11.5 -13.5 -16.5 l0 -295 q0 -14 -18.5 -24.5 q-18.5 -10.5 -42.5 -10.5 q-15 0 -27 5.5 q-12 5.5 -17 17.5 l0 9 l-81 0 q8 -1 13 -4 q2 -1 5 -4 q1 -10 -12 -18.5 q-13 -8.5 -13 -9.5 l0 -134 q16 5 28 20 q13 40 17 78 q1 11 1 33 q15 0 31 0 q71 -18 69 -35 q-1 -11 -15 -15 q-2 0 -7 -2 q-10 -17 -16 -27 q-21 -32 -41 -50 l91 4 q-5 11 -17 29 q-7 11 -6 15 q2 3 11 3 q30 0 56 -17 q36 -24 36 -70 q6 9 7 10 q4 3 6 1 q2 -2 2 -10 q0 -15 -10 -59 q-10 -44 -7 -50 q14 -10 21 -16 q22 -21 22 -40 q0 -9 -6 -20 q-14 -21 -48 -30 q-11 -3 -32 -5 l-194 0 q-56 0 -78.5 22.5 q-22.5 22.5 -22.5 64.5 l0 336 l-98 0 q-3 -12 -13 -22 q34 -4 73 -15.5 q39 -11.5 37 -19.5 q-2 -10 -17 -19 q-15 -9 -16 -13 q-8 -38 -27 -88 q-19 -50 -57 -106 q-50 -74 -150 -125 q-81 -41 -124 -41 q-7 0 -9 2 q57 28 123 95 q74 74 109 180 q10 29 18.5 67.5 q8.5 38.5 11.5 67.5 q-10 -2 -19 -2 q-20 0 -33 8 q-13 8 -13 31 l0 389 q14 -2 47 -13.5 q33 -11.5 55 -23.5 l60 0 Z" /><glyph glyph-name="uni4E03" unicode="&#x4e03;" d="M434 386 l0 -310 q0 -41 57 -41 l270 0 q27 0 37.5 1.5 q10.5 1.5 30 9.5 q19.5 8 40.5 58 q43 98 44 98 q5 -2 5 -18 q0 -20 -4 -50 q-9 -67 -7 -72 q0 -9 21.5 -33.5 q21.5 -24.5 21.5 -50.5 q0 -4 -2 -18 q-6 -27 -39 -42 q-23 -10 -39 -10 l-463 0 q-54 0 -79 25 q-25 25 -25 69 l0 357 l-254 -51 l-25 29 l279 59 l0 376 q-1 4 7 5 q8 1 26 1 q41 0 86 -6.5 q45 -6.5 48 -13.5 q3 -6 -8 -15 q-28 -23 -28 -30 l0 -289 l310 65 q21 4 59 54 q18 23 31 25 q31 4 74 -24.5 q43 -28.5 43 -46.5 q0 -7 -9 -9 l-508 -102 Z" /><glyph glyph-name="uni67D2" unicode="&#x67d2;" d="M192 627 q13 -23 13 -42 q0 -24 -17.5 -38.5 q-17.5 -14.5 -39.5 -14.5 q-20 0 -34 13 q-14 13 -14 38 q0 36 -29 65 q-19 16 -38 32 q1 2 3 4 q3 1 16 1 q38 0 74 -12 q49 -16 66 -46 ZM574 224 q30 -44 58 -71 q45 -43 112 -77 q47 -22 149 -35 q38 -5 40 -11 q3 -11 -2 -19 q-12 -12 -23 -24 q-11 -20 -19.5 -51.5 q-8.5 -31.5 -10.5 -36.5 q-1 -4 -11 -4 q-29 0 -88 31 q-65 34 -104 78 q-29 31 -59 79 q-37 59 -59 117 l0 -277 q-2 -20 -25.5 -34.5 q-23.5 -14.5 -49.5 -14.5 q-17 0 -28 6.5 q-11 6.5 -13 22.5 l0 203 q-16 -16 -29 -26 q-29 -23 -65 -47 q-89 -60 -189 -100 q-86 -34 -100 -27 q34 26 96 73 q71 54 124 114 q36 41 58 78 q10 17 26 53 l-281 0 l-31 32 l390 0 l0 92 q0 3 24 3 q31 0 69 -5.5 q38 -5.5 58 -16.5 q5 -3 5 -6 q0 -5 -13 -12.5 q-13 -7.5 -26 -15.5 l0 -39 l207 0 q9 0 63 51 q27 25 42 25 q8 0 13 -4 q28 -19 51 -42 q32 -31 32 -48 q0 -14 -27 -14 l-364 0 ZM313 738 q7 -17 7 -33 q0 -24 -14.5 -37.5 q-14.5 -13.5 -35.5 -13.5 q-44 0 -49.5 37.5 q-5.5 37.5 -24.5 64.5 q-17 21 -34 43 q2 2 15 2 q37 0 74 -13 q50 -17 62 -50 ZM477 579 l-122 -16 l-20 22 q-49 -96 -54 -106 q-24 -50 -19 -58 q16 -24 23.5 -45 q7.5 -21 7.5 -38 q0 -29 -19 -43.5 q-19 -14.5 -48 -14.5 q-29 0 -50 15 q-21 15 -21 43 q0 23 15 46 q6 11 6 20 q0 26 -41 50 q-18 11 -35 22 q8 4 23 4 q6 0 22.5 -1 q16.5 -1 25.5 -1 q14 0 21.5 1 q7.5 1 13.5 7 q26 21 81 104 q105 158 113 153 q7 -5 -12 -50 q-15 -34 -48 -99 l137 19 l0 171 q48 -1 97 -3.5 q49 -2.5 54 -11.5 q7 -12 -13 -26 q-6 -4 -22 -12 l0 -102 l181 25 q16 2 45 40 q16 21 30 25 q18 6 64 -22 q46 -28 46 -46 q0 -9 -14 -10 l-352 -47 l0 -103 q0 -36 41 -36 l205 0 q9 0 18 1 q9 1 16 13 q2 3 23 58 q11 19 23 38 q2 -1 2 -10 q0 -8 -4.5 -44.5 q-4.5 -36.5 -3.5 -41.5 q18 -13 30 -25 q12 -12 12 -28 q0 -4 -2 -12 q-8 -32 -50 -50 q-13 -5 -40 -11 l-295 0 q-51 0 -73 29 q-18 24 -18 69 l0 138 Z" /><glyph glyph-name="uni5668" unicode="&#x5668;" d="M336 -37 l0 183 l-109 0 l0 -183 l109 0 ZM780 -40 l0 183 l-109 0 l0 -183 l109 0 ZM335 566 l0 162 l-106 0 l0 -162 l106 0 ZM773 760 q14 11 30 20 q20 12 30 12 q15 0 52.5 -25.5 q37.5 -25.5 39.5 -35.5 q2 -6 -18 -25 q-3 -3 -10 -9 l0 -149 q-7 -22 -25 -32.5 q-18 -10.5 -40 -10.5 q-20 0 -35.5 8 q-15.5 8 -17.5 21 l-106 0 q36 -6 63 -20 q35 -18 43 -40 q8 -22 8 -39 q0 -26 -18 -41 l7 0 q12 0 46 37 q34 37 51 37 q7 0 12 -4 q26 -20 46 -41 q30 -31 30 -47 q0 -14 -25 -14 l-332 0 q25 -17 58.5 -32 q33.5 -15 74.5 -26 q17 -4 34.5 -5.5 q17.5 -1.5 45.5 -1.5 q18 0 40 0.5 q22 0.5 49 1.5 q22 0 29.5 -4.5 q7.5 -4.5 7.5 -12.5 q0 -13 -22 -36 q-10 -10 -19 -19 q-5 -6 -8 -22.5 q-3 -16.5 -4 -25.5 q19 -14 21 -16 q17 -15 18 -22 q1 -6 -14 -22 q-5 -5 -16 -16 l0 -168 q-2 -22 -22 -34.5 q-20 -12.5 -47 -12.5 q-41 0 -50 29 l0 11 l-109 0 l0 -12 q0 -14 -26 -27 q-26 -13 -53 -13 q-20 0 -31 7.5 q-11 7.5 -11 25.5 l0 293 q15 0 46 -8.5 q31 -8.5 51 -18.5 l128 0 l4 3 q-65 34 -120 80 q-64 54 -89 104 l-113 0 q-47 -61 -123 -110 q-63 -41 -140 -70 l9 -4 l128 0 q15 12 30 22 q20 13 30 13 q14 0 53 -29 q39 -29 41 -40 q1 -6 -14 -22 q-5 -5 -16 -16 l0 -168 q-3 -24 -21.5 -35.5 q-18.5 -11.5 -43.5 -11.5 q-22 0 -37 7.5 q-15 7.5 -17 21.5 l0 11 l-109 0 l0 -12 q0 -15 -25.5 -28 q-25.5 -13 -52.5 -13 q-19 0 -31 8 q-12 8 -12 26 l0 243 l-45 -6 q2 3 5 7 q20 11 40 22 q3 0 37 22 q48 31 85 64 q53 47 87 98 l-243 0 l-28 32 l293 0 q21 32 34.5 57.5 q13.5 25.5 26.5 55.5 q-5 -1 -14 -1 q-20 0 -34.5 9.5 q-14.5 9.5 -14.5 18.5 l-106 0 q2 -16 -22 -27.5 q-24 -11.5 -53 -11.5 q-21 0 -34 6.5 q-13 6.5 -15 22.5 l0 260 q16 0 46.5 -7.5 q30.5 -7.5 52.5 -16.5 l125 0 q14 11 30 20 q20 12 30 12 q15 0 52.5 -25.5 q37.5 -25.5 39.5 -35.5 q2 -6 -18 -25 q-3 -3 -10 -9 l0 -149 q-2 -5 -3 -7 q-5 -9 -12 -16 q41 -7 87.5 -21 q46.5 -14 46.5 -23 q0 -9 -9 -12 q-30 -9 -35 -16 l-45 -59 l216 0 q-14 13 -17.5 36 q-3.5 23 -12.5 40.5 q-9 17.5 -24 33.5 q-10 -3 -24 -6 q-14 -3 -29 -3 q-21 0 -32 6 q-11 6 -11 23 l0 260 q16 0 46.5 -7.5 q30.5 -7.5 52.5 -16.5 l125 0 ZM779 566 l0 162 l-106 0 l0 -162 l106 0 Z" /><glyph glyph-name="uni7B7E" unicode="&#x7b7e;" d="M332 69 q2 -8 2 -24 q0 -31 -16 -49 q-16 -18 -39 -18 q-24 0 -41 20 q-17 20 -17 59 q1 8 1 13 q0 29 -61 120 q-6 17 -11 34 q25 2 93 -45 q79 -55 89 -110 ZM930 -70 l-864 0 l-28 32 l732 0 q12 0 46 37 q34 37 51 37 q7 0 12 -4 q26 -20 46 -41 q30 -31 30 -47 q0 -14 -25 -14 ZM560 136 q0 -41 -17 -63.5 q-17 -22.5 -52 -22.5 q-24 0 -39 16 q-15 16 -15 43 q0 14 4 26 q10 29 10 55 q0 38 -26 86 q-2 8 -3 16 q22 3 75 -42 q63 -54 63 -114 ZM704 309 l-426 0 l-27 32 l346 0 q8 0 31 27 q23 27 37 27 q6 0 14 -6 q28 -27 34 -33 q20 -22 20 -33 q0 -14 -29 -14 ZM854 198 q-5 -12 -22 -12 q-6 0 -14 2 q-2 0 -6 2 q-1 -1 -30 -37 q-17 -22 -39 -41 q-70 -65 -96.5 -84 q-26.5 -19 -48.5 -25 q-4 -1 -7 -1 q-4 0 -4 4 q0 1 46 76 q29 48 47 91 q10 24 22 62 q12 38 12 43 q35 -14 70 -28 q74 -42 70 -52 ZM695 692 l-32 0 q-27 -35 -49 -61 q-27 -31 -57 -58 q33 -17 34 -23 q1 -7 -4 -12 q23 -15 53 -29 q39 -18 97 -36 q49 -15 137 -16.5 q88 -1.5 96 -5.5 q8 -4 8 -11 q0 -6 -12 -17 q-12 -11 -23 -20 q-2 -2 -21 -62 q-9 -27 -18 -34 q-2 -2 -10 -2 q-30 0 -99.5 31 q-69.5 31 -109.5 61 q-33 22 -73 61 q-45 43 -66 75 q-36 -36 -72.5 -62.5 q-36.5 -26.5 -101.5 -64.5 q-77 -45 -180 -69 q-78 -18 -136 -18 q-23 0 -26 3 q20 12 40 24 q137 58 214 116 q36 27 66 60 q-18 2 -29 17 q-11 15 -11 42 q0 6 2 20 q3 16 -11 42 q-14 26 -26 49 l-11 0 q-51 -65 -96 -109 q-59 -57 -115 -87 q3 15 7 30 q71 129 82 165 q7 21 17 68 q10 47 10 53 q0 4 10 4 q29 0 91.5 -23.5 q62.5 -23.5 59.5 -37.5 q-2 -10 -15.5 -11 q-13.5 -1 -20.5 -11 l-6 -9 l84 0 q8 0 44 34 q17 16 32 16 q12 0 28 -13 q23 -19 33.5 -31.5 q10.5 -12.5 10.5 -22.5 q0 -15 -38 -15 l-150 0 q30 -16 51 -38 q26 -27 31 -57 l12 16 q4 5 35 -4 q11 -3 37 -12 q28 50 43 94 q7 21 17 68 q10 47 10 53 q0 4 10 4 q29 0 91.5 -23.5 q62.5 -23.5 59.5 -37.5 q-2 -10 -15.5 -11 q-13.5 -1 -20.5 -11 l-7 -9 l144 0 q8 0 44 34 q17 16 32 16 q12 0 28 -13 q23 -19 33.5 -31.5 q10.5 -12.5 10.5 -22.5 q0 -15 -38 -15 l-205 0 q35 -14 62 -38 q34 -29 39 -62 q1 -6 1 -17 q0 -28 -17.5 -45.5 q-17.5 -17.5 -38.5 -17.5 q-20 0 -34 15.5 q-14 15.5 -14 45.5 q0 5 2 19 q3 18 -15 51 q-24 44 -25 49 Z" /><glyph glyph-name="uni5207" unicode="&#x5207;" d="M141 444 l-111 -22 l-21 34 l132 28 l0 296 q0 5 17 5 q33 0 81.5 -12.5 q48.5 -12.5 48.5 -24.5 q0 -11 -16.5 -18 q-16.5 -7 -16.5 -21 l0 -201 l105 22 q12 2 23 22 q27 51 35 55 q20 10 64 -39 q23 -26 23 -41 q0 -11 -11 -12 l-239 -48 l0 -304 l206 100 l-223 -219 q-9 -12 -17 -22 q-15 -19 -26 -22 q-11 -3 -37 44.5 q-26 47.5 -26 61.5 q0 1 6 36 q3 18 3 38 l0 264 ZM800 692 l-106 0 q-2 -9 -18 -16 q-5 -2 -17 -6 l0 -161 q0 -88 -9 -163 q-15 -122 -53 -208 q-30 -68 -101 -136 q-56 -54 -122 -94 q-59 -36 -72 -31 q17 19 35 38 q57 53 95 106 q61 85 85 181 q13 50 17.5 84 q4.5 34 4.5 68 q0 17 -0.5 31.5 q-0.5 14.5 -0.5 27.5 q0 6 0 10 l0 269 l-127 0 l-27 32 l404 0 q9 13 39 33.5 q30 20.5 39 17.5 q53 -23 92 -75 q4 -5 -16 -36 q-11 -17 -11 -27 l0 -345 q0 -151 -42 -251 q-32 -76 -86 -118 q-37 -29 -63 -29 q-36 0 -51.5 11 q-15.5 11 -15.5 28 q0 13 7 29 q4 9 8 17 q0 16 -55 61 q-10 12 -20 24 q4 5 14 5 q10 0 41.5 -11.5 q31.5 -11.5 48.5 -11.5 q13 0 22 4 q35 16 50 76 q9 36 18 130 q2 17 3 87.5 q1 70.5 1 152.5 q0 22 0 33 q0 19 0 27 q0 16 0 23 q0 13 0 19 q0 10 0 15 q0 8 0 12 q0 44 -3 50 l-8 17 Z" /><glyph glyph-name="uni79CB" unicode="&#x79cb;" d="M439 349 q-4 11 -4 25 q0 18 8.5 33 q8.5 15 28.5 25 q41 22 60 70 q15 45 30 91 q10 0 18 -40 q8 -40 8 -90 q0 -25 -3 -47.5 q-3 -22.5 -10 -40.5 q-16 -38 -35.5 -55.5 q-19.5 -17.5 -41.5 -17.5 q-29 0 -49 29 q9 -20 11.5 -28.5 q2.5 -8.5 2.5 -23.5 q0 -42 -17 -66.5 q-17 -24.5 -49 -21.5 q-22 0 -37 17 q-15 17 -15 43 q0 8 0 16 q3 8 4 11 q5 14 7 29 q2 15 2 28 q0 39 -24 87 q-2 8 -3 17 q11 2 45 -23 q41 -30 63 -67 ZM743 297 q15 -41 34 -84 q24 -52 45 -83 q51 -73 140 -131 q11 -12 23 -25 q-7 -7 -21.5 -13 q-14.5 -6 -20.5 -10 q-13 -9 -24 -29 q-25 -44 -37 -54 q-25 25 -50 50 q-32 53 -62 123 q-15 33 -26.5 82 q-11.5 49 -18.5 95 q-10 -37 -24 -72 q-31 -76 -103 -151 q-58 -61 -124 -105 q-60 -40 -73 -35 q17 22 34 43 q61 63 98 119 q61 94 86 201 q13 56 17.5 92.5 q4.5 36.5 4.5 74.5 q0 15 -0.5 31.5 q-0.5 16.5 -0.5 34.5 q0 7 0 11 l0 323 q5 1 10 3 q11 0 17 0 q42 0 87 -6.5 q45 -6.5 45 -17.5 q0 -12 -23 -22 q-4 -1 -12 -4 l0 -179 q0 -63 -4 -125.5 q-4 -62.5 -17 -136.5 ZM209 653 q-56 -10 -104 -10 q-33 0 -51 6 q12 9 25 19 q134 45 181 80 q38 28 76 56 q16 10 28 10 q11 0 58.5 -45.5 q47.5 -45.5 39.5 -57.5 q-4 -7 -15 -7 q-7 0 -20 4 q-13 4 -17 4 q-4 1 -15 -4 q-25 -11 -50 -22 q1 -8 -7.5 -18 q-8.5 -10 -17.5 -20 l0 -135 l32 0 q9 0 33 28 q24 28 39 28 q7 0 15 -6 q28 -25 36 -34 q20 -21 20 -33 q0 -15 -30 -15 l-145 0 l0 -572 q-4 -17 -24 -27.5 q-20 -10.5 -44 -10.5 q-39 0 -43 28 l0 365 l-21 -31 q-42 -64 -91 -113 q-43 -44 -58 -44 q6 21 13 43 q40 77 69 178 q14 49 23 98.5 q9 49.5 13 85.5 l-114 0 l-28 32 l194 0 l0 140 ZM983 525 q-4 -11 -18 -11 q-8 0 -12 0 q-7 0 -9 -2 q-5 -1 -41 -43 q-27 -31 -30 -34 q-21 -21 -59 -53 q-49 -42 -58 -38 q6 19 13 39 q36 57 53 112 q10 34 24 67 q6 15 13 31 q32 -10 64 -19 q65 -35 60 -49 Z" /><glyph glyph-name="uni53D6" unicode="&#x53d6;" d="M383 207 l0 137 l-129 0 l0 -167 l129 30 ZM383 514 l-129 0 l0 -138 l129 0 l0 138 ZM783 523 l-171 0 q8 -67 23 -126 q24 -96 66 -173 q29 67 54 166 q21 82 28 133 ZM135 711 l-56 0 l-28 32 l732 0 q12 0 46 37 q34 37 51 37 q7 0 12 -4 q26 -20 46 -41 q30 -31 30 -47 q0 -14 -25 -14 l-428 0 q-2 -9 -10 -20 q-2 -3 -8 -9 l0 -741 q46 44 71 72 q45 51 82 111 q-35 83 -53 226 q-12 97 -12 173 l-52 0 l-27 32 l275 0 q17 24 33 37 q25 22 42 15 q28 -11 61 -45 q33 -34 29 -48 q-1 -4 -21 -12 q-20 -8 -20 -10 q-13 -74 -60 -190 q-41 -102 -86 -160 q45 -53 103 -93 q54 -31 109 -62 q5 -4 5 -8 q0 -5 -16 -13.5 q-16 -8.5 -19 -15.5 q-14 -31 -28 -62 q-17 -31 -33 -24 q-43 15 -98.5 67 q-55.5 52 -95.5 120 q-54 -58 -117 -104 q-49 -36 -89 -55 q-8 -8 -22.5 -13.5 q-14.5 -5.5 -28.5 -5.5 q-15 0 -27 6.5 q-12 6.5 -19 22.5 l0 250 q-54 -31 -143 -72 q-74 -34 -148 -67 q-3 -8 -5 -16 q-5 -17 -19 -21 q-12 -3 -26 75 q-4 40 -7 80 q30 4 57.5 10 q27.5 6 42.5 9 l0 561 ZM383 711 l-104 0 l-25 -23 l0 -142 l129 0 l0 165 Z" /><glyph glyph-name="uni65E5" unicode="&#x65e5;" d="M709 26 l0 312 l-405 0 l0 -312 l405 0 ZM304 688 l0 -314 l405 0 l0 314 l-405 0 ZM300 724 l398 0 q13 18 39.5 36 q26.5 18 35.5 16 q19 -3 47 -28 q21 -22 43 -43 q4 -4 4 -11 q0 -10 -13 -22.5 q-13 -12.5 -26 -24.5 l0 -686 q-3 -21 -26 -35 q-23 -14 -48 -14 q-18 0 -30.5 8.5 q-12.5 8.5 -14.5 26.5 l0 43 l-405 0 l0 -41 q-4 -20 -30 -34 q-26 -14 -53 -14 q-20 0 -31 7.5 q-11 7.5 -11 25.5 l0 828 q19 -2 55 -13 q36 -11 66 -25 Z" /><glyph glyph-name="uni8363" unicode="&#x8363;" d="M598 287 q30 -50 57 -80 q45 -50 110 -87 q45 -26 146 -41 q38 -6 40 -13 q3 -12 -3 -21 q-11 -13 -21 -26 q-11 -23 -22 -71 q-4 -17 -9 -29 q-1 -4 -11 -4 q-29 0 -85 34 q-64 39 -102 88 q-33 42 -64 100 q-39 74 -61 150 l-19 0 l0 -378 q-1 -19 -24.5 -31.5 q-23.5 -12.5 -51.5 -12.5 q-19 0 -30 6.5 q-11 6.5 -11 21.5 l0 244 q-37 -40 -92 -82 q-90 -69 -194 -117 q-88 -40 -102 -33 q35 31 98 86 q71 62 127 135 q40 52 62 97 q14 28 25 64 l-286 0 l-31 32 l393 0 l0 146 q0 3 31 3 q40 0 78 -5.5 q38 -5.5 41 -16.5 q2 -9 -21 -23 q-12 -7 -12 -10 l0 -94 l204 0 q9 0 63 51 q27 25 42 25 q8 0 13 -4 q28 -19 51 -42 q32 -31 32 -48 q0 -14 -27 -14 l-334 0 ZM598 685 l0 111 q0 3 27 3 q41 0 83.5 -5.5 q42.5 -5.5 49.5 -14.5 q3 -5 -10 -11 q-33 -15 -33 -18 l0 -65 l57 0 q12 0 46 37 q34 37 51 37 q7 0 12 -4 q26 -20 46 -41 q30 -31 30 -47 q0 -14 -25 -14 l-217 0 l0 -80 q-2 -15 -21.5 -24 q-19.5 -9 -44.5 -9 q-19 0 -32.5 5.5 q-13.5 5.5 -18.5 17.5 l0 90 l-180 0 l0 -80 q-4 -16 -22.5 -24.5 q-18.5 -8.5 -41.5 -8.5 q-19 0 -34.5 6 q-15.5 6 -18.5 17 l0 90 l-233 0 l-28 32 l261 0 l0 111 q0 3 27 3 q41 0 83.5 -5.5 q42.5 -5.5 49.5 -14.5 q3 -5 -10 -11 q-33 -15 -33 -18 l0 -65 l180 0 ZM829 521 q-2 8 -2 11 q0 10 11 17 q8 9 13 13 q15 13 26 13 q13 0 52.5 -38.5 q39.5 -38.5 39.5 -50.5 q0 -10 -27 -15 q-9 -1 -28 -3 q-33 -23 -50 -34 q-53 -34 -59 -30 q-6 4 10 43 q12 30 15 42 l-663 0 q0 -40 -12 -66 q-15 -31 -34 -45 q-19 -14 -39 -14 q-23 0 -41 18 q-18 18 -18 39 q0 30 34 47 q38 17 57 56 q14 36 28 73 q8 0 15.5 -23.5 q7.5 -23.5 7.5 -52.5 l664 0 Z" /><glyph glyph-name="uni4E09" unicode="&#x4e09;" d="M903 661 l-789 0 l-28 32 l657 0 q12 0 46 37 q34 37 51 37 q7 0 12 -4 q26 -20 46 -41 q30 -31 30 -47 q0 -14 -25 -14 ZM831 318 l-652 0 l-30 32 l530 0 q9 0 44 32 q35 32 52 32 q7 0 12 -4 q25 -19 44 -38 q28 -27 28 -40 q0 -14 -28 -14 ZM949 -39 l-891 0 l-29 32 l755 0 q12 0 47 37 q35 37 53 37 q7 0 12 -4 q28 -21 48 -41 q31 -31 31 -47 q0 -14 -26 -14 Z" /><glyph glyph-name="uni53C1" unicode="&#x53c1;" d="M913 -83 l-799 0 l-26 32 l677 0 q10 0 42 37 q32 37 48 37 q7 0 11 -4 q27 -24 43 -41 q27 -30 27 -47 q0 -14 -23 -14 ZM692 58 l-391 0 l-28 32 l306 0 q9 0 33 28 q24 28 39 28 q7 0 15 -6 q28 -25 36 -34 q20 -21 20 -33 q0 -15 -30 -15 ZM649 283 q-17 26 -31.5 51.5 q-14.5 25.5 -26.5 57.5 l-116 0 q-28 -44 -61 -79 q-44 -47 -99 -83 l271 0 q8 0 29.5 24.5 q21.5 24.5 33.5 28.5 ZM714 620 q-26 30 -66 61 q-34 26 -34 28 q0 5 14 5 q28 0 76.5 -13 q48.5 -13 83.5 -32 q46 -25 69 -58 q19 -27 19 -58 q0 -22 -11.5 -40 q-11.5 -18 -25 -22 q-13.5 -4 -22.5 -4 q-18 0 -32.5 14.5 q-14.5 14.5 -33.5 61.5 l-12 23 q-27 -8 -89.5 -18.5 q-62.5 -10.5 -119.5 -18.5 q21 -6 34 -12.5 q13 -6.5 14 -13.5 q0 -8 -24 -13 q-8 -1 -24 -3 q-5 -18 -12 -35.5 q-7 -17.5 -23 -47.5 l283 0 q12 0 46 37 q34 37 51 37 q7 0 12 -4 q26 -20 46 -41 q30 -31 30 -47 q0 -14 -25 -14 l-317 0 q36 -46 78 -76 q35 -25 86 -48 q38 -17 96 -26 q96 -15 96 -16 q3 -11 -2 -18 q-12 -11 -23 -22 q-11 -18 -22 -56 q-4 -14 -9 -23 q-1 -4 -12 -4 q-30 0 -87 27 q-65 31 -107 72 q-5 -4 -22 -4 l-427 0 q-69 -36 -136 -56 q-67 -20 -84 -14 q19 13 38 26 q70 38 120 80 q81 68 129 158 l-259 0 l-28 32 l303 0 q15 32 24.5 59 q9.5 27 14.5 48 l-81 -10 q-6 -1 -17.5 -14.5 q-11.5 -13.5 -28.5 -19.5 q-12 -3 -39.5 45.5 q-27.5 48.5 -23.5 60.5 q5 16 39 32 q54 25 59 28 q90 60 143 138 q9 13 20 34 q29 -11 59 -22 q62 -33 56 -46 q-2 -6 -11 -6 q-12 0 -14 -1 q-47 -37 -95 -70 q-54 -37 -98 -53 l358 -7 Z" /><glyph glyph-name="uni5723" unicode="&#x5723;" d="M449 141 l-284 0 l-32 32 l316 0 l0 172 q36 -3 72 -5 q74 -11 78 -27 q1 -5 -18 -19 q-6 -4 -20 -13 l0 -108 l138 0 q11 0 48 32 q37 32 55 32 q8 0 13 -4 q30 -21 48 -38 q29 -26 29 -40 q0 -14 -30 -14 l-301 0 l0 -184 l224 0 q12 0 48 36 q36 36 52 36 q7 0 12 -4 q27 -19 48 -40 q31 -31 31 -46 q0 -14 -26 -14 l-888 0 l-29 32 l416 0 l0 184 ZM305 724 l-144 0 l-31 32 l544 0 q24 20 43 31 q19 11 26 11 q15 0 60 -36 q45 -36 42 -49 q-2 -7 -17.5 -16.5 q-15.5 -9.5 -31.5 -18.5 q-36 -48 -83 -100 q-51 -56 -110 -104 q75 -32 176 -48 q86 -10 173 -20 q2 -4 -15 -28 q-20 -29 -27 -40.5 q-7 -11.5 -10 -41 q-3 -29.5 -9 -29.5 q-24 0 -70 9 q-74 15 -139 41 q-90 36 -165 95 q-111 -69 -263 -115 q-126 -38 -190 -38 q-15 0 -20 3 q21 10 42 21 q88 27 148 56 q109 52 214 138 q-55 60 -95 136 q-30 56 -48 111 ZM662 724 l-335 0 q21 -42 52 -81 q50 -62 127 -114 q57 54 106 118 q40 52 50 77 Z" /><glyph glyph-name="uni5341" unicode="&#x5341;" d="M569 434 l209 0 q12 0 46 37 q34 37 51 37 q7 0 12 -4 q26 -20 46 -41 q30 -31 30 -47 q0 -14 -25 -14 l-369 0 l0 -457 q0 -31 -23.5 -50 q-23.5 -19 -53.5 -19 q-20 0 -34 10 q-14 10 -17 30 l0 486 l-367 0 l-28 32 l395 0 l0 387 q0 4 16 4 q35 0 89.5 -12.5 q54.5 -12.5 61.5 -25.5 q5 -10 -9 -20 q-14 -10 -30 -21 l0 -312 Z" /><glyph glyph-name="uni77F3" unicode="&#x77f3;" d="M726 -13 l0 341 l-365 0 l0 -341 l365 0 ZM347 685 l-260 0 l-28 32 l721 0 q11 0 45 38 q34 38 51 38 q6 0 11 -4 q25 -20 46 -42 q29 -31 29 -47 q0 -15 -25 -15 l-375 0 q-3 -9 -28.5 -15 q-25.5 -6 -26.5 -8 q-11 -42 -45 -111 q-50 -101 -119 -188 l363 0 q12 11 40.5 22.5 q28.5 11.5 36.5 8.5 q15 -3 46.5 -23.5 q31.5 -20.5 51.5 -37.5 q7 -7 7 -14 q0 -9 -13 -18 q-13 -9 -27 -17 l0 -364 q-2 -19 -23 -30.5 q-21 -11.5 -49 -11.5 q-20 0 -34 7.5 q-14 7.5 -16 23.5 l0 46 l-365 0 l0 -37 q0 -21 -25.5 -35.5 q-25.5 -14.5 -55.5 -14.5 q-25 0 -40.5 8.5 q-15.5 8.5 -17.5 27.5 l0 337 q-60 -50 -117 -84 q-49 -29 -66 -29 q12 16 24 33 q61 61 86 90 q59 68 94 135 q46 87 67 147 q21 60 37 152 Z" /><glyph glyph-name="uni62FE" unicode="&#x62fe;" d="M741 256 q14 10 38.5 20 q24.5 10 31.5 8 q15 -4 39 -21 q21 -14 44 -34 q7 -7 7 -15 q0 -10 -12 -24.5 q-12 -14.5 -25 -28.5 l0 -222 q-3 -25 -21 -39 q-18 -14 -41 -14 q-19 0 -33.5 10.5 q-14.5 10.5 -14.5 28.5 l0 17 l-223 0 l0 -28 q0 -20 -22.5 -34 q-22.5 -14 -47.5 -14 q-21 0 -33.5 9 q-12.5 9 -12.5 29 l0 387 q14 -1 48 -12.5 q34 -11.5 55 -22.5 l223 0 ZM754 -26 l0 250 l-223 0 l0 -250 l223 0 ZM781 388 l-284 0 l-27 32 l212 0 q6 0 39 34 q16 16 29 16 q13 0 26 -13 q19 -18 29 -31 q10 -13 10 -23 q0 -15 -34 -15 ZM687 713 q29 -45 60 -78 q41 -44 83.5 -68.5 q42.5 -24.5 109.5 -39.5 q51 -12 52 -21 q1 -7 -5.5 -14.5 q-6.5 -7.5 -13.5 -15.5 q-9 -15 -24 -65 q-6 -19 -14 -29 q-11 -15 -91 39 q-50 34 -83 79 q-49 63 -91 180 q-21 -41 -44 -74 q-18 -26 -44 -56 q-50 -59 -121 -108 q-57 -39 -111 -63 q-14 -14 -40 -37 q-22 -20 -45 -38 l0 -294 q0 -58 -17 -92 q-25 -49 -81 -49 q-21 0 -29 5.5 q-8 5.5 -8 15.5 q3 18 3 27 q0 11 -5 17 q-9 12 -39 30 q-56 33 -57 36 q-1 2 1 3 q2 1 8 1 q34 -4 65.5 -8.5 q31.5 -4.5 39.5 -2.5 q10 3 13.5 12 q3.5 9 3.5 22 q-1 12 -1 15 l0 181 l-59 -46 q-2 -2 -3 -18 q-1 -16 -14 -19 q-13 -3 -35 66 q-9 36 -17 72 q29 9 60 23 q13 6 68 32 l0 194 l-100 0 l-29 33 l129 0 l0 263 q43 -2 64 -4 q65 -6 65 -16 q0 -10 -17 -22 q-3 -2 -9 -5 l0 -215 q2 1 39 35 q16 15 30 15 q15 0 30 -14.5 q15 -14.5 27.5 -30 q12.5 -15.5 12.5 -23.5 q0 -16 -37 -16 l-102 0 l0 -141 q32 17 63.5 33 q31.5 16 49.5 23 q34 34 63 75 q34 47 62.5 104 q28.5 57 50.5 128 q6 22 15 55 q41 -5 83 -10 q86 -20 86 -34 q0 -11 -18.5 -16 q-18.5 -5 -19.5 -6 l-13 -25 Z" /><glyph glyph-name="uni9996" unicode="&#x9996;" d="M697 292 l0 123 l-390 0 l0 -123 l390 0 ZM697 136 l0 124 l-390 0 l0 -124 l390 0 ZM697 -27 l0 131 l-390 0 l0 -131 l390 0 ZM428 733 q9 -17 13 -32.5 q4 -15.5 4 -28.5 q0 -26 -16.5 -40.5 q-16.5 -14.5 -39.5 -14.5 q-26 0 -45.5 17 q-19.5 17 -19.5 49 q0 39 -30 73 q-19 21 -38 42 q-1 4 2 5 q5 2 14 2 q37 0 84 -18 q57 -22 72 -54 ZM567 608 q17 30 31.5 63 q14.5 33 21.5 62 q7 29 11.5 53 q4.5 24 4.5 30 q35 -6 71 -12 q74 -21 71 -33 q-3 -11 -15 -12.5 q-12 -1.5 -21 -2.5 q-38 -45 -79 -86 q-46 -46 -78 -62 l168 0 q11 0 45 39 q34 39 50 39 q7 0 12 -4 q22 -18 45 -44 q29 -33 29 -49 q0 -15 -24 -15 l-385 0 q6 -4 6 -9 q0 -5 -14.5 -8.5 q-14.5 -3.5 -15.5 -4.5 q-11 -20 -29 -42 q-30 -36 -68 -63 l282 0 q8 8 26 20 q25 17 38 17 q16 0 54.5 -28.5 q38.5 -28.5 36.5 -48.5 q0 -7 -14.5 -15 q-14.5 -8 -14.5 -9 l0 -471 q0 -17 -22.5 -29.5 q-22.5 -12.5 -48.5 -12.5 q-41 0 -44 27 l0 44 l-390 0 l0 -25 q0 -17 -22.5 -30 q-22.5 -13 -48.5 -13 q-19 0 -31 7.5 q-12 7.5 -15 26.5 l0 577 q15 -2 49.5 -12 q34.5 -10 63.5 -25 l76 0 q9 23 14.5 51 q5.5 28 5.5 56 q0 14 -1 20 l-335 0 l-28 34 l532 0 Z" /><glyph glyph-name="uni8086" unicode="&#x8086;" d="M902 578 q9 6 17 6 q6 0 10 -4 q25 -21 40 -38 q25 -27 25 -42 q0 -15 -26 -15 l-66 0 l0 -154 q0 -12 -9 -20.5 q-9 -8.5 -24 -12.5 q33 -35 35 -37 q22 -25 22 -37 q0 -15 -30 -15 l-178 0 l0 -103 l98 0 q7 0 32.5 29.5 q25.5 29.5 41.5 29.5 q6 0 14 -5 q20 -15 40 -35 q24 -24 24 -37 q0 -14 -28 -14 l-222 0 l0 -145 q0 -22 -21.5 -36.5 q-21.5 -14.5 -46.5 -14.5 q-20 0 -32 8.5 q-12 8.5 -12 27.5 l0 160 l-174 0 q5 -9 9.5 -22.5 q4.5 -13.5 5.5 -22.5 q1 -9 1 -23 q0 -37 -16 -59 q-16 -22 -38 -22 q-19 0 -32.5 19 q-13.5 19 -13.5 56 q0 6 1 14 q1 8 1 13 q2 13 -3 28 l-215 -89 q-3 -1 -8 -18.5 q-5 -17.5 -17 -17.5 q-14 0 -42 40.5 q-28 40.5 -28 66.5 q0 10 16 24.5 q16 14.5 22 21.5 q20 37 46.5 96 q26.5 59 35.5 79 l-96 0 l-28 32 l69 0 l0 463 q19 -4 50.5 -16.5 q31.5 -12.5 54.5 -27.5 l130 0 q9 0 30 25 q21 25 37 25 q12 0 25 -13 q19 -18 29 -31 q10 -13 10 -23 q0 -15 -34 -15 l-224 0 l0 -112 l108 0 q14 0 35.5 22.5 q21.5 22.5 33.5 22.5 q10 0 19 -8 q19 -16 31.5 -30.5 q12.5 -14.5 12.5 -23.5 q0 -15 -35 -15 l-205 0 l0 -110 l110 0 q14 0 35.5 22.5 q21.5 22.5 33.5 22.5 q10 0 19 -8 q19 -16 31.5 -30.5 q12.5 -14.5 12.5 -23.5 q0 -15 -35 -15 l-207 0 l0 -101 l129 0 q9 0 33 28 q24 28 39 28 q7 0 15 -6 q28 -25 36 -34 q20 -21 20 -33 q0 -15 -30 -15 l-197 0 q14 -8 21 -14 q17 -14 12 -22 q-5 -9 -18 -10 q-13 -1 -16 -3 q-9 -3 -77 -70 q-46 -46 -65 -64 l226 8 q-1 1 -18 42 q-10 23 -10 34 q0 6 8 6 q15 0 41 -16 q26 -16 50 -43 l197 0 l0 103 l-147 0 l-28 35 l175 0 l0 100 l-103 0 l-27 32 l130 0 l0 109 l-155 0 l-27 33 l182 0 l0 122 l-110 0 l-27 32 l137 0 l0 149 q0 3 16 3 q32 0 76 -8.5 q44 -8.5 54 -20.5 q4 -5 -15 -18.5 q-19 -13.5 -19 -16.5 l0 -88 l57 0 q16 10 25 14 q28 14 41 14 q13 0 49.5 -24 q36.5 -24 39.5 -33 q1 -4 -13.5 -15.5 q-14.5 -11.5 -14.5 -14.5 l0 -35 ZM791 344 l-73 0 l0 -100 l68 0 q10 0 30 26 q16 20 20 24 q-21 0 -33 10 q-12 10 -12 18 l0 22 ZM791 485 l-73 0 l0 -109 l73 0 l0 109 ZM718 640 l0 -122 l73 0 l0 122 l-73 0 Z" /><glyph glyph-name="uni56DB" unicode="&#x56db;" d="M689 700 q-3 -4 -14 -15.5 q-11 -11.5 -11 -14.5 l0 -348 q0 -8 2 -16 q2 -8 4 -13 q2 -4 11.5 -5 q9.5 -1 26.5 -1 q20 0 39.5 2 q19.5 2 26.5 4 q7 2 12.5 11.5 q5.5 9.5 12.5 28.5 l0 367 l-110 0 ZM187 734 l608 0 q16 18 37 32 q21 14 29 12 q17 -3 45 -29 q12 -11 41 -43 q4 -4 4 -11 q0 -12 -19 -30 q-10 -9 -19 -18 l0 -698 q-4 -21 -25.5 -35.5 q-21.5 -14.5 -45.5 -14.5 q-39 0 -43 36 l0 48 l-594 0 l0 -43 q0 -20 -25 -34.5 q-25 -14.5 -53 -14.5 q-13 0 -22 4 q-19 8 -19 29 l0 842 q19 -2 48 -10.5 q29 -8.5 53 -21.5 ZM337 700 l-132 0 l0 -576 q53 71 84 155 q47 129 47 297 l1 124 ZM557 700 l-70 0 q6 -7 -3 -15 q-13 -9 -26 -17 q0 -46 -5 -91 q-8 -73 -29 -155 q-32 -123 -104 -223 q-56 -78 -115 -116 l0 -66 l594 0 l0 159 l-147 0 q-57 0 -78 27 q-17 22 -17 77 l0 420 Z" /><glyph glyph-name="uni9AD3" unicode="&#x9ad3;" d="M298 210 l-87 0 l0 -92 l87 0 l0 92 ZM211 331 l0 -89 l87 0 l0 89 l-87 0 ZM387 -11 l106 82 l0 175 l-87 0 l-19 29 l0 -286 ZM236 619 l-38 0 l0 -131 l38 0 l0 131 ZM359 396 q11 29 16 60 l-252 0 q0 -12 -0.5 -23.5 q-0.5 -11.5 -0.5 -22.5 q13 -3 40.5 -17 q27.5 -14 48.5 -29 l65 -1 q13 13 28 25 q23 18 33 18 q9 0 22 -10 ZM322 723 l-124 0 l0 -72 l32 0 q9 10 13 15 q15 16 23 16 q7 1 29 -25 q22 -26 20 -32 q-4 -8 -13 -15.5 q-9 -7.5 -9 -14.5 l0 -107 l29 0 l0 235 ZM850 134 l-143 0 l0 -95 q-1 -5 -1 -8 q-6 -21 -22 -30 q13 -2 32.5 -3 q19.5 -1 37.5 -1 q22 0 40 0.5 q18 0.5 31 0.5 q-9 6 -5 27.5 q4 21.5 -21 41.5 q-16 13 -32 26 q-1 3 0 4 q2 2 7 2 q5 0 26 -4 q21 -4 31 -4 q9 0 11 2 q7 5 8 15 q0 3 0 9 l0 17 ZM850 236 l-143 0 l0 -70 l143 0 l0 70 ZM526 618 q4 -9 7.5 -22.5 q3.5 -13.5 3.5 -20.5 q0 -19 -10.5 -29.5 q-10.5 -10.5 -26.5 -10.5 q-16 0 -29.5 12.5 q-13.5 12.5 -13.5 34.5 q0 22 -12 41 q-17 20 -33 40 q-1 2 2 4 q2 1 8 1 q25 0 59.5 -14.5 q34.5 -14.5 44.5 -35.5 ZM707 368 l122 0 q5 7 27.5 25 q22.5 18 30.5 18 q16 0 44.5 -19 q28.5 -19 28.5 -34 q0 -13 -12 -28 q-12 -15 -12 -20 l0 -235 q0 -21 -21.5 -42.5 q-21.5 -21.5 -47.5 -31.5 l109 11 q6 -3 -7 -28.5 q-13 -25.5 -12 -33.5 q4 -24 4 -39 q0 -15 -6 -23 q-2 -2 -32.5 -5 q-30.5 -3 -68.5 -3 q-65 0 -120.5 8 q-55.5 8 -88.5 28 q-46 29 -72 79 q-20 52 -25 65 q-2 -1 -51.5 -73.5 q-49.5 -72.5 -49.5 -74.5 q0 -11 0 -17 q0 -11 -8 -14 q-7 -3 -23.5 24.5 q-16.5 27.5 -29.5 56.5 q-4 -36 -32.5 -61.5 q-28.5 -25.5 -55.5 -25.5 q-27 0 -27 29 q0 7 1 11 q4 22 -13 40 q-24 19 -47 37 q6 2 12 4 q27 -5 55 -10 q8 0 10 2 q6 5 7 14 q1 9 2 14 l0 70 l-87 0 l0 -167 q0 -17 -16.5 -29.5 q-16.5 -12.5 -36.5 -12.5 q-15 0 -25 7.5 q-10 7.5 -12 24.5 l0 496 l-7 -29 q-12 -29 -25.5 -41.5 q-13.5 -12.5 -29.5 -12.5 q-17 0 -31 16.5 q-14 16.5 -14 36.5 q0 28 26 42 q36 19 49.5 69 q13.5 50 15.5 50 q5 0 8.5 -12.5 q3.5 -12.5 6.5 -35.5 l2 304 q11 -2 32 -11.5 q21 -9.5 44 -25.5 l116 0 q10 11 27 25 q13 10 17 11 q9 2 35.5 -27 q26.5 -29 24.5 -39 q-2 -8 -12 -18 q-10 -10 -10 -16 l0 -166 q8 8 15 8 q11 0 42 -39 q31 -39 31 -51 q0 -12 -29 -17 q-5 0 -14 -2 q-12 -11 -19 -17 q-15 -12 -39 -31 q14 -14 26.5 -29.5 q12.5 -15.5 13.5 -18.5 q1 -7 -17 -21 q-6 -4 -19 -13 l0 -14 l90 0 q19 26 32 39 q13 13 21 14 q16 3 47 -31 q31 -34 34 -62 q0 -10 -17 -25 q-5 -5 -18 -13 l0 -130 q0 -13 13 -29.5 q13 -16.5 29 -24.5 l0 389 q17 -2 41 -11.5 q24 -9.5 48 -27.5 ZM850 336 l-143 0 l0 -68 l143 0 l0 68 ZM611 674 l-56 0 l-23 32 l89 0 q11 34 20 68 q2 10 6 23 q31 -3 63 -6 q65 -14 65 -28 q0 -9 -13 -10.5 q-13 -1.5 -15 -4.5 l-22 -42 l130 0 q5 0 26.5 29.5 q21.5 29.5 34.5 29.5 q7 0 12 -5 q17 -15 33 -35 q20 -25 20 -37 q0 -14 -23 -14 l-251 0 q-25 -44 -58 -81 l162 0 q8 0 28 25 q20 25 34 25 q11 0 24 -13 q18 -19 27 -31.5 q9 -12.5 9 -22.5 q0 -15 -32 -15 l-70 0 l-14 -11 l0 -83 l37 0 q5 0 36 38 q15 18 25 18 q7 0 13 -6 q24 -26 35.5 -42.5 q11.5 -16.5 11.5 -25.5 q0 -14 -25 -14 l-359 0 l-24 32 l157 0 l0 94 l-82 0 l-10 13 q-35 -37 -69 -62 q-34 -25 -47 -25 q3 11 6 22 q61 83 89 165 Z" /><glyph glyph-name="uni9501" unicode="&#x9501;" d="M791 447 q-2 -14 -16.5 -26 q-14.5 -12 -14.5 -13 q-3 -98 -15.5 -182.5 q-12.5 -84.5 -39.5 -125.5 q-44 -67 -125 -126 q-67 -49 -138 -80 q-65 -28 -85 -21 q28 19 57 38 q81 50 133 109 q77 88 87 191 q6 64 6 137.5 q0 73.5 0 108.5 q4 2 8 4 q5 1 22 1 q36 0 77 -5 q22 -5 44 -10 ZM931 -131 q-11 -4 -21 -4 q-29 0 -50 35 q-5 9 -20 41 q-18 40 -61 79 q-42 32 -83 65 q0 5 15 5 q27 0 81 -13.5 q54 -13.5 88 -30.5 q49 -26 72 -57 q20 -27 20 -57 q0 -23 -12 -40.5 q-12 -17.5 -29 -22.5 ZM245 622 l61 0 q10 0 38 30 q14 15 23 15 q9 0 17 -8 q19 -18 29 -31.5 q10 -13.5 10 -22.5 q0 -16 -31 -16 l-162 0 q-23 -44 -47 -81.5 q-24 -37.5 -50 -68.5 l143 0 q10 0 30 24 q20 24 33 24 q11 0 20 -9 q20 -19 30 -32.5 q10 -13.5 10 -23.5 q0 -15 -32 -15 l-63 0 l-16 -17 l0 -127 l39 0 q8 0 30 28 q22 28 35 28 q7 0 13 -6 q23 -24 31 -34 q18 -22 18 -33 q0 -15 -26 -15 l-140 0 l0 -191 l151 44 l-166 -160 q-8 -19 -13.5 -32 q-5.5 -13 -12.5 -13 q-11 -1 -36 25 q-52 55 -45 69 q8 14 11 35.5 q3 21.5 3 47.5 l0 175 l-127 0 l-25 32 l152 0 l0 144 l-59 0 l-8 9 q-26 -29 -48.5 -47.5 q-22.5 -18.5 -33.5 -18.5 q3 16 7 33 q71 125 103 251 q14 59 29 131 q4 19 9 44 q35 -5 71 -10 q74 -21 74 -41 q0 -13 -14 -15.5 q-14 -2.5 -17 -6.5 q-10 -26 -21 -54 q-7 -19 -27 -60 ZM595 688 q15 -30 15 -55 q0 -24 -14 -36.5 q-14 -12.5 -36 -12.5 q-22 0 -40 16 q-18 16 -18 43 q0 35 -26 65 q-17 19 -34 38 q-1 3 2 4 q4 2 11 2 q31 0 79 -18.5 q48 -18.5 61 -45.5 ZM637 546 l0 265 q36 -3 72 -5 q73 -10 83 -20 q-3 -5 -6 -10 q-16 -8 -31 -16 l0 -214 l39 0 q9 9 36.5 21 q27.5 12 35.5 10 q16 -4 42.5 -20 q26.5 -16 46.5 -35 q7 -7 7 -13 q0 -8 -12 -16 q-12 -8 -24 -16 l0 -354 q0 -14 -21 -25 q-21 -11 -46 -11 q-19 0 -31.5 6.5 q-12.5 6.5 -16.5 21.5 l0 399 l-240 0 l0 -397 q-5 -22 -23 -32.5 q-18 -10.5 -40 -10.5 q-40 0 -47 26 l0 480 q18 -2 48.5 -11 q30.5 -9 59.5 -23 l68 0 ZM977 717 q-4 -6 -11 -9 q-6 -2 -14 -2 q-5 0 -10 0 q-1 0 -2 1 q-13 -13 -24 -23 q-17 -16 -41 -35.5 q-24 -19.5 -50 -40.5 q-38 -28 -51 -22 q6 16 13 32 q33 44 49 89 l28 74 q29 -13 58 -25 q27 -20 55 -39 Z" /><glyph glyph-name="uni672A" unicode="&#x672a;" d="M440 598 l-283 0 l-29 33 l312 0 l0 184 q0 3 16 3 q33 0 80 -8.5 q47 -8.5 57 -20.5 q4 -4 -8.5 -14 q-12.5 -10 -26.5 -21 l0 -123 l144 0 q12 0 46.5 36.5 q34.5 36.5 50.5 36.5 q5 0 12 -5 q25 -22 43 -41 q28 -30 28 -45 q0 -15 -26 -15 l-298 0 l0 -175 l215 0 q12 0 46 37 q34 37 51 37 q7 0 12 -4 q26 -20 46 -41 q30 -31 30 -47 q0 -14 -25 -14 l-341 0 q22 -46 47 -78 q43 -55 119 -111 q36 -26 92 -50.5 q56 -24.5 114 -48.5 q9 -5 0 -16 q-9 -11 -25 -23 q-11 -9 -30 -76 q-8 -29 -15 -29 q-27 -3 -75 28 q-48 31 -91 81 q-43 50 -84 125 q-56 101 -78 198 l-8 0 l0 -473 q0 -20 -23 -36 q-23 -16 -49 -16 q-18 0 -30 8.5 q-12 8.5 -16 28.5 l0 342 q-21 -30 -46 -60 q-28 -34 -62 -66 q-86 -84 -184 -140 q-83 -47 -97 -39 q11 17 23 33 q58 57 83 85 q61 69 108 147 q34 55 56 111 q13 33 25 75 l-277 0 l-28 32 l399 0 l0 175 Z" /><glyph glyph-name="uni6211" unicode="&#x6211;" d="M535 501 q0 86 -1 157.5 q-1 71.5 -2 139.5 q43 -4 66 -6 q68 -8 85 -17 q9 -5 9 -9 q0 -3 -26 -21 q-13 -9 -13 -17 q-4 -6 -6 -49.5 q-2 -43.5 -2 -97.5 l0 -80 l122 0 q12 0 46 37 q34 37 51 37 q7 0 12 -4 q26 -20 46 -41 q30 -31 30 -47 q0 -14 -25 -14 l-280 0 q8 -96 25 -158 l8 -28 q33 64 54 110 q8 17 18 39 q38 -14 76 -28 q76 -40 79 -52 q3 -11 -21.5 -14.5 q-24.5 -3.5 -25.5 -5.5 q-12 -21 -25 -42 q-47 -73 -103 -135 q29 -52 65 -85 q43 -40 65 -37 q21 3 60 66 q21 26 43 53 q4 -3 4 -15 q0 -18 -11 -59 q-23 -85 -19 -95 q9 -18 18 -36.5 q9 -18.5 9 -29.5 q0 -22 -28 -33 q-13 -5 -28 -5 q-54 0 -124 48 q-80 55 -138 146 q-90 -80 -180 -131 q-80 -46 -98 -37 q17 21 34 41 q128 116 199 213 q-18 41 -29 83 q-16 58 -26 115.5 q-10 57.5 -10 111.5 l-187 0 l0 -147 q66 11 114.5 18.5 q48.5 7.5 69.5 7.5 q12 0 16 -3 q4 -3 -1 -8 q-14 -16 -74 -44 q-51 -24 -125 -52 l0 -253 q0 -37 -29 -70 q-34 -39 -80 -39 q-24 0 -31 5.5 q-7 5.5 -7 17.5 q1 12 1 19 q0 12 -7 19 q-13 15 -58.5 36.5 q-45.5 21.5 -47.5 26.5 q-1 2 1 3 q2 1 8 1 q10 0 49 -6 q39 -6 55 -6 q10 0 13 1 q9 2 13.5 11 q4.5 9 4.5 18 q-1 14 -1 17 l0 155 q-106 -36 -109 -41 q-2 -1 -8 -18 q-6 -17 -19 -22 q-16 -6 -35.5 53 q-19.5 59 -19.5 97 q0 16 5 16 q38 0 91 7 q64 10 95 14 l0 166 l-172 0 l-28 32 l200 0 l0 124 q-35 -5 -74.5 -9 q-39.5 -4 -67.5 -4 q-31 0 -48 6 q11 10 22 20 q47 15 95 30 q66 22 94 40 q54 35 84 56 q12 9 45 33 q12 9 68 -56 q56 -65 42 -77 q-9 -6 -17 -6 q-9 0 -23 8 q-14 8 -19 8 q-5 0 -25 -7 q-20 -7 -37 -13 q-4 -5 -14 -11 q-3 -2 -9 -5 l0 -137 l184 0 ZM873 647 q1 -6 1 -17 q0 -31 -20.5 -50.5 q-20.5 -19.5 -46.5 -19.5 q-23 0 -39.5 17 q-16.5 17 -16.5 49 q0 5 0 10 q2 7 2 11 q3 16 -11 43 q-19 34 -37 69 q0 4 9 4 q34 0 86 -31 q64 -38 73 -85 Z" /><glyph glyph-name="uni4E94" unicode="&#x4e94;" d="M669 -20 l0 412 l-4 8 l-194 0 l-7 -58 q-11 -78 -21 -138 q-2 -12 -42 -221 l-2 -3 l270 0 ZM380 677 l-276 0 l-28 32 l644 0 q8 0 58 50 q24 24 38 24 q6 0 11 -4 q24 -19 45 -41 q29 -31 29 -47 q0 -14 -24 -14 l-346 0 q1 -10 -13.5 -18.5 q-14.5 -8.5 -15.5 -14.5 q-1 -1 -6 -42 q-14 -113 -21 -167 l173 0 l-2 4 q22 14 33 21 q37 22 49 22 q16 0 60.5 -39 q44.5 -39 40.5 -51 q-5 -14 -23.5 -24.5 q-18.5 -10.5 -18.5 -11.5 l0 -369 q9 7 30 31 q38 43 54 43 q7 0 12 -4 q26 -22 47 -45 q30 -34 30 -51 q0 -16 -25 -16 l-599 0 q-14 -2 -22 -1 l-7 1 l-252 0 l-28 35 l253 0 q25 107 39.5 190.5 q14.5 83.5 28.5 192.5 l5 37 l-180 0 l-27 35 l211 0 q8 59 15.5 118.5 q7.5 59.5 7.5 123.5 Z" /><glyph glyph-name="uni4F0D" unicode="&#x4f0d;" d="M139 380 q-38 -47 -70 -76 q-32 -29 -45 -31 q9 26 18 53 q84 168 116 287 q12 46 26 114.5 q14 68.5 14 82.5 q40 -11 80 -22 q81 -32 81 -45 q0 -10 -9 -15 q-12 -4 -24 -8 q-22 -52 -40 -95 q-18 -43 -41 -85 q18 0 22 -8 q5 -12 -8 -26 q-13 -14 -13 -16 l0 -572 q0 -16 -16 -34 q-20 -22 -47 -22 q-12 0 -26 9 q-18 12 -18 27 l0 482 ZM749 -35 l0 427 l-107 2 l-7 -56 q-16 -117 -35 -213.5 q-19 -96.5 -29 -147.5 q-2 -2 -3 -3 q-7 -7 -9 -9 l190 0 ZM550 675 l-196 0 l-25 32 l434 0 q8 0 37 32 q29 32 43 32 q6 0 10 -4 q32 -30 45.5 -48.5 q13.5 -18.5 13.5 -29.5 q0 -14 -24 -14 l-185 0 q2 -11 -13 -20 q-15 -9 -16 -14 q-2 -3 -9 -62 q-7 -59 -19 -153 l87 0 q9 7 33.5 19 q24.5 12 31.5 12 q6 0 21 -8.5 q15 -8.5 58 -36.5 q9 -6 9 -14 q0 -8 -18 -23 q-9 -7 -9 -9 l0 -363 q15 16 16 17 q16 15 26 15 q6 0 11 -5 q25 -24 39 -40 q25 -29 25 -43 q0 -14 -23 -14 l-651 0 l-25 32 l171 0 q25 118 39 196 q18 99 30 198 l5 35 l-159 0 l-26 32 l189 0 q12 87 16 121 q8 71 8 128 Z" /><glyph glyph-name="uni7280" unicode="&#x7280;" d="M627 243 l78 0 q6 0 32.5 32.5 q26.5 32.5 42.5 32.5 q8 0 13 -5 q20 -17 40 -39 q24 -27 24 -41 q0 -16 -28 -16 l-202 0 l0 -100 l150 0 q12 0 46 38 q34 38 50 38 q5 0 12 -5 q27 -26 43 -44 q28 -32 28 -47 q0 -15 -26 -15 l-303 0 l0 -151 q-2 -26 -22.5 -40 q-20.5 -14 -46.5 -14 q-19 0 -33.5 9.5 q-14.5 9.5 -14.5 26.5 l0 169 l-298 0 l-28 35 l326 0 l0 100 l-143 0 q-30 -30 -65 -55.5 q-35 -25.5 -59 -32.5 q1 7 3 15 q49 70 69 150 q7 26 9 41 q2 15 3 26 q35 -4 70 -8 q73 -16 73 -31 q0 -5 -16.5 -9 q-16.5 -4 -17.5 -5 q-8 -14 -15 -25.5 q-7 -11.5 -22 -29.5 l111 0 l0 108 q0 2 13 2 q29 0 76 -8.5 q47 -8.5 61 -18.5 q-2 -7 -3 -13 q-30 -22 -30 -24 l0 -46 ZM791 754 q15 16 23 23 q26 22 41 19 q13 -3 46.5 -30.5 q33.5 -27.5 33.5 -40.5 q0 -10 -11 -23 q-6 -7 -12 -14 l0 -97 q0 -15 -16 -28 q-16 -13 -39 -13 q2 -5 0 -7 q-3 -2 -9 -2 q-13 1 -26 2 q-21 -14 -61 -30.5 q-40 -16.5 -80 -28.5 q31 -3 61.5 -11 q30.5 -8 53.5 -24 q20 -13 29.5 -28.5 q9.5 -15.5 9.5 -32.5 q0 -32 -27 -45 q-8 -4 -19 -4 q-18 0 -32 11 q-18 15 -27.5 47.5 q-9.5 32.5 -35.5 55.5 q-28 21 -34 25 l-29 -5 l0 -84 q-3 -16 -22.5 -26 q-19.5 -10 -44.5 -10 q-39 0 -46 26 l0 90 q-17 -18 -82.5 -51.5 q-65.5 -33.5 -131.5 -65.5 q-1 0 -4 -12 q-3 -12 -10 -16 q-9 19 -18 38 q-10 41 -10 64 q0 10 3 10 q32 3 56.5 7.5 q24.5 4.5 120.5 24.5 q-29 4 -58 41 q-21 27 -69 53 q-16 9 -14 13 q2 2 12 3.5 q10 1.5 33 1.5 q32 0 63 -5.5 q31 -5.5 49 -19.5 q27 -20 27 -48 q0 -21 -17 -33 q40 8 50 6 l0 115 q0 2 12 2 q24 0 71.5 -9.5 q47.5 -9.5 64.5 -19.5 q-2 -7 -3 -13 q-16 -11 -32 -22 l0 -38 q34 18 71 53 q17 16 48 50 l-506 0 l0 -170 q0 -55 -3 -89 q-9 -102 -37 -178 q-37 -100 -81 -168 q-56 -85 -85 -85 q22 14 53 96 q36 94 36 234 q0 66 2.5 157.5 q2.5 91.5 2.5 101.5 l0 304 q30 -7 60 -25 q8 -5 33 -22 l566 0 ZM802 633 l0 86 l-558 0 l0 -86 l558 0 Z" /><glyph glyph-name="uni6D17" unicode="&#x6d17;" d="M360 657 q8 -11 -31 -138.5 q-39 -127.5 -78 -256 q-39 -128.5 -32 -141.5 q27 -46 38.5 -84 q11.5 -38 11.5 -68 q0 -41 -21 -64 q-21 -23 -49 -23 q-26 0 -46 20 q-20 20 -20 56 q0 29 16 67 q9 21 9 38 q0 38 -37 71 q-38 29 -75 58 q3 4 14 4 q10 0 29.5 -1.5 q19.5 -1.5 21.5 -1.5 q18 0 31.5 4.5 q13.5 4.5 21.5 15.5 q22 32 71 154 q40 100 80 200 q22 45 45 90 ZM177 504 q12 -27 12 -48 q0 -27 -16 -43 q-16 -16 -37 -16 q-45 0 -45 58 q0 32 -17 59 q-23 25 -45 51 q-2 3 2 4 q6 2 15 2 q35 0 69 -14 q46 -19 62 -53 ZM262 730 q15 -29 15 -54 q0 -24 -14.5 -37.5 q-14.5 -13.5 -35.5 -13.5 q-24 0 -41.5 16 q-17.5 16 -17.5 44 q0 35 -26 65 q-17 18 -34 37 q-1 2 0 3 q3 3 14 3 q31 0 78.5 -18.5 q47.5 -18.5 61.5 -44.5 ZM583 569 l-104 0 q-50 -82 -95 -126 q-38 -37 -57 -37 q3 15 6 30 q59 104 72 213 q1 13 3 39.5 q2 26.5 2 37.5 q-1 16 -1 18 q-1 2 3 3 q5 1 15 1 q40 0 94 -9.5 q54 -9.5 52 -20.5 q-1 -8 -16 -11 q-15 -3 -16 -4 q-5 -6 -17 -39.5 q-12 -33.5 -25 -59.5 l84 0 l0 202 q55 -4 82 -7 q82 -10 82 -24 q0 -8 -19.5 -17.5 q-19.5 -9.5 -19.5 -12.5 l0 -141 l38 0 q6 0 45 40 q19 20 32 20 q9 0 15 -6 q25 -24 37 -37 q22 -24 22 -36 q0 -16 -31 -16 l-158 0 l0 -182 l91 0 q6 0 53 43 q23 21 36 21 q7 0 11 -4 q27 -23 41 -38 q25 -27 25 -40 q0 -14 -26 -14 l-148 0 q-3 -4 -16 -16 q-13 -12 -13 -16 l0 -281 q0 -9 1 -14 q2 -8 6 -15 q2 -3 17.5 -5 q15.5 -2 32.5 -2 q52 0 62 5 q15 8 39 67.5 q24 59.5 27 58.5 q4 -1 -3.5 -49 q-7.5 -48 -7.5 -60 q0 -12 3 -18 q16 -15 25.5 -29 q9.5 -14 9.5 -30 q0 -11 -5 -24.5 q-5 -13.5 -20 -23.5 q-21 -14 -39 -14 l-143 0 q-54 0 -82 23 q-31 26 -31 81 l0 362 l-48 0 q0 -8 -9 -13 q-9 -5 -18 -10 q1 -11 1 -24 q0 -58 -8 -108 q-12 -77 -41 -133 q-38 -74 -138 -139 q-89 -58 -124 -52 q14 17 28 33 q56 48 88 91 q55 72 64.5 142 q9.5 70 10 135.5 q0.5 65.5 0.5 77.5 l-118 0 l-27 32 l268 0 l0 182 Z" /><glyph glyph-name="uni4ED9" unicode="&#x4ed9;" d="M142 383 q-38 -47 -70 -76 q-32 -29 -45 -31 q9 26 18 53 q84 168 116 287 q12 46 26 114.5 q14 68.5 14 82.5 q40 -11 80 -22 q81 -32 81 -45 q0 -10 -9 -15 q-12 -4 -24 -8 q-22 -52 -40 -95 q-18 -43 -41 -85 q18 0 22 -8 q5 -12 -8 -26 q-13 -14 -13 -16 l0 -572 q0 -22 -20.5 -38.5 q-20.5 -16.5 -44.5 -16.5 q-35 0 -42 35 l0 482 ZM797 13 l0 569 q0 4 26 4 q40 0 79.5 -5.5 q39.5 -5.5 50.5 -16.5 q7 -7 -7.5 -17 q-14.5 -10 -30.5 -21 l0 -565 q0 -20 -22.5 -34 q-22.5 -14 -49.5 -14 q-39 0 -46 30 l0 35 l-336 0 q-5 -11 -25 -30 q-20 -19 -26 -18 q-9 2 -44 31 q-38 32 -39 46 q0 6 12.5 22.5 q12.5 16.5 12.5 20.5 l0 529 q0 3 12 3 q29 0 74.5 -11 q45.5 -11 63.5 -25 q4 -3 4 -7 q0 -6 -22 -17 q-22 -11 -22 -16 l0 -493 l105 0 l0 758 q54 -3 80 -5 q80 -8 80 -24 q0 -10 -17 -17 q-17 -7 -17 -18 l0 -694 l104 0 Z" /><glyph glyph-name="uni884C" unicode="&#x884c;" d="M175 293 q-46 -35 -91.5 -58.5 q-45.5 -23.5 -56.5 -18.5 q-5 3 -5 6 q31 35 73 83 q49 56 86 121 q29 51 48 90 q14 29 20 51 q40 -7 80 -13 q84 -24 81 -42 q-1 -7 -13 -10.5 q-12 -3.5 -22 -6.5 q-15 -11 -79 -87 q19 -4 19 -12 q0 -6 -12 -18 q-12 -12 -12 -15 l0 -445 q-3 -19 -24.5 -31.5 q-21.5 -12.5 -44.5 -12.5 q-18 0 -31.5 7.5 q-13.5 7.5 -15.5 21.5 l0 390 ZM379 724 q-1 -6 -16 -10 q-15 -4 -16 -4 q-13 -8 -95 -90 q-47 -47 -115 -83 q-68 -36 -86 -29 q-7 3 -7 6 q18 19 48 52 q36 39 70 89 q34 50 57 100 q2 3 17 42 q36 -13 73 -25 q73 -35 70 -48 ZM664 450 l-256 0 l-28 33 l433 0 q9 0 41 33 q32 33 47 33 q7 0 11 -4 q28 -24 41 -38 q25 -27 25 -42 q0 -15 -26 -15 l-150 0 q-4 -7 -16 -17 q-3 -3 -11 -9 l0 -459 q0 -29 -37 -59.5 q-37 -30.5 -81 -30.5 q-9 0 -16.5 1 q-7.5 1 -9 24 q-1.5 23 -7.5 34 q-9 15 -36 28 q-60 29 -62 32 q-1 3 1 4 q3 1 10 1 q46 -6 72 -8.5 q26 -2.5 35 -0.5 q15 3 17.5 11.5 q2.5 8.5 2.5 32.5 l0 416 ZM896 692 l-429 0 l-28 33 l342 0 q7 0 44 38 q18 19 30 19 q9 0 15 -6 q31 -30 36 -35 q20 -22 20 -34 q0 -15 -30 -15 Z" /><glyph glyph-name="uni8BB8" unicode="&#x8bb8;" d="M260 697 q15 -30 15 -56 q0 -24 -14.5 -37.5 q-14.5 -13.5 -35.5 -13.5 q-24 0 -41.5 16 q-17.5 16 -17.5 45 q0 36 -27 67 q-17 19 -34 38 q-1 3 2 4 q4 2 11 2 q32 0 80 -18.5 q48 -18.5 62 -46.5 ZM547 622 l240 0 q11 0 36 25 q25 25 42 25 q14 0 30 -13 q22 -19 33.5 -32 q11.5 -13 11.5 -22 q0 -15 -40 -15 l-134 0 q-1 -8 -12 -20 q-11 -12 -11 -16 l0 -231 l69 0 q10 0 44 32 q34 32 51 32 q7 0 12 -4 q27 -21 44 -38 q27 -27 27 -40 q0 -14 -28 -14 l-219 0 l0 -372 q-3 -21 -22.5 -33.5 q-19.5 -12.5 -44.5 -12.5 q-19 0 -33 8.5 q-14 8.5 -16 26.5 l0 383 l-236 0 l-29 32 l265 0 l0 265 l2 2 l-98 0 q-49 -93 -94 -143 q-37 -42 -57 -42 q3 17 6 34 q59 118 71 243 q2 28 3.5 52.5 q1.5 24.5 1.5 39.5 q0 13 0 15 q-1 3 3 4 q6 2 15 2 q37 0 90.5 -12.5 q53.5 -12.5 53.5 -24.5 q0 -9 -15 -11.5 q-15 -2.5 -16 -4.5 q-4 -6 -18 -47.5 q-14 -41.5 -28 -72.5 ZM39 434 l-23 30 l120 13 q18 13 27 19 q30 20 41 20 q19 0 63 -47 q23 -25 21 -32 q-4 -12 -19.5 -21.5 q-15.5 -9.5 -15.5 -10.5 l1 -307 l144 56 l-161 -164 q-2 -1 -8 -22 q-6 -21 -12 -21 q-10 -1 -47 37 q-37 38 -31 50 q5 11 7.5 31 q2.5 20 8.5 23 l0 357 l-116 -11 Z" /><glyph glyph-name="uni9009" unicode="&#x9009;" d="M265 642 q15 -30 15 -56 q0 -25 -14.5 -38.5 q-14.5 -13.5 -36.5 -13.5 q-24 0 -40 15 q-19 18 -19 47 q0 36 -27 67 q-17 19 -34 39 q-1 3 2 4 q4 2 11 2 q32 0 76 -17 q53 -21 67 -49 ZM580 603 l-117 0 q-31 -42 -64 -77 q-37 -39 -73 -61 q9 27 18 54 q42 86 54 130 q4 14 16 82 q3 16 6 32 q33 -6 66 -12 q67 -26 64 -42 q-2 -9 -13 -10 q-11 -1 -17 -11 l-34 -53 l94 0 l0 170 q34 -3 68 -5 q69 -10 72 -24 q1 -6 -23 -20 q-4 -2 -12 -7 l0 -114 l64 0 q9 0 31 27 q22 27 35 27 q7 0 13 -6 q26 -26 32 -33 q18 -21 18 -33 q0 -14 -27 -14 l-166 0 l0 -148 l103 0 q11 0 45 35 q34 35 50 35 q5 0 12 -5 q29 -25 43 -40 q27 -29 27 -43 q0 -14 -26 -14 l-141 0 q7 -13 -19 -29 q-4 -2 -14 -7 l0 -180 q0 -34 39 -34 l59 0 q8 0 17 1 q9 1 15 12 q2 3 22 57 q11 19 22 38 q3 -1 3 -20 q0 -9 -1 -31 q-1 -22 -1 -30 q0 -11 1 -14 q12 -14 20 -27.5 q8 -13.5 8 -27.5 q0 -3 -2 -13 q-7 -29 -36 -43 q-9 -4 -28 -9 l-153 0 q-47 0 -66.5 21.5 q-19.5 21.5 -19.5 70.5 l0 265 l-52 0 q5 -3 7 -6 q2 -3 2 -5 q0 -6 -14 -13 q-8 -4 -16 -8 q-11 -66 -26.5 -125.5 q-15.5 -59.5 -38.5 -98.5 q-33 -53 -96 -96 q-54 -37 -91 -43 q19 -13 47 -23 q28 -10 64.5 -13.5 q36.5 -3.5 92.5 -3.5 q79 0 186.5 5.5 q107.5 5.5 222.5 11.5 q10 0 12 -1 q5 -3 5 -10 q0 -8 -4.5 -19.5 q-4.5 -11.5 -11 -22.5 q-6.5 -11 -8.5 -19 q-2 -8 -2 -15 q0 -4 1 -12.5 q1 -8.5 1 -12.5 q0 -9 -6 -13 q-2 -1 -78.5 -3 q-76.5 -2 -165.5 -2 q-82 0 -142 2 q-60 2 -100 8.5 q-40 6.5 -83.5 34 q-43.5 27.5 -67 61.5 q-23.5 34 -39.5 67 q-21 42 -20 43 l-126 -175 q1 -3 1 -5 q1 -6 1 -13 q0 -18 -10 -23 q-10 -5 -37 32 q-25 44 -49 87 l151 97 l0 209 l-117 0 l-28 33 l131 0 q11 16 29 29.5 q18 13.5 35 15.5 q16 0 55 -42.5 q39 -42.5 34 -57.5 q-1 -6 -14.5 -14.5 q-13.5 -8.5 -26.5 -9.5 l0 -144 q6 -15 11 -23 q15 -26 39 -46 q42 36 84 73 q39 56 60 145 q6 32 8.5 81 q2.5 49 2.5 83 l-169 0 l-28 32 l300 0 l0 148 Z" /><glyph glyph-name="uni9875" unicode="&#x9875;" d="M614 480 q-2 -13 -11 -21 q-12 -8 -23 -15 q-5 -103 -17.5 -193 q-12.5 -90 -34.5 -133 q-40 -78 -129 -139 q-69 -48 -161 -79 q-76 -26 -115 -26 q-6 0 -12 2 q1 0 78 39 q102 52 166 124 q93 104 93 238 q0 73 0.5 121 q0.5 48 2.5 98 q2 1 5 3 q6 1 16 1 q37 0 88 -7 q27 -7 54 -13 ZM870 -119 q-13 -13 -31 -13 q-27 0 -66 44 q-33 37 -65 73 q-28 23 -101 58.5 q-73 35.5 -81 43.5 q-2 3 1 4 q7 3 30 3 q53 0 131.5 -15.5 q78.5 -15.5 134.5 -45.5 q73 -38 73 -97 q0 -32 -26 -55 ZM421 718 l-341 0 l-28 32 l713 0 q8 0 58 50 q24 24 38 24 q6 0 11 -4 q24 -19 45 -41 q29 -31 29 -47 q0 -14 -25 -14 l-342 0 q-4 -6 -21 -11 q-9 -2 -10 -5 q-3 -2 -12.5 -18 q-9.5 -16 -20 -33 q-10.5 -17 -24.5 -31 q-14 -14 -32 -27 l217 0 q12 8 42.5 20.5 q30.5 12.5 36.5 11.5 q16 -4 44 -23 q21 -15 31 -22 q18 -12 18 -23 q0 -10 -17 -19 q-9 -5 -17 -9 l0 -396 q0 -10 -21.5 -23.5 q-21.5 -13.5 -51.5 -13.5 q-21 0 -36.5 6.5 q-15.5 6.5 -15.5 20.5 l0 432 l-4 6 l-353 0 l0 -441 q0 -6 -7 -15 q-20 -27 -70 -27 q-16 0 -33 8 q-17 8 -17 21 l0 516 q10 -1 30.5 -4.5 q20.5 -3.5 40 -8.5 q19.5 -5 49.5 -17 l91 0 q5 14 9 33.5 q4 19.5 4 36.5 q0 13 -2.5 28 q-2.5 15 -5.5 27 Z" /><glyph glyph-name="uni4E00" unicode="&#x4e00;" d="M926 352 l-864 0 l-28 36 l732 0 q12 0 46 41 q34 41 51 41 q7 0 12 -4 q25 -22 46 -46 q30 -35 30 -52 q0 -16 -25 -16 Z" /><glyph glyph-name="uni58F9" unicode="&#x58f9;" d="M635 289 q10 11 27.5 21 q17.5 10 29.5 8 q13 -2 44.5 -26 q31.5 -24 31.5 -37 q0 -9 -11 -21 q-11 -12 -11 -13 l0 -87 q-6 -12 -11 -18 q-18 -19 -48 -19 q-25 0 -39 14 l-289 0 q-1 -3 -5 -7 q-2 -2 -8 -6 q34 -15 58 -37 q30 -28 36 -60 q1 -6 1 -16 q0 -23 -11 -39 l133 0 q11 22 20 47 q9 25 13 43.5 q4 18.5 10 53.5 q0 5 2 13 q29 -5 58 -10 q61 -18 58 -29 q-2 -11 -15 -11 q-13 0 -14 -2 q-11 -13 -17 -20 q-25 -30 -35 -40 l-44 -45 l172 0 q8 0 57 51 q24 25 37 25 q7 0 12 -4 q25 -19 45 -42 q28 -31 28 -48 q0 -15 -24 -15 l-841 0 l-27 33 l287 0 q-8 14 -8 36 q0 5 2 19 q3 18 -15.5 51 q-18.5 33 -19.5 36 l-9 0 q-21 0 -31 7.5 q-10 7.5 -10 16.5 l0 200 l57 -12 l29 -11 l295 0 ZM641 143 l0 105 l-3 9 l-277 0 l0 -114 l280 0 ZM444 674 l-326 0 l-28 32 l354 0 l0 111 q58 -5 86 -9 q37 -13 74 -25 q-7 -8 -34 -25 q-12 -7 -12 -9 l0 -43 l189 0 q12 0 46 37 q34 37 51 37 q7 0 12 -4 q26 -20 46 -41 q30 -31 30 -47 q0 -14 -25 -14 l-349 0 l0 -88 l112 0 q9 0 42 32 q33 32 49 32 q7 0 11 -4 q37 -30 52.5 -48.5 q15.5 -18.5 15.5 -29.5 q0 -14 -27 -14 l-612 0 l-28 32 l271 0 l0 88 ZM822 494 l-1 9 q12 13 19 19 q23 20 39 20 q17 0 65 -36 q48 -36 44 -48 q-3 -10 -24 -15 q-21 -5 -43 -10 q-28 -32 -82 -67 q-54 -35 -61 -29 q-3 2 6 25 q-6 -3 -18 -3 l-534 0 l-27 33 l424 0 q9 0 40.5 32.5 q31.5 32.5 46.5 32.5 q7 0 11 -4 q28 -24 45 -45 q17 -21 19 -31 q11 25 22 52 q8 20 10 31 l-644 0 q0 -28 -2.5 -48.5 q-2.5 -20.5 -9.5 -36.5 q-15 -31 -34 -46 q-19 -15 -39 -15 q-24 0 -41.5 18.5 q-17.5 18.5 -17.5 41.5 q0 32 36 49.5 q36 17.5 55 57.5 q14 38 29 77 q6 0 12 -17.5 q6 -17.5 9 -46.5 l646 0 Z" /><glyph glyph-name="uni5DF2" unicode="&#x5df2;" d="M683 741 q14 9 34 19 q27 13 37 13 q23 0 65 -31 q26 -19 30 -34 q1 -4 -15.5 -15.5 q-16.5 -11.5 -16.5 -15.5 l0 -316 q0 -11 -19 -24.5 q-19 -13.5 -47 -13.5 q-26 0 -41 9.5 q-15 9.5 -15 20.5 l0 32 l-451 0 l0 -298 q0 -9 3 -19 q3 -10 12.5 -17 q9.5 -7 24 -9 q14.5 -2 21.5 0 l443 0 q19 0 24 1 q6 1 27.5 11 q21.5 10 41.5 65 q20 55 40 110 q5 -1 5 -21 q0 -17 -5.5 -66.5 q-5.5 -49.5 -5.5 -57.5 q0 -9 2 -13 q19 -11 34 -28 q15 -17 15 -41 q0 -12 -2 -19 q-7 -30 -41 -50 q-26 -15 -41 -15 l-612 0 q-20 1 -31 2 q-33 5 -49.5 21 q-16.5 16 -22.5 41.5 q-6 25.5 -6 44.5 l0 554 q0 5 15 5 q29 0 83.5 -15 q54.5 -15 59.5 -24 q4 -7 -7 -17 q-28 -26 -28 -30 l0 -80 l451 0 l0 280 l-3 5 l-565 0 l-27 36 l583 0 Z" /><glyph glyph-name="uni5370" unicode="&#x5370;" d="M175 678 q46 15 60 21 q39 16 67 35 q101 71 110 71 q12 0 52 -54 q14 -32 28 -63 q-6 -3 -12 -3 q-8 0 -19 6 q-11 6 -14 5 q-8 0 -24 -5 q-29 -9 -58 -18 q-41 -10 -77.5 -15.5 q-36.5 -5.5 -72.5 -5.5 l0 -206 l122 0 q8 0 42 35 q17 17 30 17 q8 0 13 -2 q7 -3 15 -11 q18 -17 30 -32 q12 -15 12 -25 q0 -16 -37 -16 l-227 0 l0 -258 l262 60 l-241 -171 q-3 -2 -14 -25.5 q-11 -23.5 -21 -23.5 q-15 -2 -63.5 43.5 q-48.5 45.5 -41.5 57.5 q11 18 11 78 l0 531 q6 -1 23.5 -7 q17.5 -6 31.5 -13 l13 -6 ZM809 669 l-161 0 l0 -750 q0 -22 -21.5 -37 q-21.5 -15 -52.5 -15 q-15 0 -29 9 q-14 9 -14 25 l0 829 q11 -1 35 -8 q16 -4 29 -9 l31 -12 l183 0 q17 10 36 19 q19 9 28 9 q17 0 55.5 -29.5 q38.5 -29.5 41.5 -42.5 q1 -6 -11 -14 q-29 -20 -29 -21 l0 -487 q0 -10 -0.5 -20 q-0.5 -10 -3.5 -24 q-7 -30 -55.5 -53 q-48.5 -23 -73.5 -19 q-19 4 -21.5 25 q-2.5 21 -6.5 28 q-8 14 -39.5 28.5 q-31.5 14.5 -63.5 29.5 q-1 3 2 4 q3 1 12 1 q17 0 37 -2 q68 -7 70 -7 q10 0 16 2 q12 5 12 15 q-1 8 -1 12 l0 506 l-5 8 Z" /><glyph glyph-name="uni7389" unicode="&#x7389;" d="M814 200 q18 -39 18 -70 q0 -31 -17 -48 q-17 -17 -42 -17 q-27 0 -48 21 q-21 21 -21 57 q0 44 -32 84 q-20 24 -40 49 q-2 4 2 6 q4 2 13 2 q37 0 89 -22 q62 -26 78 -62 ZM437 674 l-311 0 l-28 35 l652 0 q11 0 46.5 40.5 q35.5 40.5 51.5 40.5 q7 0 12 -4 q23 -19 46 -45 q30 -34 30 -51 q0 -16 -25 -16 l-308 0 l-38 -37 l0 -244 l131 0 q12 0 46 39 q34 39 51 39 q7 0 12 -4 q21 -16 46 -44 q30 -33 30 -49 q0 -15 -25 -15 l-291 0 l0 -397 l213 0 q12 0 46.5 40.5 q34.5 40.5 50.5 40.5 q7 0 12 -4 q23 -19 46 -45 q30 -34 30 -51 q0 -16 -25 -16 l-865 0 l-28 35 l392 0 l0 397 l-313 0 l-28 34 l341 0 l0 281 Z" /><glyph glyph-name="uni8A89" unicode="&#x8a89;" d="M697 136 l-405 0 l-28 32 l320 0 q9 0 33 28 q24 28 39 28 q7 0 15 -6 q28 -25 36 -34 q20 -21 20 -33 q0 -15 -30 -15 ZM661 83 q8 11 27 23 q23 15 35 12 q13 -2 46.5 -28.5 q33.5 -26.5 33.5 -39.5 q0 -10 -11 -23 q-6 -7 -12 -14 l0 -95 q-6 -14 -12 -20 q-18 -20 -49 -20 q-20 0 -34 10 q-14 10 -14 22 l0 8 l-330 0 q0 -17 -23 -30 q-23 -13 -56 -13 q-16 0 -26.5 10.5 q-10.5 10.5 -10.5 22.5 l0 209 q11 0 31 -3 q20 -3 37 -10 q9 -4 15.5 -7 q6.5 -3 24.5 -14 l328 0 ZM671 -51 l0 94 l-3 9 l-327 0 l0 -103 l330 0 ZM698 233 l-405 0 l-28 32 l320 0 q9 0 33 28 q24 28 39 28 q7 0 15 -6 q28 -25 36 -34 q20 -21 20 -33 q0 -15 -30 -15 ZM317 681 q23 -28 23 -63 q0 -39 -35 -49 q-12 -4 -24 -4 q-20 0 -33.5 14.5 q-13.5 14.5 -20 43 q-6.5 28.5 -36.5 64.5 q-31 31 -61 63 q-1 3 4 4 q6 1 9 1 q34 0 91.5 -21.5 q57.5 -21.5 82.5 -52.5 ZM664 518 q32 -40 68 -66 q31 -23 75 -47 q34 -18 78 -29 q44 -11 88 -20 q7 -3 7 -11 q0 -12 -16.5 -32 q-16.5 -20 -27.5 -29 q-5 -4 -9 -31 q-4 -27 -15 -34 q-15 -9 -61 22 q-46 31 -78 66 l-16 18 l-517 0 q-68 -47 -132 -77 q-57 -27 -66 -19 q36 34 73 68 q54 46 92 97 q23 32 41 71 q16 41 21 53 l-180 0 l-28 30 l732 0 q12 0 46.5 34.5 q34.5 34.5 51.5 34.5 q3 0 11 -4 q24 -17 46 -38 q30 -29 30 -44 q0 -13 -25 -13 l-289 0 ZM693 404 q-20 30 -33 54 q-17 31 -27 60 l-157 0 q34 -7 64 -21.5 q30 -14.5 40 -34.5 q15 -27 15 -51 q0 -22 -14.5 -34.5 q-14.5 -12.5 -33.5 -12.5 q-23 0 -40 15 q-17 15 -17 41 q0 29 -23 56 q-17 17 -34 35 l-12 -4 q-43 -50 -79 -91.5 q-36 -41.5 -55 -56.5 l-3 -2 l350 0 q9 0 25.5 15.5 q16.5 15.5 33.5 31.5 ZM579 700 q1 -6 1 -18 q0 -31 -17.5 -48.5 q-17.5 -17.5 -41.5 -17.5 q-22 0 -37 16 q-15 16 -15 48 q0 6 2 20 q2 16 -11 42 q-33 63 -33 67 q0 5 8 5 q31 0 78 -30 q58 -37 66 -84 ZM905 729 q-4 -6 -11 -9 q-6 -2 -16 -2 q-5 0 -10 0 q-1 0 -2 1 l-66 -58 q-28 -22 -55 -44 q-40 -29 -54 -23 q7 16 14 33 q34 46 51 92 l30 77 q30 -13 61 -26 q29 -21 58 -41 Z" /><glyph glyph-name="uni9884" unicode="&#x9884;" d="M722 78 q2 1 10 1 q26 0 75 -12.5 q49 -12.5 81 -28.5 q44 -24 66 -55 q19 -27 19 -55 q0 -23 -11 -39.5 q-11 -16.5 -24.5 -20.5 q-13.5 -4 -21.5 -4 q-27 0 -46 33 q-9 15 -19 39 q-15 37 -52 72 q-40 32 -80 65 q-50 -76 -160 -146 q-98 -63 -127 -57 q20 19 41 37 q66 50 109 105 q66 84 75 177 q5 51 6.5 111.5 q1.5 60.5 1.5 87.5 q0 10 0 14 q0 8 0 11 q0 17 0 27 q0 10 -1 14 q10 1 21 2 q32 0 76.5 -4 q44.5 -4 44.5 -9 q-1 -13 -18.5 -18.5 q-17.5 -5.5 -17.5 -10.5 q0 -8 0 -21 q0 -13 1 -30 q0 -76 -5 -128 q-8 -80 -28 -127 l-16 -30 ZM322 748 q12 15 29.5 22.5 q17.5 7.5 31.5 7.5 q11 0 49 -38 q38 -38 32 -50 q-8 -14 -32 -18 q-8 -1 -23 -1 q-26 -29 -56 -51 q-24 -18 -55 -36 l2 -3 q23 -30 23 -68 q0 -11 -3 -20 l43 0 q8 14 18 26 q16 19 28 19 q14 0 54 -45 q40 -45 36 -59 q-3 -14 -28.5 -21 q-25.5 -7 -26.5 -10 q-24 -41 -68 -84 q-44 -43 -51 -35 q-2 2 24 95 q14 51 14 75 l0 7 l-42 0 q-5 -11 -20 -23 q-2 -2 -8 -5 l0 -467 q0 -30 -36.5 -60.5 q-36.5 -30.5 -83.5 -30.5 q-9 0 -16 1 q-7 1 -8.5 24 q-1.5 23 -7.5 35 q-9 15 -37 28 q-61 29 -63 33 q-1 3 2 4 q3 1 10 1 q46 -6 72 -8.5 q26 -2.5 35 -0.5 q11 2 15.5 9.5 q4.5 7.5 4.5 35.5 l0 424 l-134 0 l-27 32 l202 0 l-7 22 q-7 34 -36 72 q-30 33 -60 67 q-1 3 2 4 q4 2 10 2 q22 0 60.5 -13 q38.5 -13 70.5 -33 q23 36 46 73 q13 22 14 29 l-253 0 l-27 32 l281 0 ZM656 712 l-167 0 l-32 34 l349 0 q8 0 49 41 q20 20 34 20 q9 0 16 -7 q31 -26 41 -36 q23 -23 23 -36 q0 -16 -34 -16 l-176 0 q7 -4 10 -7 q1 -2 2 -3 q-2 -11 -18 -15 q-2 0 -9 -1 q-7 -15 -12.5 -24.5 q-5.5 -9.5 -15.5 -23 q-10 -13.5 -21.5 -27.5 q-11.5 -14 -25.5 -28 l121 0 q9 10 37.5 26 q28.5 16 34.5 14 q12 -3 30.5 -15 q18.5 -12 39.5 -28 q17 -13 17 -23 q0 -8 -14.5 -17 q-14.5 -9 -14.5 -13 l0 -417 q0 -14 -18 -26.5 q-18 -12.5 -46 -12.5 q-21 0 -35.5 6.5 q-14.5 6.5 -14.5 20.5 l0 448 l-3 5 l-182 0 l0 -443 q0 -16 -19.5 -29.5 q-19.5 -13.5 -46.5 -13.5 q-15 0 -29.5 8 q-14.5 8 -14.5 21 l0 518 q10 -1 27 -4.5 q17 -3.5 33.5 -8.5 q16.5 -5 19.5 -6 q14 -7 22 -10 l28 0 q8 27 12 50.5 q4 23.5 4 38.5 l-1 40 Z" /><glyph glyph-name="uni5143" unicode="&#x5143;" d="M497 384 q0 -14 -15 -20.5 q-15 -6.5 -17 -11.5 q-9 -45 -22.5 -95.5 q-13.5 -50.5 -36.5 -106.5 q-39 -91 -127 -164 q-70 -58 -155 -93 q-73 -30 -93 -22 q20 16 41 32 q69 44 119 103 q76 90 107 215 q10 42 16 95 q6 53 6 92 q-1 3 6.5 5 q7.5 2 20.5 2 q41 0 95.5 -10.5 q54.5 -10.5 54.5 -20.5 ZM516 424 l-437 0 l-28 32 l720 0 q8 0 58 50 q24 24 38 24 q6 0 11 -4 q27 -22 46 -41 q29 -31 29 -47 q0 -14 -25 -14 l-258 0 q-4 -8 -15 -16.5 q-11 -8.5 -11 -10.5 l0 -323 q0 -9 1.5 -20 q1.5 -11 9 -18.5 q7.5 -7.5 19.5 -8.5 q12 -1 23 -1 l131 0 q7 2 10 4 q11 6 18 16 q26 71 41 112 q15 41 22 39 q6 -1 6 -23 q0 -14 -9 -92 q-4 -32 -2 -36 q14 -7 20 -13 q21 -19 21 -44 q0 -6 -1 -10 q-6 -41 -45 -62 q-13 -6 -38 -13 l-254 0 q-18 0 -28 1 q-32 4 -49 19 q-10 9 -17 29.5 q-7 20.5 -7 37.5 l0 433 ZM801 680 l-631 0 l-28 32 l508 0 q11 0 45 35 q34 35 50 35 q5 0 12 -5 q29 -25 43 -40 q27 -29 27 -43 q0 -14 -26 -14 Z" /><glyph glyph-name="uni613F" unicode="&#x613f;" d="M211 -29 q-16 -35 -37 -50.5 q-21 -15.5 -43 -15.5 q-26 0 -46 20 q-20 20 -20 45 q0 34 38 52 q53 24 72 85 q19 61 23 61 q10 0 18.5 -37 q8.5 -37 8.5 -80 q0 -51 -14 -80 ZM768 -64 q-10 -24 -48 -36 q-12 -4 -37 -8 l-284 0 q-20 1 -31 3 q-34 7 -48.5 24.5 q-14.5 17.5 -20.5 42 q-6 24.5 -6 45.5 l0 171 q46 -3 69 -5 q70 -7 70 -20 q0 -10 -21 -25 q-11 -8 -11 -17 l0 -73 q0 -23 13 -32 q7 -5 17.5 -5.5 q10.5 -0.5 21.5 -0.5 l196 0 q14 3 21 5 q22 7 29 17 q11 15 28 57 q13 33 19 31 q8 -1 8 -22 q0 -10 -4 -38 q-4 -28 -2 -35 q0 -10 18 -28 q10 -10 10 -21 q0 -12 -7 -30 ZM954 62 q16 -41 16 -71 q0 -30 -15.5 -47 q-15.5 -17 -36.5 -17 q-25 0 -43 20 q-18 20 -18 58 q0 37 -17 67 q-24 32 -47 65 q-2 4 2 6 q3 2 12 2 q32 0 78 -22 q55 -26 69 -61 ZM443 390 q-7 -22 -37 -33 q22 -15 53 -46.5 q31 -31.5 26 -37.5 q-5 -6 -11 -6 q8 0 26 -3 q18 -3 25 -3 q4 0 14 3 q10 3 10 26 q0 10 0 15 l0 85 l-106 0 ZM878 290 q24 -26 24 -60 q0 -38 -36 -48 q-12 -3 -23 -3 q-21 0 -35.5 13.5 q-14.5 13.5 -21.5 41.5 q-7 28 -37 62 q-32 30 -63 60 q-1 3 4 5 q6 0 9 0 q36 0 95 -20.5 q59 -20.5 84 -50.5 ZM737 626 q14 9 28 17 q23 12 35 12 q13 0 50 -23 q37 -23 39 -32 q1 -5 -13 -18 q-4 -4 -15 -13 l0 -166 q0 -4 -10 -13 q-26 -23 -56 -23 q-17 0 -28.5 7.5 q-11.5 7.5 -16.5 15.5 l-78 0 q-12 -9 -24 -18 l0 -118 q0 -34 -31 -60 q-23 -19 -54 -27 q34 -15 44 -42 q7 -17 7 -32 q0 -23 -15 -36 q-15 -13 -35 -13 q-19 0 -32.5 10.5 q-13.5 10.5 -17.5 36.5 q-4 26 -22 49.5 q-18 23.5 -35 44.5 q2 2 17 2 q19 0 48 -6 q1 19 1 31 q0 17 -34 28.5 q-34 11.5 -35 17.5 q-1 11 18 9 q-9 3 -13 4 q-7 3 -10 1 q-14 -11 -36 -24.5 q-22 -13.5 -44 -24.5 q-32 -15 -68 -26.5 q-36 -11.5 -53 -11.5 q-8 0 -11 1 q6 9 12 18 q46 30 88 83 q23 28 33 41.5 q10 13.5 16 24.5 l-11 -1 q-13 0 -27 7.5 q-14 7.5 -14 18.5 l0 284 q15 -1 29 -4 q14 -3 28 -9 l53 -22 l48 -1 q6 11 10.5 24.5 q4.5 13.5 4.5 26.5 l-1 27 l-265 0 l0 -198 q0 -39 -3 -63 q-9 -73 -38 -129 q-50 -94 -109 -145 q-43 -37 -63 -37 q14 10 45 69 q36 68 47 169 q3 31 4.5 68 q1.5 37 1.5 76 q0 14 0 24.5 q0 10.5 0 17.5 l0 217 q18 -3 27.5 -6 q9.5 -3 35.5 -13 l41 -18 l557 0 q7 0 57 50 q24 24 38 24 q6 0 11 -4 q26 -20 45 -41 q28 -30 28 -47 q0 -14 -24 -14 l-293 0 q6 -2 10 -4 q1 -1 2 -2 q-2 -6 -13 -8 q-11 -2 -23 -3 q-6 -7 -10 -11 q-13 -13 -26 -22 l-44 -28 l192 0 ZM748 528 l0 62 l-2 4 l-302 0 l0 -66 l304 0 ZM748 422 l0 74 l-304 0 l0 -74 l304 0 Z" /><glyph glyph-name="uni6708" unicode="&#x6708;" d="M694 722 l-336 0 l0 -209 l199 0 q10 0 31 25 q21 25 36 25 q13 0 26 -13 q19 -18 29 -31 q10 -13 10 -23 q0 -15 -34 -15 l-297 0 l0 -115 q0 -8 0 -13 q0 -27 0 -53 q-3 -20 -4 -29 l198 0 q10 0 32 25 q22 25 38 25 q12 0 26 -13 q20 -19 30 -31.5 q10 -12.5 10 -22.5 q0 -15 -35 -15 l-302 0 q-10 -84 -39 -157 q-35 -87 -114 -154 q-67 -57 -121 -69 q25 21 67 83 q49 71 67 156 q13 65 19.5 133 q6.5 68 6.5 165 l0 390 q30 -4 63 -14 q13 -3 27 -9 q14 -6 22 -9 l339 0 q14 14 33 28 q27 20 39 20 q14 0 50 -33 q32 -29 41 -43 q6 -10 -17.5 -29.5 q-23.5 -19.5 -23.5 -32.5 l0 -632 q0 -7 0 -16 q0 -9 1 -21 q0 -21 -3 -35 q-16 -54 -50 -80 q-27 -20 -58 -20 q-9 0 -19.5 2 q-10.5 2 -12 25.5 q-1.5 23.5 -6.5 33.5 q-8 15 -70 43 q-28 13 -30 22 q-1 7 13 7 q13 0 33 -3 q54 -8 61 -8 q10 0 13 2 q11 6 13 17 q2 11 2 37 l0 676 l-3 8 Z" /><glyph glyph-name="uni9605" unicode="&#x9605;" d="M450 528 q14 -29 14 -53 q0 -24 -13.5 -36.5 q-13.5 -12.5 -32.5 -12.5 q-22 0 -38 15 q-16 15 -16 43 q0 27 -15 51 q-21 25 -41 50 q-1 2 0 3 q4 3 13 3 q30 0 73 -17.5 q43 -17.5 56 -45.5 ZM310 715 q15 -29 15 -54 q0 -24 -14 -36.5 q-14 -12.5 -35 -12.5 q-22 0 -40 16 q-18 16 -18 43 q0 34 -26 64 q-17 18 -34 37 q-1 2 0 3 q4 3 13 3 q32 0 74 -16 q51 -20 65 -47 ZM597 245 l0 120 l-5 15 l-206 0 l0 -135 l211 0 ZM720 541 q-3 -5 -10 -7.5 q-7 -2.5 -14 -2.5 q-4 0 -8 0 q-1 0 -2 1 q-12 -11 -22 -20 q-20 -18 -36 -31 q-24 -19 -48 -38 q-35 -25 -47 -20 q6 14 12 29 q30 41 45 80 l26 67 q27 -11 54 -22 q25 -18 50 -36 ZM811 725 l-431 0 l-21 32 l463 0 q17 14 31 23 q19 12 29 12 q15 0 52 -32 q28 -24 42 -41 q6 -9 -18.5 -28 q-24.5 -19 -24.5 -32 l0 -611 q0 -7 0 -16 q0 -9 1 -20 q0 -12 0 -23 q-2 -8 -3 -11 q-16 -53 -51 -78 q-27 -19 -59 -19 q-8 0 -19 2 q-11 2 -13.5 25.5 q-2.5 23.5 -6.5 31.5 q-4 8 -14 15 l-15 -3 l-150 0 q-12 -2 -35.5 3.5 q-23.5 5.5 -35.5 20 q-12 14.5 -16.5 37 q-4.5 22.5 -4.5 50.5 l0 148 l-125 0 l0 -7 l-2 -10 q42 0 76.5 -3 q34.5 -3 39.5 -12 q2 -5 -13 -14 q-5 -3 -17 -8 q-9 -29 -26.5 -62 q-17.5 -33 -48.5 -62 q-49 -48 -120 -74 q-52 -19 -89 -19 l0 -8 q0 -14 -20.5 -30 q-20.5 -16 -50.5 -16 q-17 0 -31 7 q-14 7 -14 21 l0 724 q35 -3 70 -5 q72 -10 80 -23 q5 -7 -14.5 -16 q-19.5 -9 -19.5 -15 l0 -630 q52 27 78 47 q59 46 86 110 q5 13 9 28 q4 15 9 43 q-16 -10 -43 -10 q-19 0 -27.5 9 q-8.5 9 -8.5 21 l0 249 q23 -5 51 -16 l29 -16 l221 0 q17 17 31 26 q14 9 21 9 q13 0 46 -27 q33 -27 36 -38 q1 -6 -11 -22 q-4 -5 -14 -15 l0 -120 q-4 -16 -9 -24 q-16 -24 -51 -24 q-24 0 -34 19 q-2 -4 -3 -5 q-1 -1 -1 -2 l0 -109 q0 -21 4 -30 q4 -9 11.5 -10.5 q7.5 -1.5 19.5 -1.5 q6 0 14 -0.5 q8 -0.5 20 -0.5 q22 0 37.5 1 q15.5 1 19.5 5 q9 7 25 35 q30 53 32 52 q4 -1 -2 -29.5 q-6 -28.5 -6 -36.5 q0 -10 3 -16 q1 -1 15.5 -9 q14.5 -8 14.5 -25 q0 -7 -1 -11 q7 6 8.5 18 q1.5 12 1.5 30 l0 654 l-7 18 Z" /><glyph glyph-name="uni6218" unicode="&#x6218;" d="M379 55 l0 276 l-3 5 l-212 0 l0 -281 l215 0 ZM322 573 l106 0 q7 0 41 34 q16 16 30 16 q13 0 27 -13 q19 -17 30 -31 q11 -14 11 -23 q0 -15 -36 -15 l-209 0 l0 -174 l44 0 q11 8 30 18 q25 13 35 13 q13 0 45.5 -21 q32.5 -21 37.5 -39 q0 -2 -14.5 -13 q-14.5 -11 -14.5 -16 l0 -292 q0 -11 -15.5 -23.5 q-15.5 -12.5 -41.5 -12.5 q-17 0 -30 6 q-19 9 -19 22 l0 16 l-215 0 l0 -37 q0 -17 -16 -30.5 q-16 -13.5 -53 -13.5 q-16 0 -28 5 q-20 8 -20 27 l0 429 q9 -1 30.5 -6.5 q21.5 -5.5 32.5 -8.5 q27 -11 54 -21 l55 -2 l0 443 q32 -3 64 -5 q65 -11 66 -23 q2 -10 -12.5 -16.5 q-14.5 -6.5 -14.5 -12.5 l0 -180 ZM593 453 l-97 -15 l-22 28 l115 20 q-19 165 -19 272 q0 32 3 40 q8 1 19.5 2.5 q11.5 1.5 40.5 1.5 q36 0 61 -2.5 q25 -2.5 26 -7.5 q1 -7 -5.5 -14.5 q-6.5 -7.5 -26.5 -18.5 q-1 -4 -1 -28 q0 -78 13 -226 l132 22 q12 1 23 18 q27 42 36 45 q16 6 52.5 -21.5 q36.5 -27.5 36.5 -44.5 q0 -9 -11 -10 l-265 -43 q4 -36 8.5 -73.5 q4.5 -37.5 13.5 -79.5 q12 23 36 76 q6 13 15 32 q35 -10 71 -19 q72 -33 70 -43 q-2 -14 -22.5 -16.5 q-20.5 -2.5 -22.5 -6.5 q-15 -30 -26 -49 q-27 -47 -75 -113 q32 -67 73 -104 q33 -29 43 -22 q9 6 55 95 q12 16 25 32 q6 -3 -16 -88 q-13 -51 -13 -80 q-1 -7 8.5 -37 q9.5 -30 9.5 -46 q0 -16 -4 -23 q-4 -7 -12.5 -13 q-8.5 -6 -22.5 -6 q-44 0 -110 52 q-72 57 -117 139 q-52 -50 -132 -99 q-63 -39 -131 -68 q-31 -8 -61 -17 q-1 10 40 39 q65 46 106 84 q76 70 136 161 q-16 50 -31 126.5 q-15 76.5 -25 148.5 ZM901 699 q12 -24 12 -43 q0 -25 -16 -40 q-16 -15 -37 -15 q-19 0 -32 13 q-13 13 -13 40 q0 37 -27 67 q-18 16 -35 33 q-2 3 2 4 q3 1 15 1 q33 0 69 -13 q46 -17 62 -47 Z" /><glyph glyph-name="uni7AE0" unicode="&#x7ae0;" d="M663 423 q24 15 41 23.5 q17 8.5 25 8.5 q13 0 50 -25.5 q37 -25.5 39 -35.5 q1 -5 -13 -17 q-4 -4 -15 -12 l0 -187 q0 -19 -20 -32 q-20 -13 -44 -13 q-20 0 -34.5 8 q-14.5 8 -14.5 17 l0 21 l-96 0 q-2 -7 -11.5 -20.5 q-9.5 -13.5 -9.5 -18.5 l0 -59 l214 0 q8 0 58 50 q24 24 38 24 q7 0 12 -4 q24 -17 46 -41 q29 -31 29 -46 q0 -15 -25 -15 l-372 0 l0 -128 q0 -19 -16 -35 q-20 -20 -48 -20 q-24 0 -38.5 11 q-14.5 11 -14.5 25 l0 147 l-366 0 l-28 32 l394 0 l0 96 l-123 2 l0 -7 q0 -18 -17.5 -31.5 q-17.5 -13.5 -52.5 -13.5 q-19 0 -32.5 10.5 q-13.5 10.5 -13.5 18.5 l0 297 q9 -1 28 -5 q19 -4 37 -11 q18 -5 20 -6 q8 -3 20 -8 l354 0 ZM677 319 l0 67 l-3 5 l-354 0 l0 -72 l357 0 ZM677 211 l0 76 l-357 0 l0 -76 l357 0 ZM549 765 q7 -18 7 -35 q0 -25 -15.5 -39.5 q-15.5 -14.5 -37.5 -14.5 q-18 0 -32.5 11.5 q-14.5 11.5 -19 40.5 q-4.5 29 -23.5 56 q-18 22 -35 44 q2 3 16 3 q39 0 76 -13 q51 -18 64 -53 ZM725 644 q27 -10 26 -16 q-2 -10 -13 -11 q-11 -1 -19 -1 q-11 -12 -18 -19 q-22 -22 -37.5 -36.5 q-15.5 -14.5 -29 -27 q-13.5 -12.5 -30.5 -24.5 l161 0 q7 0 57 50 q24 24 38 24 q6 0 11 -4 q26 -20 45 -41 q28 -30 28 -47 q0 -14 -24 -14 l-838 0 l-27 32 l269 0 q-10 12 -10 27 q0 10 4 18 q8 20 8 40 q0 15 -3.5 25.5 q-3.5 10.5 -10.5 24.5 l-158 0 l-28 32 l576 0 q11 0 44 35 q33 35 48 35 q5 0 12 -5 q25 -21 42 -40 q27 -29 27 -43 q0 -14 -25 -14 l-125 0 ZM571 509 q16 28 19 35 q12 25 20 53 l10 47 l-264 0 q27 -18 42 -37 q20 -25 20 -52 q0 -18 -2.5 -27.5 q-2.5 -9.5 -10.5 -18.5 l166 0 Z" /><glyph glyph-name="uni503C" unicode="&#x503c;" d="M133 389 q-38 -47 -70 -76 q-32 -29 -45 -31 q9 26 18 53 q84 171 116 287 q12 46 26 114.5 q14 68.5 14 82.5 q40 -11 80 -22 q81 -32 81 -45 q0 -10 -9 -15 q-12 -4 -24 -8 q-22 -52 -40 -95 q-18 -43 -41 -85 q18 0 22 -8 q5 -12 -8 -26 q-13 -14 -13 -16 l0 -572 q0 -16 -16 -34 q-20 -22 -47 -22 q-12 0 -26 9 q-18 12 -18 27 l0 482 ZM764 229 l0 112 l-256 0 l0 -112 l256 0 ZM764 85 l0 112 l-256 0 l0 -112 l256 0 ZM764 -59 l0 112 l-256 0 l0 -112 l256 0 ZM508 485 l0 -112 l256 0 l0 111 l-256 1 ZM549 645 l-162 0 l-28 33 l199 0 l35 127 q32 -5 65 -9 q65 -19 65 -35 q0 -9 -16.5 -15 q-16.5 -6 -17.5 -12 l-15 -56 l120 0 q9 0 41 33 q32 33 48 33 q7 0 11 -4 q28 -24 41 -38 q25 -27 25 -42 q0 -15 -26 -15 l-269 0 l-33 -128 l119 0 q15 13 30 22 q24 15 38 15 q11 0 41.5 -21 q30.5 -21 49.5 -41 q6 -7 -14 -20.5 q-20 -13.5 -20 -20.5 l0 -472 q17 22 20 25 q10 11 19 11 q5 0 9 -4 q21 -21 36 -41 q23 -31 23 -47 q0 -14 -19 -14 l-670 0 l-22 32 l125 0 l0 618 q23 -5 62 -22 q10 -5 19 -9 q9 -4 21 -11 l15 0 l35 128 Z" /><glyph glyph-name="uni7EB8" unicode="&#x7eb8;" d="M401 151 q-16 -25 -106.5 -75 q-90.5 -50 -181.5 -99 q-2 -1 -6.5 -17.5 q-4.5 -16.5 -12.5 -22.5 q-12 27 -24 54 q-13 57 -13 92 q0 14 3 14 q67 6 189 35.5 q122 29.5 141 29.5 q6 0 9 -1 q7 -3 2 -10 ZM103 557 q9 15 18 30 q13 25 26 50 q19 38 40 86 q26 61 36 90 q46 -16 69 -24 q69 -26 69 -37 q-1 -15 -15 -15.5 q-14 -0.5 -21 -0.5 l-74 -83 q-23 -26 -63 -63 q-32 -30 -65 -58 l138 5 l43 78 q30 -13 61 -25 q62 -36 59 -48 q-2 -10 -14.5 -11.5 q-12.5 -1.5 -20.5 -1.5 q-6 -14 -40 -50 q-15 -16 -66 -65 q-32 -31 -74 -62 q-34 -25 -67 -45 l266 25 l-3 -16 l-261 -122 q-3 -1 -8 -16 q-5 -15 -16 -17 q-14 -4 -43 36 q-29 40 -34 72 q-2 11 18.5 23.5 q20.5 12.5 39.5 24.5 q43 51 48 57 q35 42 60 78 l26 40 l-116 -47 q-2 -1 -6 -15 q-4 -14 -14 -14 q-11 0 -34 32.5 q-23 32.5 -23 52.5 q0 11 20 25 q34 24 41 31 ZM669 406 l-110 0 l0 -369 l168 52 q-19 41 -30 88.5 q-11 47.5 -19.5 109 q-8.5 61.5 -8.5 119.5 ZM541 683 q41 12 64 20 q37 13 68 31 q126 74 136 74 q22 0 82 -78 q9 -22 18 -44 q-5 -3 -15 -3 q-10 0 -23.5 6 q-13.5 6 -17.5 5 q-7 1 -34 -6 q-1 -5 -8.5 -12 q-7.5 -7 -23.5 -16 q-5 -25 -9.5 -87.5 q-4.5 -62.5 -4.5 -134.5 l28 0 q9 0 33 28 q24 28 39 28 q7 0 15 -6 q28 -25 36 -34 q20 -21 20 -33 q0 -15 -30 -15 l-140 0 l7 -69 q18 -123 60 -215 q25 -35 50 -69 q10 7 31 45 q39 71 46 67 q3 -2 3 -9 q0 -6 -19 -86 q-10 -42 -10 -64 q-1 -7 8.5 -37 q9.5 -30 9.5 -46 q0 -16 -4 -23 q-4 -7 -11 -12.5 q-7 -5.5 -20 -5.5 q-37 0 -90 49 q-60 56 -100 140 l-175 -144 q-3 -2 -11.5 -25 q-8.5 -23 -16.5 -23 q-16 0 -57 41 q-41 41 -33 57 q3 8 6.5 36 q3.5 28 3.5 41 l0 665 q7 -1 14 -2 q13 -5 46 -19 q7 -3 14 -6.5 q7 -3.5 15 -8.5 ZM667 657 q-22 -3 -55.5 -6 q-33.5 -3 -52.5 -3 l0 -210 l108 0 l0 219 Z" /><glyph glyph-name="uni4E2D" unicode="&#x4e2d;" d="M440 566 l-222 0 l0 -263 l222 0 l0 263 ZM769 598 q7 8 30 24 q29 20 43 20 q14 0 54 -27 q40 -27 42 -36 q1 -4 -21 -20 q-11 -8 -11 -13 l0 -274 q0 -17 -6 -22 q-12 -11 -58 -18 q-4 -1 -13 -1 q-18 0 -31.5 8.5 q-13.5 8.5 -13.5 22.5 l0 9 l-219 0 l0 -345 q0 -14 -17 -30 q-22 -21 -56 -21 q-20 0 -33 8 q-19 12 -19 27 l0 361 l-222 0 l0 -9 q-5 -16 -11 -23 q-21 -23 -66 -23 q-44 0 -44 33 l0 389 q26 -2 67 -16 q16 -5 26 -9 q3 -1 28 -15 l222 0 l0 217 q0 3 19 3 q35 0 83.5 -8.5 q48.5 -8.5 59.5 -19.5 q4 -4 -9 -14 q-13 -10 -28 -21 l0 -157 l204 0 ZM784 303 l0 261 l-219 2 l0 -263 l219 0 Z" /><glyph glyph-name="uni88C5" unicode="&#x88c5;" d="M506 250 l3 2 l-7 0 l4 -2 ZM247 687 q15 -29 15 -54 q0 -24 -14 -36.5 q-14 -12.5 -35 -12.5 q-22 0 -40 16 q-18 16 -18 43 q0 34 -26 64 q-17 18 -34 37 q-1 2 0 3 q4 3 13 3 q32 0 74 -16 q51 -20 65 -47 ZM808 252 q24 -18 51.5 -47 q27.5 -29 23.5 -35 q-4 -5 -12 -5 q-5 0 -14 2.5 q-9 2.5 -11 1.5 q-14 -9 -27 -18 q-28 -17 -57 -32 q-7 -4 -30.5 -13.5 q-23.5 -9.5 -45.5 -16.5 q14 -7 28.5 -14 q14.5 -7 34.5 -15 q56 -21 115 -26.5 q59 -5.5 113 -10.5 q3 -3 -4 -13 q-12 -16 -13 -17 q-8 -15 -9 -59.5 q-1 -44.5 -10 -47.5 q-3 -1 -12 -1 q-42 0 -116 26 q-87 31 -141.5 76 q-54.5 45 -104.5 127 q-41 67 -60 123 q-8 -3 -22.5 -6 q-14.5 -3 -15.5 -4 q-9 -5 -24 -18 q-30 -25 -43 -35 l4 -2 q-1 -6 -1 -12 q-16 -10 -31 -20 l0 -140 l185 56 l-193 -150 q-4 -2 -12.5 -22 q-8.5 -20 -16.5 -20 q-11 -2 -44.5 39.5 q-33.5 41.5 -29.5 47.5 q5 9 6.5 20.5 q1.5 11.5 1.5 35.5 l0 81 q-70 -32 -156 -55 q-70 -18 -83 -16 q10 10 20 21 q120 65 196 135 l23 22 l3 4 q16 17 25.5 29.5 q9.5 12.5 15.5 23.5 l-237 0 l-28 32 l728 0 q12 0 46 37 q34 37 51 37 q7 0 12 -4 q27 -22 46 -41 q29 -31 29 -47 q0 -14 -25 -14 l-129 0 ZM652 110 q16 11 34 28 q23 21 43 47 q24 30 34 43 q5 7 16 24 l-256 0 q25 -41 43 -63 q37 -46 86 -79 ZM645 599 l-158 0 l-28 34 l186 0 l0 165 q31 -3 63 -5 q65 -10 68 -24 q2 -6 -21 -21 q-4 -2 -12 -7 l0 -108 l78 0 q7 0 43 39 q18 19 29 19 q8 0 15 -7 q24 -23 27 -26 q29 -30 29 -44 q0 -15 -30 -15 l-191 0 l0 -160 l53 0 q8 0 31 30 q23 30 37 30 q7 0 13 -6 q25 -25 34 -36 q19 -23 19 -36 q0 -16 -28 -16 l-348 0 q11 -10 17 -23.5 q6 -13.5 6 -28.5 q0 -22 -14.5 -34.5 q-14.5 -12.5 -35.5 -12.5 q-20 0 -33 9.5 q-13 9.5 -16 31 q-3 21.5 -14 38.5 q-11 17 -24 30 l0 -52 q0 -14 -16 -26 q-21 -16 -53 -16 q-17 0 -31 7 q-14 7 -14 19 l0 155 q-31 -20 -99 -57 q-55 -30 -110 -59 q-1 -1 -5 -16 q-4 -15 -12 -20 q-11 24 -22 48 q-12 51 -12 83 q0 16 4 16 q54 0 135 20 q60 16 121 32 l0 250 q35 -3 70 -5 q71 -10 80 -19 q-3 -6 -6 -12 q-15 -8 -30 -16 l0 -307 q30 0 63 -10 l-7 9 l149 0 l0 160 Z" /><glyph glyph-name="uni81EA" unicode="&#x81ea;" d="M702 228 l0 172 l-385 0 l0 -172 l385 0 ZM702 8 l0 186 l-385 0 l0 -186 l385 0 ZM700 609 l-383 0 l0 -175 l385 0 l0 171 l-2 4 ZM387 643 q7 22 15 50 q8 28 8 51 q0 33 -2.5 47.5 q-2.5 14.5 -3.5 23.5 q-1 2 3 3 q4 1 11 1 q35 0 101 -15.5 q66 -15.5 64 -25.5 q-2 -10 -21 -15 q-6 -1 -20 -3 q-7 -11 -11 -18 q-14 -21 -29 -36 q-21 -19 -41 -38 q-16 -14 -31 -25 l252 0 q8 13 41 35 q20 13 28 13 q16 0 63 -35 q47 -35 44 -49 q-1 -8 -11.5 -17 q-10.5 -9 -21.5 -18 l0 -616 q0 -21 -21.5 -40.5 q-21.5 -19.5 -54.5 -19.5 q-22 0 -34.5 13.5 q-12.5 13.5 -12.5 24.5 l0 39 l-385 0 l0 -38 q0 -13 -20 -30 q-25 -21 -59 -21 q-21 0 -35.5 9 q-14.5 9 -14.5 26 l0 762 q29 -3 76 -18 q13 -3 24 -8.5 q11 -5.5 23 -11.5 l76 0 Z" /><glyph glyph-name="uni4F5C" unicode="&#x4f5c;" d="M151 389 q-38 -47 -70 -76 q-32 -29 -45 -31 q9 26 18 53 q84 168 116 287 q12 46 26 114.5 q14 68.5 14 82.5 q40 -11 80 -22 q81 -32 81 -45 q0 -10 -9 -15 q-12 -4 -24 -8 q-22 -52 -40 -95 q-18 -43 -41 -85 q18 0 22 -8 q5 -12 -8 -26 q-13 -14 -13 -16 l0 -572 q0 -16 -16 -34 q-20 -22 -47 -22 q-12 0 -26 9 q-18 12 -18 27 l0 482 ZM548 583 l-17 0 l-14 -22 q-58 -84 -130 -151 q-64 -59 -88 -63 q9 23 18 46 q87 146 120 247 q18 55 32 119 q4 20 10 51 q40 -10 81 -19 q84 -28 84 -39 q0 -10 -12.5 -13.5 q-12.5 -3.5 -21.5 -5.5 q-17 -34 -28.5 -58 q-11.5 -24 -30.5 -58 l275 0 q7 0 42 38 q18 19 29 19 q9 0 15 -6 q26 -25 35 -35 q20 -23 20 -35 q0 -15 -29 -15 l-249 0 q-3 -7 -12 -16.5 q-9 -9.5 -9 -12.5 l0 -136 l113 0 q14 0 36.5 22.5 q22.5 22.5 35.5 22.5 q11 0 20 -8 q22 -18 34 -31.5 q12 -13.5 12 -22.5 q0 -15 -37 -15 l-214 0 l0 -170 l159 0 q8 0 41 33 q16 16 28 16 q11 0 22 -10 q21 -18 33 -32.5 q12 -14.5 12 -23.5 q0 -15 -35 -15 l-260 0 l0 -263 q0 -12 -18 -27 q-23 -19 -56 -19 q-20 0 -33 12 q-13 12 -13 23 l0 673 Z" /></font>
</defs>
</svg>
